%TF.GenerationSoftware,KiCad,Pcbnew,(5.1.9)-1*%
%TF.CreationDate,2022-11-23T19:56:57+01:00*%
%TF.ProjectId,PCDB_project,50434442-5f70-4726-9f6a-6563742e6b69,rev?*%
%TF.SameCoordinates,Original*%
%TF.FileFunction,Copper,L2,Inr*%
%TF.FilePolarity,Positive*%
%FSLAX46Y46*%
G04 Gerber Fmt 4.6, Leading zero omitted, Abs format (unit mm)*
G04 Created by KiCad (PCBNEW (5.1.9)-1) date 2022-11-23 19:56:57*
%MOMM*%
%LPD*%
G01*
G04 APERTURE LIST*
%TA.AperFunction,ComponentPad*%
%ADD10R,1.574800X1.574800*%
%TD*%
%TA.AperFunction,ComponentPad*%
%ADD11C,1.574800*%
%TD*%
%TA.AperFunction,ComponentPad*%
%ADD12C,1.600000*%
%TD*%
%TA.AperFunction,ComponentPad*%
%ADD13C,1.727200*%
%TD*%
%TA.AperFunction,ComponentPad*%
%ADD14C,1.500000*%
%TD*%
%TA.AperFunction,ComponentPad*%
%ADD15C,1.400000*%
%TD*%
%TA.AperFunction,ComponentPad*%
%ADD16O,1.400000X1.400000*%
%TD*%
%TA.AperFunction,ComponentPad*%
%ADD17C,2.667000*%
%TD*%
%TA.AperFunction,ComponentPad*%
%ADD18R,2.667000X2.667000*%
%TD*%
%TA.AperFunction,ComponentPad*%
%ADD19C,1.800000*%
%TD*%
%TA.AperFunction,ComponentPad*%
%ADD20R,1.800000X1.800000*%
%TD*%
%TA.AperFunction,ComponentPad*%
%ADD21C,1.955800*%
%TD*%
%TA.AperFunction,ComponentPad*%
%ADD22R,1.500000X2.500000*%
%TD*%
%TA.AperFunction,ComponentPad*%
%ADD23O,1.500000X2.500000*%
%TD*%
%TA.AperFunction,ComponentPad*%
%ADD24R,1.500000X1.500000*%
%TD*%
%TA.AperFunction,ViaPad*%
%ADD25C,2.032000*%
%TD*%
%TA.AperFunction,ViaPad*%
%ADD26C,1.016000*%
%TD*%
%TA.AperFunction,Conductor*%
%ADD27C,0.254000*%
%TD*%
%TA.AperFunction,Conductor*%
%ADD28C,0.100000*%
%TD*%
G04 APERTURE END LIST*
D10*
%TO.N,Net-(J6-Pad1)*%
%TO.C,J6*%
X6500000Y-37500000D03*
D11*
%TO.N,GND*%
X6500000Y-34985400D03*
%TO.N,Net-(J6-Pad3)*%
X6500000Y-32470800D03*
%TD*%
D12*
%TO.N,Net-(J4-Pad1)*%
%TO.C,MOV5*%
X89662000Y-40640000D03*
%TO.N,GND*%
X88362000Y-45640000D03*
%TD*%
D13*
%TO.N,Net-(J8-Pad5)*%
%TO.C,J8*%
X50596800Y-70612000D03*
%TO.N,SWCLK*%
X55626000Y-73126600D03*
%TO.N,GND*%
X50596800Y-73126600D03*
%TO.N,SWDIO*%
X53111400Y-70612000D03*
%TO.N,NRST*%
X53111400Y-73126600D03*
%TO.N,+3V3*%
X55626000Y-70612000D03*
%TD*%
D14*
%TO.N,Net-(C10-Pad1)*%
%TO.C,X1*%
X58166000Y-55700000D03*
%TO.N,Net-(C11-Pad1)*%
X58166000Y-50800000D03*
%TD*%
D15*
%TO.N,/Supply/pwr2*%
%TO.C,F1*%
X10000000Y-11500000D03*
D16*
%TO.N,/Supply/pwr1*%
X4920000Y-11500000D03*
%TD*%
D17*
%TO.N,/Supply/pwr1*%
%TO.C,J1*%
X5000000Y-17496200D03*
D18*
%TO.N,GND*%
X5000000Y-22500000D03*
%TD*%
D11*
%TO.N,GND*%
%TO.C,J2*%
X93500000Y-20014600D03*
D10*
%TO.N,DQ*%
X93500000Y-17500000D03*
%TD*%
%TO.N,Net-(J3-Pad1)*%
%TO.C,J3*%
X93500000Y-30500000D03*
D11*
%TO.N,GND*%
X93500000Y-33014600D03*
%TD*%
%TO.N,GND*%
%TO.C,J4*%
X93500000Y-44014600D03*
D10*
%TO.N,Net-(J4-Pad1)*%
X93500000Y-41500000D03*
%TD*%
%TO.N,Net-(J5-Pad1)*%
%TO.C,J5*%
X93500000Y-53500000D03*
D11*
%TO.N,GND*%
X93500000Y-56014600D03*
%TD*%
D19*
%TO.N,+3V3*%
%TO.C,LD1*%
X31270000Y-10000000D03*
D20*
%TO.N,Net-(LD1-Pad1)*%
X28730000Y-10000000D03*
%TD*%
%TO.N,Net-(LD2-Pad1)*%
%TO.C,LD2*%
X43700000Y-10000000D03*
D19*
%TO.N,Net-(LD2-Pad2)*%
X46240000Y-10000000D03*
%TD*%
%TO.N,Net-(LD3-Pad2)*%
%TO.C,LD3*%
X21270000Y-35000000D03*
D20*
%TO.N,GND*%
X18730000Y-35000000D03*
%TD*%
%TO.N,Net-(LD4-Pad1)*%
%TO.C,LD4*%
X78730000Y-27000000D03*
D19*
%TO.N,Net-(LD4-Pad2)*%
X81270000Y-27000000D03*
%TD*%
D20*
%TO.N,Net-(LD5-Pad1)*%
%TO.C,LD5*%
X78730000Y-39000000D03*
D19*
%TO.N,Net-(LD5-Pad2)*%
X81270000Y-39000000D03*
%TD*%
%TO.N,Net-(LD6-Pad2)*%
%TO.C,LD6*%
X81270000Y-51000000D03*
D20*
%TO.N,Net-(LD6-Pad1)*%
X78730000Y-51000000D03*
%TD*%
D12*
%TO.N,GND*%
%TO.C,MOV1*%
X87000000Y-21000000D03*
%TO.N,DQ*%
X88300000Y-16000000D03*
%TD*%
%TO.N,Net-(J6-Pad3)*%
%TO.C,MOV2*%
X10400000Y-32400000D03*
%TO.N,GND*%
X11700000Y-27400000D03*
%TD*%
%TO.N,GND*%
%TO.C,MOV3*%
X10400000Y-42500000D03*
%TO.N,Net-(J6-Pad1)*%
X11700000Y-37500000D03*
%TD*%
%TO.N,Net-(J3-Pad1)*%
%TO.C,MOV4*%
X89662000Y-29500000D03*
%TO.N,GND*%
X88362000Y-34500000D03*
%TD*%
%TO.N,GND*%
%TO.C,MOV6*%
X88362000Y-57578000D03*
%TO.N,Net-(J5-Pad1)*%
X89662000Y-52578000D03*
%TD*%
D21*
%TO.N,NRST*%
%TO.C,SW1*%
X36248400Y-67510400D03*
%TO.N,GND*%
X36248400Y-62506600D03*
%TO.N,NRST*%
X23751600Y-67510400D03*
%TO.N,GND*%
X23751600Y-62506600D03*
%TD*%
D22*
%TO.N,/Supply/pwr3*%
%TO.C,U1*%
X22400000Y-22300000D03*
D23*
%TO.N,GND*%
X24940000Y-22300000D03*
%TO.N,/Supply/pwr4*%
X27480000Y-22300000D03*
%TD*%
D14*
%TO.N,DQ*%
%TO.C,U4*%
X78800000Y-18460000D03*
%TO.N,Net-(U4-Pad3)*%
X78800000Y-15920000D03*
D24*
%TO.N,GND*%
X78800000Y-21000000D03*
%TD*%
D25*
%TO.N,GND*%
X38354000Y-25654000D03*
X38862000Y-3556000D03*
X23622000Y-6096000D03*
X18034000Y-25908000D03*
X48870000Y-15850000D03*
X54356000Y-15748000D03*
X54356000Y-20066000D03*
X48768000Y-26670000D03*
X54356000Y-26670000D03*
X54356000Y-22606000D03*
D26*
X64262000Y-53594000D03*
X55372000Y-58928000D03*
X46990000Y-60960000D03*
X50546000Y-60960000D03*
X41148000Y-57150000D03*
X46482000Y-46482000D03*
X26416000Y-46736000D03*
X27686000Y-40386000D03*
D25*
X12954000Y-59944000D03*
X20066000Y-72390000D03*
X10414000Y-35052000D03*
X14224000Y-28702000D03*
X11176000Y-45212000D03*
D26*
X84582000Y-58928000D03*
X77216000Y-70866000D03*
X55118000Y-47244000D03*
D25*
%TO.N,+3V3*%
X38100000Y-33782000D03*
X40640000Y-15240000D03*
X45212000Y-14732000D03*
X42926000Y-16256000D03*
D26*
X54864000Y-54288200D03*
X53086000Y-60706000D03*
X43180000Y-59944000D03*
X43688000Y-48006000D03*
D25*
X17018000Y-62230000D03*
X83820000Y-14732000D03*
X84836000Y-42418000D03*
X84836000Y-29972000D03*
X85090000Y-53848000D03*
D26*
X53340000Y-47244000D03*
%TD*%
D27*
%TO.N,*%
X70100000Y-2900000D02*
X70100000Y-2400000D01*
X70100000Y-2400000D02*
X70600000Y-1900000D01*
X70600000Y-1900000D02*
X71300000Y-1900000D01*
X71300000Y-1900000D02*
X71800000Y-2400000D01*
X71800000Y-2400000D02*
X71800000Y-3300000D01*
X71800000Y-3300000D02*
X70200000Y-4900000D01*
X70200000Y-4900000D02*
X71800000Y-4900000D01*
%TD*%
%TO.N,GND*%
X62873000Y-6000000D02*
X62875440Y-6024776D01*
X62882667Y-6048601D01*
X62894403Y-6070557D01*
X62910197Y-6089803D01*
X62929443Y-6105597D01*
X62951399Y-6117333D01*
X62975224Y-6124560D01*
X63000000Y-6127000D01*
X83000000Y-6127000D01*
X83024776Y-6124560D01*
X83048601Y-6117333D01*
X83070557Y-6105597D01*
X83089803Y-6089803D01*
X83105597Y-6070557D01*
X83117333Y-6048601D01*
X83124560Y-6024776D01*
X83127000Y-6000000D01*
X83127000Y-4779872D01*
X92765000Y-4779872D01*
X92765000Y-5220128D01*
X92850890Y-5651925D01*
X93019369Y-6058669D01*
X93263962Y-6424729D01*
X93575271Y-6736038D01*
X93941331Y-6980631D01*
X94348075Y-7149110D01*
X94779872Y-7235000D01*
X95220128Y-7235000D01*
X95651925Y-7149110D01*
X96058669Y-6980631D01*
X96424729Y-6736038D01*
X96736038Y-6424729D01*
X96980631Y-6058669D01*
X97149110Y-5651925D01*
X97235000Y-5220128D01*
X97235000Y-4779872D01*
X97149110Y-4348075D01*
X96980631Y-3941331D01*
X96736038Y-3575271D01*
X96424729Y-3263962D01*
X96058669Y-3019369D01*
X95651925Y-2850890D01*
X95220128Y-2765000D01*
X94779872Y-2765000D01*
X94348075Y-2850890D01*
X93941331Y-3019369D01*
X93575271Y-3263962D01*
X93263962Y-3575271D01*
X93019369Y-3941331D01*
X92850890Y-4348075D01*
X92765000Y-4779872D01*
X83127000Y-4779872D01*
X83127000Y-1127000D01*
X98873000Y-1127000D01*
X98873000Y-78873000D01*
X1127000Y-78873000D01*
X1127000Y-74779872D01*
X2765000Y-74779872D01*
X2765000Y-75220128D01*
X2850890Y-75651925D01*
X3019369Y-76058669D01*
X3263962Y-76424729D01*
X3575271Y-76736038D01*
X3941331Y-76980631D01*
X4348075Y-77149110D01*
X4779872Y-77235000D01*
X5220128Y-77235000D01*
X5651925Y-77149110D01*
X6058669Y-76980631D01*
X6424729Y-76736038D01*
X6736038Y-76424729D01*
X6980631Y-76058669D01*
X7149110Y-75651925D01*
X7235000Y-75220128D01*
X7235000Y-74779872D01*
X92765000Y-74779872D01*
X92765000Y-75220128D01*
X92850890Y-75651925D01*
X93019369Y-76058669D01*
X93263962Y-76424729D01*
X93575271Y-76736038D01*
X93941331Y-76980631D01*
X94348075Y-77149110D01*
X94779872Y-77235000D01*
X95220128Y-77235000D01*
X95651925Y-77149110D01*
X96058669Y-76980631D01*
X96424729Y-76736038D01*
X96736038Y-76424729D01*
X96980631Y-76058669D01*
X97149110Y-75651925D01*
X97235000Y-75220128D01*
X97235000Y-74779872D01*
X97149110Y-74348075D01*
X96980631Y-73941331D01*
X96736038Y-73575271D01*
X96424729Y-73263962D01*
X96058669Y-73019369D01*
X95651925Y-72850890D01*
X95220128Y-72765000D01*
X94779872Y-72765000D01*
X94348075Y-72850890D01*
X93941331Y-73019369D01*
X93575271Y-73263962D01*
X93263962Y-73575271D01*
X93019369Y-73941331D01*
X92850890Y-74348075D01*
X92765000Y-74779872D01*
X7235000Y-74779872D01*
X7149110Y-74348075D01*
X7073156Y-74164704D01*
X49738301Y-74164704D01*
X49817582Y-74415167D01*
X50083941Y-74542426D01*
X50370010Y-74615275D01*
X50664793Y-74630915D01*
X50956964Y-74588745D01*
X51235293Y-74490386D01*
X51376018Y-74415167D01*
X51455299Y-74164704D01*
X50596800Y-73306205D01*
X49738301Y-74164704D01*
X7073156Y-74164704D01*
X6980631Y-73941331D01*
X6736038Y-73575271D01*
X6424729Y-73263962D01*
X6320911Y-73194593D01*
X49092485Y-73194593D01*
X49134655Y-73486764D01*
X49233014Y-73765093D01*
X49308233Y-73905818D01*
X49558696Y-73985099D01*
X50417195Y-73126600D01*
X49558696Y-72268101D01*
X49308233Y-72347382D01*
X49180974Y-72613741D01*
X49108125Y-72899810D01*
X49092485Y-73194593D01*
X6320911Y-73194593D01*
X6058669Y-73019369D01*
X5651925Y-72850890D01*
X5220128Y-72765000D01*
X4779872Y-72765000D01*
X4348075Y-72850890D01*
X3941331Y-73019369D01*
X3575271Y-73263962D01*
X3263962Y-73575271D01*
X3019369Y-73941331D01*
X2850890Y-74348075D01*
X2765000Y-74779872D01*
X1127000Y-74779872D01*
X1127000Y-69363147D01*
X28437900Y-69363147D01*
X28437900Y-69670853D01*
X28497931Y-69972648D01*
X28615685Y-70256932D01*
X28786638Y-70512780D01*
X29004220Y-70730362D01*
X29260068Y-70901315D01*
X29544352Y-71019069D01*
X29846147Y-71079100D01*
X30153853Y-71079100D01*
X30455648Y-71019069D01*
X30739932Y-70901315D01*
X30995780Y-70730362D01*
X31213362Y-70512780D01*
X31245687Y-70464401D01*
X49098200Y-70464401D01*
X49098200Y-70759599D01*
X49155790Y-71049125D01*
X49268758Y-71321853D01*
X49432761Y-71567302D01*
X49641498Y-71776039D01*
X49803039Y-71883977D01*
X49738301Y-72088496D01*
X50596800Y-72946995D01*
X51455299Y-72088496D01*
X51390561Y-71883977D01*
X51552102Y-71776039D01*
X51760839Y-71567302D01*
X51854100Y-71427726D01*
X51947361Y-71567302D01*
X52156098Y-71776039D01*
X52295674Y-71869300D01*
X52156098Y-71962561D01*
X51947361Y-72171298D01*
X51839423Y-72332839D01*
X51634904Y-72268101D01*
X50776405Y-73126600D01*
X51634904Y-73985099D01*
X51839423Y-73920361D01*
X51947361Y-74081902D01*
X52156098Y-74290639D01*
X52401547Y-74454642D01*
X52674275Y-74567610D01*
X52963801Y-74625200D01*
X53258999Y-74625200D01*
X53548525Y-74567610D01*
X53821253Y-74454642D01*
X54066702Y-74290639D01*
X54275439Y-74081902D01*
X54368700Y-73942326D01*
X54461961Y-74081902D01*
X54670698Y-74290639D01*
X54916147Y-74454642D01*
X55188875Y-74567610D01*
X55478401Y-74625200D01*
X55773599Y-74625200D01*
X56063125Y-74567610D01*
X56335853Y-74454642D01*
X56581302Y-74290639D01*
X56790039Y-74081902D01*
X56954042Y-73836453D01*
X57067010Y-73563725D01*
X57124600Y-73274199D01*
X57124600Y-72979001D01*
X57067010Y-72689475D01*
X56954042Y-72416747D01*
X56790039Y-72171298D01*
X56581302Y-71962561D01*
X56441726Y-71869300D01*
X56581302Y-71776039D01*
X56790039Y-71567302D01*
X56954042Y-71321853D01*
X57067010Y-71049125D01*
X57124600Y-70759599D01*
X57124600Y-70464401D01*
X57067010Y-70174875D01*
X56954042Y-69902147D01*
X56790039Y-69656698D01*
X56581302Y-69447961D01*
X56335853Y-69283958D01*
X56063125Y-69170990D01*
X55773599Y-69113400D01*
X55478401Y-69113400D01*
X55188875Y-69170990D01*
X54916147Y-69283958D01*
X54670698Y-69447961D01*
X54461961Y-69656698D01*
X54368700Y-69796274D01*
X54275439Y-69656698D01*
X54066702Y-69447961D01*
X53821253Y-69283958D01*
X53548525Y-69170990D01*
X53258999Y-69113400D01*
X52963801Y-69113400D01*
X52674275Y-69170990D01*
X52401547Y-69283958D01*
X52156098Y-69447961D01*
X51947361Y-69656698D01*
X51854100Y-69796274D01*
X51760839Y-69656698D01*
X51552102Y-69447961D01*
X51306653Y-69283958D01*
X51033925Y-69170990D01*
X50744399Y-69113400D01*
X50449201Y-69113400D01*
X50159675Y-69170990D01*
X49886947Y-69283958D01*
X49641498Y-69447961D01*
X49432761Y-69656698D01*
X49268758Y-69902147D01*
X49155790Y-70174875D01*
X49098200Y-70464401D01*
X31245687Y-70464401D01*
X31384315Y-70256932D01*
X31502069Y-69972648D01*
X31562100Y-69670853D01*
X31562100Y-69363147D01*
X31502069Y-69061352D01*
X31384315Y-68777068D01*
X31213362Y-68521220D01*
X30995780Y-68303638D01*
X30739932Y-68132685D01*
X30455648Y-68014931D01*
X30153853Y-67954900D01*
X29846147Y-67954900D01*
X29544352Y-68014931D01*
X29260068Y-68132685D01*
X29004220Y-68303638D01*
X28786638Y-68521220D01*
X28615685Y-68777068D01*
X28497931Y-69061352D01*
X28437900Y-69363147D01*
X1127000Y-69363147D01*
X1127000Y-67351543D01*
X22138700Y-67351543D01*
X22138700Y-67669257D01*
X22200683Y-67980866D01*
X22322267Y-68274395D01*
X22498779Y-68538564D01*
X22723436Y-68763221D01*
X22987605Y-68939733D01*
X23281134Y-69061317D01*
X23592743Y-69123300D01*
X23910457Y-69123300D01*
X24222066Y-69061317D01*
X24515595Y-68939733D01*
X24779764Y-68763221D01*
X25004421Y-68538564D01*
X25180933Y-68274395D01*
X25302517Y-67980866D01*
X25364500Y-67669257D01*
X25364500Y-67351543D01*
X34635500Y-67351543D01*
X34635500Y-67669257D01*
X34697483Y-67980866D01*
X34819067Y-68274395D01*
X34995579Y-68538564D01*
X35220236Y-68763221D01*
X35484405Y-68939733D01*
X35777934Y-69061317D01*
X36089543Y-69123300D01*
X36407257Y-69123300D01*
X36718866Y-69061317D01*
X37012395Y-68939733D01*
X37276564Y-68763221D01*
X37501221Y-68538564D01*
X37677733Y-68274395D01*
X37799317Y-67980866D01*
X37861300Y-67669257D01*
X37861300Y-67351543D01*
X37799317Y-67039934D01*
X37677733Y-66746405D01*
X37501221Y-66482236D01*
X37276564Y-66257579D01*
X37012395Y-66081067D01*
X36718866Y-65959483D01*
X36407257Y-65897500D01*
X36089543Y-65897500D01*
X35777934Y-65959483D01*
X35484405Y-66081067D01*
X35220236Y-66257579D01*
X34995579Y-66482236D01*
X34819067Y-66746405D01*
X34697483Y-67039934D01*
X34635500Y-67351543D01*
X25364500Y-67351543D01*
X25302517Y-67039934D01*
X25180933Y-66746405D01*
X25004421Y-66482236D01*
X24779764Y-66257579D01*
X24515595Y-66081067D01*
X24222066Y-65959483D01*
X23910457Y-65897500D01*
X23592743Y-65897500D01*
X23281134Y-65959483D01*
X22987605Y-66081067D01*
X22723436Y-66257579D01*
X22498779Y-66482236D01*
X22322267Y-66746405D01*
X22200683Y-67039934D01*
X22138700Y-67351543D01*
X1127000Y-67351543D01*
X1127000Y-62067391D01*
X15367000Y-62067391D01*
X15367000Y-62392609D01*
X15430447Y-62711579D01*
X15554903Y-63012042D01*
X15735585Y-63282451D01*
X15965549Y-63512415D01*
X16235958Y-63693097D01*
X16536421Y-63817553D01*
X16855391Y-63881000D01*
X17180609Y-63881000D01*
X17499579Y-63817553D01*
X17800042Y-63693097D01*
X17900082Y-63626252D01*
X22811553Y-63626252D01*
X22904649Y-63888394D01*
X23190497Y-64027075D01*
X23497908Y-64107326D01*
X23815069Y-64126060D01*
X24129791Y-64082561D01*
X24429979Y-63978497D01*
X24598551Y-63888394D01*
X24691647Y-63626252D01*
X35308353Y-63626252D01*
X35401449Y-63888394D01*
X35687297Y-64027075D01*
X35994708Y-64107326D01*
X36311869Y-64126060D01*
X36626591Y-64082561D01*
X36926779Y-63978497D01*
X37095351Y-63888394D01*
X37188447Y-63626252D01*
X36248400Y-62686205D01*
X35308353Y-63626252D01*
X24691647Y-63626252D01*
X23751600Y-62686205D01*
X22811553Y-63626252D01*
X17900082Y-63626252D01*
X18070451Y-63512415D01*
X18300415Y-63282451D01*
X18481097Y-63012042D01*
X18605553Y-62711579D01*
X18633701Y-62570069D01*
X22132140Y-62570069D01*
X22175639Y-62884791D01*
X22279703Y-63184979D01*
X22369806Y-63353551D01*
X22631948Y-63446647D01*
X23571995Y-62506600D01*
X23931205Y-62506600D01*
X24871252Y-63446647D01*
X25133394Y-63353551D01*
X25272075Y-63067703D01*
X25352326Y-62760292D01*
X25363562Y-62570069D01*
X34628940Y-62570069D01*
X34672439Y-62884791D01*
X34776503Y-63184979D01*
X34866606Y-63353551D01*
X35128748Y-63446647D01*
X36068795Y-62506600D01*
X36428005Y-62506600D01*
X37368052Y-63446647D01*
X37630194Y-63353551D01*
X37768875Y-63067703D01*
X37849126Y-62760292D01*
X37867860Y-62443131D01*
X37824361Y-62128409D01*
X37720297Y-61828221D01*
X37630194Y-61659649D01*
X37368052Y-61566553D01*
X36428005Y-62506600D01*
X36068795Y-62506600D01*
X35128748Y-61566553D01*
X34866606Y-61659649D01*
X34727925Y-61945497D01*
X34647674Y-62252908D01*
X34628940Y-62570069D01*
X25363562Y-62570069D01*
X25371060Y-62443131D01*
X25327561Y-62128409D01*
X25223497Y-61828221D01*
X25133394Y-61659649D01*
X24871252Y-61566553D01*
X23931205Y-62506600D01*
X23571995Y-62506600D01*
X22631948Y-61566553D01*
X22369806Y-61659649D01*
X22231125Y-61945497D01*
X22150874Y-62252908D01*
X22132140Y-62570069D01*
X18633701Y-62570069D01*
X18669000Y-62392609D01*
X18669000Y-62067391D01*
X18605553Y-61748421D01*
X18481097Y-61447958D01*
X18440332Y-61386948D01*
X22811553Y-61386948D01*
X23751600Y-62326995D01*
X24691647Y-61386948D01*
X24598551Y-61124806D01*
X24312703Y-60986125D01*
X24005292Y-60905874D01*
X23688131Y-60887140D01*
X23373409Y-60930639D01*
X23073221Y-61034703D01*
X22904649Y-61124806D01*
X22811553Y-61386948D01*
X18440332Y-61386948D01*
X18300415Y-61177549D01*
X18070451Y-60947585D01*
X17800042Y-60766903D01*
X17499579Y-60642447D01*
X17180609Y-60579000D01*
X16855391Y-60579000D01*
X16536421Y-60642447D01*
X16235958Y-60766903D01*
X15965549Y-60947585D01*
X15735585Y-61177549D01*
X15554903Y-61447958D01*
X15430447Y-61748421D01*
X15367000Y-62067391D01*
X1127000Y-62067391D01*
X1127000Y-60346147D01*
X28437900Y-60346147D01*
X28437900Y-60653853D01*
X28497931Y-60955648D01*
X28615685Y-61239932D01*
X28786638Y-61495780D01*
X29004220Y-61713362D01*
X29260068Y-61884315D01*
X29544352Y-62002069D01*
X29846147Y-62062100D01*
X30153853Y-62062100D01*
X30455648Y-62002069D01*
X30739932Y-61884315D01*
X30995780Y-61713362D01*
X31213362Y-61495780D01*
X31286081Y-61386948D01*
X35308353Y-61386948D01*
X36248400Y-62326995D01*
X37188447Y-61386948D01*
X37095351Y-61124806D01*
X36809503Y-60986125D01*
X36502092Y-60905874D01*
X36184931Y-60887140D01*
X35870209Y-60930639D01*
X35570021Y-61034703D01*
X35401449Y-61124806D01*
X35308353Y-61386948D01*
X31286081Y-61386948D01*
X31384315Y-61239932D01*
X31502069Y-60955648D01*
X31562100Y-60653853D01*
X31562100Y-60346147D01*
X31502069Y-60044352D01*
X31413872Y-59831424D01*
X42037000Y-59831424D01*
X42037000Y-60056576D01*
X42080925Y-60277401D01*
X42167087Y-60485413D01*
X42292174Y-60672620D01*
X42451380Y-60831826D01*
X42638587Y-60956913D01*
X42846599Y-61043075D01*
X43067424Y-61087000D01*
X43292576Y-61087000D01*
X43513401Y-61043075D01*
X43721413Y-60956913D01*
X43908620Y-60831826D01*
X44067826Y-60672620D01*
X44120742Y-60593424D01*
X51943000Y-60593424D01*
X51943000Y-60818576D01*
X51986925Y-61039401D01*
X52073087Y-61247413D01*
X52198174Y-61434620D01*
X52357380Y-61593826D01*
X52544587Y-61718913D01*
X52752599Y-61805075D01*
X52973424Y-61849000D01*
X53198576Y-61849000D01*
X53419401Y-61805075D01*
X53627413Y-61718913D01*
X53814620Y-61593826D01*
X53973826Y-61434620D01*
X54098913Y-61247413D01*
X54185075Y-61039401D01*
X54229000Y-60818576D01*
X54229000Y-60593424D01*
X54185075Y-60372599D01*
X54098913Y-60164587D01*
X53973826Y-59977380D01*
X53814620Y-59818174D01*
X53627413Y-59693087D01*
X53419401Y-59606925D01*
X53198576Y-59563000D01*
X52973424Y-59563000D01*
X52752599Y-59606925D01*
X52544587Y-59693087D01*
X52357380Y-59818174D01*
X52198174Y-59977380D01*
X52073087Y-60164587D01*
X51986925Y-60372599D01*
X51943000Y-60593424D01*
X44120742Y-60593424D01*
X44192913Y-60485413D01*
X44279075Y-60277401D01*
X44323000Y-60056576D01*
X44323000Y-59831424D01*
X44279075Y-59610599D01*
X44192913Y-59402587D01*
X44067826Y-59215380D01*
X43908620Y-59056174D01*
X43721413Y-58931087D01*
X43513401Y-58844925D01*
X43292576Y-58801000D01*
X43067424Y-58801000D01*
X42846599Y-58844925D01*
X42638587Y-58931087D01*
X42451380Y-59056174D01*
X42292174Y-59215380D01*
X42167087Y-59402587D01*
X42080925Y-59610599D01*
X42037000Y-59831424D01*
X31413872Y-59831424D01*
X31384315Y-59760068D01*
X31213362Y-59504220D01*
X30995780Y-59286638D01*
X30739932Y-59115685D01*
X30455648Y-58997931D01*
X30153853Y-58937900D01*
X29846147Y-58937900D01*
X29544352Y-58997931D01*
X29260068Y-59115685D01*
X29004220Y-59286638D01*
X28786638Y-59504220D01*
X28615685Y-59760068D01*
X28497931Y-60044352D01*
X28437900Y-60346147D01*
X1127000Y-60346147D01*
X1127000Y-58570702D01*
X87548903Y-58570702D01*
X87620486Y-58814671D01*
X87875996Y-58935571D01*
X88150184Y-59004300D01*
X88432512Y-59018217D01*
X88712130Y-58976787D01*
X88978292Y-58881603D01*
X89103514Y-58814671D01*
X89175097Y-58570702D01*
X88362000Y-57757605D01*
X87548903Y-58570702D01*
X1127000Y-58570702D01*
X1127000Y-57648512D01*
X86921783Y-57648512D01*
X86963213Y-57928130D01*
X87058397Y-58194292D01*
X87125329Y-58319514D01*
X87369298Y-58391097D01*
X88182395Y-57578000D01*
X88541605Y-57578000D01*
X89354702Y-58391097D01*
X89598671Y-58319514D01*
X89719571Y-58064004D01*
X89788300Y-57789816D01*
X89802217Y-57507488D01*
X89760787Y-57227870D01*
X89678691Y-56998305D01*
X92695900Y-56998305D01*
X92765957Y-57240988D01*
X93019318Y-57360628D01*
X93291151Y-57428541D01*
X93571010Y-57442117D01*
X93848140Y-57400834D01*
X94111892Y-57306279D01*
X94234043Y-57240988D01*
X94304100Y-56998305D01*
X93500000Y-56194205D01*
X92695900Y-56998305D01*
X89678691Y-56998305D01*
X89665603Y-56961708D01*
X89598671Y-56836486D01*
X89354702Y-56764903D01*
X88541605Y-57578000D01*
X88182395Y-57578000D01*
X87369298Y-56764903D01*
X87125329Y-56836486D01*
X87004429Y-57091996D01*
X86935700Y-57366184D01*
X86921783Y-57648512D01*
X1127000Y-57648512D01*
X1127000Y-56093137D01*
X4915000Y-56093137D01*
X4915000Y-56306863D01*
X4956696Y-56516483D01*
X5038485Y-56713940D01*
X5157225Y-56891647D01*
X5308353Y-57042775D01*
X5486060Y-57161515D01*
X5683517Y-57243304D01*
X5893137Y-57285000D01*
X6106863Y-57285000D01*
X6316483Y-57243304D01*
X6513940Y-57161515D01*
X6691647Y-57042775D01*
X6842775Y-56891647D01*
X6961515Y-56713940D01*
X7043304Y-56516483D01*
X7085000Y-56306863D01*
X7085000Y-56093137D01*
X7043304Y-55883517D01*
X6961515Y-55686060D01*
X6879683Y-55563589D01*
X56781000Y-55563589D01*
X56781000Y-55836411D01*
X56834225Y-56103989D01*
X56938629Y-56356043D01*
X57090201Y-56582886D01*
X57283114Y-56775799D01*
X57509957Y-56927371D01*
X57762011Y-57031775D01*
X58029589Y-57085000D01*
X58302411Y-57085000D01*
X58569989Y-57031775D01*
X58822043Y-56927371D01*
X59048886Y-56775799D01*
X59239387Y-56585298D01*
X87548903Y-56585298D01*
X88362000Y-57398395D01*
X89175097Y-56585298D01*
X89103514Y-56341329D01*
X88848004Y-56220429D01*
X88573816Y-56151700D01*
X88291488Y-56137783D01*
X88011870Y-56179213D01*
X87745708Y-56274397D01*
X87620486Y-56341329D01*
X87548903Y-56585298D01*
X59239387Y-56585298D01*
X59241799Y-56582886D01*
X59393371Y-56356043D01*
X59497775Y-56103989D01*
X59501430Y-56085610D01*
X92072483Y-56085610D01*
X92113766Y-56362740D01*
X92208321Y-56626492D01*
X92273612Y-56748643D01*
X92516295Y-56818700D01*
X93320395Y-56014600D01*
X93679605Y-56014600D01*
X94483705Y-56818700D01*
X94726388Y-56748643D01*
X94846028Y-56495282D01*
X94913941Y-56223449D01*
X94927517Y-55943590D01*
X94886234Y-55666460D01*
X94791679Y-55402708D01*
X94726388Y-55280557D01*
X94483705Y-55210500D01*
X93679605Y-56014600D01*
X93320395Y-56014600D01*
X92516295Y-55210500D01*
X92273612Y-55280557D01*
X92153972Y-55533918D01*
X92086059Y-55805751D01*
X92072483Y-56085610D01*
X59501430Y-56085610D01*
X59551000Y-55836411D01*
X59551000Y-55563589D01*
X59497775Y-55296011D01*
X59393371Y-55043957D01*
X59241799Y-54817114D01*
X59048886Y-54624201D01*
X58822043Y-54472629D01*
X58569989Y-54368225D01*
X58302411Y-54315000D01*
X58029589Y-54315000D01*
X57762011Y-54368225D01*
X57509957Y-54472629D01*
X57283114Y-54624201D01*
X57090201Y-54817114D01*
X56938629Y-55043957D01*
X56834225Y-55296011D01*
X56781000Y-55563589D01*
X6879683Y-55563589D01*
X6842775Y-55508353D01*
X6691647Y-55357225D01*
X6513940Y-55238485D01*
X6316483Y-55156696D01*
X6106863Y-55115000D01*
X5893137Y-55115000D01*
X5683517Y-55156696D01*
X5486060Y-55238485D01*
X5308353Y-55357225D01*
X5157225Y-55508353D01*
X5038485Y-55686060D01*
X4956696Y-55883517D01*
X4915000Y-56093137D01*
X1127000Y-56093137D01*
X1127000Y-54175624D01*
X53721000Y-54175624D01*
X53721000Y-54400776D01*
X53764925Y-54621601D01*
X53851087Y-54829613D01*
X53976174Y-55016820D01*
X54135380Y-55176026D01*
X54322587Y-55301113D01*
X54530599Y-55387275D01*
X54751424Y-55431200D01*
X54976576Y-55431200D01*
X55197401Y-55387275D01*
X55405413Y-55301113D01*
X55592620Y-55176026D01*
X55751826Y-55016820D01*
X55876913Y-54829613D01*
X55963075Y-54621601D01*
X56007000Y-54400776D01*
X56007000Y-54175624D01*
X55963075Y-53954799D01*
X55876913Y-53746787D01*
X55835890Y-53685391D01*
X83439000Y-53685391D01*
X83439000Y-54010609D01*
X83502447Y-54329579D01*
X83626903Y-54630042D01*
X83807585Y-54900451D01*
X84037549Y-55130415D01*
X84307958Y-55311097D01*
X84608421Y-55435553D01*
X84927391Y-55499000D01*
X85252609Y-55499000D01*
X85571579Y-55435553D01*
X85872042Y-55311097D01*
X86142451Y-55130415D01*
X86372415Y-54900451D01*
X86553097Y-54630042D01*
X86677553Y-54329579D01*
X86741000Y-54010609D01*
X86741000Y-53685391D01*
X86677553Y-53366421D01*
X86553097Y-53065958D01*
X86372415Y-52795549D01*
X86142451Y-52565585D01*
X85949510Y-52436665D01*
X88227000Y-52436665D01*
X88227000Y-52719335D01*
X88282147Y-52996574D01*
X88390320Y-53257727D01*
X88547363Y-53492759D01*
X88747241Y-53692637D01*
X88982273Y-53849680D01*
X89243426Y-53957853D01*
X89520665Y-54013000D01*
X89803335Y-54013000D01*
X90080574Y-53957853D01*
X90341727Y-53849680D01*
X90576759Y-53692637D01*
X90776637Y-53492759D01*
X90933680Y-53257727D01*
X91041853Y-52996574D01*
X91097000Y-52719335D01*
X91097000Y-52712600D01*
X92074528Y-52712600D01*
X92074528Y-54287400D01*
X92086788Y-54411882D01*
X92123098Y-54531580D01*
X92182063Y-54641894D01*
X92261415Y-54738585D01*
X92358106Y-54817937D01*
X92468420Y-54876902D01*
X92588118Y-54913212D01*
X92712600Y-54925472D01*
X92726333Y-54925472D01*
X92695900Y-55030895D01*
X93500000Y-55834995D01*
X94304100Y-55030895D01*
X94273667Y-54925472D01*
X94287400Y-54925472D01*
X94411882Y-54913212D01*
X94531580Y-54876902D01*
X94641894Y-54817937D01*
X94738585Y-54738585D01*
X94817937Y-54641894D01*
X94876902Y-54531580D01*
X94913212Y-54411882D01*
X94925472Y-54287400D01*
X94925472Y-52712600D01*
X94913212Y-52588118D01*
X94876902Y-52468420D01*
X94817937Y-52358106D01*
X94738585Y-52261415D01*
X94641894Y-52182063D01*
X94531580Y-52123098D01*
X94411882Y-52086788D01*
X94287400Y-52074528D01*
X92712600Y-52074528D01*
X92588118Y-52086788D01*
X92468420Y-52123098D01*
X92358106Y-52182063D01*
X92261415Y-52261415D01*
X92182063Y-52358106D01*
X92123098Y-52468420D01*
X92086788Y-52588118D01*
X92074528Y-52712600D01*
X91097000Y-52712600D01*
X91097000Y-52436665D01*
X91041853Y-52159426D01*
X90933680Y-51898273D01*
X90776637Y-51663241D01*
X90576759Y-51463363D01*
X90341727Y-51306320D01*
X90080574Y-51198147D01*
X89803335Y-51143000D01*
X89520665Y-51143000D01*
X89243426Y-51198147D01*
X88982273Y-51306320D01*
X88747241Y-51463363D01*
X88547363Y-51663241D01*
X88390320Y-51898273D01*
X88282147Y-52159426D01*
X88227000Y-52436665D01*
X85949510Y-52436665D01*
X85872042Y-52384903D01*
X85571579Y-52260447D01*
X85252609Y-52197000D01*
X84927391Y-52197000D01*
X84608421Y-52260447D01*
X84307958Y-52384903D01*
X84037549Y-52565585D01*
X83807585Y-52795549D01*
X83626903Y-53065958D01*
X83502447Y-53366421D01*
X83439000Y-53685391D01*
X55835890Y-53685391D01*
X55751826Y-53559580D01*
X55592620Y-53400374D01*
X55405413Y-53275287D01*
X55197401Y-53189125D01*
X54976576Y-53145200D01*
X54751424Y-53145200D01*
X54530599Y-53189125D01*
X54322587Y-53275287D01*
X54135380Y-53400374D01*
X53976174Y-53559580D01*
X53851087Y-53746787D01*
X53764925Y-53954799D01*
X53721000Y-54175624D01*
X1127000Y-54175624D01*
X1127000Y-51693137D01*
X4915000Y-51693137D01*
X4915000Y-51906863D01*
X4956696Y-52116483D01*
X5038485Y-52313940D01*
X5157225Y-52491647D01*
X5308353Y-52642775D01*
X5486060Y-52761515D01*
X5683517Y-52843304D01*
X5893137Y-52885000D01*
X6106863Y-52885000D01*
X6316483Y-52843304D01*
X6513940Y-52761515D01*
X6691647Y-52642775D01*
X6842775Y-52491647D01*
X6961515Y-52313940D01*
X7043304Y-52116483D01*
X7085000Y-51906863D01*
X7085000Y-51693137D01*
X7043304Y-51483517D01*
X6961515Y-51286060D01*
X6842775Y-51108353D01*
X6691647Y-50957225D01*
X6513940Y-50838485D01*
X6316483Y-50756696D01*
X6106863Y-50715000D01*
X5893137Y-50715000D01*
X5683517Y-50756696D01*
X5486060Y-50838485D01*
X5308353Y-50957225D01*
X5157225Y-51108353D01*
X5038485Y-51286060D01*
X4956696Y-51483517D01*
X4915000Y-51693137D01*
X1127000Y-51693137D01*
X1127000Y-50663589D01*
X56781000Y-50663589D01*
X56781000Y-50936411D01*
X56834225Y-51203989D01*
X56938629Y-51456043D01*
X57090201Y-51682886D01*
X57283114Y-51875799D01*
X57509957Y-52027371D01*
X57762011Y-52131775D01*
X58029589Y-52185000D01*
X58302411Y-52185000D01*
X58569989Y-52131775D01*
X58822043Y-52027371D01*
X59048886Y-51875799D01*
X59241799Y-51682886D01*
X59393371Y-51456043D01*
X59497775Y-51203989D01*
X59551000Y-50936411D01*
X59551000Y-50663589D01*
X59497775Y-50396011D01*
X59393371Y-50143957D01*
X59364000Y-50100000D01*
X77191928Y-50100000D01*
X77191928Y-51900000D01*
X77204188Y-52024482D01*
X77240498Y-52144180D01*
X77299463Y-52254494D01*
X77378815Y-52351185D01*
X77475506Y-52430537D01*
X77585820Y-52489502D01*
X77705518Y-52525812D01*
X77830000Y-52538072D01*
X79630000Y-52538072D01*
X79754482Y-52525812D01*
X79874180Y-52489502D01*
X79984494Y-52430537D01*
X80081185Y-52351185D01*
X80160537Y-52254494D01*
X80219502Y-52144180D01*
X80225056Y-52125873D01*
X80291495Y-52192312D01*
X80542905Y-52360299D01*
X80822257Y-52476011D01*
X81118816Y-52535000D01*
X81421184Y-52535000D01*
X81717743Y-52476011D01*
X81997095Y-52360299D01*
X82248505Y-52192312D01*
X82462312Y-51978505D01*
X82630299Y-51727095D01*
X82746011Y-51447743D01*
X82805000Y-51151184D01*
X82805000Y-50848816D01*
X82746011Y-50552257D01*
X82630299Y-50272905D01*
X82462312Y-50021495D01*
X82248505Y-49807688D01*
X81997095Y-49639701D01*
X81717743Y-49523989D01*
X81421184Y-49465000D01*
X81118816Y-49465000D01*
X80822257Y-49523989D01*
X80542905Y-49639701D01*
X80291495Y-49807688D01*
X80225056Y-49874127D01*
X80219502Y-49855820D01*
X80160537Y-49745506D01*
X80081185Y-49648815D01*
X79984494Y-49569463D01*
X79874180Y-49510498D01*
X79754482Y-49474188D01*
X79630000Y-49461928D01*
X77830000Y-49461928D01*
X77705518Y-49474188D01*
X77585820Y-49510498D01*
X77475506Y-49569463D01*
X77378815Y-49648815D01*
X77299463Y-49745506D01*
X77240498Y-49855820D01*
X77204188Y-49975518D01*
X77191928Y-50100000D01*
X59364000Y-50100000D01*
X59241799Y-49917114D01*
X59048886Y-49724201D01*
X58822043Y-49572629D01*
X58569989Y-49468225D01*
X58302411Y-49415000D01*
X58029589Y-49415000D01*
X57762011Y-49468225D01*
X57509957Y-49572629D01*
X57283114Y-49724201D01*
X57090201Y-49917114D01*
X56938629Y-50143957D01*
X56834225Y-50396011D01*
X56781000Y-50663589D01*
X1127000Y-50663589D01*
X1127000Y-47893424D01*
X42545000Y-47893424D01*
X42545000Y-48118576D01*
X42588925Y-48339401D01*
X42675087Y-48547413D01*
X42800174Y-48734620D01*
X42959380Y-48893826D01*
X43146587Y-49018913D01*
X43354599Y-49105075D01*
X43575424Y-49149000D01*
X43800576Y-49149000D01*
X44021401Y-49105075D01*
X44229413Y-49018913D01*
X44416620Y-48893826D01*
X44575826Y-48734620D01*
X44700913Y-48547413D01*
X44787075Y-48339401D01*
X44831000Y-48118576D01*
X44831000Y-47893424D01*
X44787075Y-47672599D01*
X44700913Y-47464587D01*
X44575826Y-47277380D01*
X44429870Y-47131424D01*
X52197000Y-47131424D01*
X52197000Y-47356576D01*
X52240925Y-47577401D01*
X52327087Y-47785413D01*
X52452174Y-47972620D01*
X52611380Y-48131826D01*
X52798587Y-48256913D01*
X53006599Y-48343075D01*
X53227424Y-48387000D01*
X53452576Y-48387000D01*
X53673401Y-48343075D01*
X53881413Y-48256913D01*
X54068620Y-48131826D01*
X54227826Y-47972620D01*
X54352913Y-47785413D01*
X54439075Y-47577401D01*
X54483000Y-47356576D01*
X54483000Y-47131424D01*
X54439075Y-46910599D01*
X54352913Y-46702587D01*
X54306218Y-46632702D01*
X87548903Y-46632702D01*
X87620486Y-46876671D01*
X87875996Y-46997571D01*
X88150184Y-47066300D01*
X88432512Y-47080217D01*
X88712130Y-47038787D01*
X88978292Y-46943603D01*
X89103514Y-46876671D01*
X89175097Y-46632702D01*
X88362000Y-45819605D01*
X87548903Y-46632702D01*
X54306218Y-46632702D01*
X54227826Y-46515380D01*
X54068620Y-46356174D01*
X53881413Y-46231087D01*
X53673401Y-46144925D01*
X53452576Y-46101000D01*
X53227424Y-46101000D01*
X53006599Y-46144925D01*
X52798587Y-46231087D01*
X52611380Y-46356174D01*
X52452174Y-46515380D01*
X52327087Y-46702587D01*
X52240925Y-46910599D01*
X52197000Y-47131424D01*
X44429870Y-47131424D01*
X44416620Y-47118174D01*
X44229413Y-46993087D01*
X44021401Y-46906925D01*
X43800576Y-46863000D01*
X43575424Y-46863000D01*
X43354599Y-46906925D01*
X43146587Y-46993087D01*
X42959380Y-47118174D01*
X42800174Y-47277380D01*
X42675087Y-47464587D01*
X42588925Y-47672599D01*
X42545000Y-47893424D01*
X1127000Y-47893424D01*
X1127000Y-45710512D01*
X86921783Y-45710512D01*
X86963213Y-45990130D01*
X87058397Y-46256292D01*
X87125329Y-46381514D01*
X87369298Y-46453097D01*
X88182395Y-45640000D01*
X88541605Y-45640000D01*
X89354702Y-46453097D01*
X89598671Y-46381514D01*
X89719571Y-46126004D01*
X89788300Y-45851816D01*
X89802217Y-45569488D01*
X89760787Y-45289870D01*
X89665603Y-45023708D01*
X89652025Y-44998305D01*
X92695900Y-44998305D01*
X92765957Y-45240988D01*
X93019318Y-45360628D01*
X93291151Y-45428541D01*
X93571010Y-45442117D01*
X93848140Y-45400834D01*
X94111892Y-45306279D01*
X94234043Y-45240988D01*
X94304100Y-44998305D01*
X93500000Y-44194205D01*
X92695900Y-44998305D01*
X89652025Y-44998305D01*
X89598671Y-44898486D01*
X89354702Y-44826903D01*
X88541605Y-45640000D01*
X88182395Y-45640000D01*
X87369298Y-44826903D01*
X87125329Y-44898486D01*
X87004429Y-45153996D01*
X86935700Y-45428184D01*
X86921783Y-45710512D01*
X1127000Y-45710512D01*
X1127000Y-44647298D01*
X87548903Y-44647298D01*
X88362000Y-45460395D01*
X89175097Y-44647298D01*
X89103514Y-44403329D01*
X88848004Y-44282429D01*
X88573816Y-44213700D01*
X88291488Y-44199783D01*
X88011870Y-44241213D01*
X87745708Y-44336397D01*
X87620486Y-44403329D01*
X87548903Y-44647298D01*
X1127000Y-44647298D01*
X1127000Y-44085610D01*
X92072483Y-44085610D01*
X92113766Y-44362740D01*
X92208321Y-44626492D01*
X92273612Y-44748643D01*
X92516295Y-44818700D01*
X93320395Y-44014600D01*
X93679605Y-44014600D01*
X94483705Y-44818700D01*
X94726388Y-44748643D01*
X94846028Y-44495282D01*
X94913941Y-44223449D01*
X94927517Y-43943590D01*
X94886234Y-43666460D01*
X94791679Y-43402708D01*
X94726388Y-43280557D01*
X94483705Y-43210500D01*
X93679605Y-44014600D01*
X93320395Y-44014600D01*
X92516295Y-43210500D01*
X92273612Y-43280557D01*
X92153972Y-43533918D01*
X92086059Y-43805751D01*
X92072483Y-44085610D01*
X1127000Y-44085610D01*
X1127000Y-43492702D01*
X9586903Y-43492702D01*
X9658486Y-43736671D01*
X9913996Y-43857571D01*
X10188184Y-43926300D01*
X10470512Y-43940217D01*
X10750130Y-43898787D01*
X11016292Y-43803603D01*
X11141514Y-43736671D01*
X11213097Y-43492702D01*
X10400000Y-42679605D01*
X9586903Y-43492702D01*
X1127000Y-43492702D01*
X1127000Y-42570512D01*
X8959783Y-42570512D01*
X9001213Y-42850130D01*
X9096397Y-43116292D01*
X9163329Y-43241514D01*
X9407298Y-43313097D01*
X10220395Y-42500000D01*
X10579605Y-42500000D01*
X11392702Y-43313097D01*
X11636671Y-43241514D01*
X11757571Y-42986004D01*
X11826300Y-42711816D01*
X11840217Y-42429488D01*
X11814422Y-42255391D01*
X83185000Y-42255391D01*
X83185000Y-42580609D01*
X83248447Y-42899579D01*
X83372903Y-43200042D01*
X83553585Y-43470451D01*
X83783549Y-43700415D01*
X84053958Y-43881097D01*
X84354421Y-44005553D01*
X84673391Y-44069000D01*
X84998609Y-44069000D01*
X85317579Y-44005553D01*
X85618042Y-43881097D01*
X85888451Y-43700415D01*
X86118415Y-43470451D01*
X86299097Y-43200042D01*
X86423553Y-42899579D01*
X86487000Y-42580609D01*
X86487000Y-42255391D01*
X86423553Y-41936421D01*
X86299097Y-41635958D01*
X86118415Y-41365549D01*
X85888451Y-41135585D01*
X85618042Y-40954903D01*
X85317579Y-40830447D01*
X84998609Y-40767000D01*
X84673391Y-40767000D01*
X84354421Y-40830447D01*
X84053958Y-40954903D01*
X83783549Y-41135585D01*
X83553585Y-41365549D01*
X83372903Y-41635958D01*
X83248447Y-41936421D01*
X83185000Y-42255391D01*
X11814422Y-42255391D01*
X11798787Y-42149870D01*
X11703603Y-41883708D01*
X11636671Y-41758486D01*
X11392702Y-41686903D01*
X10579605Y-42500000D01*
X10220395Y-42500000D01*
X9407298Y-41686903D01*
X9163329Y-41758486D01*
X9042429Y-42013996D01*
X8973700Y-42288184D01*
X8959783Y-42570512D01*
X1127000Y-42570512D01*
X1127000Y-41507298D01*
X9586903Y-41507298D01*
X10400000Y-42320395D01*
X11213097Y-41507298D01*
X11141514Y-41263329D01*
X10886004Y-41142429D01*
X10611816Y-41073700D01*
X10329488Y-41059783D01*
X10049870Y-41101213D01*
X9783708Y-41196397D01*
X9658486Y-41263329D01*
X9586903Y-41507298D01*
X1127000Y-41507298D01*
X1127000Y-36712600D01*
X5074528Y-36712600D01*
X5074528Y-38287400D01*
X5086788Y-38411882D01*
X5123098Y-38531580D01*
X5182063Y-38641894D01*
X5261415Y-38738585D01*
X5358106Y-38817937D01*
X5468420Y-38876902D01*
X5588118Y-38913212D01*
X5712600Y-38925472D01*
X7287400Y-38925472D01*
X7411882Y-38913212D01*
X7531580Y-38876902D01*
X7641894Y-38817937D01*
X7738585Y-38738585D01*
X7817937Y-38641894D01*
X7876902Y-38531580D01*
X7913212Y-38411882D01*
X7925472Y-38287400D01*
X7925472Y-37358665D01*
X10265000Y-37358665D01*
X10265000Y-37641335D01*
X10320147Y-37918574D01*
X10428320Y-38179727D01*
X10585363Y-38414759D01*
X10785241Y-38614637D01*
X11020273Y-38771680D01*
X11281426Y-38879853D01*
X11558665Y-38935000D01*
X11841335Y-38935000D01*
X12118574Y-38879853D01*
X12379727Y-38771680D01*
X12614759Y-38614637D01*
X12814637Y-38414759D01*
X12971680Y-38179727D01*
X13004703Y-38100000D01*
X77191928Y-38100000D01*
X77191928Y-39900000D01*
X77204188Y-40024482D01*
X77240498Y-40144180D01*
X77299463Y-40254494D01*
X77378815Y-40351185D01*
X77475506Y-40430537D01*
X77585820Y-40489502D01*
X77705518Y-40525812D01*
X77830000Y-40538072D01*
X79630000Y-40538072D01*
X79754482Y-40525812D01*
X79874180Y-40489502D01*
X79984494Y-40430537D01*
X80081185Y-40351185D01*
X80160537Y-40254494D01*
X80219502Y-40144180D01*
X80225056Y-40125873D01*
X80291495Y-40192312D01*
X80542905Y-40360299D01*
X80822257Y-40476011D01*
X81118816Y-40535000D01*
X81421184Y-40535000D01*
X81603853Y-40498665D01*
X88227000Y-40498665D01*
X88227000Y-40781335D01*
X88282147Y-41058574D01*
X88390320Y-41319727D01*
X88547363Y-41554759D01*
X88747241Y-41754637D01*
X88982273Y-41911680D01*
X89243426Y-42019853D01*
X89520665Y-42075000D01*
X89803335Y-42075000D01*
X90080574Y-42019853D01*
X90341727Y-41911680D01*
X90576759Y-41754637D01*
X90776637Y-41554759D01*
X90933680Y-41319727D01*
X91041853Y-41058574D01*
X91097000Y-40781335D01*
X91097000Y-40712600D01*
X92074528Y-40712600D01*
X92074528Y-42287400D01*
X92086788Y-42411882D01*
X92123098Y-42531580D01*
X92182063Y-42641894D01*
X92261415Y-42738585D01*
X92358106Y-42817937D01*
X92468420Y-42876902D01*
X92588118Y-42913212D01*
X92712600Y-42925472D01*
X92726333Y-42925472D01*
X92695900Y-43030895D01*
X93500000Y-43834995D01*
X94304100Y-43030895D01*
X94273667Y-42925472D01*
X94287400Y-42925472D01*
X94411882Y-42913212D01*
X94531580Y-42876902D01*
X94641894Y-42817937D01*
X94738585Y-42738585D01*
X94817937Y-42641894D01*
X94876902Y-42531580D01*
X94913212Y-42411882D01*
X94925472Y-42287400D01*
X94925472Y-40712600D01*
X94913212Y-40588118D01*
X94876902Y-40468420D01*
X94817937Y-40358106D01*
X94738585Y-40261415D01*
X94641894Y-40182063D01*
X94531580Y-40123098D01*
X94411882Y-40086788D01*
X94287400Y-40074528D01*
X92712600Y-40074528D01*
X92588118Y-40086788D01*
X92468420Y-40123098D01*
X92358106Y-40182063D01*
X92261415Y-40261415D01*
X92182063Y-40358106D01*
X92123098Y-40468420D01*
X92086788Y-40588118D01*
X92074528Y-40712600D01*
X91097000Y-40712600D01*
X91097000Y-40498665D01*
X91041853Y-40221426D01*
X90933680Y-39960273D01*
X90776637Y-39725241D01*
X90576759Y-39525363D01*
X90341727Y-39368320D01*
X90080574Y-39260147D01*
X89803335Y-39205000D01*
X89520665Y-39205000D01*
X89243426Y-39260147D01*
X88982273Y-39368320D01*
X88747241Y-39525363D01*
X88547363Y-39725241D01*
X88390320Y-39960273D01*
X88282147Y-40221426D01*
X88227000Y-40498665D01*
X81603853Y-40498665D01*
X81717743Y-40476011D01*
X81997095Y-40360299D01*
X82248505Y-40192312D01*
X82462312Y-39978505D01*
X82630299Y-39727095D01*
X82746011Y-39447743D01*
X82805000Y-39151184D01*
X82805000Y-38848816D01*
X82746011Y-38552257D01*
X82630299Y-38272905D01*
X82462312Y-38021495D01*
X82248505Y-37807688D01*
X81997095Y-37639701D01*
X81717743Y-37523989D01*
X81421184Y-37465000D01*
X81118816Y-37465000D01*
X80822257Y-37523989D01*
X80542905Y-37639701D01*
X80291495Y-37807688D01*
X80225056Y-37874127D01*
X80219502Y-37855820D01*
X80160537Y-37745506D01*
X80081185Y-37648815D01*
X79984494Y-37569463D01*
X79874180Y-37510498D01*
X79754482Y-37474188D01*
X79630000Y-37461928D01*
X77830000Y-37461928D01*
X77705518Y-37474188D01*
X77585820Y-37510498D01*
X77475506Y-37569463D01*
X77378815Y-37648815D01*
X77299463Y-37745506D01*
X77240498Y-37855820D01*
X77204188Y-37975518D01*
X77191928Y-38100000D01*
X13004703Y-38100000D01*
X13079853Y-37918574D01*
X13135000Y-37641335D01*
X13135000Y-37358665D01*
X13079853Y-37081426D01*
X12971680Y-36820273D01*
X12814637Y-36585241D01*
X12614759Y-36385363D01*
X12379727Y-36228320D01*
X12118574Y-36120147D01*
X11841335Y-36065000D01*
X11558665Y-36065000D01*
X11281426Y-36120147D01*
X11020273Y-36228320D01*
X10785241Y-36385363D01*
X10585363Y-36585241D01*
X10428320Y-36820273D01*
X10320147Y-37081426D01*
X10265000Y-37358665D01*
X7925472Y-37358665D01*
X7925472Y-36712600D01*
X7913212Y-36588118D01*
X7876902Y-36468420D01*
X7817937Y-36358106D01*
X7738585Y-36261415D01*
X7641894Y-36182063D01*
X7531580Y-36123098D01*
X7411882Y-36086788D01*
X7287400Y-36074528D01*
X7273667Y-36074528D01*
X7304100Y-35969105D01*
X7234995Y-35900000D01*
X17191928Y-35900000D01*
X17204188Y-36024482D01*
X17240498Y-36144180D01*
X17299463Y-36254494D01*
X17378815Y-36351185D01*
X17475506Y-36430537D01*
X17585820Y-36489502D01*
X17705518Y-36525812D01*
X17830000Y-36538072D01*
X18444250Y-36535000D01*
X18603000Y-36376250D01*
X18603000Y-35127000D01*
X17353750Y-35127000D01*
X17195000Y-35285750D01*
X17191928Y-35900000D01*
X7234995Y-35900000D01*
X6500000Y-35165005D01*
X5695900Y-35969105D01*
X5726333Y-36074528D01*
X5712600Y-36074528D01*
X5588118Y-36086788D01*
X5468420Y-36123098D01*
X5358106Y-36182063D01*
X5261415Y-36261415D01*
X5182063Y-36358106D01*
X5123098Y-36468420D01*
X5086788Y-36588118D01*
X5074528Y-36712600D01*
X1127000Y-36712600D01*
X1127000Y-35056410D01*
X5072483Y-35056410D01*
X5113766Y-35333540D01*
X5208321Y-35597292D01*
X5273612Y-35719443D01*
X5516295Y-35789500D01*
X6320395Y-34985400D01*
X6679605Y-34985400D01*
X7483705Y-35789500D01*
X7726388Y-35719443D01*
X7846028Y-35466082D01*
X7913941Y-35194249D01*
X7927517Y-34914390D01*
X7886234Y-34637260D01*
X7791679Y-34373508D01*
X7726388Y-34251357D01*
X7483705Y-34181300D01*
X6679605Y-34985400D01*
X6320395Y-34985400D01*
X5516295Y-34181300D01*
X5273612Y-34251357D01*
X5153972Y-34504718D01*
X5086059Y-34776551D01*
X5072483Y-35056410D01*
X1127000Y-35056410D01*
X1127000Y-32330706D01*
X5077600Y-32330706D01*
X5077600Y-32610894D01*
X5132262Y-32885699D01*
X5239486Y-33144559D01*
X5395150Y-33377527D01*
X5593273Y-33575650D01*
X5822479Y-33728800D01*
X5765957Y-33759012D01*
X5695900Y-34001695D01*
X6500000Y-34805795D01*
X7205795Y-34100000D01*
X17191928Y-34100000D01*
X17195000Y-34714250D01*
X17353750Y-34873000D01*
X18603000Y-34873000D01*
X18603000Y-33623750D01*
X18857000Y-33623750D01*
X18857000Y-34873000D01*
X18877000Y-34873000D01*
X18877000Y-35127000D01*
X18857000Y-35127000D01*
X18857000Y-36376250D01*
X19015750Y-36535000D01*
X19630000Y-36538072D01*
X19754482Y-36525812D01*
X19874180Y-36489502D01*
X19984494Y-36430537D01*
X20081185Y-36351185D01*
X20160537Y-36254494D01*
X20219502Y-36144180D01*
X20225056Y-36125873D01*
X20291495Y-36192312D01*
X20542905Y-36360299D01*
X20822257Y-36476011D01*
X21118816Y-36535000D01*
X21421184Y-36535000D01*
X21717743Y-36476011D01*
X21997095Y-36360299D01*
X22248505Y-36192312D01*
X22462312Y-35978505D01*
X22630299Y-35727095D01*
X22727388Y-35492702D01*
X87548903Y-35492702D01*
X87620486Y-35736671D01*
X87875996Y-35857571D01*
X88150184Y-35926300D01*
X88432512Y-35940217D01*
X88712130Y-35898787D01*
X88978292Y-35803603D01*
X89103514Y-35736671D01*
X89175097Y-35492702D01*
X88362000Y-34679605D01*
X87548903Y-35492702D01*
X22727388Y-35492702D01*
X22746011Y-35447743D01*
X22805000Y-35151184D01*
X22805000Y-34848816D01*
X22746011Y-34552257D01*
X22630299Y-34272905D01*
X22462312Y-34021495D01*
X22248505Y-33807688D01*
X21997095Y-33639701D01*
X21948063Y-33619391D01*
X36449000Y-33619391D01*
X36449000Y-33944609D01*
X36512447Y-34263579D01*
X36636903Y-34564042D01*
X36817585Y-34834451D01*
X37047549Y-35064415D01*
X37317958Y-35245097D01*
X37618421Y-35369553D01*
X37937391Y-35433000D01*
X38262609Y-35433000D01*
X38581579Y-35369553D01*
X38882042Y-35245097D01*
X39152451Y-35064415D01*
X39382415Y-34834451D01*
X39558773Y-34570512D01*
X86921783Y-34570512D01*
X86963213Y-34850130D01*
X87058397Y-35116292D01*
X87125329Y-35241514D01*
X87369298Y-35313097D01*
X88182395Y-34500000D01*
X88541605Y-34500000D01*
X89354702Y-35313097D01*
X89598671Y-35241514D01*
X89719571Y-34986004D01*
X89788300Y-34711816D01*
X89802217Y-34429488D01*
X89760787Y-34149870D01*
X89706585Y-33998305D01*
X92695900Y-33998305D01*
X92765957Y-34240988D01*
X93019318Y-34360628D01*
X93291151Y-34428541D01*
X93571010Y-34442117D01*
X93848140Y-34400834D01*
X94111892Y-34306279D01*
X94234043Y-34240988D01*
X94304100Y-33998305D01*
X93500000Y-33194205D01*
X92695900Y-33998305D01*
X89706585Y-33998305D01*
X89665603Y-33883708D01*
X89598671Y-33758486D01*
X89354702Y-33686903D01*
X88541605Y-34500000D01*
X88182395Y-34500000D01*
X87369298Y-33686903D01*
X87125329Y-33758486D01*
X87004429Y-34013996D01*
X86935700Y-34288184D01*
X86921783Y-34570512D01*
X39558773Y-34570512D01*
X39563097Y-34564042D01*
X39687553Y-34263579D01*
X39751000Y-33944609D01*
X39751000Y-33619391D01*
X39728704Y-33507298D01*
X87548903Y-33507298D01*
X88362000Y-34320395D01*
X89175097Y-33507298D01*
X89103514Y-33263329D01*
X88848004Y-33142429D01*
X88621330Y-33085610D01*
X92072483Y-33085610D01*
X92113766Y-33362740D01*
X92208321Y-33626492D01*
X92273612Y-33748643D01*
X92516295Y-33818700D01*
X93320395Y-33014600D01*
X93679605Y-33014600D01*
X94483705Y-33818700D01*
X94726388Y-33748643D01*
X94846028Y-33495282D01*
X94913941Y-33223449D01*
X94927517Y-32943590D01*
X94886234Y-32666460D01*
X94791679Y-32402708D01*
X94726388Y-32280557D01*
X94483705Y-32210500D01*
X93679605Y-33014600D01*
X93320395Y-33014600D01*
X92516295Y-32210500D01*
X92273612Y-32280557D01*
X92153972Y-32533918D01*
X92086059Y-32805751D01*
X92072483Y-33085610D01*
X88621330Y-33085610D01*
X88573816Y-33073700D01*
X88291488Y-33059783D01*
X88011870Y-33101213D01*
X87745708Y-33196397D01*
X87620486Y-33263329D01*
X87548903Y-33507298D01*
X39728704Y-33507298D01*
X39687553Y-33300421D01*
X39563097Y-32999958D01*
X39382415Y-32729549D01*
X39152451Y-32499585D01*
X38882042Y-32318903D01*
X38581579Y-32194447D01*
X38262609Y-32131000D01*
X37937391Y-32131000D01*
X37618421Y-32194447D01*
X37317958Y-32318903D01*
X37047549Y-32499585D01*
X36817585Y-32729549D01*
X36636903Y-32999958D01*
X36512447Y-33300421D01*
X36449000Y-33619391D01*
X21948063Y-33619391D01*
X21717743Y-33523989D01*
X21421184Y-33465000D01*
X21118816Y-33465000D01*
X20822257Y-33523989D01*
X20542905Y-33639701D01*
X20291495Y-33807688D01*
X20225056Y-33874127D01*
X20219502Y-33855820D01*
X20160537Y-33745506D01*
X20081185Y-33648815D01*
X19984494Y-33569463D01*
X19874180Y-33510498D01*
X19754482Y-33474188D01*
X19630000Y-33461928D01*
X19015750Y-33465000D01*
X18857000Y-33623750D01*
X18603000Y-33623750D01*
X18444250Y-33465000D01*
X17830000Y-33461928D01*
X17705518Y-33474188D01*
X17585820Y-33510498D01*
X17475506Y-33569463D01*
X17378815Y-33648815D01*
X17299463Y-33745506D01*
X17240498Y-33855820D01*
X17204188Y-33975518D01*
X17191928Y-34100000D01*
X7205795Y-34100000D01*
X7304100Y-34001695D01*
X7234043Y-33759012D01*
X7174433Y-33730864D01*
X7406727Y-33575650D01*
X7604850Y-33377527D01*
X7760514Y-33144559D01*
X7867738Y-32885699D01*
X7922400Y-32610894D01*
X7922400Y-32330706D01*
X7908071Y-32258665D01*
X8965000Y-32258665D01*
X8965000Y-32541335D01*
X9020147Y-32818574D01*
X9128320Y-33079727D01*
X9285363Y-33314759D01*
X9485241Y-33514637D01*
X9720273Y-33671680D01*
X9981426Y-33779853D01*
X10258665Y-33835000D01*
X10541335Y-33835000D01*
X10818574Y-33779853D01*
X11079727Y-33671680D01*
X11314759Y-33514637D01*
X11514637Y-33314759D01*
X11671680Y-33079727D01*
X11779853Y-32818574D01*
X11835000Y-32541335D01*
X11835000Y-32258665D01*
X11779853Y-31981426D01*
X11671680Y-31720273D01*
X11514637Y-31485241D01*
X11314759Y-31285363D01*
X11079727Y-31128320D01*
X10818574Y-31020147D01*
X10541335Y-30965000D01*
X10258665Y-30965000D01*
X9981426Y-31020147D01*
X9720273Y-31128320D01*
X9485241Y-31285363D01*
X9285363Y-31485241D01*
X9128320Y-31720273D01*
X9020147Y-31981426D01*
X8965000Y-32258665D01*
X7908071Y-32258665D01*
X7867738Y-32055901D01*
X7760514Y-31797041D01*
X7604850Y-31564073D01*
X7406727Y-31365950D01*
X7173759Y-31210286D01*
X6914899Y-31103062D01*
X6640094Y-31048400D01*
X6359906Y-31048400D01*
X6085101Y-31103062D01*
X5826241Y-31210286D01*
X5593273Y-31365950D01*
X5395150Y-31564073D01*
X5239486Y-31797041D01*
X5132262Y-32055901D01*
X5077600Y-32330706D01*
X1127000Y-32330706D01*
X1127000Y-29809391D01*
X83185000Y-29809391D01*
X83185000Y-30134609D01*
X83248447Y-30453579D01*
X83372903Y-30754042D01*
X83553585Y-31024451D01*
X83783549Y-31254415D01*
X84053958Y-31435097D01*
X84354421Y-31559553D01*
X84673391Y-31623000D01*
X84998609Y-31623000D01*
X85317579Y-31559553D01*
X85618042Y-31435097D01*
X85888451Y-31254415D01*
X86118415Y-31024451D01*
X86299097Y-30754042D01*
X86423553Y-30453579D01*
X86487000Y-30134609D01*
X86487000Y-29809391D01*
X86423553Y-29490421D01*
X86368978Y-29358665D01*
X88227000Y-29358665D01*
X88227000Y-29641335D01*
X88282147Y-29918574D01*
X88390320Y-30179727D01*
X88547363Y-30414759D01*
X88747241Y-30614637D01*
X88982273Y-30771680D01*
X89243426Y-30879853D01*
X89520665Y-30935000D01*
X89803335Y-30935000D01*
X90080574Y-30879853D01*
X90341727Y-30771680D01*
X90576759Y-30614637D01*
X90776637Y-30414759D01*
X90933680Y-30179727D01*
X91041853Y-29918574D01*
X91082824Y-29712600D01*
X92074528Y-29712600D01*
X92074528Y-31287400D01*
X92086788Y-31411882D01*
X92123098Y-31531580D01*
X92182063Y-31641894D01*
X92261415Y-31738585D01*
X92358106Y-31817937D01*
X92468420Y-31876902D01*
X92588118Y-31913212D01*
X92712600Y-31925472D01*
X92726333Y-31925472D01*
X92695900Y-32030895D01*
X93500000Y-32834995D01*
X94304100Y-32030895D01*
X94273667Y-31925472D01*
X94287400Y-31925472D01*
X94411882Y-31913212D01*
X94531580Y-31876902D01*
X94641894Y-31817937D01*
X94738585Y-31738585D01*
X94817937Y-31641894D01*
X94876902Y-31531580D01*
X94913212Y-31411882D01*
X94925472Y-31287400D01*
X94925472Y-29712600D01*
X94913212Y-29588118D01*
X94876902Y-29468420D01*
X94817937Y-29358106D01*
X94738585Y-29261415D01*
X94641894Y-29182063D01*
X94531580Y-29123098D01*
X94411882Y-29086788D01*
X94287400Y-29074528D01*
X92712600Y-29074528D01*
X92588118Y-29086788D01*
X92468420Y-29123098D01*
X92358106Y-29182063D01*
X92261415Y-29261415D01*
X92182063Y-29358106D01*
X92123098Y-29468420D01*
X92086788Y-29588118D01*
X92074528Y-29712600D01*
X91082824Y-29712600D01*
X91097000Y-29641335D01*
X91097000Y-29358665D01*
X91041853Y-29081426D01*
X90933680Y-28820273D01*
X90776637Y-28585241D01*
X90576759Y-28385363D01*
X90341727Y-28228320D01*
X90080574Y-28120147D01*
X89803335Y-28065000D01*
X89520665Y-28065000D01*
X89243426Y-28120147D01*
X88982273Y-28228320D01*
X88747241Y-28385363D01*
X88547363Y-28585241D01*
X88390320Y-28820273D01*
X88282147Y-29081426D01*
X88227000Y-29358665D01*
X86368978Y-29358665D01*
X86299097Y-29189958D01*
X86118415Y-28919549D01*
X85888451Y-28689585D01*
X85618042Y-28508903D01*
X85317579Y-28384447D01*
X84998609Y-28321000D01*
X84673391Y-28321000D01*
X84354421Y-28384447D01*
X84053958Y-28508903D01*
X83783549Y-28689585D01*
X83553585Y-28919549D01*
X83372903Y-29189958D01*
X83248447Y-29490421D01*
X83185000Y-29809391D01*
X1127000Y-29809391D01*
X1127000Y-28392702D01*
X10886903Y-28392702D01*
X10958486Y-28636671D01*
X11213996Y-28757571D01*
X11488184Y-28826300D01*
X11770512Y-28840217D01*
X12050130Y-28798787D01*
X12316292Y-28703603D01*
X12441514Y-28636671D01*
X12513097Y-28392702D01*
X11700000Y-27579605D01*
X10886903Y-28392702D01*
X1127000Y-28392702D01*
X1127000Y-27470512D01*
X10259783Y-27470512D01*
X10301213Y-27750130D01*
X10396397Y-28016292D01*
X10463329Y-28141514D01*
X10707298Y-28213097D01*
X11520395Y-27400000D01*
X11879605Y-27400000D01*
X12692702Y-28213097D01*
X12936671Y-28141514D01*
X13057571Y-27886004D01*
X13126300Y-27611816D01*
X13140217Y-27329488D01*
X13098787Y-27049870D01*
X13003603Y-26783708D01*
X12936671Y-26658486D01*
X12692702Y-26586903D01*
X11879605Y-27400000D01*
X11520395Y-27400000D01*
X10707298Y-26586903D01*
X10463329Y-26658486D01*
X10342429Y-26913996D01*
X10273700Y-27188184D01*
X10259783Y-27470512D01*
X1127000Y-27470512D01*
X1127000Y-26407298D01*
X10886903Y-26407298D01*
X11700000Y-27220395D01*
X12513097Y-26407298D01*
X12441514Y-26163329D01*
X12307675Y-26100000D01*
X77191928Y-26100000D01*
X77191928Y-27900000D01*
X77204188Y-28024482D01*
X77240498Y-28144180D01*
X77299463Y-28254494D01*
X77378815Y-28351185D01*
X77475506Y-28430537D01*
X77585820Y-28489502D01*
X77705518Y-28525812D01*
X77830000Y-28538072D01*
X79630000Y-28538072D01*
X79754482Y-28525812D01*
X79874180Y-28489502D01*
X79984494Y-28430537D01*
X80081185Y-28351185D01*
X80160537Y-28254494D01*
X80219502Y-28144180D01*
X80225056Y-28125873D01*
X80291495Y-28192312D01*
X80542905Y-28360299D01*
X80822257Y-28476011D01*
X81118816Y-28535000D01*
X81421184Y-28535000D01*
X81717743Y-28476011D01*
X81997095Y-28360299D01*
X82248505Y-28192312D01*
X82462312Y-27978505D01*
X82630299Y-27727095D01*
X82746011Y-27447743D01*
X82805000Y-27151184D01*
X82805000Y-26848816D01*
X82746011Y-26552257D01*
X82630299Y-26272905D01*
X82462312Y-26021495D01*
X82248505Y-25807688D01*
X81997095Y-25639701D01*
X81717743Y-25523989D01*
X81421184Y-25465000D01*
X81118816Y-25465000D01*
X80822257Y-25523989D01*
X80542905Y-25639701D01*
X80291495Y-25807688D01*
X80225056Y-25874127D01*
X80219502Y-25855820D01*
X80160537Y-25745506D01*
X80081185Y-25648815D01*
X79984494Y-25569463D01*
X79874180Y-25510498D01*
X79754482Y-25474188D01*
X79630000Y-25461928D01*
X77830000Y-25461928D01*
X77705518Y-25474188D01*
X77585820Y-25510498D01*
X77475506Y-25569463D01*
X77378815Y-25648815D01*
X77299463Y-25745506D01*
X77240498Y-25855820D01*
X77204188Y-25975518D01*
X77191928Y-26100000D01*
X12307675Y-26100000D01*
X12186004Y-26042429D01*
X11911816Y-25973700D01*
X11629488Y-25959783D01*
X11349870Y-26001213D01*
X11083708Y-26096397D01*
X10958486Y-26163329D01*
X10886903Y-26407298D01*
X1127000Y-26407298D01*
X1127000Y-23833500D01*
X3028428Y-23833500D01*
X3040688Y-23957982D01*
X3076998Y-24077680D01*
X3135963Y-24187994D01*
X3215315Y-24284685D01*
X3312006Y-24364037D01*
X3422320Y-24423002D01*
X3542018Y-24459312D01*
X3666500Y-24471572D01*
X4714250Y-24468500D01*
X4873000Y-24309750D01*
X4873000Y-22627000D01*
X5127000Y-22627000D01*
X5127000Y-24309750D01*
X5285750Y-24468500D01*
X6333500Y-24471572D01*
X6457982Y-24459312D01*
X6577680Y-24423002D01*
X6687994Y-24364037D01*
X6784685Y-24284685D01*
X6864037Y-24187994D01*
X6923002Y-24077680D01*
X6959312Y-23957982D01*
X6971572Y-23833500D01*
X6968500Y-22785750D01*
X6809750Y-22627000D01*
X5127000Y-22627000D01*
X4873000Y-22627000D01*
X3190250Y-22627000D01*
X3031500Y-22785750D01*
X3028428Y-23833500D01*
X1127000Y-23833500D01*
X1127000Y-21166500D01*
X3028428Y-21166500D01*
X3031500Y-22214250D01*
X3190250Y-22373000D01*
X4873000Y-22373000D01*
X4873000Y-20690250D01*
X5127000Y-20690250D01*
X5127000Y-22373000D01*
X6809750Y-22373000D01*
X6968500Y-22214250D01*
X6971572Y-21166500D01*
X6960099Y-21050000D01*
X21011928Y-21050000D01*
X21011928Y-23550000D01*
X21024188Y-23674482D01*
X21060498Y-23794180D01*
X21119463Y-23904494D01*
X21198815Y-24001185D01*
X21295506Y-24080537D01*
X21405820Y-24139502D01*
X21525518Y-24175812D01*
X21650000Y-24188072D01*
X23150000Y-24188072D01*
X23274482Y-24175812D01*
X23394180Y-24139502D01*
X23504494Y-24080537D01*
X23601185Y-24001185D01*
X23680537Y-23904494D01*
X23739502Y-23794180D01*
X23775812Y-23674482D01*
X23786582Y-23565126D01*
X23858972Y-23675061D01*
X24050460Y-23869145D01*
X24276132Y-24022142D01*
X24527316Y-24128173D01*
X24598815Y-24142318D01*
X24813000Y-24019656D01*
X24813000Y-22427000D01*
X24793000Y-22427000D01*
X24793000Y-22173000D01*
X24813000Y-22173000D01*
X24813000Y-20580344D01*
X25067000Y-20580344D01*
X25067000Y-22173000D01*
X25087000Y-22173000D01*
X25087000Y-22427000D01*
X25067000Y-22427000D01*
X25067000Y-24019656D01*
X25281185Y-24142318D01*
X25352684Y-24128173D01*
X25603868Y-24022142D01*
X25829540Y-23869145D01*
X26021028Y-23675061D01*
X26170972Y-23447349D01*
X26207514Y-23357422D01*
X26322843Y-23573188D01*
X26495920Y-23784081D01*
X26706813Y-23957157D01*
X26947420Y-24085764D01*
X27208494Y-24164960D01*
X27480000Y-24191701D01*
X27751507Y-24164960D01*
X28012581Y-24085764D01*
X28253188Y-23957157D01*
X28464081Y-23784081D01*
X28637157Y-23573188D01*
X28765764Y-23332581D01*
X28844960Y-23071507D01*
X28865000Y-22868037D01*
X28865000Y-21750000D01*
X77411928Y-21750000D01*
X77424188Y-21874482D01*
X77460498Y-21994180D01*
X77519463Y-22104494D01*
X77598815Y-22201185D01*
X77695506Y-22280537D01*
X77805820Y-22339502D01*
X77925518Y-22375812D01*
X78050000Y-22388072D01*
X78514250Y-22385000D01*
X78673000Y-22226250D01*
X78673000Y-21127000D01*
X78927000Y-21127000D01*
X78927000Y-22226250D01*
X79085750Y-22385000D01*
X79550000Y-22388072D01*
X79674482Y-22375812D01*
X79794180Y-22339502D01*
X79904494Y-22280537D01*
X80001185Y-22201185D01*
X80080537Y-22104494D01*
X80139502Y-21994180D01*
X80139950Y-21992702D01*
X86186903Y-21992702D01*
X86258486Y-22236671D01*
X86513996Y-22357571D01*
X86788184Y-22426300D01*
X87070512Y-22440217D01*
X87350130Y-22398787D01*
X87616292Y-22303603D01*
X87741514Y-22236671D01*
X87813097Y-21992702D01*
X87000000Y-21179605D01*
X86186903Y-21992702D01*
X80139950Y-21992702D01*
X80175812Y-21874482D01*
X80188072Y-21750000D01*
X80185000Y-21285750D01*
X80026250Y-21127000D01*
X78927000Y-21127000D01*
X78673000Y-21127000D01*
X77573750Y-21127000D01*
X77415000Y-21285750D01*
X77411928Y-21750000D01*
X28865000Y-21750000D01*
X28865000Y-21731963D01*
X28844960Y-21528493D01*
X28765764Y-21267419D01*
X28660516Y-21070512D01*
X85559783Y-21070512D01*
X85601213Y-21350130D01*
X85696397Y-21616292D01*
X85763329Y-21741514D01*
X86007298Y-21813097D01*
X86820395Y-21000000D01*
X87179605Y-21000000D01*
X87992702Y-21813097D01*
X88236671Y-21741514D01*
X88357571Y-21486004D01*
X88426300Y-21211816D01*
X88436824Y-20998305D01*
X92695900Y-20998305D01*
X92765957Y-21240988D01*
X93019318Y-21360628D01*
X93291151Y-21428541D01*
X93571010Y-21442117D01*
X93848140Y-21400834D01*
X94111892Y-21306279D01*
X94234043Y-21240988D01*
X94304100Y-20998305D01*
X93500000Y-20194205D01*
X92695900Y-20998305D01*
X88436824Y-20998305D01*
X88440217Y-20929488D01*
X88398787Y-20649870D01*
X88303603Y-20383708D01*
X88236671Y-20258486D01*
X87992702Y-20186903D01*
X87179605Y-21000000D01*
X86820395Y-21000000D01*
X86007298Y-20186903D01*
X85763329Y-20258486D01*
X85642429Y-20513996D01*
X85573700Y-20788184D01*
X85559783Y-21070512D01*
X28660516Y-21070512D01*
X28637157Y-21026812D01*
X28464080Y-20815919D01*
X28253187Y-20642843D01*
X28012580Y-20514236D01*
X27751506Y-20435040D01*
X27480000Y-20408299D01*
X27208493Y-20435040D01*
X26947419Y-20514236D01*
X26706812Y-20642843D01*
X26495919Y-20815920D01*
X26322843Y-21026813D01*
X26207514Y-21242579D01*
X26170972Y-21152651D01*
X26021028Y-20924939D01*
X25829540Y-20730855D01*
X25603868Y-20577858D01*
X25352684Y-20471827D01*
X25281185Y-20457682D01*
X25067000Y-20580344D01*
X24813000Y-20580344D01*
X24598815Y-20457682D01*
X24527316Y-20471827D01*
X24276132Y-20577858D01*
X24050460Y-20730855D01*
X23858972Y-20924939D01*
X23786582Y-21034874D01*
X23775812Y-20925518D01*
X23739502Y-20805820D01*
X23680537Y-20695506D01*
X23601185Y-20598815D01*
X23504494Y-20519463D01*
X23394180Y-20460498D01*
X23274482Y-20424188D01*
X23150000Y-20411928D01*
X21650000Y-20411928D01*
X21525518Y-20424188D01*
X21405820Y-20460498D01*
X21295506Y-20519463D01*
X21198815Y-20598815D01*
X21119463Y-20695506D01*
X21060498Y-20805820D01*
X21024188Y-20925518D01*
X21011928Y-21050000D01*
X6960099Y-21050000D01*
X6959312Y-21042018D01*
X6923002Y-20922320D01*
X6864037Y-20812006D01*
X6784685Y-20715315D01*
X6687994Y-20635963D01*
X6577680Y-20576998D01*
X6457982Y-20540688D01*
X6333500Y-20528428D01*
X5285750Y-20531500D01*
X5127000Y-20690250D01*
X4873000Y-20690250D01*
X4714250Y-20531500D01*
X3666500Y-20528428D01*
X3542018Y-20540688D01*
X3422320Y-20576998D01*
X3312006Y-20635963D01*
X3215315Y-20715315D01*
X3135963Y-20812006D01*
X3076998Y-20922320D01*
X3040688Y-21042018D01*
X3028428Y-21166500D01*
X1127000Y-21166500D01*
X1127000Y-20250000D01*
X77411928Y-20250000D01*
X77415000Y-20714250D01*
X77573750Y-20873000D01*
X78673000Y-20873000D01*
X78673000Y-20853000D01*
X78927000Y-20853000D01*
X78927000Y-20873000D01*
X80026250Y-20873000D01*
X80185000Y-20714250D01*
X80188072Y-20250000D01*
X80175812Y-20125518D01*
X80139951Y-20007298D01*
X86186903Y-20007298D01*
X87000000Y-20820395D01*
X87734785Y-20085610D01*
X92072483Y-20085610D01*
X92113766Y-20362740D01*
X92208321Y-20626492D01*
X92273612Y-20748643D01*
X92516295Y-20818700D01*
X93320395Y-20014600D01*
X93679605Y-20014600D01*
X94483705Y-20818700D01*
X94726388Y-20748643D01*
X94846028Y-20495282D01*
X94913941Y-20223449D01*
X94927517Y-19943590D01*
X94886234Y-19666460D01*
X94791679Y-19402708D01*
X94726388Y-19280557D01*
X94483705Y-19210500D01*
X93679605Y-20014600D01*
X93320395Y-20014600D01*
X92516295Y-19210500D01*
X92273612Y-19280557D01*
X92153972Y-19533918D01*
X92086059Y-19805751D01*
X92072483Y-20085610D01*
X87734785Y-20085610D01*
X87813097Y-20007298D01*
X87741514Y-19763329D01*
X87486004Y-19642429D01*
X87211816Y-19573700D01*
X86929488Y-19559783D01*
X86649870Y-19601213D01*
X86383708Y-19696397D01*
X86258486Y-19763329D01*
X86186903Y-20007298D01*
X80139951Y-20007298D01*
X80139502Y-20005820D01*
X80080537Y-19895506D01*
X80001185Y-19798815D01*
X79904494Y-19719463D01*
X79794180Y-19660498D01*
X79674482Y-19624188D01*
X79566517Y-19613555D01*
X79682886Y-19535799D01*
X79875799Y-19342886D01*
X80027371Y-19116043D01*
X80131775Y-18863989D01*
X80185000Y-18596411D01*
X80185000Y-18323589D01*
X80131775Y-18056011D01*
X80027371Y-17803957D01*
X79875799Y-17577114D01*
X79682886Y-17384201D01*
X79456043Y-17232629D01*
X79353127Y-17190000D01*
X79456043Y-17147371D01*
X79682886Y-16995799D01*
X79875799Y-16802886D01*
X80027371Y-16576043D01*
X80131775Y-16323989D01*
X80185000Y-16056411D01*
X80185000Y-15783589D01*
X80131775Y-15516011D01*
X80027371Y-15263957D01*
X79875799Y-15037114D01*
X79682886Y-14844201D01*
X79456043Y-14692629D01*
X79203989Y-14588225D01*
X79109305Y-14569391D01*
X82169000Y-14569391D01*
X82169000Y-14894609D01*
X82232447Y-15213579D01*
X82356903Y-15514042D01*
X82537585Y-15784451D01*
X82767549Y-16014415D01*
X83037958Y-16195097D01*
X83338421Y-16319553D01*
X83657391Y-16383000D01*
X83982609Y-16383000D01*
X84301579Y-16319553D01*
X84602042Y-16195097D01*
X84872451Y-16014415D01*
X85028201Y-15858665D01*
X86865000Y-15858665D01*
X86865000Y-16141335D01*
X86920147Y-16418574D01*
X87028320Y-16679727D01*
X87185363Y-16914759D01*
X87385241Y-17114637D01*
X87620273Y-17271680D01*
X87881426Y-17379853D01*
X88158665Y-17435000D01*
X88441335Y-17435000D01*
X88718574Y-17379853D01*
X88979727Y-17271680D01*
X89214759Y-17114637D01*
X89414637Y-16914759D01*
X89549715Y-16712600D01*
X92074528Y-16712600D01*
X92074528Y-18287400D01*
X92086788Y-18411882D01*
X92123098Y-18531580D01*
X92182063Y-18641894D01*
X92261415Y-18738585D01*
X92358106Y-18817937D01*
X92468420Y-18876902D01*
X92588118Y-18913212D01*
X92712600Y-18925472D01*
X92726333Y-18925472D01*
X92695900Y-19030895D01*
X93500000Y-19834995D01*
X94304100Y-19030895D01*
X94273667Y-18925472D01*
X94287400Y-18925472D01*
X94411882Y-18913212D01*
X94531580Y-18876902D01*
X94641894Y-18817937D01*
X94738585Y-18738585D01*
X94817937Y-18641894D01*
X94876902Y-18531580D01*
X94913212Y-18411882D01*
X94925472Y-18287400D01*
X94925472Y-16712600D01*
X94913212Y-16588118D01*
X94876902Y-16468420D01*
X94817937Y-16358106D01*
X94738585Y-16261415D01*
X94641894Y-16182063D01*
X94531580Y-16123098D01*
X94411882Y-16086788D01*
X94287400Y-16074528D01*
X92712600Y-16074528D01*
X92588118Y-16086788D01*
X92468420Y-16123098D01*
X92358106Y-16182063D01*
X92261415Y-16261415D01*
X92182063Y-16358106D01*
X92123098Y-16468420D01*
X92086788Y-16588118D01*
X92074528Y-16712600D01*
X89549715Y-16712600D01*
X89571680Y-16679727D01*
X89679853Y-16418574D01*
X89735000Y-16141335D01*
X89735000Y-15858665D01*
X89679853Y-15581426D01*
X89571680Y-15320273D01*
X89414637Y-15085241D01*
X89214759Y-14885363D01*
X88979727Y-14728320D01*
X88718574Y-14620147D01*
X88441335Y-14565000D01*
X88158665Y-14565000D01*
X87881426Y-14620147D01*
X87620273Y-14728320D01*
X87385241Y-14885363D01*
X87185363Y-15085241D01*
X87028320Y-15320273D01*
X86920147Y-15581426D01*
X86865000Y-15858665D01*
X85028201Y-15858665D01*
X85102415Y-15784451D01*
X85283097Y-15514042D01*
X85407553Y-15213579D01*
X85471000Y-14894609D01*
X85471000Y-14569391D01*
X85407553Y-14250421D01*
X85283097Y-13949958D01*
X85102415Y-13679549D01*
X84872451Y-13449585D01*
X84602042Y-13268903D01*
X84301579Y-13144447D01*
X83982609Y-13081000D01*
X83657391Y-13081000D01*
X83338421Y-13144447D01*
X83037958Y-13268903D01*
X82767549Y-13449585D01*
X82537585Y-13679549D01*
X82356903Y-13949958D01*
X82232447Y-14250421D01*
X82169000Y-14569391D01*
X79109305Y-14569391D01*
X78936411Y-14535000D01*
X78663589Y-14535000D01*
X78396011Y-14588225D01*
X78143957Y-14692629D01*
X77917114Y-14844201D01*
X77724201Y-15037114D01*
X77572629Y-15263957D01*
X77468225Y-15516011D01*
X77415000Y-15783589D01*
X77415000Y-16056411D01*
X77468225Y-16323989D01*
X77572629Y-16576043D01*
X77724201Y-16802886D01*
X77917114Y-16995799D01*
X78143957Y-17147371D01*
X78246873Y-17190000D01*
X78143957Y-17232629D01*
X77917114Y-17384201D01*
X77724201Y-17577114D01*
X77572629Y-17803957D01*
X77468225Y-18056011D01*
X77415000Y-18323589D01*
X77415000Y-18596411D01*
X77468225Y-18863989D01*
X77572629Y-19116043D01*
X77724201Y-19342886D01*
X77917114Y-19535799D01*
X78033483Y-19613555D01*
X77925518Y-19624188D01*
X77805820Y-19660498D01*
X77695506Y-19719463D01*
X77598815Y-19798815D01*
X77519463Y-19895506D01*
X77460498Y-20005820D01*
X77424188Y-20125518D01*
X77411928Y-20250000D01*
X1127000Y-20250000D01*
X1127000Y-17302320D01*
X3031500Y-17302320D01*
X3031500Y-17690080D01*
X3107148Y-18070390D01*
X3255538Y-18428635D01*
X3470966Y-18751046D01*
X3745154Y-19025234D01*
X4067565Y-19240662D01*
X4425810Y-19389052D01*
X4806120Y-19464700D01*
X5193880Y-19464700D01*
X5574190Y-19389052D01*
X5932435Y-19240662D01*
X6254846Y-19025234D01*
X6529034Y-18751046D01*
X6744462Y-18428635D01*
X6892852Y-18070390D01*
X6968500Y-17690080D01*
X6968500Y-17302320D01*
X6892852Y-16922010D01*
X6744462Y-16563765D01*
X6529034Y-16241354D01*
X6254846Y-15967166D01*
X5932435Y-15751738D01*
X5574190Y-15603348D01*
X5193880Y-15527700D01*
X4806120Y-15527700D01*
X4425810Y-15603348D01*
X4067565Y-15751738D01*
X3745154Y-15967166D01*
X3470966Y-16241354D01*
X3255538Y-16563765D01*
X3107148Y-16922010D01*
X3031500Y-17302320D01*
X1127000Y-17302320D01*
X1127000Y-15077391D01*
X38989000Y-15077391D01*
X38989000Y-15402609D01*
X39052447Y-15721579D01*
X39176903Y-16022042D01*
X39357585Y-16292451D01*
X39587549Y-16522415D01*
X39857958Y-16703097D01*
X40158421Y-16827553D01*
X40477391Y-16891000D01*
X40802609Y-16891000D01*
X41121579Y-16827553D01*
X41338498Y-16737702D01*
X41462903Y-17038042D01*
X41643585Y-17308451D01*
X41873549Y-17538415D01*
X42143958Y-17719097D01*
X42444421Y-17843553D01*
X42763391Y-17907000D01*
X43088609Y-17907000D01*
X43407579Y-17843553D01*
X43708042Y-17719097D01*
X43978451Y-17538415D01*
X44208415Y-17308451D01*
X44389097Y-17038042D01*
X44513553Y-16737579D01*
X44577000Y-16418609D01*
X44577000Y-16256004D01*
X44730421Y-16319553D01*
X45049391Y-16383000D01*
X45374609Y-16383000D01*
X45693579Y-16319553D01*
X45994042Y-16195097D01*
X46264451Y-16014415D01*
X46494415Y-15784451D01*
X46675097Y-15514042D01*
X46799553Y-15213579D01*
X46863000Y-14894609D01*
X46863000Y-14569391D01*
X46799553Y-14250421D01*
X46675097Y-13949958D01*
X46494415Y-13679549D01*
X46264451Y-13449585D01*
X45994042Y-13268903D01*
X45693579Y-13144447D01*
X45374609Y-13081000D01*
X45049391Y-13081000D01*
X44730421Y-13144447D01*
X44429958Y-13268903D01*
X44159549Y-13449585D01*
X43929585Y-13679549D01*
X43748903Y-13949958D01*
X43624447Y-14250421D01*
X43561000Y-14569391D01*
X43561000Y-14731996D01*
X43407579Y-14668447D01*
X43088609Y-14605000D01*
X42763391Y-14605000D01*
X42444421Y-14668447D01*
X42227502Y-14758298D01*
X42103097Y-14457958D01*
X41922415Y-14187549D01*
X41692451Y-13957585D01*
X41422042Y-13776903D01*
X41121579Y-13652447D01*
X40802609Y-13589000D01*
X40477391Y-13589000D01*
X40158421Y-13652447D01*
X39857958Y-13776903D01*
X39587549Y-13957585D01*
X39357585Y-14187549D01*
X39176903Y-14457958D01*
X39052447Y-14758421D01*
X38989000Y-15077391D01*
X1127000Y-15077391D01*
X1127000Y-11368514D01*
X3585000Y-11368514D01*
X3585000Y-11631486D01*
X3636304Y-11889405D01*
X3736939Y-12132359D01*
X3883038Y-12351013D01*
X4068987Y-12536962D01*
X4287641Y-12683061D01*
X4530595Y-12783696D01*
X4788514Y-12835000D01*
X5051486Y-12835000D01*
X5309405Y-12783696D01*
X5552359Y-12683061D01*
X5771013Y-12536962D01*
X5956962Y-12351013D01*
X6103061Y-12132359D01*
X6203696Y-11889405D01*
X6255000Y-11631486D01*
X6255000Y-11368514D01*
X8665000Y-11368514D01*
X8665000Y-11631486D01*
X8716304Y-11889405D01*
X8816939Y-12132359D01*
X8963038Y-12351013D01*
X9148987Y-12536962D01*
X9367641Y-12683061D01*
X9610595Y-12783696D01*
X9868514Y-12835000D01*
X10131486Y-12835000D01*
X10389405Y-12783696D01*
X10632359Y-12683061D01*
X10851013Y-12536962D01*
X11036962Y-12351013D01*
X11183061Y-12132359D01*
X11283696Y-11889405D01*
X11335000Y-11631486D01*
X11335000Y-11368514D01*
X11283696Y-11110595D01*
X11183061Y-10867641D01*
X11036962Y-10648987D01*
X10851013Y-10463038D01*
X10632359Y-10316939D01*
X10389405Y-10216304D01*
X10131486Y-10165000D01*
X9868514Y-10165000D01*
X9610595Y-10216304D01*
X9367641Y-10316939D01*
X9148987Y-10463038D01*
X8963038Y-10648987D01*
X8816939Y-10867641D01*
X8716304Y-11110595D01*
X8665000Y-11368514D01*
X6255000Y-11368514D01*
X6203696Y-11110595D01*
X6103061Y-10867641D01*
X5956962Y-10648987D01*
X5771013Y-10463038D01*
X5552359Y-10316939D01*
X5309405Y-10216304D01*
X5051486Y-10165000D01*
X4788514Y-10165000D01*
X4530595Y-10216304D01*
X4287641Y-10316939D01*
X4068987Y-10463038D01*
X3883038Y-10648987D01*
X3736939Y-10867641D01*
X3636304Y-11110595D01*
X3585000Y-11368514D01*
X1127000Y-11368514D01*
X1127000Y-9100000D01*
X27191928Y-9100000D01*
X27191928Y-10900000D01*
X27204188Y-11024482D01*
X27240498Y-11144180D01*
X27299463Y-11254494D01*
X27378815Y-11351185D01*
X27475506Y-11430537D01*
X27585820Y-11489502D01*
X27705518Y-11525812D01*
X27830000Y-11538072D01*
X29630000Y-11538072D01*
X29754482Y-11525812D01*
X29874180Y-11489502D01*
X29984494Y-11430537D01*
X30081185Y-11351185D01*
X30160537Y-11254494D01*
X30219502Y-11144180D01*
X30225056Y-11125873D01*
X30291495Y-11192312D01*
X30542905Y-11360299D01*
X30822257Y-11476011D01*
X31118816Y-11535000D01*
X31421184Y-11535000D01*
X31717743Y-11476011D01*
X31997095Y-11360299D01*
X32248505Y-11192312D01*
X32462312Y-10978505D01*
X32630299Y-10727095D01*
X32746011Y-10447743D01*
X32805000Y-10151184D01*
X32805000Y-9848816D01*
X32746011Y-9552257D01*
X32630299Y-9272905D01*
X32514768Y-9100000D01*
X42161928Y-9100000D01*
X42161928Y-10900000D01*
X42174188Y-11024482D01*
X42210498Y-11144180D01*
X42269463Y-11254494D01*
X42348815Y-11351185D01*
X42445506Y-11430537D01*
X42555820Y-11489502D01*
X42675518Y-11525812D01*
X42800000Y-11538072D01*
X44600000Y-11538072D01*
X44724482Y-11525812D01*
X44844180Y-11489502D01*
X44954494Y-11430537D01*
X45051185Y-11351185D01*
X45130537Y-11254494D01*
X45189502Y-11144180D01*
X45195056Y-11125873D01*
X45261495Y-11192312D01*
X45512905Y-11360299D01*
X45792257Y-11476011D01*
X46088816Y-11535000D01*
X46391184Y-11535000D01*
X46687743Y-11476011D01*
X46967095Y-11360299D01*
X47218505Y-11192312D01*
X47432312Y-10978505D01*
X47600299Y-10727095D01*
X47716011Y-10447743D01*
X47775000Y-10151184D01*
X47775000Y-9848816D01*
X47716011Y-9552257D01*
X47600299Y-9272905D01*
X47432312Y-9021495D01*
X47218505Y-8807688D01*
X46967095Y-8639701D01*
X46687743Y-8523989D01*
X46391184Y-8465000D01*
X46088816Y-8465000D01*
X45792257Y-8523989D01*
X45512905Y-8639701D01*
X45261495Y-8807688D01*
X45195056Y-8874127D01*
X45189502Y-8855820D01*
X45130537Y-8745506D01*
X45051185Y-8648815D01*
X44954494Y-8569463D01*
X44844180Y-8510498D01*
X44724482Y-8474188D01*
X44600000Y-8461928D01*
X42800000Y-8461928D01*
X42675518Y-8474188D01*
X42555820Y-8510498D01*
X42445506Y-8569463D01*
X42348815Y-8648815D01*
X42269463Y-8745506D01*
X42210498Y-8855820D01*
X42174188Y-8975518D01*
X42161928Y-9100000D01*
X32514768Y-9100000D01*
X32462312Y-9021495D01*
X32248505Y-8807688D01*
X31997095Y-8639701D01*
X31717743Y-8523989D01*
X31421184Y-8465000D01*
X31118816Y-8465000D01*
X30822257Y-8523989D01*
X30542905Y-8639701D01*
X30291495Y-8807688D01*
X30225056Y-8874127D01*
X30219502Y-8855820D01*
X30160537Y-8745506D01*
X30081185Y-8648815D01*
X29984494Y-8569463D01*
X29874180Y-8510498D01*
X29754482Y-8474188D01*
X29630000Y-8461928D01*
X27830000Y-8461928D01*
X27705518Y-8474188D01*
X27585820Y-8510498D01*
X27475506Y-8569463D01*
X27378815Y-8648815D01*
X27299463Y-8745506D01*
X27240498Y-8855820D01*
X27204188Y-8975518D01*
X27191928Y-9100000D01*
X1127000Y-9100000D01*
X1127000Y-4779872D01*
X2765000Y-4779872D01*
X2765000Y-5220128D01*
X2850890Y-5651925D01*
X3019369Y-6058669D01*
X3263962Y-6424729D01*
X3575271Y-6736038D01*
X3941331Y-6980631D01*
X4348075Y-7149110D01*
X4779872Y-7235000D01*
X5220128Y-7235000D01*
X5651925Y-7149110D01*
X6058669Y-6980631D01*
X6424729Y-6736038D01*
X6736038Y-6424729D01*
X6980631Y-6058669D01*
X7149110Y-5651925D01*
X7235000Y-5220128D01*
X7235000Y-4779872D01*
X7149110Y-4348075D01*
X6980631Y-3941331D01*
X6736038Y-3575271D01*
X6424729Y-3263962D01*
X6058669Y-3019369D01*
X5651925Y-2850890D01*
X5220128Y-2765000D01*
X4779872Y-2765000D01*
X4348075Y-2850890D01*
X3941331Y-3019369D01*
X3575271Y-3263962D01*
X3263962Y-3575271D01*
X3019369Y-3941331D01*
X2850890Y-4348075D01*
X2765000Y-4779872D01*
X1127000Y-4779872D01*
X1127000Y-1127000D01*
X62873000Y-1127000D01*
X62873000Y-6000000D01*
%TA.AperFunction,Conductor*%
D28*
G36*
X62873000Y-6000000D02*
G01*
X62875440Y-6024776D01*
X62882667Y-6048601D01*
X62894403Y-6070557D01*
X62910197Y-6089803D01*
X62929443Y-6105597D01*
X62951399Y-6117333D01*
X62975224Y-6124560D01*
X63000000Y-6127000D01*
X83000000Y-6127000D01*
X83024776Y-6124560D01*
X83048601Y-6117333D01*
X83070557Y-6105597D01*
X83089803Y-6089803D01*
X83105597Y-6070557D01*
X83117333Y-6048601D01*
X83124560Y-6024776D01*
X83127000Y-6000000D01*
X83127000Y-4779872D01*
X92765000Y-4779872D01*
X92765000Y-5220128D01*
X92850890Y-5651925D01*
X93019369Y-6058669D01*
X93263962Y-6424729D01*
X93575271Y-6736038D01*
X93941331Y-6980631D01*
X94348075Y-7149110D01*
X94779872Y-7235000D01*
X95220128Y-7235000D01*
X95651925Y-7149110D01*
X96058669Y-6980631D01*
X96424729Y-6736038D01*
X96736038Y-6424729D01*
X96980631Y-6058669D01*
X97149110Y-5651925D01*
X97235000Y-5220128D01*
X97235000Y-4779872D01*
X97149110Y-4348075D01*
X96980631Y-3941331D01*
X96736038Y-3575271D01*
X96424729Y-3263962D01*
X96058669Y-3019369D01*
X95651925Y-2850890D01*
X95220128Y-2765000D01*
X94779872Y-2765000D01*
X94348075Y-2850890D01*
X93941331Y-3019369D01*
X93575271Y-3263962D01*
X93263962Y-3575271D01*
X93019369Y-3941331D01*
X92850890Y-4348075D01*
X92765000Y-4779872D01*
X83127000Y-4779872D01*
X83127000Y-1127000D01*
X98873000Y-1127000D01*
X98873000Y-78873000D01*
X1127000Y-78873000D01*
X1127000Y-74779872D01*
X2765000Y-74779872D01*
X2765000Y-75220128D01*
X2850890Y-75651925D01*
X3019369Y-76058669D01*
X3263962Y-76424729D01*
X3575271Y-76736038D01*
X3941331Y-76980631D01*
X4348075Y-77149110D01*
X4779872Y-77235000D01*
X5220128Y-77235000D01*
X5651925Y-77149110D01*
X6058669Y-76980631D01*
X6424729Y-76736038D01*
X6736038Y-76424729D01*
X6980631Y-76058669D01*
X7149110Y-75651925D01*
X7235000Y-75220128D01*
X7235000Y-74779872D01*
X92765000Y-74779872D01*
X92765000Y-75220128D01*
X92850890Y-75651925D01*
X93019369Y-76058669D01*
X93263962Y-76424729D01*
X93575271Y-76736038D01*
X93941331Y-76980631D01*
X94348075Y-77149110D01*
X94779872Y-77235000D01*
X95220128Y-77235000D01*
X95651925Y-77149110D01*
X96058669Y-76980631D01*
X96424729Y-76736038D01*
X96736038Y-76424729D01*
X96980631Y-76058669D01*
X97149110Y-75651925D01*
X97235000Y-75220128D01*
X97235000Y-74779872D01*
X97149110Y-74348075D01*
X96980631Y-73941331D01*
X96736038Y-73575271D01*
X96424729Y-73263962D01*
X96058669Y-73019369D01*
X95651925Y-72850890D01*
X95220128Y-72765000D01*
X94779872Y-72765000D01*
X94348075Y-72850890D01*
X93941331Y-73019369D01*
X93575271Y-73263962D01*
X93263962Y-73575271D01*
X93019369Y-73941331D01*
X92850890Y-74348075D01*
X92765000Y-74779872D01*
X7235000Y-74779872D01*
X7149110Y-74348075D01*
X7073156Y-74164704D01*
X49738301Y-74164704D01*
X49817582Y-74415167D01*
X50083941Y-74542426D01*
X50370010Y-74615275D01*
X50664793Y-74630915D01*
X50956964Y-74588745D01*
X51235293Y-74490386D01*
X51376018Y-74415167D01*
X51455299Y-74164704D01*
X50596800Y-73306205D01*
X49738301Y-74164704D01*
X7073156Y-74164704D01*
X6980631Y-73941331D01*
X6736038Y-73575271D01*
X6424729Y-73263962D01*
X6320911Y-73194593D01*
X49092485Y-73194593D01*
X49134655Y-73486764D01*
X49233014Y-73765093D01*
X49308233Y-73905818D01*
X49558696Y-73985099D01*
X50417195Y-73126600D01*
X49558696Y-72268101D01*
X49308233Y-72347382D01*
X49180974Y-72613741D01*
X49108125Y-72899810D01*
X49092485Y-73194593D01*
X6320911Y-73194593D01*
X6058669Y-73019369D01*
X5651925Y-72850890D01*
X5220128Y-72765000D01*
X4779872Y-72765000D01*
X4348075Y-72850890D01*
X3941331Y-73019369D01*
X3575271Y-73263962D01*
X3263962Y-73575271D01*
X3019369Y-73941331D01*
X2850890Y-74348075D01*
X2765000Y-74779872D01*
X1127000Y-74779872D01*
X1127000Y-69363147D01*
X28437900Y-69363147D01*
X28437900Y-69670853D01*
X28497931Y-69972648D01*
X28615685Y-70256932D01*
X28786638Y-70512780D01*
X29004220Y-70730362D01*
X29260068Y-70901315D01*
X29544352Y-71019069D01*
X29846147Y-71079100D01*
X30153853Y-71079100D01*
X30455648Y-71019069D01*
X30739932Y-70901315D01*
X30995780Y-70730362D01*
X31213362Y-70512780D01*
X31245687Y-70464401D01*
X49098200Y-70464401D01*
X49098200Y-70759599D01*
X49155790Y-71049125D01*
X49268758Y-71321853D01*
X49432761Y-71567302D01*
X49641498Y-71776039D01*
X49803039Y-71883977D01*
X49738301Y-72088496D01*
X50596800Y-72946995D01*
X51455299Y-72088496D01*
X51390561Y-71883977D01*
X51552102Y-71776039D01*
X51760839Y-71567302D01*
X51854100Y-71427726D01*
X51947361Y-71567302D01*
X52156098Y-71776039D01*
X52295674Y-71869300D01*
X52156098Y-71962561D01*
X51947361Y-72171298D01*
X51839423Y-72332839D01*
X51634904Y-72268101D01*
X50776405Y-73126600D01*
X51634904Y-73985099D01*
X51839423Y-73920361D01*
X51947361Y-74081902D01*
X52156098Y-74290639D01*
X52401547Y-74454642D01*
X52674275Y-74567610D01*
X52963801Y-74625200D01*
X53258999Y-74625200D01*
X53548525Y-74567610D01*
X53821253Y-74454642D01*
X54066702Y-74290639D01*
X54275439Y-74081902D01*
X54368700Y-73942326D01*
X54461961Y-74081902D01*
X54670698Y-74290639D01*
X54916147Y-74454642D01*
X55188875Y-74567610D01*
X55478401Y-74625200D01*
X55773599Y-74625200D01*
X56063125Y-74567610D01*
X56335853Y-74454642D01*
X56581302Y-74290639D01*
X56790039Y-74081902D01*
X56954042Y-73836453D01*
X57067010Y-73563725D01*
X57124600Y-73274199D01*
X57124600Y-72979001D01*
X57067010Y-72689475D01*
X56954042Y-72416747D01*
X56790039Y-72171298D01*
X56581302Y-71962561D01*
X56441726Y-71869300D01*
X56581302Y-71776039D01*
X56790039Y-71567302D01*
X56954042Y-71321853D01*
X57067010Y-71049125D01*
X57124600Y-70759599D01*
X57124600Y-70464401D01*
X57067010Y-70174875D01*
X56954042Y-69902147D01*
X56790039Y-69656698D01*
X56581302Y-69447961D01*
X56335853Y-69283958D01*
X56063125Y-69170990D01*
X55773599Y-69113400D01*
X55478401Y-69113400D01*
X55188875Y-69170990D01*
X54916147Y-69283958D01*
X54670698Y-69447961D01*
X54461961Y-69656698D01*
X54368700Y-69796274D01*
X54275439Y-69656698D01*
X54066702Y-69447961D01*
X53821253Y-69283958D01*
X53548525Y-69170990D01*
X53258999Y-69113400D01*
X52963801Y-69113400D01*
X52674275Y-69170990D01*
X52401547Y-69283958D01*
X52156098Y-69447961D01*
X51947361Y-69656698D01*
X51854100Y-69796274D01*
X51760839Y-69656698D01*
X51552102Y-69447961D01*
X51306653Y-69283958D01*
X51033925Y-69170990D01*
X50744399Y-69113400D01*
X50449201Y-69113400D01*
X50159675Y-69170990D01*
X49886947Y-69283958D01*
X49641498Y-69447961D01*
X49432761Y-69656698D01*
X49268758Y-69902147D01*
X49155790Y-70174875D01*
X49098200Y-70464401D01*
X31245687Y-70464401D01*
X31384315Y-70256932D01*
X31502069Y-69972648D01*
X31562100Y-69670853D01*
X31562100Y-69363147D01*
X31502069Y-69061352D01*
X31384315Y-68777068D01*
X31213362Y-68521220D01*
X30995780Y-68303638D01*
X30739932Y-68132685D01*
X30455648Y-68014931D01*
X30153853Y-67954900D01*
X29846147Y-67954900D01*
X29544352Y-68014931D01*
X29260068Y-68132685D01*
X29004220Y-68303638D01*
X28786638Y-68521220D01*
X28615685Y-68777068D01*
X28497931Y-69061352D01*
X28437900Y-69363147D01*
X1127000Y-69363147D01*
X1127000Y-67351543D01*
X22138700Y-67351543D01*
X22138700Y-67669257D01*
X22200683Y-67980866D01*
X22322267Y-68274395D01*
X22498779Y-68538564D01*
X22723436Y-68763221D01*
X22987605Y-68939733D01*
X23281134Y-69061317D01*
X23592743Y-69123300D01*
X23910457Y-69123300D01*
X24222066Y-69061317D01*
X24515595Y-68939733D01*
X24779764Y-68763221D01*
X25004421Y-68538564D01*
X25180933Y-68274395D01*
X25302517Y-67980866D01*
X25364500Y-67669257D01*
X25364500Y-67351543D01*
X34635500Y-67351543D01*
X34635500Y-67669257D01*
X34697483Y-67980866D01*
X34819067Y-68274395D01*
X34995579Y-68538564D01*
X35220236Y-68763221D01*
X35484405Y-68939733D01*
X35777934Y-69061317D01*
X36089543Y-69123300D01*
X36407257Y-69123300D01*
X36718866Y-69061317D01*
X37012395Y-68939733D01*
X37276564Y-68763221D01*
X37501221Y-68538564D01*
X37677733Y-68274395D01*
X37799317Y-67980866D01*
X37861300Y-67669257D01*
X37861300Y-67351543D01*
X37799317Y-67039934D01*
X37677733Y-66746405D01*
X37501221Y-66482236D01*
X37276564Y-66257579D01*
X37012395Y-66081067D01*
X36718866Y-65959483D01*
X36407257Y-65897500D01*
X36089543Y-65897500D01*
X35777934Y-65959483D01*
X35484405Y-66081067D01*
X35220236Y-66257579D01*
X34995579Y-66482236D01*
X34819067Y-66746405D01*
X34697483Y-67039934D01*
X34635500Y-67351543D01*
X25364500Y-67351543D01*
X25302517Y-67039934D01*
X25180933Y-66746405D01*
X25004421Y-66482236D01*
X24779764Y-66257579D01*
X24515595Y-66081067D01*
X24222066Y-65959483D01*
X23910457Y-65897500D01*
X23592743Y-65897500D01*
X23281134Y-65959483D01*
X22987605Y-66081067D01*
X22723436Y-66257579D01*
X22498779Y-66482236D01*
X22322267Y-66746405D01*
X22200683Y-67039934D01*
X22138700Y-67351543D01*
X1127000Y-67351543D01*
X1127000Y-62067391D01*
X15367000Y-62067391D01*
X15367000Y-62392609D01*
X15430447Y-62711579D01*
X15554903Y-63012042D01*
X15735585Y-63282451D01*
X15965549Y-63512415D01*
X16235958Y-63693097D01*
X16536421Y-63817553D01*
X16855391Y-63881000D01*
X17180609Y-63881000D01*
X17499579Y-63817553D01*
X17800042Y-63693097D01*
X17900082Y-63626252D01*
X22811553Y-63626252D01*
X22904649Y-63888394D01*
X23190497Y-64027075D01*
X23497908Y-64107326D01*
X23815069Y-64126060D01*
X24129791Y-64082561D01*
X24429979Y-63978497D01*
X24598551Y-63888394D01*
X24691647Y-63626252D01*
X35308353Y-63626252D01*
X35401449Y-63888394D01*
X35687297Y-64027075D01*
X35994708Y-64107326D01*
X36311869Y-64126060D01*
X36626591Y-64082561D01*
X36926779Y-63978497D01*
X37095351Y-63888394D01*
X37188447Y-63626252D01*
X36248400Y-62686205D01*
X35308353Y-63626252D01*
X24691647Y-63626252D01*
X23751600Y-62686205D01*
X22811553Y-63626252D01*
X17900082Y-63626252D01*
X18070451Y-63512415D01*
X18300415Y-63282451D01*
X18481097Y-63012042D01*
X18605553Y-62711579D01*
X18633701Y-62570069D01*
X22132140Y-62570069D01*
X22175639Y-62884791D01*
X22279703Y-63184979D01*
X22369806Y-63353551D01*
X22631948Y-63446647D01*
X23571995Y-62506600D01*
X23931205Y-62506600D01*
X24871252Y-63446647D01*
X25133394Y-63353551D01*
X25272075Y-63067703D01*
X25352326Y-62760292D01*
X25363562Y-62570069D01*
X34628940Y-62570069D01*
X34672439Y-62884791D01*
X34776503Y-63184979D01*
X34866606Y-63353551D01*
X35128748Y-63446647D01*
X36068795Y-62506600D01*
X36428005Y-62506600D01*
X37368052Y-63446647D01*
X37630194Y-63353551D01*
X37768875Y-63067703D01*
X37849126Y-62760292D01*
X37867860Y-62443131D01*
X37824361Y-62128409D01*
X37720297Y-61828221D01*
X37630194Y-61659649D01*
X37368052Y-61566553D01*
X36428005Y-62506600D01*
X36068795Y-62506600D01*
X35128748Y-61566553D01*
X34866606Y-61659649D01*
X34727925Y-61945497D01*
X34647674Y-62252908D01*
X34628940Y-62570069D01*
X25363562Y-62570069D01*
X25371060Y-62443131D01*
X25327561Y-62128409D01*
X25223497Y-61828221D01*
X25133394Y-61659649D01*
X24871252Y-61566553D01*
X23931205Y-62506600D01*
X23571995Y-62506600D01*
X22631948Y-61566553D01*
X22369806Y-61659649D01*
X22231125Y-61945497D01*
X22150874Y-62252908D01*
X22132140Y-62570069D01*
X18633701Y-62570069D01*
X18669000Y-62392609D01*
X18669000Y-62067391D01*
X18605553Y-61748421D01*
X18481097Y-61447958D01*
X18440332Y-61386948D01*
X22811553Y-61386948D01*
X23751600Y-62326995D01*
X24691647Y-61386948D01*
X24598551Y-61124806D01*
X24312703Y-60986125D01*
X24005292Y-60905874D01*
X23688131Y-60887140D01*
X23373409Y-60930639D01*
X23073221Y-61034703D01*
X22904649Y-61124806D01*
X22811553Y-61386948D01*
X18440332Y-61386948D01*
X18300415Y-61177549D01*
X18070451Y-60947585D01*
X17800042Y-60766903D01*
X17499579Y-60642447D01*
X17180609Y-60579000D01*
X16855391Y-60579000D01*
X16536421Y-60642447D01*
X16235958Y-60766903D01*
X15965549Y-60947585D01*
X15735585Y-61177549D01*
X15554903Y-61447958D01*
X15430447Y-61748421D01*
X15367000Y-62067391D01*
X1127000Y-62067391D01*
X1127000Y-60346147D01*
X28437900Y-60346147D01*
X28437900Y-60653853D01*
X28497931Y-60955648D01*
X28615685Y-61239932D01*
X28786638Y-61495780D01*
X29004220Y-61713362D01*
X29260068Y-61884315D01*
X29544352Y-62002069D01*
X29846147Y-62062100D01*
X30153853Y-62062100D01*
X30455648Y-62002069D01*
X30739932Y-61884315D01*
X30995780Y-61713362D01*
X31213362Y-61495780D01*
X31286081Y-61386948D01*
X35308353Y-61386948D01*
X36248400Y-62326995D01*
X37188447Y-61386948D01*
X37095351Y-61124806D01*
X36809503Y-60986125D01*
X36502092Y-60905874D01*
X36184931Y-60887140D01*
X35870209Y-60930639D01*
X35570021Y-61034703D01*
X35401449Y-61124806D01*
X35308353Y-61386948D01*
X31286081Y-61386948D01*
X31384315Y-61239932D01*
X31502069Y-60955648D01*
X31562100Y-60653853D01*
X31562100Y-60346147D01*
X31502069Y-60044352D01*
X31413872Y-59831424D01*
X42037000Y-59831424D01*
X42037000Y-60056576D01*
X42080925Y-60277401D01*
X42167087Y-60485413D01*
X42292174Y-60672620D01*
X42451380Y-60831826D01*
X42638587Y-60956913D01*
X42846599Y-61043075D01*
X43067424Y-61087000D01*
X43292576Y-61087000D01*
X43513401Y-61043075D01*
X43721413Y-60956913D01*
X43908620Y-60831826D01*
X44067826Y-60672620D01*
X44120742Y-60593424D01*
X51943000Y-60593424D01*
X51943000Y-60818576D01*
X51986925Y-61039401D01*
X52073087Y-61247413D01*
X52198174Y-61434620D01*
X52357380Y-61593826D01*
X52544587Y-61718913D01*
X52752599Y-61805075D01*
X52973424Y-61849000D01*
X53198576Y-61849000D01*
X53419401Y-61805075D01*
X53627413Y-61718913D01*
X53814620Y-61593826D01*
X53973826Y-61434620D01*
X54098913Y-61247413D01*
X54185075Y-61039401D01*
X54229000Y-60818576D01*
X54229000Y-60593424D01*
X54185075Y-60372599D01*
X54098913Y-60164587D01*
X53973826Y-59977380D01*
X53814620Y-59818174D01*
X53627413Y-59693087D01*
X53419401Y-59606925D01*
X53198576Y-59563000D01*
X52973424Y-59563000D01*
X52752599Y-59606925D01*
X52544587Y-59693087D01*
X52357380Y-59818174D01*
X52198174Y-59977380D01*
X52073087Y-60164587D01*
X51986925Y-60372599D01*
X51943000Y-60593424D01*
X44120742Y-60593424D01*
X44192913Y-60485413D01*
X44279075Y-60277401D01*
X44323000Y-60056576D01*
X44323000Y-59831424D01*
X44279075Y-59610599D01*
X44192913Y-59402587D01*
X44067826Y-59215380D01*
X43908620Y-59056174D01*
X43721413Y-58931087D01*
X43513401Y-58844925D01*
X43292576Y-58801000D01*
X43067424Y-58801000D01*
X42846599Y-58844925D01*
X42638587Y-58931087D01*
X42451380Y-59056174D01*
X42292174Y-59215380D01*
X42167087Y-59402587D01*
X42080925Y-59610599D01*
X42037000Y-59831424D01*
X31413872Y-59831424D01*
X31384315Y-59760068D01*
X31213362Y-59504220D01*
X30995780Y-59286638D01*
X30739932Y-59115685D01*
X30455648Y-58997931D01*
X30153853Y-58937900D01*
X29846147Y-58937900D01*
X29544352Y-58997931D01*
X29260068Y-59115685D01*
X29004220Y-59286638D01*
X28786638Y-59504220D01*
X28615685Y-59760068D01*
X28497931Y-60044352D01*
X28437900Y-60346147D01*
X1127000Y-60346147D01*
X1127000Y-58570702D01*
X87548903Y-58570702D01*
X87620486Y-58814671D01*
X87875996Y-58935571D01*
X88150184Y-59004300D01*
X88432512Y-59018217D01*
X88712130Y-58976787D01*
X88978292Y-58881603D01*
X89103514Y-58814671D01*
X89175097Y-58570702D01*
X88362000Y-57757605D01*
X87548903Y-58570702D01*
X1127000Y-58570702D01*
X1127000Y-57648512D01*
X86921783Y-57648512D01*
X86963213Y-57928130D01*
X87058397Y-58194292D01*
X87125329Y-58319514D01*
X87369298Y-58391097D01*
X88182395Y-57578000D01*
X88541605Y-57578000D01*
X89354702Y-58391097D01*
X89598671Y-58319514D01*
X89719571Y-58064004D01*
X89788300Y-57789816D01*
X89802217Y-57507488D01*
X89760787Y-57227870D01*
X89678691Y-56998305D01*
X92695900Y-56998305D01*
X92765957Y-57240988D01*
X93019318Y-57360628D01*
X93291151Y-57428541D01*
X93571010Y-57442117D01*
X93848140Y-57400834D01*
X94111892Y-57306279D01*
X94234043Y-57240988D01*
X94304100Y-56998305D01*
X93500000Y-56194205D01*
X92695900Y-56998305D01*
X89678691Y-56998305D01*
X89665603Y-56961708D01*
X89598671Y-56836486D01*
X89354702Y-56764903D01*
X88541605Y-57578000D01*
X88182395Y-57578000D01*
X87369298Y-56764903D01*
X87125329Y-56836486D01*
X87004429Y-57091996D01*
X86935700Y-57366184D01*
X86921783Y-57648512D01*
X1127000Y-57648512D01*
X1127000Y-56093137D01*
X4915000Y-56093137D01*
X4915000Y-56306863D01*
X4956696Y-56516483D01*
X5038485Y-56713940D01*
X5157225Y-56891647D01*
X5308353Y-57042775D01*
X5486060Y-57161515D01*
X5683517Y-57243304D01*
X5893137Y-57285000D01*
X6106863Y-57285000D01*
X6316483Y-57243304D01*
X6513940Y-57161515D01*
X6691647Y-57042775D01*
X6842775Y-56891647D01*
X6961515Y-56713940D01*
X7043304Y-56516483D01*
X7085000Y-56306863D01*
X7085000Y-56093137D01*
X7043304Y-55883517D01*
X6961515Y-55686060D01*
X6879683Y-55563589D01*
X56781000Y-55563589D01*
X56781000Y-55836411D01*
X56834225Y-56103989D01*
X56938629Y-56356043D01*
X57090201Y-56582886D01*
X57283114Y-56775799D01*
X57509957Y-56927371D01*
X57762011Y-57031775D01*
X58029589Y-57085000D01*
X58302411Y-57085000D01*
X58569989Y-57031775D01*
X58822043Y-56927371D01*
X59048886Y-56775799D01*
X59239387Y-56585298D01*
X87548903Y-56585298D01*
X88362000Y-57398395D01*
X89175097Y-56585298D01*
X89103514Y-56341329D01*
X88848004Y-56220429D01*
X88573816Y-56151700D01*
X88291488Y-56137783D01*
X88011870Y-56179213D01*
X87745708Y-56274397D01*
X87620486Y-56341329D01*
X87548903Y-56585298D01*
X59239387Y-56585298D01*
X59241799Y-56582886D01*
X59393371Y-56356043D01*
X59497775Y-56103989D01*
X59501430Y-56085610D01*
X92072483Y-56085610D01*
X92113766Y-56362740D01*
X92208321Y-56626492D01*
X92273612Y-56748643D01*
X92516295Y-56818700D01*
X93320395Y-56014600D01*
X93679605Y-56014600D01*
X94483705Y-56818700D01*
X94726388Y-56748643D01*
X94846028Y-56495282D01*
X94913941Y-56223449D01*
X94927517Y-55943590D01*
X94886234Y-55666460D01*
X94791679Y-55402708D01*
X94726388Y-55280557D01*
X94483705Y-55210500D01*
X93679605Y-56014600D01*
X93320395Y-56014600D01*
X92516295Y-55210500D01*
X92273612Y-55280557D01*
X92153972Y-55533918D01*
X92086059Y-55805751D01*
X92072483Y-56085610D01*
X59501430Y-56085610D01*
X59551000Y-55836411D01*
X59551000Y-55563589D01*
X59497775Y-55296011D01*
X59393371Y-55043957D01*
X59241799Y-54817114D01*
X59048886Y-54624201D01*
X58822043Y-54472629D01*
X58569989Y-54368225D01*
X58302411Y-54315000D01*
X58029589Y-54315000D01*
X57762011Y-54368225D01*
X57509957Y-54472629D01*
X57283114Y-54624201D01*
X57090201Y-54817114D01*
X56938629Y-55043957D01*
X56834225Y-55296011D01*
X56781000Y-55563589D01*
X6879683Y-55563589D01*
X6842775Y-55508353D01*
X6691647Y-55357225D01*
X6513940Y-55238485D01*
X6316483Y-55156696D01*
X6106863Y-55115000D01*
X5893137Y-55115000D01*
X5683517Y-55156696D01*
X5486060Y-55238485D01*
X5308353Y-55357225D01*
X5157225Y-55508353D01*
X5038485Y-55686060D01*
X4956696Y-55883517D01*
X4915000Y-56093137D01*
X1127000Y-56093137D01*
X1127000Y-54175624D01*
X53721000Y-54175624D01*
X53721000Y-54400776D01*
X53764925Y-54621601D01*
X53851087Y-54829613D01*
X53976174Y-55016820D01*
X54135380Y-55176026D01*
X54322587Y-55301113D01*
X54530599Y-55387275D01*
X54751424Y-55431200D01*
X54976576Y-55431200D01*
X55197401Y-55387275D01*
X55405413Y-55301113D01*
X55592620Y-55176026D01*
X55751826Y-55016820D01*
X55876913Y-54829613D01*
X55963075Y-54621601D01*
X56007000Y-54400776D01*
X56007000Y-54175624D01*
X55963075Y-53954799D01*
X55876913Y-53746787D01*
X55835890Y-53685391D01*
X83439000Y-53685391D01*
X83439000Y-54010609D01*
X83502447Y-54329579D01*
X83626903Y-54630042D01*
X83807585Y-54900451D01*
X84037549Y-55130415D01*
X84307958Y-55311097D01*
X84608421Y-55435553D01*
X84927391Y-55499000D01*
X85252609Y-55499000D01*
X85571579Y-55435553D01*
X85872042Y-55311097D01*
X86142451Y-55130415D01*
X86372415Y-54900451D01*
X86553097Y-54630042D01*
X86677553Y-54329579D01*
X86741000Y-54010609D01*
X86741000Y-53685391D01*
X86677553Y-53366421D01*
X86553097Y-53065958D01*
X86372415Y-52795549D01*
X86142451Y-52565585D01*
X85949510Y-52436665D01*
X88227000Y-52436665D01*
X88227000Y-52719335D01*
X88282147Y-52996574D01*
X88390320Y-53257727D01*
X88547363Y-53492759D01*
X88747241Y-53692637D01*
X88982273Y-53849680D01*
X89243426Y-53957853D01*
X89520665Y-54013000D01*
X89803335Y-54013000D01*
X90080574Y-53957853D01*
X90341727Y-53849680D01*
X90576759Y-53692637D01*
X90776637Y-53492759D01*
X90933680Y-53257727D01*
X91041853Y-52996574D01*
X91097000Y-52719335D01*
X91097000Y-52712600D01*
X92074528Y-52712600D01*
X92074528Y-54287400D01*
X92086788Y-54411882D01*
X92123098Y-54531580D01*
X92182063Y-54641894D01*
X92261415Y-54738585D01*
X92358106Y-54817937D01*
X92468420Y-54876902D01*
X92588118Y-54913212D01*
X92712600Y-54925472D01*
X92726333Y-54925472D01*
X92695900Y-55030895D01*
X93500000Y-55834995D01*
X94304100Y-55030895D01*
X94273667Y-54925472D01*
X94287400Y-54925472D01*
X94411882Y-54913212D01*
X94531580Y-54876902D01*
X94641894Y-54817937D01*
X94738585Y-54738585D01*
X94817937Y-54641894D01*
X94876902Y-54531580D01*
X94913212Y-54411882D01*
X94925472Y-54287400D01*
X94925472Y-52712600D01*
X94913212Y-52588118D01*
X94876902Y-52468420D01*
X94817937Y-52358106D01*
X94738585Y-52261415D01*
X94641894Y-52182063D01*
X94531580Y-52123098D01*
X94411882Y-52086788D01*
X94287400Y-52074528D01*
X92712600Y-52074528D01*
X92588118Y-52086788D01*
X92468420Y-52123098D01*
X92358106Y-52182063D01*
X92261415Y-52261415D01*
X92182063Y-52358106D01*
X92123098Y-52468420D01*
X92086788Y-52588118D01*
X92074528Y-52712600D01*
X91097000Y-52712600D01*
X91097000Y-52436665D01*
X91041853Y-52159426D01*
X90933680Y-51898273D01*
X90776637Y-51663241D01*
X90576759Y-51463363D01*
X90341727Y-51306320D01*
X90080574Y-51198147D01*
X89803335Y-51143000D01*
X89520665Y-51143000D01*
X89243426Y-51198147D01*
X88982273Y-51306320D01*
X88747241Y-51463363D01*
X88547363Y-51663241D01*
X88390320Y-51898273D01*
X88282147Y-52159426D01*
X88227000Y-52436665D01*
X85949510Y-52436665D01*
X85872042Y-52384903D01*
X85571579Y-52260447D01*
X85252609Y-52197000D01*
X84927391Y-52197000D01*
X84608421Y-52260447D01*
X84307958Y-52384903D01*
X84037549Y-52565585D01*
X83807585Y-52795549D01*
X83626903Y-53065958D01*
X83502447Y-53366421D01*
X83439000Y-53685391D01*
X55835890Y-53685391D01*
X55751826Y-53559580D01*
X55592620Y-53400374D01*
X55405413Y-53275287D01*
X55197401Y-53189125D01*
X54976576Y-53145200D01*
X54751424Y-53145200D01*
X54530599Y-53189125D01*
X54322587Y-53275287D01*
X54135380Y-53400374D01*
X53976174Y-53559580D01*
X53851087Y-53746787D01*
X53764925Y-53954799D01*
X53721000Y-54175624D01*
X1127000Y-54175624D01*
X1127000Y-51693137D01*
X4915000Y-51693137D01*
X4915000Y-51906863D01*
X4956696Y-52116483D01*
X5038485Y-52313940D01*
X5157225Y-52491647D01*
X5308353Y-52642775D01*
X5486060Y-52761515D01*
X5683517Y-52843304D01*
X5893137Y-52885000D01*
X6106863Y-52885000D01*
X6316483Y-52843304D01*
X6513940Y-52761515D01*
X6691647Y-52642775D01*
X6842775Y-52491647D01*
X6961515Y-52313940D01*
X7043304Y-52116483D01*
X7085000Y-51906863D01*
X7085000Y-51693137D01*
X7043304Y-51483517D01*
X6961515Y-51286060D01*
X6842775Y-51108353D01*
X6691647Y-50957225D01*
X6513940Y-50838485D01*
X6316483Y-50756696D01*
X6106863Y-50715000D01*
X5893137Y-50715000D01*
X5683517Y-50756696D01*
X5486060Y-50838485D01*
X5308353Y-50957225D01*
X5157225Y-51108353D01*
X5038485Y-51286060D01*
X4956696Y-51483517D01*
X4915000Y-51693137D01*
X1127000Y-51693137D01*
X1127000Y-50663589D01*
X56781000Y-50663589D01*
X56781000Y-50936411D01*
X56834225Y-51203989D01*
X56938629Y-51456043D01*
X57090201Y-51682886D01*
X57283114Y-51875799D01*
X57509957Y-52027371D01*
X57762011Y-52131775D01*
X58029589Y-52185000D01*
X58302411Y-52185000D01*
X58569989Y-52131775D01*
X58822043Y-52027371D01*
X59048886Y-51875799D01*
X59241799Y-51682886D01*
X59393371Y-51456043D01*
X59497775Y-51203989D01*
X59551000Y-50936411D01*
X59551000Y-50663589D01*
X59497775Y-50396011D01*
X59393371Y-50143957D01*
X59364000Y-50100000D01*
X77191928Y-50100000D01*
X77191928Y-51900000D01*
X77204188Y-52024482D01*
X77240498Y-52144180D01*
X77299463Y-52254494D01*
X77378815Y-52351185D01*
X77475506Y-52430537D01*
X77585820Y-52489502D01*
X77705518Y-52525812D01*
X77830000Y-52538072D01*
X79630000Y-52538072D01*
X79754482Y-52525812D01*
X79874180Y-52489502D01*
X79984494Y-52430537D01*
X80081185Y-52351185D01*
X80160537Y-52254494D01*
X80219502Y-52144180D01*
X80225056Y-52125873D01*
X80291495Y-52192312D01*
X80542905Y-52360299D01*
X80822257Y-52476011D01*
X81118816Y-52535000D01*
X81421184Y-52535000D01*
X81717743Y-52476011D01*
X81997095Y-52360299D01*
X82248505Y-52192312D01*
X82462312Y-51978505D01*
X82630299Y-51727095D01*
X82746011Y-51447743D01*
X82805000Y-51151184D01*
X82805000Y-50848816D01*
X82746011Y-50552257D01*
X82630299Y-50272905D01*
X82462312Y-50021495D01*
X82248505Y-49807688D01*
X81997095Y-49639701D01*
X81717743Y-49523989D01*
X81421184Y-49465000D01*
X81118816Y-49465000D01*
X80822257Y-49523989D01*
X80542905Y-49639701D01*
X80291495Y-49807688D01*
X80225056Y-49874127D01*
X80219502Y-49855820D01*
X80160537Y-49745506D01*
X80081185Y-49648815D01*
X79984494Y-49569463D01*
X79874180Y-49510498D01*
X79754482Y-49474188D01*
X79630000Y-49461928D01*
X77830000Y-49461928D01*
X77705518Y-49474188D01*
X77585820Y-49510498D01*
X77475506Y-49569463D01*
X77378815Y-49648815D01*
X77299463Y-49745506D01*
X77240498Y-49855820D01*
X77204188Y-49975518D01*
X77191928Y-50100000D01*
X59364000Y-50100000D01*
X59241799Y-49917114D01*
X59048886Y-49724201D01*
X58822043Y-49572629D01*
X58569989Y-49468225D01*
X58302411Y-49415000D01*
X58029589Y-49415000D01*
X57762011Y-49468225D01*
X57509957Y-49572629D01*
X57283114Y-49724201D01*
X57090201Y-49917114D01*
X56938629Y-50143957D01*
X56834225Y-50396011D01*
X56781000Y-50663589D01*
X1127000Y-50663589D01*
X1127000Y-47893424D01*
X42545000Y-47893424D01*
X42545000Y-48118576D01*
X42588925Y-48339401D01*
X42675087Y-48547413D01*
X42800174Y-48734620D01*
X42959380Y-48893826D01*
X43146587Y-49018913D01*
X43354599Y-49105075D01*
X43575424Y-49149000D01*
X43800576Y-49149000D01*
X44021401Y-49105075D01*
X44229413Y-49018913D01*
X44416620Y-48893826D01*
X44575826Y-48734620D01*
X44700913Y-48547413D01*
X44787075Y-48339401D01*
X44831000Y-48118576D01*
X44831000Y-47893424D01*
X44787075Y-47672599D01*
X44700913Y-47464587D01*
X44575826Y-47277380D01*
X44429870Y-47131424D01*
X52197000Y-47131424D01*
X52197000Y-47356576D01*
X52240925Y-47577401D01*
X52327087Y-47785413D01*
X52452174Y-47972620D01*
X52611380Y-48131826D01*
X52798587Y-48256913D01*
X53006599Y-48343075D01*
X53227424Y-48387000D01*
X53452576Y-48387000D01*
X53673401Y-48343075D01*
X53881413Y-48256913D01*
X54068620Y-48131826D01*
X54227826Y-47972620D01*
X54352913Y-47785413D01*
X54439075Y-47577401D01*
X54483000Y-47356576D01*
X54483000Y-47131424D01*
X54439075Y-46910599D01*
X54352913Y-46702587D01*
X54306218Y-46632702D01*
X87548903Y-46632702D01*
X87620486Y-46876671D01*
X87875996Y-46997571D01*
X88150184Y-47066300D01*
X88432512Y-47080217D01*
X88712130Y-47038787D01*
X88978292Y-46943603D01*
X89103514Y-46876671D01*
X89175097Y-46632702D01*
X88362000Y-45819605D01*
X87548903Y-46632702D01*
X54306218Y-46632702D01*
X54227826Y-46515380D01*
X54068620Y-46356174D01*
X53881413Y-46231087D01*
X53673401Y-46144925D01*
X53452576Y-46101000D01*
X53227424Y-46101000D01*
X53006599Y-46144925D01*
X52798587Y-46231087D01*
X52611380Y-46356174D01*
X52452174Y-46515380D01*
X52327087Y-46702587D01*
X52240925Y-46910599D01*
X52197000Y-47131424D01*
X44429870Y-47131424D01*
X44416620Y-47118174D01*
X44229413Y-46993087D01*
X44021401Y-46906925D01*
X43800576Y-46863000D01*
X43575424Y-46863000D01*
X43354599Y-46906925D01*
X43146587Y-46993087D01*
X42959380Y-47118174D01*
X42800174Y-47277380D01*
X42675087Y-47464587D01*
X42588925Y-47672599D01*
X42545000Y-47893424D01*
X1127000Y-47893424D01*
X1127000Y-45710512D01*
X86921783Y-45710512D01*
X86963213Y-45990130D01*
X87058397Y-46256292D01*
X87125329Y-46381514D01*
X87369298Y-46453097D01*
X88182395Y-45640000D01*
X88541605Y-45640000D01*
X89354702Y-46453097D01*
X89598671Y-46381514D01*
X89719571Y-46126004D01*
X89788300Y-45851816D01*
X89802217Y-45569488D01*
X89760787Y-45289870D01*
X89665603Y-45023708D01*
X89652025Y-44998305D01*
X92695900Y-44998305D01*
X92765957Y-45240988D01*
X93019318Y-45360628D01*
X93291151Y-45428541D01*
X93571010Y-45442117D01*
X93848140Y-45400834D01*
X94111892Y-45306279D01*
X94234043Y-45240988D01*
X94304100Y-44998305D01*
X93500000Y-44194205D01*
X92695900Y-44998305D01*
X89652025Y-44998305D01*
X89598671Y-44898486D01*
X89354702Y-44826903D01*
X88541605Y-45640000D01*
X88182395Y-45640000D01*
X87369298Y-44826903D01*
X87125329Y-44898486D01*
X87004429Y-45153996D01*
X86935700Y-45428184D01*
X86921783Y-45710512D01*
X1127000Y-45710512D01*
X1127000Y-44647298D01*
X87548903Y-44647298D01*
X88362000Y-45460395D01*
X89175097Y-44647298D01*
X89103514Y-44403329D01*
X88848004Y-44282429D01*
X88573816Y-44213700D01*
X88291488Y-44199783D01*
X88011870Y-44241213D01*
X87745708Y-44336397D01*
X87620486Y-44403329D01*
X87548903Y-44647298D01*
X1127000Y-44647298D01*
X1127000Y-44085610D01*
X92072483Y-44085610D01*
X92113766Y-44362740D01*
X92208321Y-44626492D01*
X92273612Y-44748643D01*
X92516295Y-44818700D01*
X93320395Y-44014600D01*
X93679605Y-44014600D01*
X94483705Y-44818700D01*
X94726388Y-44748643D01*
X94846028Y-44495282D01*
X94913941Y-44223449D01*
X94927517Y-43943590D01*
X94886234Y-43666460D01*
X94791679Y-43402708D01*
X94726388Y-43280557D01*
X94483705Y-43210500D01*
X93679605Y-44014600D01*
X93320395Y-44014600D01*
X92516295Y-43210500D01*
X92273612Y-43280557D01*
X92153972Y-43533918D01*
X92086059Y-43805751D01*
X92072483Y-44085610D01*
X1127000Y-44085610D01*
X1127000Y-43492702D01*
X9586903Y-43492702D01*
X9658486Y-43736671D01*
X9913996Y-43857571D01*
X10188184Y-43926300D01*
X10470512Y-43940217D01*
X10750130Y-43898787D01*
X11016292Y-43803603D01*
X11141514Y-43736671D01*
X11213097Y-43492702D01*
X10400000Y-42679605D01*
X9586903Y-43492702D01*
X1127000Y-43492702D01*
X1127000Y-42570512D01*
X8959783Y-42570512D01*
X9001213Y-42850130D01*
X9096397Y-43116292D01*
X9163329Y-43241514D01*
X9407298Y-43313097D01*
X10220395Y-42500000D01*
X10579605Y-42500000D01*
X11392702Y-43313097D01*
X11636671Y-43241514D01*
X11757571Y-42986004D01*
X11826300Y-42711816D01*
X11840217Y-42429488D01*
X11814422Y-42255391D01*
X83185000Y-42255391D01*
X83185000Y-42580609D01*
X83248447Y-42899579D01*
X83372903Y-43200042D01*
X83553585Y-43470451D01*
X83783549Y-43700415D01*
X84053958Y-43881097D01*
X84354421Y-44005553D01*
X84673391Y-44069000D01*
X84998609Y-44069000D01*
X85317579Y-44005553D01*
X85618042Y-43881097D01*
X85888451Y-43700415D01*
X86118415Y-43470451D01*
X86299097Y-43200042D01*
X86423553Y-42899579D01*
X86487000Y-42580609D01*
X86487000Y-42255391D01*
X86423553Y-41936421D01*
X86299097Y-41635958D01*
X86118415Y-41365549D01*
X85888451Y-41135585D01*
X85618042Y-40954903D01*
X85317579Y-40830447D01*
X84998609Y-40767000D01*
X84673391Y-40767000D01*
X84354421Y-40830447D01*
X84053958Y-40954903D01*
X83783549Y-41135585D01*
X83553585Y-41365549D01*
X83372903Y-41635958D01*
X83248447Y-41936421D01*
X83185000Y-42255391D01*
X11814422Y-42255391D01*
X11798787Y-42149870D01*
X11703603Y-41883708D01*
X11636671Y-41758486D01*
X11392702Y-41686903D01*
X10579605Y-42500000D01*
X10220395Y-42500000D01*
X9407298Y-41686903D01*
X9163329Y-41758486D01*
X9042429Y-42013996D01*
X8973700Y-42288184D01*
X8959783Y-42570512D01*
X1127000Y-42570512D01*
X1127000Y-41507298D01*
X9586903Y-41507298D01*
X10400000Y-42320395D01*
X11213097Y-41507298D01*
X11141514Y-41263329D01*
X10886004Y-41142429D01*
X10611816Y-41073700D01*
X10329488Y-41059783D01*
X10049870Y-41101213D01*
X9783708Y-41196397D01*
X9658486Y-41263329D01*
X9586903Y-41507298D01*
X1127000Y-41507298D01*
X1127000Y-36712600D01*
X5074528Y-36712600D01*
X5074528Y-38287400D01*
X5086788Y-38411882D01*
X5123098Y-38531580D01*
X5182063Y-38641894D01*
X5261415Y-38738585D01*
X5358106Y-38817937D01*
X5468420Y-38876902D01*
X5588118Y-38913212D01*
X5712600Y-38925472D01*
X7287400Y-38925472D01*
X7411882Y-38913212D01*
X7531580Y-38876902D01*
X7641894Y-38817937D01*
X7738585Y-38738585D01*
X7817937Y-38641894D01*
X7876902Y-38531580D01*
X7913212Y-38411882D01*
X7925472Y-38287400D01*
X7925472Y-37358665D01*
X10265000Y-37358665D01*
X10265000Y-37641335D01*
X10320147Y-37918574D01*
X10428320Y-38179727D01*
X10585363Y-38414759D01*
X10785241Y-38614637D01*
X11020273Y-38771680D01*
X11281426Y-38879853D01*
X11558665Y-38935000D01*
X11841335Y-38935000D01*
X12118574Y-38879853D01*
X12379727Y-38771680D01*
X12614759Y-38614637D01*
X12814637Y-38414759D01*
X12971680Y-38179727D01*
X13004703Y-38100000D01*
X77191928Y-38100000D01*
X77191928Y-39900000D01*
X77204188Y-40024482D01*
X77240498Y-40144180D01*
X77299463Y-40254494D01*
X77378815Y-40351185D01*
X77475506Y-40430537D01*
X77585820Y-40489502D01*
X77705518Y-40525812D01*
X77830000Y-40538072D01*
X79630000Y-40538072D01*
X79754482Y-40525812D01*
X79874180Y-40489502D01*
X79984494Y-40430537D01*
X80081185Y-40351185D01*
X80160537Y-40254494D01*
X80219502Y-40144180D01*
X80225056Y-40125873D01*
X80291495Y-40192312D01*
X80542905Y-40360299D01*
X80822257Y-40476011D01*
X81118816Y-40535000D01*
X81421184Y-40535000D01*
X81603853Y-40498665D01*
X88227000Y-40498665D01*
X88227000Y-40781335D01*
X88282147Y-41058574D01*
X88390320Y-41319727D01*
X88547363Y-41554759D01*
X88747241Y-41754637D01*
X88982273Y-41911680D01*
X89243426Y-42019853D01*
X89520665Y-42075000D01*
X89803335Y-42075000D01*
X90080574Y-42019853D01*
X90341727Y-41911680D01*
X90576759Y-41754637D01*
X90776637Y-41554759D01*
X90933680Y-41319727D01*
X91041853Y-41058574D01*
X91097000Y-40781335D01*
X91097000Y-40712600D01*
X92074528Y-40712600D01*
X92074528Y-42287400D01*
X92086788Y-42411882D01*
X92123098Y-42531580D01*
X92182063Y-42641894D01*
X92261415Y-42738585D01*
X92358106Y-42817937D01*
X92468420Y-42876902D01*
X92588118Y-42913212D01*
X92712600Y-42925472D01*
X92726333Y-42925472D01*
X92695900Y-43030895D01*
X93500000Y-43834995D01*
X94304100Y-43030895D01*
X94273667Y-42925472D01*
X94287400Y-42925472D01*
X94411882Y-42913212D01*
X94531580Y-42876902D01*
X94641894Y-42817937D01*
X94738585Y-42738585D01*
X94817937Y-42641894D01*
X94876902Y-42531580D01*
X94913212Y-42411882D01*
X94925472Y-42287400D01*
X94925472Y-40712600D01*
X94913212Y-40588118D01*
X94876902Y-40468420D01*
X94817937Y-40358106D01*
X94738585Y-40261415D01*
X94641894Y-40182063D01*
X94531580Y-40123098D01*
X94411882Y-40086788D01*
X94287400Y-40074528D01*
X92712600Y-40074528D01*
X92588118Y-40086788D01*
X92468420Y-40123098D01*
X92358106Y-40182063D01*
X92261415Y-40261415D01*
X92182063Y-40358106D01*
X92123098Y-40468420D01*
X92086788Y-40588118D01*
X92074528Y-40712600D01*
X91097000Y-40712600D01*
X91097000Y-40498665D01*
X91041853Y-40221426D01*
X90933680Y-39960273D01*
X90776637Y-39725241D01*
X90576759Y-39525363D01*
X90341727Y-39368320D01*
X90080574Y-39260147D01*
X89803335Y-39205000D01*
X89520665Y-39205000D01*
X89243426Y-39260147D01*
X88982273Y-39368320D01*
X88747241Y-39525363D01*
X88547363Y-39725241D01*
X88390320Y-39960273D01*
X88282147Y-40221426D01*
X88227000Y-40498665D01*
X81603853Y-40498665D01*
X81717743Y-40476011D01*
X81997095Y-40360299D01*
X82248505Y-40192312D01*
X82462312Y-39978505D01*
X82630299Y-39727095D01*
X82746011Y-39447743D01*
X82805000Y-39151184D01*
X82805000Y-38848816D01*
X82746011Y-38552257D01*
X82630299Y-38272905D01*
X82462312Y-38021495D01*
X82248505Y-37807688D01*
X81997095Y-37639701D01*
X81717743Y-37523989D01*
X81421184Y-37465000D01*
X81118816Y-37465000D01*
X80822257Y-37523989D01*
X80542905Y-37639701D01*
X80291495Y-37807688D01*
X80225056Y-37874127D01*
X80219502Y-37855820D01*
X80160537Y-37745506D01*
X80081185Y-37648815D01*
X79984494Y-37569463D01*
X79874180Y-37510498D01*
X79754482Y-37474188D01*
X79630000Y-37461928D01*
X77830000Y-37461928D01*
X77705518Y-37474188D01*
X77585820Y-37510498D01*
X77475506Y-37569463D01*
X77378815Y-37648815D01*
X77299463Y-37745506D01*
X77240498Y-37855820D01*
X77204188Y-37975518D01*
X77191928Y-38100000D01*
X13004703Y-38100000D01*
X13079853Y-37918574D01*
X13135000Y-37641335D01*
X13135000Y-37358665D01*
X13079853Y-37081426D01*
X12971680Y-36820273D01*
X12814637Y-36585241D01*
X12614759Y-36385363D01*
X12379727Y-36228320D01*
X12118574Y-36120147D01*
X11841335Y-36065000D01*
X11558665Y-36065000D01*
X11281426Y-36120147D01*
X11020273Y-36228320D01*
X10785241Y-36385363D01*
X10585363Y-36585241D01*
X10428320Y-36820273D01*
X10320147Y-37081426D01*
X10265000Y-37358665D01*
X7925472Y-37358665D01*
X7925472Y-36712600D01*
X7913212Y-36588118D01*
X7876902Y-36468420D01*
X7817937Y-36358106D01*
X7738585Y-36261415D01*
X7641894Y-36182063D01*
X7531580Y-36123098D01*
X7411882Y-36086788D01*
X7287400Y-36074528D01*
X7273667Y-36074528D01*
X7304100Y-35969105D01*
X7234995Y-35900000D01*
X17191928Y-35900000D01*
X17204188Y-36024482D01*
X17240498Y-36144180D01*
X17299463Y-36254494D01*
X17378815Y-36351185D01*
X17475506Y-36430537D01*
X17585820Y-36489502D01*
X17705518Y-36525812D01*
X17830000Y-36538072D01*
X18444250Y-36535000D01*
X18603000Y-36376250D01*
X18603000Y-35127000D01*
X17353750Y-35127000D01*
X17195000Y-35285750D01*
X17191928Y-35900000D01*
X7234995Y-35900000D01*
X6500000Y-35165005D01*
X5695900Y-35969105D01*
X5726333Y-36074528D01*
X5712600Y-36074528D01*
X5588118Y-36086788D01*
X5468420Y-36123098D01*
X5358106Y-36182063D01*
X5261415Y-36261415D01*
X5182063Y-36358106D01*
X5123098Y-36468420D01*
X5086788Y-36588118D01*
X5074528Y-36712600D01*
X1127000Y-36712600D01*
X1127000Y-35056410D01*
X5072483Y-35056410D01*
X5113766Y-35333540D01*
X5208321Y-35597292D01*
X5273612Y-35719443D01*
X5516295Y-35789500D01*
X6320395Y-34985400D01*
X6679605Y-34985400D01*
X7483705Y-35789500D01*
X7726388Y-35719443D01*
X7846028Y-35466082D01*
X7913941Y-35194249D01*
X7927517Y-34914390D01*
X7886234Y-34637260D01*
X7791679Y-34373508D01*
X7726388Y-34251357D01*
X7483705Y-34181300D01*
X6679605Y-34985400D01*
X6320395Y-34985400D01*
X5516295Y-34181300D01*
X5273612Y-34251357D01*
X5153972Y-34504718D01*
X5086059Y-34776551D01*
X5072483Y-35056410D01*
X1127000Y-35056410D01*
X1127000Y-32330706D01*
X5077600Y-32330706D01*
X5077600Y-32610894D01*
X5132262Y-32885699D01*
X5239486Y-33144559D01*
X5395150Y-33377527D01*
X5593273Y-33575650D01*
X5822479Y-33728800D01*
X5765957Y-33759012D01*
X5695900Y-34001695D01*
X6500000Y-34805795D01*
X7205795Y-34100000D01*
X17191928Y-34100000D01*
X17195000Y-34714250D01*
X17353750Y-34873000D01*
X18603000Y-34873000D01*
X18603000Y-33623750D01*
X18857000Y-33623750D01*
X18857000Y-34873000D01*
X18877000Y-34873000D01*
X18877000Y-35127000D01*
X18857000Y-35127000D01*
X18857000Y-36376250D01*
X19015750Y-36535000D01*
X19630000Y-36538072D01*
X19754482Y-36525812D01*
X19874180Y-36489502D01*
X19984494Y-36430537D01*
X20081185Y-36351185D01*
X20160537Y-36254494D01*
X20219502Y-36144180D01*
X20225056Y-36125873D01*
X20291495Y-36192312D01*
X20542905Y-36360299D01*
X20822257Y-36476011D01*
X21118816Y-36535000D01*
X21421184Y-36535000D01*
X21717743Y-36476011D01*
X21997095Y-36360299D01*
X22248505Y-36192312D01*
X22462312Y-35978505D01*
X22630299Y-35727095D01*
X22727388Y-35492702D01*
X87548903Y-35492702D01*
X87620486Y-35736671D01*
X87875996Y-35857571D01*
X88150184Y-35926300D01*
X88432512Y-35940217D01*
X88712130Y-35898787D01*
X88978292Y-35803603D01*
X89103514Y-35736671D01*
X89175097Y-35492702D01*
X88362000Y-34679605D01*
X87548903Y-35492702D01*
X22727388Y-35492702D01*
X22746011Y-35447743D01*
X22805000Y-35151184D01*
X22805000Y-34848816D01*
X22746011Y-34552257D01*
X22630299Y-34272905D01*
X22462312Y-34021495D01*
X22248505Y-33807688D01*
X21997095Y-33639701D01*
X21948063Y-33619391D01*
X36449000Y-33619391D01*
X36449000Y-33944609D01*
X36512447Y-34263579D01*
X36636903Y-34564042D01*
X36817585Y-34834451D01*
X37047549Y-35064415D01*
X37317958Y-35245097D01*
X37618421Y-35369553D01*
X37937391Y-35433000D01*
X38262609Y-35433000D01*
X38581579Y-35369553D01*
X38882042Y-35245097D01*
X39152451Y-35064415D01*
X39382415Y-34834451D01*
X39558773Y-34570512D01*
X86921783Y-34570512D01*
X86963213Y-34850130D01*
X87058397Y-35116292D01*
X87125329Y-35241514D01*
X87369298Y-35313097D01*
X88182395Y-34500000D01*
X88541605Y-34500000D01*
X89354702Y-35313097D01*
X89598671Y-35241514D01*
X89719571Y-34986004D01*
X89788300Y-34711816D01*
X89802217Y-34429488D01*
X89760787Y-34149870D01*
X89706585Y-33998305D01*
X92695900Y-33998305D01*
X92765957Y-34240988D01*
X93019318Y-34360628D01*
X93291151Y-34428541D01*
X93571010Y-34442117D01*
X93848140Y-34400834D01*
X94111892Y-34306279D01*
X94234043Y-34240988D01*
X94304100Y-33998305D01*
X93500000Y-33194205D01*
X92695900Y-33998305D01*
X89706585Y-33998305D01*
X89665603Y-33883708D01*
X89598671Y-33758486D01*
X89354702Y-33686903D01*
X88541605Y-34500000D01*
X88182395Y-34500000D01*
X87369298Y-33686903D01*
X87125329Y-33758486D01*
X87004429Y-34013996D01*
X86935700Y-34288184D01*
X86921783Y-34570512D01*
X39558773Y-34570512D01*
X39563097Y-34564042D01*
X39687553Y-34263579D01*
X39751000Y-33944609D01*
X39751000Y-33619391D01*
X39728704Y-33507298D01*
X87548903Y-33507298D01*
X88362000Y-34320395D01*
X89175097Y-33507298D01*
X89103514Y-33263329D01*
X88848004Y-33142429D01*
X88621330Y-33085610D01*
X92072483Y-33085610D01*
X92113766Y-33362740D01*
X92208321Y-33626492D01*
X92273612Y-33748643D01*
X92516295Y-33818700D01*
X93320395Y-33014600D01*
X93679605Y-33014600D01*
X94483705Y-33818700D01*
X94726388Y-33748643D01*
X94846028Y-33495282D01*
X94913941Y-33223449D01*
X94927517Y-32943590D01*
X94886234Y-32666460D01*
X94791679Y-32402708D01*
X94726388Y-32280557D01*
X94483705Y-32210500D01*
X93679605Y-33014600D01*
X93320395Y-33014600D01*
X92516295Y-32210500D01*
X92273612Y-32280557D01*
X92153972Y-32533918D01*
X92086059Y-32805751D01*
X92072483Y-33085610D01*
X88621330Y-33085610D01*
X88573816Y-33073700D01*
X88291488Y-33059783D01*
X88011870Y-33101213D01*
X87745708Y-33196397D01*
X87620486Y-33263329D01*
X87548903Y-33507298D01*
X39728704Y-33507298D01*
X39687553Y-33300421D01*
X39563097Y-32999958D01*
X39382415Y-32729549D01*
X39152451Y-32499585D01*
X38882042Y-32318903D01*
X38581579Y-32194447D01*
X38262609Y-32131000D01*
X37937391Y-32131000D01*
X37618421Y-32194447D01*
X37317958Y-32318903D01*
X37047549Y-32499585D01*
X36817585Y-32729549D01*
X36636903Y-32999958D01*
X36512447Y-33300421D01*
X36449000Y-33619391D01*
X21948063Y-33619391D01*
X21717743Y-33523989D01*
X21421184Y-33465000D01*
X21118816Y-33465000D01*
X20822257Y-33523989D01*
X20542905Y-33639701D01*
X20291495Y-33807688D01*
X20225056Y-33874127D01*
X20219502Y-33855820D01*
X20160537Y-33745506D01*
X20081185Y-33648815D01*
X19984494Y-33569463D01*
X19874180Y-33510498D01*
X19754482Y-33474188D01*
X19630000Y-33461928D01*
X19015750Y-33465000D01*
X18857000Y-33623750D01*
X18603000Y-33623750D01*
X18444250Y-33465000D01*
X17830000Y-33461928D01*
X17705518Y-33474188D01*
X17585820Y-33510498D01*
X17475506Y-33569463D01*
X17378815Y-33648815D01*
X17299463Y-33745506D01*
X17240498Y-33855820D01*
X17204188Y-33975518D01*
X17191928Y-34100000D01*
X7205795Y-34100000D01*
X7304100Y-34001695D01*
X7234043Y-33759012D01*
X7174433Y-33730864D01*
X7406727Y-33575650D01*
X7604850Y-33377527D01*
X7760514Y-33144559D01*
X7867738Y-32885699D01*
X7922400Y-32610894D01*
X7922400Y-32330706D01*
X7908071Y-32258665D01*
X8965000Y-32258665D01*
X8965000Y-32541335D01*
X9020147Y-32818574D01*
X9128320Y-33079727D01*
X9285363Y-33314759D01*
X9485241Y-33514637D01*
X9720273Y-33671680D01*
X9981426Y-33779853D01*
X10258665Y-33835000D01*
X10541335Y-33835000D01*
X10818574Y-33779853D01*
X11079727Y-33671680D01*
X11314759Y-33514637D01*
X11514637Y-33314759D01*
X11671680Y-33079727D01*
X11779853Y-32818574D01*
X11835000Y-32541335D01*
X11835000Y-32258665D01*
X11779853Y-31981426D01*
X11671680Y-31720273D01*
X11514637Y-31485241D01*
X11314759Y-31285363D01*
X11079727Y-31128320D01*
X10818574Y-31020147D01*
X10541335Y-30965000D01*
X10258665Y-30965000D01*
X9981426Y-31020147D01*
X9720273Y-31128320D01*
X9485241Y-31285363D01*
X9285363Y-31485241D01*
X9128320Y-31720273D01*
X9020147Y-31981426D01*
X8965000Y-32258665D01*
X7908071Y-32258665D01*
X7867738Y-32055901D01*
X7760514Y-31797041D01*
X7604850Y-31564073D01*
X7406727Y-31365950D01*
X7173759Y-31210286D01*
X6914899Y-31103062D01*
X6640094Y-31048400D01*
X6359906Y-31048400D01*
X6085101Y-31103062D01*
X5826241Y-31210286D01*
X5593273Y-31365950D01*
X5395150Y-31564073D01*
X5239486Y-31797041D01*
X5132262Y-32055901D01*
X5077600Y-32330706D01*
X1127000Y-32330706D01*
X1127000Y-29809391D01*
X83185000Y-29809391D01*
X83185000Y-30134609D01*
X83248447Y-30453579D01*
X83372903Y-30754042D01*
X83553585Y-31024451D01*
X83783549Y-31254415D01*
X84053958Y-31435097D01*
X84354421Y-31559553D01*
X84673391Y-31623000D01*
X84998609Y-31623000D01*
X85317579Y-31559553D01*
X85618042Y-31435097D01*
X85888451Y-31254415D01*
X86118415Y-31024451D01*
X86299097Y-30754042D01*
X86423553Y-30453579D01*
X86487000Y-30134609D01*
X86487000Y-29809391D01*
X86423553Y-29490421D01*
X86368978Y-29358665D01*
X88227000Y-29358665D01*
X88227000Y-29641335D01*
X88282147Y-29918574D01*
X88390320Y-30179727D01*
X88547363Y-30414759D01*
X88747241Y-30614637D01*
X88982273Y-30771680D01*
X89243426Y-30879853D01*
X89520665Y-30935000D01*
X89803335Y-30935000D01*
X90080574Y-30879853D01*
X90341727Y-30771680D01*
X90576759Y-30614637D01*
X90776637Y-30414759D01*
X90933680Y-30179727D01*
X91041853Y-29918574D01*
X91082824Y-29712600D01*
X92074528Y-29712600D01*
X92074528Y-31287400D01*
X92086788Y-31411882D01*
X92123098Y-31531580D01*
X92182063Y-31641894D01*
X92261415Y-31738585D01*
X92358106Y-31817937D01*
X92468420Y-31876902D01*
X92588118Y-31913212D01*
X92712600Y-31925472D01*
X92726333Y-31925472D01*
X92695900Y-32030895D01*
X93500000Y-32834995D01*
X94304100Y-32030895D01*
X94273667Y-31925472D01*
X94287400Y-31925472D01*
X94411882Y-31913212D01*
X94531580Y-31876902D01*
X94641894Y-31817937D01*
X94738585Y-31738585D01*
X94817937Y-31641894D01*
X94876902Y-31531580D01*
X94913212Y-31411882D01*
X94925472Y-31287400D01*
X94925472Y-29712600D01*
X94913212Y-29588118D01*
X94876902Y-29468420D01*
X94817937Y-29358106D01*
X94738585Y-29261415D01*
X94641894Y-29182063D01*
X94531580Y-29123098D01*
X94411882Y-29086788D01*
X94287400Y-29074528D01*
X92712600Y-29074528D01*
X92588118Y-29086788D01*
X92468420Y-29123098D01*
X92358106Y-29182063D01*
X92261415Y-29261415D01*
X92182063Y-29358106D01*
X92123098Y-29468420D01*
X92086788Y-29588118D01*
X92074528Y-29712600D01*
X91082824Y-29712600D01*
X91097000Y-29641335D01*
X91097000Y-29358665D01*
X91041853Y-29081426D01*
X90933680Y-28820273D01*
X90776637Y-28585241D01*
X90576759Y-28385363D01*
X90341727Y-28228320D01*
X90080574Y-28120147D01*
X89803335Y-28065000D01*
X89520665Y-28065000D01*
X89243426Y-28120147D01*
X88982273Y-28228320D01*
X88747241Y-28385363D01*
X88547363Y-28585241D01*
X88390320Y-28820273D01*
X88282147Y-29081426D01*
X88227000Y-29358665D01*
X86368978Y-29358665D01*
X86299097Y-29189958D01*
X86118415Y-28919549D01*
X85888451Y-28689585D01*
X85618042Y-28508903D01*
X85317579Y-28384447D01*
X84998609Y-28321000D01*
X84673391Y-28321000D01*
X84354421Y-28384447D01*
X84053958Y-28508903D01*
X83783549Y-28689585D01*
X83553585Y-28919549D01*
X83372903Y-29189958D01*
X83248447Y-29490421D01*
X83185000Y-29809391D01*
X1127000Y-29809391D01*
X1127000Y-28392702D01*
X10886903Y-28392702D01*
X10958486Y-28636671D01*
X11213996Y-28757571D01*
X11488184Y-28826300D01*
X11770512Y-28840217D01*
X12050130Y-28798787D01*
X12316292Y-28703603D01*
X12441514Y-28636671D01*
X12513097Y-28392702D01*
X11700000Y-27579605D01*
X10886903Y-28392702D01*
X1127000Y-28392702D01*
X1127000Y-27470512D01*
X10259783Y-27470512D01*
X10301213Y-27750130D01*
X10396397Y-28016292D01*
X10463329Y-28141514D01*
X10707298Y-28213097D01*
X11520395Y-27400000D01*
X11879605Y-27400000D01*
X12692702Y-28213097D01*
X12936671Y-28141514D01*
X13057571Y-27886004D01*
X13126300Y-27611816D01*
X13140217Y-27329488D01*
X13098787Y-27049870D01*
X13003603Y-26783708D01*
X12936671Y-26658486D01*
X12692702Y-26586903D01*
X11879605Y-27400000D01*
X11520395Y-27400000D01*
X10707298Y-26586903D01*
X10463329Y-26658486D01*
X10342429Y-26913996D01*
X10273700Y-27188184D01*
X10259783Y-27470512D01*
X1127000Y-27470512D01*
X1127000Y-26407298D01*
X10886903Y-26407298D01*
X11700000Y-27220395D01*
X12513097Y-26407298D01*
X12441514Y-26163329D01*
X12307675Y-26100000D01*
X77191928Y-26100000D01*
X77191928Y-27900000D01*
X77204188Y-28024482D01*
X77240498Y-28144180D01*
X77299463Y-28254494D01*
X77378815Y-28351185D01*
X77475506Y-28430537D01*
X77585820Y-28489502D01*
X77705518Y-28525812D01*
X77830000Y-28538072D01*
X79630000Y-28538072D01*
X79754482Y-28525812D01*
X79874180Y-28489502D01*
X79984494Y-28430537D01*
X80081185Y-28351185D01*
X80160537Y-28254494D01*
X80219502Y-28144180D01*
X80225056Y-28125873D01*
X80291495Y-28192312D01*
X80542905Y-28360299D01*
X80822257Y-28476011D01*
X81118816Y-28535000D01*
X81421184Y-28535000D01*
X81717743Y-28476011D01*
X81997095Y-28360299D01*
X82248505Y-28192312D01*
X82462312Y-27978505D01*
X82630299Y-27727095D01*
X82746011Y-27447743D01*
X82805000Y-27151184D01*
X82805000Y-26848816D01*
X82746011Y-26552257D01*
X82630299Y-26272905D01*
X82462312Y-26021495D01*
X82248505Y-25807688D01*
X81997095Y-25639701D01*
X81717743Y-25523989D01*
X81421184Y-25465000D01*
X81118816Y-25465000D01*
X80822257Y-25523989D01*
X80542905Y-25639701D01*
X80291495Y-25807688D01*
X80225056Y-25874127D01*
X80219502Y-25855820D01*
X80160537Y-25745506D01*
X80081185Y-25648815D01*
X79984494Y-25569463D01*
X79874180Y-25510498D01*
X79754482Y-25474188D01*
X79630000Y-25461928D01*
X77830000Y-25461928D01*
X77705518Y-25474188D01*
X77585820Y-25510498D01*
X77475506Y-25569463D01*
X77378815Y-25648815D01*
X77299463Y-25745506D01*
X77240498Y-25855820D01*
X77204188Y-25975518D01*
X77191928Y-26100000D01*
X12307675Y-26100000D01*
X12186004Y-26042429D01*
X11911816Y-25973700D01*
X11629488Y-25959783D01*
X11349870Y-26001213D01*
X11083708Y-26096397D01*
X10958486Y-26163329D01*
X10886903Y-26407298D01*
X1127000Y-26407298D01*
X1127000Y-23833500D01*
X3028428Y-23833500D01*
X3040688Y-23957982D01*
X3076998Y-24077680D01*
X3135963Y-24187994D01*
X3215315Y-24284685D01*
X3312006Y-24364037D01*
X3422320Y-24423002D01*
X3542018Y-24459312D01*
X3666500Y-24471572D01*
X4714250Y-24468500D01*
X4873000Y-24309750D01*
X4873000Y-22627000D01*
X5127000Y-22627000D01*
X5127000Y-24309750D01*
X5285750Y-24468500D01*
X6333500Y-24471572D01*
X6457982Y-24459312D01*
X6577680Y-24423002D01*
X6687994Y-24364037D01*
X6784685Y-24284685D01*
X6864037Y-24187994D01*
X6923002Y-24077680D01*
X6959312Y-23957982D01*
X6971572Y-23833500D01*
X6968500Y-22785750D01*
X6809750Y-22627000D01*
X5127000Y-22627000D01*
X4873000Y-22627000D01*
X3190250Y-22627000D01*
X3031500Y-22785750D01*
X3028428Y-23833500D01*
X1127000Y-23833500D01*
X1127000Y-21166500D01*
X3028428Y-21166500D01*
X3031500Y-22214250D01*
X3190250Y-22373000D01*
X4873000Y-22373000D01*
X4873000Y-20690250D01*
X5127000Y-20690250D01*
X5127000Y-22373000D01*
X6809750Y-22373000D01*
X6968500Y-22214250D01*
X6971572Y-21166500D01*
X6960099Y-21050000D01*
X21011928Y-21050000D01*
X21011928Y-23550000D01*
X21024188Y-23674482D01*
X21060498Y-23794180D01*
X21119463Y-23904494D01*
X21198815Y-24001185D01*
X21295506Y-24080537D01*
X21405820Y-24139502D01*
X21525518Y-24175812D01*
X21650000Y-24188072D01*
X23150000Y-24188072D01*
X23274482Y-24175812D01*
X23394180Y-24139502D01*
X23504494Y-24080537D01*
X23601185Y-24001185D01*
X23680537Y-23904494D01*
X23739502Y-23794180D01*
X23775812Y-23674482D01*
X23786582Y-23565126D01*
X23858972Y-23675061D01*
X24050460Y-23869145D01*
X24276132Y-24022142D01*
X24527316Y-24128173D01*
X24598815Y-24142318D01*
X24813000Y-24019656D01*
X24813000Y-22427000D01*
X24793000Y-22427000D01*
X24793000Y-22173000D01*
X24813000Y-22173000D01*
X24813000Y-20580344D01*
X25067000Y-20580344D01*
X25067000Y-22173000D01*
X25087000Y-22173000D01*
X25087000Y-22427000D01*
X25067000Y-22427000D01*
X25067000Y-24019656D01*
X25281185Y-24142318D01*
X25352684Y-24128173D01*
X25603868Y-24022142D01*
X25829540Y-23869145D01*
X26021028Y-23675061D01*
X26170972Y-23447349D01*
X26207514Y-23357422D01*
X26322843Y-23573188D01*
X26495920Y-23784081D01*
X26706813Y-23957157D01*
X26947420Y-24085764D01*
X27208494Y-24164960D01*
X27480000Y-24191701D01*
X27751507Y-24164960D01*
X28012581Y-24085764D01*
X28253188Y-23957157D01*
X28464081Y-23784081D01*
X28637157Y-23573188D01*
X28765764Y-23332581D01*
X28844960Y-23071507D01*
X28865000Y-22868037D01*
X28865000Y-21750000D01*
X77411928Y-21750000D01*
X77424188Y-21874482D01*
X77460498Y-21994180D01*
X77519463Y-22104494D01*
X77598815Y-22201185D01*
X77695506Y-22280537D01*
X77805820Y-22339502D01*
X77925518Y-22375812D01*
X78050000Y-22388072D01*
X78514250Y-22385000D01*
X78673000Y-22226250D01*
X78673000Y-21127000D01*
X78927000Y-21127000D01*
X78927000Y-22226250D01*
X79085750Y-22385000D01*
X79550000Y-22388072D01*
X79674482Y-22375812D01*
X79794180Y-22339502D01*
X79904494Y-22280537D01*
X80001185Y-22201185D01*
X80080537Y-22104494D01*
X80139502Y-21994180D01*
X80139950Y-21992702D01*
X86186903Y-21992702D01*
X86258486Y-22236671D01*
X86513996Y-22357571D01*
X86788184Y-22426300D01*
X87070512Y-22440217D01*
X87350130Y-22398787D01*
X87616292Y-22303603D01*
X87741514Y-22236671D01*
X87813097Y-21992702D01*
X87000000Y-21179605D01*
X86186903Y-21992702D01*
X80139950Y-21992702D01*
X80175812Y-21874482D01*
X80188072Y-21750000D01*
X80185000Y-21285750D01*
X80026250Y-21127000D01*
X78927000Y-21127000D01*
X78673000Y-21127000D01*
X77573750Y-21127000D01*
X77415000Y-21285750D01*
X77411928Y-21750000D01*
X28865000Y-21750000D01*
X28865000Y-21731963D01*
X28844960Y-21528493D01*
X28765764Y-21267419D01*
X28660516Y-21070512D01*
X85559783Y-21070512D01*
X85601213Y-21350130D01*
X85696397Y-21616292D01*
X85763329Y-21741514D01*
X86007298Y-21813097D01*
X86820395Y-21000000D01*
X87179605Y-21000000D01*
X87992702Y-21813097D01*
X88236671Y-21741514D01*
X88357571Y-21486004D01*
X88426300Y-21211816D01*
X88436824Y-20998305D01*
X92695900Y-20998305D01*
X92765957Y-21240988D01*
X93019318Y-21360628D01*
X93291151Y-21428541D01*
X93571010Y-21442117D01*
X93848140Y-21400834D01*
X94111892Y-21306279D01*
X94234043Y-21240988D01*
X94304100Y-20998305D01*
X93500000Y-20194205D01*
X92695900Y-20998305D01*
X88436824Y-20998305D01*
X88440217Y-20929488D01*
X88398787Y-20649870D01*
X88303603Y-20383708D01*
X88236671Y-20258486D01*
X87992702Y-20186903D01*
X87179605Y-21000000D01*
X86820395Y-21000000D01*
X86007298Y-20186903D01*
X85763329Y-20258486D01*
X85642429Y-20513996D01*
X85573700Y-20788184D01*
X85559783Y-21070512D01*
X28660516Y-21070512D01*
X28637157Y-21026812D01*
X28464080Y-20815919D01*
X28253187Y-20642843D01*
X28012580Y-20514236D01*
X27751506Y-20435040D01*
X27480000Y-20408299D01*
X27208493Y-20435040D01*
X26947419Y-20514236D01*
X26706812Y-20642843D01*
X26495919Y-20815920D01*
X26322843Y-21026813D01*
X26207514Y-21242579D01*
X26170972Y-21152651D01*
X26021028Y-20924939D01*
X25829540Y-20730855D01*
X25603868Y-20577858D01*
X25352684Y-20471827D01*
X25281185Y-20457682D01*
X25067000Y-20580344D01*
X24813000Y-20580344D01*
X24598815Y-20457682D01*
X24527316Y-20471827D01*
X24276132Y-20577858D01*
X24050460Y-20730855D01*
X23858972Y-20924939D01*
X23786582Y-21034874D01*
X23775812Y-20925518D01*
X23739502Y-20805820D01*
X23680537Y-20695506D01*
X23601185Y-20598815D01*
X23504494Y-20519463D01*
X23394180Y-20460498D01*
X23274482Y-20424188D01*
X23150000Y-20411928D01*
X21650000Y-20411928D01*
X21525518Y-20424188D01*
X21405820Y-20460498D01*
X21295506Y-20519463D01*
X21198815Y-20598815D01*
X21119463Y-20695506D01*
X21060498Y-20805820D01*
X21024188Y-20925518D01*
X21011928Y-21050000D01*
X6960099Y-21050000D01*
X6959312Y-21042018D01*
X6923002Y-20922320D01*
X6864037Y-20812006D01*
X6784685Y-20715315D01*
X6687994Y-20635963D01*
X6577680Y-20576998D01*
X6457982Y-20540688D01*
X6333500Y-20528428D01*
X5285750Y-20531500D01*
X5127000Y-20690250D01*
X4873000Y-20690250D01*
X4714250Y-20531500D01*
X3666500Y-20528428D01*
X3542018Y-20540688D01*
X3422320Y-20576998D01*
X3312006Y-20635963D01*
X3215315Y-20715315D01*
X3135963Y-20812006D01*
X3076998Y-20922320D01*
X3040688Y-21042018D01*
X3028428Y-21166500D01*
X1127000Y-21166500D01*
X1127000Y-20250000D01*
X77411928Y-20250000D01*
X77415000Y-20714250D01*
X77573750Y-20873000D01*
X78673000Y-20873000D01*
X78673000Y-20853000D01*
X78927000Y-20853000D01*
X78927000Y-20873000D01*
X80026250Y-20873000D01*
X80185000Y-20714250D01*
X80188072Y-20250000D01*
X80175812Y-20125518D01*
X80139951Y-20007298D01*
X86186903Y-20007298D01*
X87000000Y-20820395D01*
X87734785Y-20085610D01*
X92072483Y-20085610D01*
X92113766Y-20362740D01*
X92208321Y-20626492D01*
X92273612Y-20748643D01*
X92516295Y-20818700D01*
X93320395Y-20014600D01*
X93679605Y-20014600D01*
X94483705Y-20818700D01*
X94726388Y-20748643D01*
X94846028Y-20495282D01*
X94913941Y-20223449D01*
X94927517Y-19943590D01*
X94886234Y-19666460D01*
X94791679Y-19402708D01*
X94726388Y-19280557D01*
X94483705Y-19210500D01*
X93679605Y-20014600D01*
X93320395Y-20014600D01*
X92516295Y-19210500D01*
X92273612Y-19280557D01*
X92153972Y-19533918D01*
X92086059Y-19805751D01*
X92072483Y-20085610D01*
X87734785Y-20085610D01*
X87813097Y-20007298D01*
X87741514Y-19763329D01*
X87486004Y-19642429D01*
X87211816Y-19573700D01*
X86929488Y-19559783D01*
X86649870Y-19601213D01*
X86383708Y-19696397D01*
X86258486Y-19763329D01*
X86186903Y-20007298D01*
X80139951Y-20007298D01*
X80139502Y-20005820D01*
X80080537Y-19895506D01*
X80001185Y-19798815D01*
X79904494Y-19719463D01*
X79794180Y-19660498D01*
X79674482Y-19624188D01*
X79566517Y-19613555D01*
X79682886Y-19535799D01*
X79875799Y-19342886D01*
X80027371Y-19116043D01*
X80131775Y-18863989D01*
X80185000Y-18596411D01*
X80185000Y-18323589D01*
X80131775Y-18056011D01*
X80027371Y-17803957D01*
X79875799Y-17577114D01*
X79682886Y-17384201D01*
X79456043Y-17232629D01*
X79353127Y-17190000D01*
X79456043Y-17147371D01*
X79682886Y-16995799D01*
X79875799Y-16802886D01*
X80027371Y-16576043D01*
X80131775Y-16323989D01*
X80185000Y-16056411D01*
X80185000Y-15783589D01*
X80131775Y-15516011D01*
X80027371Y-15263957D01*
X79875799Y-15037114D01*
X79682886Y-14844201D01*
X79456043Y-14692629D01*
X79203989Y-14588225D01*
X79109305Y-14569391D01*
X82169000Y-14569391D01*
X82169000Y-14894609D01*
X82232447Y-15213579D01*
X82356903Y-15514042D01*
X82537585Y-15784451D01*
X82767549Y-16014415D01*
X83037958Y-16195097D01*
X83338421Y-16319553D01*
X83657391Y-16383000D01*
X83982609Y-16383000D01*
X84301579Y-16319553D01*
X84602042Y-16195097D01*
X84872451Y-16014415D01*
X85028201Y-15858665D01*
X86865000Y-15858665D01*
X86865000Y-16141335D01*
X86920147Y-16418574D01*
X87028320Y-16679727D01*
X87185363Y-16914759D01*
X87385241Y-17114637D01*
X87620273Y-17271680D01*
X87881426Y-17379853D01*
X88158665Y-17435000D01*
X88441335Y-17435000D01*
X88718574Y-17379853D01*
X88979727Y-17271680D01*
X89214759Y-17114637D01*
X89414637Y-16914759D01*
X89549715Y-16712600D01*
X92074528Y-16712600D01*
X92074528Y-18287400D01*
X92086788Y-18411882D01*
X92123098Y-18531580D01*
X92182063Y-18641894D01*
X92261415Y-18738585D01*
X92358106Y-18817937D01*
X92468420Y-18876902D01*
X92588118Y-18913212D01*
X92712600Y-18925472D01*
X92726333Y-18925472D01*
X92695900Y-19030895D01*
X93500000Y-19834995D01*
X94304100Y-19030895D01*
X94273667Y-18925472D01*
X94287400Y-18925472D01*
X94411882Y-18913212D01*
X94531580Y-18876902D01*
X94641894Y-18817937D01*
X94738585Y-18738585D01*
X94817937Y-18641894D01*
X94876902Y-18531580D01*
X94913212Y-18411882D01*
X94925472Y-18287400D01*
X94925472Y-16712600D01*
X94913212Y-16588118D01*
X94876902Y-16468420D01*
X94817937Y-16358106D01*
X94738585Y-16261415D01*
X94641894Y-16182063D01*
X94531580Y-16123098D01*
X94411882Y-16086788D01*
X94287400Y-16074528D01*
X92712600Y-16074528D01*
X92588118Y-16086788D01*
X92468420Y-16123098D01*
X92358106Y-16182063D01*
X92261415Y-16261415D01*
X92182063Y-16358106D01*
X92123098Y-16468420D01*
X92086788Y-16588118D01*
X92074528Y-16712600D01*
X89549715Y-16712600D01*
X89571680Y-16679727D01*
X89679853Y-16418574D01*
X89735000Y-16141335D01*
X89735000Y-15858665D01*
X89679853Y-15581426D01*
X89571680Y-15320273D01*
X89414637Y-15085241D01*
X89214759Y-14885363D01*
X88979727Y-14728320D01*
X88718574Y-14620147D01*
X88441335Y-14565000D01*
X88158665Y-14565000D01*
X87881426Y-14620147D01*
X87620273Y-14728320D01*
X87385241Y-14885363D01*
X87185363Y-15085241D01*
X87028320Y-15320273D01*
X86920147Y-15581426D01*
X86865000Y-15858665D01*
X85028201Y-15858665D01*
X85102415Y-15784451D01*
X85283097Y-15514042D01*
X85407553Y-15213579D01*
X85471000Y-14894609D01*
X85471000Y-14569391D01*
X85407553Y-14250421D01*
X85283097Y-13949958D01*
X85102415Y-13679549D01*
X84872451Y-13449585D01*
X84602042Y-13268903D01*
X84301579Y-13144447D01*
X83982609Y-13081000D01*
X83657391Y-13081000D01*
X83338421Y-13144447D01*
X83037958Y-13268903D01*
X82767549Y-13449585D01*
X82537585Y-13679549D01*
X82356903Y-13949958D01*
X82232447Y-14250421D01*
X82169000Y-14569391D01*
X79109305Y-14569391D01*
X78936411Y-14535000D01*
X78663589Y-14535000D01*
X78396011Y-14588225D01*
X78143957Y-14692629D01*
X77917114Y-14844201D01*
X77724201Y-15037114D01*
X77572629Y-15263957D01*
X77468225Y-15516011D01*
X77415000Y-15783589D01*
X77415000Y-16056411D01*
X77468225Y-16323989D01*
X77572629Y-16576043D01*
X77724201Y-16802886D01*
X77917114Y-16995799D01*
X78143957Y-17147371D01*
X78246873Y-17190000D01*
X78143957Y-17232629D01*
X77917114Y-17384201D01*
X77724201Y-17577114D01*
X77572629Y-17803957D01*
X77468225Y-18056011D01*
X77415000Y-18323589D01*
X77415000Y-18596411D01*
X77468225Y-18863989D01*
X77572629Y-19116043D01*
X77724201Y-19342886D01*
X77917114Y-19535799D01*
X78033483Y-19613555D01*
X77925518Y-19624188D01*
X77805820Y-19660498D01*
X77695506Y-19719463D01*
X77598815Y-19798815D01*
X77519463Y-19895506D01*
X77460498Y-20005820D01*
X77424188Y-20125518D01*
X77411928Y-20250000D01*
X1127000Y-20250000D01*
X1127000Y-17302320D01*
X3031500Y-17302320D01*
X3031500Y-17690080D01*
X3107148Y-18070390D01*
X3255538Y-18428635D01*
X3470966Y-18751046D01*
X3745154Y-19025234D01*
X4067565Y-19240662D01*
X4425810Y-19389052D01*
X4806120Y-19464700D01*
X5193880Y-19464700D01*
X5574190Y-19389052D01*
X5932435Y-19240662D01*
X6254846Y-19025234D01*
X6529034Y-18751046D01*
X6744462Y-18428635D01*
X6892852Y-18070390D01*
X6968500Y-17690080D01*
X6968500Y-17302320D01*
X6892852Y-16922010D01*
X6744462Y-16563765D01*
X6529034Y-16241354D01*
X6254846Y-15967166D01*
X5932435Y-15751738D01*
X5574190Y-15603348D01*
X5193880Y-15527700D01*
X4806120Y-15527700D01*
X4425810Y-15603348D01*
X4067565Y-15751738D01*
X3745154Y-15967166D01*
X3470966Y-16241354D01*
X3255538Y-16563765D01*
X3107148Y-16922010D01*
X3031500Y-17302320D01*
X1127000Y-17302320D01*
X1127000Y-15077391D01*
X38989000Y-15077391D01*
X38989000Y-15402609D01*
X39052447Y-15721579D01*
X39176903Y-16022042D01*
X39357585Y-16292451D01*
X39587549Y-16522415D01*
X39857958Y-16703097D01*
X40158421Y-16827553D01*
X40477391Y-16891000D01*
X40802609Y-16891000D01*
X41121579Y-16827553D01*
X41338498Y-16737702D01*
X41462903Y-17038042D01*
X41643585Y-17308451D01*
X41873549Y-17538415D01*
X42143958Y-17719097D01*
X42444421Y-17843553D01*
X42763391Y-17907000D01*
X43088609Y-17907000D01*
X43407579Y-17843553D01*
X43708042Y-17719097D01*
X43978451Y-17538415D01*
X44208415Y-17308451D01*
X44389097Y-17038042D01*
X44513553Y-16737579D01*
X44577000Y-16418609D01*
X44577000Y-16256004D01*
X44730421Y-16319553D01*
X45049391Y-16383000D01*
X45374609Y-16383000D01*
X45693579Y-16319553D01*
X45994042Y-16195097D01*
X46264451Y-16014415D01*
X46494415Y-15784451D01*
X46675097Y-15514042D01*
X46799553Y-15213579D01*
X46863000Y-14894609D01*
X46863000Y-14569391D01*
X46799553Y-14250421D01*
X46675097Y-13949958D01*
X46494415Y-13679549D01*
X46264451Y-13449585D01*
X45994042Y-13268903D01*
X45693579Y-13144447D01*
X45374609Y-13081000D01*
X45049391Y-13081000D01*
X44730421Y-13144447D01*
X44429958Y-13268903D01*
X44159549Y-13449585D01*
X43929585Y-13679549D01*
X43748903Y-13949958D01*
X43624447Y-14250421D01*
X43561000Y-14569391D01*
X43561000Y-14731996D01*
X43407579Y-14668447D01*
X43088609Y-14605000D01*
X42763391Y-14605000D01*
X42444421Y-14668447D01*
X42227502Y-14758298D01*
X42103097Y-14457958D01*
X41922415Y-14187549D01*
X41692451Y-13957585D01*
X41422042Y-13776903D01*
X41121579Y-13652447D01*
X40802609Y-13589000D01*
X40477391Y-13589000D01*
X40158421Y-13652447D01*
X39857958Y-13776903D01*
X39587549Y-13957585D01*
X39357585Y-14187549D01*
X39176903Y-14457958D01*
X39052447Y-14758421D01*
X38989000Y-15077391D01*
X1127000Y-15077391D01*
X1127000Y-11368514D01*
X3585000Y-11368514D01*
X3585000Y-11631486D01*
X3636304Y-11889405D01*
X3736939Y-12132359D01*
X3883038Y-12351013D01*
X4068987Y-12536962D01*
X4287641Y-12683061D01*
X4530595Y-12783696D01*
X4788514Y-12835000D01*
X5051486Y-12835000D01*
X5309405Y-12783696D01*
X5552359Y-12683061D01*
X5771013Y-12536962D01*
X5956962Y-12351013D01*
X6103061Y-12132359D01*
X6203696Y-11889405D01*
X6255000Y-11631486D01*
X6255000Y-11368514D01*
X8665000Y-11368514D01*
X8665000Y-11631486D01*
X8716304Y-11889405D01*
X8816939Y-12132359D01*
X8963038Y-12351013D01*
X9148987Y-12536962D01*
X9367641Y-12683061D01*
X9610595Y-12783696D01*
X9868514Y-12835000D01*
X10131486Y-12835000D01*
X10389405Y-12783696D01*
X10632359Y-12683061D01*
X10851013Y-12536962D01*
X11036962Y-12351013D01*
X11183061Y-12132359D01*
X11283696Y-11889405D01*
X11335000Y-11631486D01*
X11335000Y-11368514D01*
X11283696Y-11110595D01*
X11183061Y-10867641D01*
X11036962Y-10648987D01*
X10851013Y-10463038D01*
X10632359Y-10316939D01*
X10389405Y-10216304D01*
X10131486Y-10165000D01*
X9868514Y-10165000D01*
X9610595Y-10216304D01*
X9367641Y-10316939D01*
X9148987Y-10463038D01*
X8963038Y-10648987D01*
X8816939Y-10867641D01*
X8716304Y-11110595D01*
X8665000Y-11368514D01*
X6255000Y-11368514D01*
X6203696Y-11110595D01*
X6103061Y-10867641D01*
X5956962Y-10648987D01*
X5771013Y-10463038D01*
X5552359Y-10316939D01*
X5309405Y-10216304D01*
X5051486Y-10165000D01*
X4788514Y-10165000D01*
X4530595Y-10216304D01*
X4287641Y-10316939D01*
X4068987Y-10463038D01*
X3883038Y-10648987D01*
X3736939Y-10867641D01*
X3636304Y-11110595D01*
X3585000Y-11368514D01*
X1127000Y-11368514D01*
X1127000Y-9100000D01*
X27191928Y-9100000D01*
X27191928Y-10900000D01*
X27204188Y-11024482D01*
X27240498Y-11144180D01*
X27299463Y-11254494D01*
X27378815Y-11351185D01*
X27475506Y-11430537D01*
X27585820Y-11489502D01*
X27705518Y-11525812D01*
X27830000Y-11538072D01*
X29630000Y-11538072D01*
X29754482Y-11525812D01*
X29874180Y-11489502D01*
X29984494Y-11430537D01*
X30081185Y-11351185D01*
X30160537Y-11254494D01*
X30219502Y-11144180D01*
X30225056Y-11125873D01*
X30291495Y-11192312D01*
X30542905Y-11360299D01*
X30822257Y-11476011D01*
X31118816Y-11535000D01*
X31421184Y-11535000D01*
X31717743Y-11476011D01*
X31997095Y-11360299D01*
X32248505Y-11192312D01*
X32462312Y-10978505D01*
X32630299Y-10727095D01*
X32746011Y-10447743D01*
X32805000Y-10151184D01*
X32805000Y-9848816D01*
X32746011Y-9552257D01*
X32630299Y-9272905D01*
X32514768Y-9100000D01*
X42161928Y-9100000D01*
X42161928Y-10900000D01*
X42174188Y-11024482D01*
X42210498Y-11144180D01*
X42269463Y-11254494D01*
X42348815Y-11351185D01*
X42445506Y-11430537D01*
X42555820Y-11489502D01*
X42675518Y-11525812D01*
X42800000Y-11538072D01*
X44600000Y-11538072D01*
X44724482Y-11525812D01*
X44844180Y-11489502D01*
X44954494Y-11430537D01*
X45051185Y-11351185D01*
X45130537Y-11254494D01*
X45189502Y-11144180D01*
X45195056Y-11125873D01*
X45261495Y-11192312D01*
X45512905Y-11360299D01*
X45792257Y-11476011D01*
X46088816Y-11535000D01*
X46391184Y-11535000D01*
X46687743Y-11476011D01*
X46967095Y-11360299D01*
X47218505Y-11192312D01*
X47432312Y-10978505D01*
X47600299Y-10727095D01*
X47716011Y-10447743D01*
X47775000Y-10151184D01*
X47775000Y-9848816D01*
X47716011Y-9552257D01*
X47600299Y-9272905D01*
X47432312Y-9021495D01*
X47218505Y-8807688D01*
X46967095Y-8639701D01*
X46687743Y-8523989D01*
X46391184Y-8465000D01*
X46088816Y-8465000D01*
X45792257Y-8523989D01*
X45512905Y-8639701D01*
X45261495Y-8807688D01*
X45195056Y-8874127D01*
X45189502Y-8855820D01*
X45130537Y-8745506D01*
X45051185Y-8648815D01*
X44954494Y-8569463D01*
X44844180Y-8510498D01*
X44724482Y-8474188D01*
X44600000Y-8461928D01*
X42800000Y-8461928D01*
X42675518Y-8474188D01*
X42555820Y-8510498D01*
X42445506Y-8569463D01*
X42348815Y-8648815D01*
X42269463Y-8745506D01*
X42210498Y-8855820D01*
X42174188Y-8975518D01*
X42161928Y-9100000D01*
X32514768Y-9100000D01*
X32462312Y-9021495D01*
X32248505Y-8807688D01*
X31997095Y-8639701D01*
X31717743Y-8523989D01*
X31421184Y-8465000D01*
X31118816Y-8465000D01*
X30822257Y-8523989D01*
X30542905Y-8639701D01*
X30291495Y-8807688D01*
X30225056Y-8874127D01*
X30219502Y-8855820D01*
X30160537Y-8745506D01*
X30081185Y-8648815D01*
X29984494Y-8569463D01*
X29874180Y-8510498D01*
X29754482Y-8474188D01*
X29630000Y-8461928D01*
X27830000Y-8461928D01*
X27705518Y-8474188D01*
X27585820Y-8510498D01*
X27475506Y-8569463D01*
X27378815Y-8648815D01*
X27299463Y-8745506D01*
X27240498Y-8855820D01*
X27204188Y-8975518D01*
X27191928Y-9100000D01*
X1127000Y-9100000D01*
X1127000Y-4779872D01*
X2765000Y-4779872D01*
X2765000Y-5220128D01*
X2850890Y-5651925D01*
X3019369Y-6058669D01*
X3263962Y-6424729D01*
X3575271Y-6736038D01*
X3941331Y-6980631D01*
X4348075Y-7149110D01*
X4779872Y-7235000D01*
X5220128Y-7235000D01*
X5651925Y-7149110D01*
X6058669Y-6980631D01*
X6424729Y-6736038D01*
X6736038Y-6424729D01*
X6980631Y-6058669D01*
X7149110Y-5651925D01*
X7235000Y-5220128D01*
X7235000Y-4779872D01*
X7149110Y-4348075D01*
X6980631Y-3941331D01*
X6736038Y-3575271D01*
X6424729Y-3263962D01*
X6058669Y-3019369D01*
X5651925Y-2850890D01*
X5220128Y-2765000D01*
X4779872Y-2765000D01*
X4348075Y-2850890D01*
X3941331Y-3019369D01*
X3575271Y-3263962D01*
X3263962Y-3575271D01*
X3019369Y-3941331D01*
X2850890Y-4348075D01*
X2765000Y-4779872D01*
X1127000Y-4779872D01*
X1127000Y-1127000D01*
X62873000Y-1127000D01*
X62873000Y-6000000D01*
G37*
%TD.AperFunction*%
%TD*%
M02*
