%TF.GenerationSoftware,KiCad,Pcbnew,(5.1.9)-1*%
%TF.CreationDate,2022-11-23T19:56:57+01:00*%
%TF.ProjectId,PCDB_project,50434442-5f70-4726-9f6a-6563742e6b69,rev?*%
%TF.SameCoordinates,Original*%
%TF.FileFunction,Other,User*%
%FSLAX46Y46*%
G04 Gerber Fmt 4.6, Leading zero omitted, Abs format (unit mm)*
G04 Created by KiCad (PCBNEW (5.1.9)-1) date 2022-11-23 19:56:57*
%MOMM*%
%LPD*%
G01*
G04 APERTURE LIST*
%ADD10C,0.050800*%
%ADD11C,0.050000*%
%ADD12C,0.120000*%
G04 APERTURE END LIST*
D10*
%TO.C,J6*%
X-1120000Y-40979800D02*
X8836800Y-40979800D01*
X-1120000Y-40979800D02*
X-1120000Y-28991000D01*
X-1120000Y-28991000D02*
X8836800Y-28991000D01*
X8836800Y-28991000D02*
X8836800Y-40979800D01*
D11*
%TO.C,U6*%
X85076000Y-61664000D02*
X77676000Y-61664000D01*
X85076000Y-70824000D02*
X85076000Y-61664000D01*
X77676000Y-70824000D02*
X85076000Y-70824000D01*
X77676000Y-61664000D02*
X77676000Y-70824000D01*
%TO.C,MOV5*%
X90962000Y-39390000D02*
X87062000Y-39390000D01*
X90962000Y-46890000D02*
X87062000Y-46890000D01*
X90962000Y-39390000D02*
X90962000Y-46890000D01*
X87062000Y-39390000D02*
X87062000Y-46890000D01*
%TO.C,C13*%
X82900000Y-59572000D02*
X86300000Y-59572000D01*
X82900000Y-61532000D02*
X82900000Y-59572000D01*
X86300000Y-61532000D02*
X82900000Y-61532000D01*
X86300000Y-59572000D02*
X86300000Y-61532000D01*
%TO.C,R5*%
X83886000Y-9820000D02*
X85786000Y-9820000D01*
X85786000Y-9820000D02*
X85786000Y-13180000D01*
X85786000Y-13180000D02*
X83886000Y-13180000D01*
X83886000Y-13180000D02*
X83886000Y-9820000D01*
D10*
%TO.C,J8*%
X62052200Y-77292200D02*
X62052200Y-66446400D01*
X62052200Y-66446400D02*
X44119800Y-66446400D01*
X44119800Y-66446400D02*
X44119800Y-77292200D01*
X44119800Y-77292200D02*
X62052200Y-77292200D01*
D11*
%TO.C,X1*%
X55366000Y-47300000D02*
X55366000Y-59200000D01*
X60966000Y-47300000D02*
X55366000Y-47300000D01*
X60966000Y-59200000D02*
X60966000Y-47300000D01*
X55366000Y-59200000D02*
X60966000Y-59200000D01*
%TO.C,FD3*%
X91750000Y-10000000D02*
G75*
G03*
X91750000Y-10000000I-1750000J0D01*
G01*
%TO.C,FD2*%
X91750000Y-70000000D02*
G75*
G03*
X91750000Y-70000000I-1750000J0D01*
G01*
%TO.C,FD1*%
X11750000Y-70000000D02*
G75*
G03*
X11750000Y-70000000I-1750000J0D01*
G01*
%TO.C,H2*%
X98450000Y-5000000D02*
G75*
G03*
X98450000Y-5000000I-3450000J0D01*
G01*
%TO.C,H4*%
X98450000Y-75000000D02*
G75*
G03*
X98450000Y-75000000I-3450000J0D01*
G01*
%TO.C,H3*%
X8450000Y-75000000D02*
G75*
G03*
X8450000Y-75000000I-3450000J0D01*
G01*
%TO.C,H1*%
X8450000Y-5000000D02*
G75*
G03*
X8450000Y-5000000I-3450000J0D01*
G01*
%TO.C,C1*%
X21050000Y-650000D02*
X21050000Y-3150000D01*
X21050000Y-3150000D02*
X22200000Y-3150000D01*
X22200000Y-3150000D02*
X22200000Y-5250000D01*
X22200000Y-5250000D02*
X21050000Y-5250000D01*
X21050000Y-5250000D02*
X21050000Y-7750000D01*
X15100000Y-7750000D02*
X21050000Y-7750000D01*
X15100000Y-650000D02*
X21050000Y-650000D01*
X13950000Y-6600000D02*
X15100000Y-7750000D01*
X13950000Y-1800000D02*
X15100000Y-650000D01*
X13950000Y-1800000D02*
X13950000Y-3150000D01*
X13950000Y-5250000D02*
X13950000Y-6600000D01*
X13950000Y-3150000D02*
X12800000Y-3150000D01*
X12800000Y-3150000D02*
X12800000Y-5250000D01*
X12800000Y-5250000D02*
X13950000Y-5250000D01*
%TO.C,C2*%
X17850000Y-23750000D02*
X15350000Y-23750000D01*
X15350000Y-23750000D02*
X15350000Y-24900000D01*
X15350000Y-24900000D02*
X13250000Y-24900000D01*
X13250000Y-24900000D02*
X13250000Y-23750000D01*
X13250000Y-23750000D02*
X10750000Y-23750000D01*
X10750000Y-17800000D02*
X10750000Y-23750000D01*
X17850000Y-17800000D02*
X17850000Y-23750000D01*
X11900000Y-16650000D02*
X10750000Y-17800000D01*
X16700000Y-16650000D02*
X17850000Y-17800000D01*
X16700000Y-16650000D02*
X15350000Y-16650000D01*
X13250000Y-16650000D02*
X11900000Y-16650000D01*
X15350000Y-16650000D02*
X15350000Y-15500000D01*
X15350000Y-15500000D02*
X13250000Y-15500000D01*
X13250000Y-15500000D02*
X13250000Y-16650000D01*
%TO.C,C3*%
X34250000Y-16000000D02*
X34250000Y-17150000D01*
X36350000Y-16000000D02*
X34250000Y-16000000D01*
X36350000Y-17150000D02*
X36350000Y-16000000D01*
X34250000Y-17150000D02*
X32900000Y-17150000D01*
X37700000Y-17150000D02*
X36350000Y-17150000D01*
X37700000Y-17150000D02*
X38850000Y-18300000D01*
X32900000Y-17150000D02*
X31750000Y-18300000D01*
X38850000Y-18300000D02*
X38850000Y-24250000D01*
X31750000Y-18300000D02*
X31750000Y-24250000D01*
X34250000Y-24250000D02*
X31750000Y-24250000D01*
X34250000Y-25400000D02*
X34250000Y-24250000D01*
X36350000Y-25400000D02*
X34250000Y-25400000D01*
X36350000Y-24250000D02*
X36350000Y-25400000D01*
X38850000Y-24250000D02*
X36350000Y-24250000D01*
%TO.C,C4*%
X38896000Y-15114000D02*
X38896000Y-13964000D01*
X36796000Y-15114000D02*
X38896000Y-15114000D01*
X36796000Y-13964000D02*
X36796000Y-15114000D01*
X38896000Y-13964000D02*
X40246000Y-13964000D01*
X35446000Y-13964000D02*
X36796000Y-13964000D01*
X35446000Y-13964000D02*
X34296000Y-12814000D01*
X40246000Y-13964000D02*
X41396000Y-12814000D01*
X34296000Y-12814000D02*
X34296000Y-6864000D01*
X41396000Y-12814000D02*
X41396000Y-6864000D01*
X38896000Y-6864000D02*
X41396000Y-6864000D01*
X38896000Y-5714000D02*
X38896000Y-6864000D01*
X36796000Y-5714000D02*
X38896000Y-5714000D01*
X36796000Y-6864000D02*
X36796000Y-5714000D01*
X34296000Y-6864000D02*
X36796000Y-6864000D01*
%TO.C,C5*%
X43652000Y-59400000D02*
X41692000Y-59400000D01*
X41692000Y-59400000D02*
X41692000Y-56000000D01*
X41692000Y-56000000D02*
X43652000Y-56000000D01*
X43652000Y-56000000D02*
X43652000Y-59400000D01*
%TO.C,C6*%
X49500000Y-58120000D02*
X52900000Y-58120000D01*
X49500000Y-60080000D02*
X49500000Y-58120000D01*
X52900000Y-60080000D02*
X49500000Y-60080000D01*
X52900000Y-58120000D02*
X52900000Y-60080000D01*
%TO.C,C7*%
X53122000Y-51484000D02*
X53122000Y-48084000D01*
X55082000Y-51484000D02*
X53122000Y-51484000D01*
X55082000Y-48084000D02*
X55082000Y-51484000D01*
X53122000Y-48084000D02*
X55082000Y-48084000D01*
%TO.C,C8*%
X42242000Y-47280000D02*
X42242000Y-45320000D01*
X42242000Y-45320000D02*
X45642000Y-45320000D01*
X45642000Y-45320000D02*
X45642000Y-47280000D01*
X45642000Y-47280000D02*
X42242000Y-47280000D01*
%TO.C,C9*%
X52868000Y-58088000D02*
X52868000Y-54688000D01*
X54828000Y-58088000D02*
X52868000Y-58088000D01*
X54828000Y-54688000D02*
X54828000Y-58088000D01*
X52868000Y-54688000D02*
X54828000Y-54688000D01*
%TO.C,C10*%
X63210000Y-57072000D02*
X61250000Y-57072000D01*
X61250000Y-57072000D02*
X61250000Y-53672000D01*
X61250000Y-53672000D02*
X63210000Y-53672000D01*
X63210000Y-53672000D02*
X63210000Y-57072000D01*
%TO.C,C11*%
X61250000Y-53262000D02*
X61250000Y-49862000D01*
X63210000Y-53262000D02*
X61250000Y-53262000D01*
X63210000Y-49862000D02*
X63210000Y-53262000D01*
X61250000Y-49862000D02*
X63210000Y-49862000D01*
%TO.C,C12*%
X18070000Y-67134000D02*
X20030000Y-67134000D01*
X20030000Y-67134000D02*
X20030000Y-70534000D01*
X20030000Y-70534000D02*
X18070000Y-70534000D01*
X18070000Y-70534000D02*
X18070000Y-67134000D01*
%TO.C,C14*%
X30700000Y-46320000D02*
X30700000Y-48280000D01*
X30700000Y-48280000D02*
X27300000Y-48280000D01*
X27300000Y-48280000D02*
X27300000Y-46320000D01*
X27300000Y-46320000D02*
X30700000Y-46320000D01*
%TO.C,D1*%
X31200000Y-15650000D02*
X31200000Y-13750000D01*
X31200000Y-13750000D02*
X28000000Y-13750000D01*
X28000000Y-15650000D02*
X28000000Y-13750000D01*
X31200000Y-15650000D02*
X28000000Y-15650000D01*
%TO.C,D2*%
X27200000Y-4150000D02*
X24000000Y-4150000D01*
X24000000Y-4150000D02*
X24000000Y-2250000D01*
X27200000Y-2250000D02*
X24000000Y-2250000D01*
X27200000Y-4150000D02*
X27200000Y-2250000D01*
%TO.C,F1*%
X3970000Y-12550000D02*
X10950000Y-12550000D01*
X3970000Y-10450000D02*
X3970000Y-12550000D01*
X10950000Y-10450000D02*
X3970000Y-10450000D01*
X10950000Y-12550000D02*
X10950000Y-10450000D01*
D10*
%TO.C,J1*%
X10130800Y-26030600D02*
X-918200Y-26030600D01*
X10130800Y-26030600D02*
X10130800Y-13965600D01*
X-918200Y-13965600D02*
X10130800Y-13965600D01*
X-918200Y-26030600D02*
X-918200Y-13965600D01*
%TO.C,J2*%
X101120000Y-14020200D02*
X91163200Y-14020200D01*
X101120000Y-14020200D02*
X101120000Y-23494400D01*
X101120000Y-23494400D02*
X91163200Y-23494400D01*
X91163200Y-23494400D02*
X91163200Y-14020200D01*
%TO.C,J3*%
X91163200Y-36494400D02*
X91163200Y-27020200D01*
X101120000Y-36494400D02*
X91163200Y-36494400D01*
X101120000Y-27020200D02*
X101120000Y-36494400D01*
X101120000Y-27020200D02*
X91163200Y-27020200D01*
%TO.C,J4*%
X101120000Y-38020200D02*
X91163200Y-38020200D01*
X101120000Y-38020200D02*
X101120000Y-47494400D01*
X101120000Y-47494400D02*
X91163200Y-47494400D01*
X91163200Y-47494400D02*
X91163200Y-38020200D01*
%TO.C,J5*%
X91163200Y-59494400D02*
X91163200Y-50020200D01*
X101120000Y-59494400D02*
X91163200Y-59494400D01*
X101120000Y-50020200D02*
X101120000Y-59494400D01*
X101120000Y-50020200D02*
X91163200Y-50020200D01*
D11*
%TO.C,J7*%
X1350000Y-48110000D02*
X4850000Y-48100000D01*
X6850000Y-49650000D02*
X6850000Y-48100000D01*
X4850000Y-48100000D02*
X4850000Y-49650000D01*
X1350000Y-49650000D02*
X1350000Y-48110000D01*
X4850000Y-59900000D02*
X1350000Y-59900000D01*
X6850000Y-59900000D02*
X6850000Y-58350000D01*
X4850000Y-58350000D02*
X4850000Y-59900000D01*
X1350000Y-59900000D02*
X1350000Y-58350000D01*
X6850000Y-58350000D02*
X4850000Y-58350000D01*
X4850000Y-49650000D02*
X6850000Y-49650000D01*
X1350000Y-58350000D02*
X-400000Y-58350000D01*
X-400000Y-49650000D02*
X1350000Y-49650000D01*
X-400000Y-58350000D02*
X-400000Y-49650000D01*
X10350000Y-59900000D02*
X6850000Y-59900000D01*
X10350000Y-48100000D02*
X10350000Y-59900000D01*
X6850000Y-48100000D02*
X10350000Y-48100000D01*
D12*
%TO.C,L1*%
X11486800Y-8325000D02*
X19513200Y-8325000D01*
X11486800Y-14675000D02*
X19513200Y-14675000D01*
X19513200Y-8325000D02*
X19513200Y-14675000D01*
X11486800Y-14675000D02*
X11486800Y-8325000D01*
D11*
%TO.C,LD1*%
X26780000Y-6750000D02*
X26780000Y-13250000D01*
X26780000Y-13250000D02*
X33230000Y-13250000D01*
X33230000Y-13250000D02*
X33230000Y-6750000D01*
X33230000Y-6750000D02*
X26780000Y-6750000D01*
%TO.C,LD2*%
X48200000Y-6750000D02*
X41750000Y-6750000D01*
X48200000Y-13250000D02*
X48200000Y-6750000D01*
X41750000Y-13250000D02*
X48200000Y-13250000D01*
X41750000Y-6750000D02*
X41750000Y-13250000D01*
%TO.C,LD3*%
X16780000Y-31750000D02*
X16780000Y-38250000D01*
X16780000Y-38250000D02*
X23230000Y-38250000D01*
X23230000Y-38250000D02*
X23230000Y-31750000D01*
X23230000Y-31750000D02*
X16780000Y-31750000D01*
%TO.C,LD4*%
X83230000Y-23750000D02*
X76780000Y-23750000D01*
X83230000Y-30250000D02*
X83230000Y-23750000D01*
X76780000Y-30250000D02*
X83230000Y-30250000D01*
X76780000Y-23750000D02*
X76780000Y-30250000D01*
%TO.C,LD5*%
X83230000Y-35750000D02*
X76780000Y-35750000D01*
X83230000Y-42250000D02*
X83230000Y-35750000D01*
X76780000Y-42250000D02*
X83230000Y-42250000D01*
X76780000Y-35750000D02*
X76780000Y-42250000D01*
%TO.C,LD6*%
X76780000Y-47750000D02*
X76780000Y-54250000D01*
X76780000Y-54250000D02*
X83230000Y-54250000D01*
X83230000Y-54250000D02*
X83230000Y-47750000D01*
X83230000Y-47750000D02*
X76780000Y-47750000D01*
%TO.C,M1*%
X80218000Y-13200000D02*
X80218000Y-9800000D01*
X80218000Y-9800000D02*
X83718000Y-9800000D01*
X83718000Y-9800000D02*
X83718000Y-13200000D01*
X83718000Y-13200000D02*
X80218000Y-13200000D01*
%TO.C,M2*%
X35600000Y-32350000D02*
X35600000Y-35850000D01*
X32200000Y-32350000D02*
X35600000Y-32350000D01*
X32200000Y-35850000D02*
X32200000Y-32350000D01*
X35600000Y-35850000D02*
X32200000Y-35850000D01*
%TO.C,MOV1*%
X85700000Y-14750000D02*
X85700000Y-22250000D01*
X89600000Y-14750000D02*
X89600000Y-22250000D01*
X89600000Y-22250000D02*
X85700000Y-22250000D01*
X89600000Y-14750000D02*
X85700000Y-14750000D01*
%TO.C,MOV2*%
X9100000Y-33650000D02*
X13000000Y-33650000D01*
X9100000Y-26150000D02*
X13000000Y-26150000D01*
X9100000Y-33650000D02*
X9100000Y-26150000D01*
X13000000Y-33650000D02*
X13000000Y-26150000D01*
%TO.C,MOV3*%
X9100000Y-36250000D02*
X9100000Y-43750000D01*
X13000000Y-36250000D02*
X13000000Y-43750000D01*
X13000000Y-43750000D02*
X9100000Y-43750000D01*
X13000000Y-36250000D02*
X9100000Y-36250000D01*
%TO.C,MOV4*%
X90962000Y-28250000D02*
X87062000Y-28250000D01*
X90962000Y-35750000D02*
X87062000Y-35750000D01*
X90962000Y-28250000D02*
X90962000Y-35750000D01*
X87062000Y-28250000D02*
X87062000Y-35750000D01*
%TO.C,MOV6*%
X87062000Y-51328000D02*
X87062000Y-58828000D01*
X90962000Y-51328000D02*
X90962000Y-58828000D01*
X90962000Y-58828000D02*
X87062000Y-58828000D01*
X90962000Y-51328000D02*
X87062000Y-51328000D01*
%TO.C,R1*%
X22880000Y-12280000D02*
X22880000Y-7720000D01*
X25120000Y-12280000D02*
X22880000Y-12280000D01*
X25120000Y-7720000D02*
X25120000Y-12280000D01*
X22880000Y-7720000D02*
X25120000Y-7720000D01*
%TO.C,R2*%
X10750000Y-57980000D02*
X10750000Y-54620000D01*
X12650000Y-57980000D02*
X10750000Y-57980000D01*
X12650000Y-54620000D02*
X12650000Y-57980000D01*
X10750000Y-54620000D02*
X12650000Y-54620000D01*
%TO.C,R3*%
X18050000Y-66680000D02*
X18050000Y-63320000D01*
X19950000Y-66680000D02*
X18050000Y-66680000D01*
X19950000Y-63320000D02*
X19950000Y-66680000D01*
X18050000Y-63320000D02*
X19950000Y-63320000D01*
%TO.C,R4*%
X52120000Y-12280000D02*
X49880000Y-12280000D01*
X49880000Y-12280000D02*
X49880000Y-7720000D01*
X49880000Y-7720000D02*
X52120000Y-7720000D01*
X52120000Y-7720000D02*
X52120000Y-12280000D01*
%TO.C,R6*%
X30280000Y-33280000D02*
X30280000Y-35520000D01*
X30280000Y-35520000D02*
X25720000Y-35520000D01*
X25720000Y-35520000D02*
X25720000Y-33280000D01*
X25720000Y-33280000D02*
X30280000Y-33280000D01*
%TO.C,R7*%
X27020000Y-41220000D02*
X27020000Y-45780000D01*
X24780000Y-41220000D02*
X27020000Y-41220000D01*
X24780000Y-45780000D02*
X24780000Y-41220000D01*
X27020000Y-45780000D02*
X24780000Y-45780000D01*
%TO.C,R8*%
X85652000Y-23776000D02*
X85652000Y-28336000D01*
X83412000Y-23776000D02*
X85652000Y-23776000D01*
X83412000Y-28336000D02*
X83412000Y-23776000D01*
X85652000Y-28336000D02*
X83412000Y-28336000D01*
%TO.C,R9*%
X85560000Y-40836000D02*
X83320000Y-40836000D01*
X83320000Y-40836000D02*
X83320000Y-36276000D01*
X83320000Y-36276000D02*
X85560000Y-36276000D01*
X85560000Y-36276000D02*
X85560000Y-40836000D01*
%TO.C,R10*%
X85622000Y-47906000D02*
X85622000Y-52466000D01*
X83382000Y-47906000D02*
X85622000Y-47906000D01*
X83382000Y-52466000D02*
X83382000Y-47906000D01*
X85622000Y-52466000D02*
X83382000Y-52466000D01*
%TO.C,R11*%
X49280000Y-58150000D02*
X49280000Y-60050000D01*
X49280000Y-60050000D02*
X45920000Y-60050000D01*
X45920000Y-60050000D02*
X45920000Y-58150000D01*
X45920000Y-58150000D02*
X49280000Y-58150000D01*
D10*
%TO.C,SW1*%
X21745000Y-72107800D02*
X38255000Y-72107800D01*
X38255000Y-57858400D02*
X38255000Y-72107800D01*
X21745000Y-57858400D02*
X38255000Y-57858400D01*
X21745000Y-57858400D02*
X21745000Y-72107800D01*
D11*
%TO.C,U1*%
X18850000Y-16450000D02*
X31050000Y-16450000D01*
X31050000Y-16450000D02*
X31050000Y-24550000D01*
X31050000Y-24550000D02*
X18850000Y-24550000D01*
X18850000Y-24550000D02*
X18850000Y-16450000D01*
%TO.C,U2*%
X41320000Y-17482000D02*
X41320000Y-24682000D01*
X41320000Y-24682000D02*
X50120000Y-24682000D01*
X50120000Y-24682000D02*
X50120000Y-17482000D01*
X50120000Y-17482000D02*
X41320000Y-17482000D01*
%TO.C,U3*%
X47600000Y-57850000D02*
X50750000Y-57850000D01*
X50750000Y-57850000D02*
X50750000Y-56450000D01*
X50750000Y-56450000D02*
X51350000Y-56450000D01*
X51350000Y-56450000D02*
X51350000Y-55850000D01*
X51350000Y-55850000D02*
X52750000Y-55850000D01*
X52750000Y-55850000D02*
X52750000Y-52700000D01*
X47600000Y-57850000D02*
X44450000Y-57850000D01*
X44450000Y-57850000D02*
X44450000Y-56450000D01*
X44450000Y-56450000D02*
X43850000Y-56450000D01*
X43850000Y-56450000D02*
X43850000Y-55850000D01*
X43850000Y-55850000D02*
X42450000Y-55850000D01*
X42450000Y-55850000D02*
X42450000Y-52700000D01*
X47600000Y-47550000D02*
X50750000Y-47550000D01*
X50750000Y-47550000D02*
X50750000Y-48950000D01*
X50750000Y-48950000D02*
X51350000Y-48950000D01*
X51350000Y-48950000D02*
X51350000Y-49550000D01*
X51350000Y-49550000D02*
X52750000Y-49550000D01*
X52750000Y-49550000D02*
X52750000Y-52700000D01*
X47600000Y-47550000D02*
X44450000Y-47550000D01*
X44450000Y-47550000D02*
X44450000Y-48950000D01*
X44450000Y-48950000D02*
X43850000Y-48950000D01*
X43850000Y-48950000D02*
X43850000Y-49550000D01*
X43850000Y-49550000D02*
X42450000Y-49550000D01*
X42450000Y-49550000D02*
X42450000Y-52700000D01*
%TO.C,U4*%
X80810000Y-14910000D02*
X80810000Y-22010000D01*
X80810000Y-14910000D02*
X76070000Y-14910000D01*
X76070000Y-22010000D02*
X80810000Y-22010000D01*
X76070000Y-22010000D02*
X76070000Y-14910000D01*
%TO.C,U5*%
X28500000Y-46100000D02*
X35900000Y-46100000D01*
X28500000Y-40700000D02*
X28500000Y-46100000D01*
X35900000Y-40700000D02*
X28500000Y-40700000D01*
X35900000Y-46100000D02*
X35900000Y-40700000D01*
%TD*%
M02*
