%TF.GenerationSoftware,KiCad,Pcbnew,(5.1.9)-1*%
%TF.CreationDate,2022-11-23T19:56:57+01:00*%
%TF.ProjectId,PCDB_project,50434442-5f70-4726-9f6a-6563742e6b69,rev?*%
%TF.SameCoordinates,Original*%
%TF.FileFunction,Copper,L3,Inr*%
%TF.FilePolarity,Positive*%
%FSLAX46Y46*%
G04 Gerber Fmt 4.6, Leading zero omitted, Abs format (unit mm)*
G04 Created by KiCad (PCBNEW (5.1.9)-1) date 2022-11-23 19:56:57*
%MOMM*%
%LPD*%
G01*
G04 APERTURE LIST*
%TA.AperFunction,ComponentPad*%
%ADD10R,1.574800X1.574800*%
%TD*%
%TA.AperFunction,ComponentPad*%
%ADD11C,1.574800*%
%TD*%
%TA.AperFunction,ComponentPad*%
%ADD12C,1.600000*%
%TD*%
%TA.AperFunction,ComponentPad*%
%ADD13C,1.727200*%
%TD*%
%TA.AperFunction,ComponentPad*%
%ADD14C,1.500000*%
%TD*%
%TA.AperFunction,ComponentPad*%
%ADD15C,1.400000*%
%TD*%
%TA.AperFunction,ComponentPad*%
%ADD16O,1.400000X1.400000*%
%TD*%
%TA.AperFunction,ComponentPad*%
%ADD17C,2.667000*%
%TD*%
%TA.AperFunction,ComponentPad*%
%ADD18R,2.667000X2.667000*%
%TD*%
%TA.AperFunction,ComponentPad*%
%ADD19C,1.800000*%
%TD*%
%TA.AperFunction,ComponentPad*%
%ADD20R,1.800000X1.800000*%
%TD*%
%TA.AperFunction,ComponentPad*%
%ADD21C,1.955800*%
%TD*%
%TA.AperFunction,ComponentPad*%
%ADD22R,1.500000X2.500000*%
%TD*%
%TA.AperFunction,ComponentPad*%
%ADD23O,1.500000X2.500000*%
%TD*%
%TA.AperFunction,ComponentPad*%
%ADD24R,1.500000X1.500000*%
%TD*%
%TA.AperFunction,ViaPad*%
%ADD25C,2.032000*%
%TD*%
%TA.AperFunction,ViaPad*%
%ADD26C,1.016000*%
%TD*%
%TA.AperFunction,Conductor*%
%ADD27C,0.254000*%
%TD*%
%TA.AperFunction,Conductor*%
%ADD28C,0.100000*%
%TD*%
G04 APERTURE END LIST*
D10*
%TO.N,Net-(J6-Pad1)*%
%TO.C,J6*%
X6500000Y-37500000D03*
D11*
%TO.N,GND*%
X6500000Y-34985400D03*
%TO.N,Net-(J6-Pad3)*%
X6500000Y-32470800D03*
%TD*%
D12*
%TO.N,Net-(J4-Pad1)*%
%TO.C,MOV5*%
X89662000Y-40640000D03*
%TO.N,GND*%
X88362000Y-45640000D03*
%TD*%
D13*
%TO.N,Net-(J8-Pad5)*%
%TO.C,J8*%
X50596800Y-70612000D03*
%TO.N,SWCLK*%
X55626000Y-73126600D03*
%TO.N,GND*%
X50596800Y-73126600D03*
%TO.N,SWDIO*%
X53111400Y-70612000D03*
%TO.N,NRST*%
X53111400Y-73126600D03*
%TO.N,+3V3*%
X55626000Y-70612000D03*
%TD*%
D14*
%TO.N,Net-(C10-Pad1)*%
%TO.C,X1*%
X58166000Y-55700000D03*
%TO.N,Net-(C11-Pad1)*%
X58166000Y-50800000D03*
%TD*%
D15*
%TO.N,/Supply/pwr2*%
%TO.C,F1*%
X10000000Y-11500000D03*
D16*
%TO.N,/Supply/pwr1*%
X4920000Y-11500000D03*
%TD*%
D17*
%TO.N,/Supply/pwr1*%
%TO.C,J1*%
X5000000Y-17496200D03*
D18*
%TO.N,GND*%
X5000000Y-22500000D03*
%TD*%
D11*
%TO.N,GND*%
%TO.C,J2*%
X93500000Y-20014600D03*
D10*
%TO.N,DQ*%
X93500000Y-17500000D03*
%TD*%
%TO.N,Net-(J3-Pad1)*%
%TO.C,J3*%
X93500000Y-30500000D03*
D11*
%TO.N,GND*%
X93500000Y-33014600D03*
%TD*%
%TO.N,GND*%
%TO.C,J4*%
X93500000Y-44014600D03*
D10*
%TO.N,Net-(J4-Pad1)*%
X93500000Y-41500000D03*
%TD*%
%TO.N,Net-(J5-Pad1)*%
%TO.C,J5*%
X93500000Y-53500000D03*
D11*
%TO.N,GND*%
X93500000Y-56014600D03*
%TD*%
D19*
%TO.N,+3V3*%
%TO.C,LD1*%
X31270000Y-10000000D03*
D20*
%TO.N,Net-(LD1-Pad1)*%
X28730000Y-10000000D03*
%TD*%
%TO.N,Net-(LD2-Pad1)*%
%TO.C,LD2*%
X43700000Y-10000000D03*
D19*
%TO.N,Net-(LD2-Pad2)*%
X46240000Y-10000000D03*
%TD*%
%TO.N,Net-(LD3-Pad2)*%
%TO.C,LD3*%
X21270000Y-35000000D03*
D20*
%TO.N,GND*%
X18730000Y-35000000D03*
%TD*%
%TO.N,Net-(LD4-Pad1)*%
%TO.C,LD4*%
X78730000Y-27000000D03*
D19*
%TO.N,Net-(LD4-Pad2)*%
X81270000Y-27000000D03*
%TD*%
D20*
%TO.N,Net-(LD5-Pad1)*%
%TO.C,LD5*%
X78730000Y-39000000D03*
D19*
%TO.N,Net-(LD5-Pad2)*%
X81270000Y-39000000D03*
%TD*%
%TO.N,Net-(LD6-Pad2)*%
%TO.C,LD6*%
X81270000Y-51000000D03*
D20*
%TO.N,Net-(LD6-Pad1)*%
X78730000Y-51000000D03*
%TD*%
D12*
%TO.N,GND*%
%TO.C,MOV1*%
X87000000Y-21000000D03*
%TO.N,DQ*%
X88300000Y-16000000D03*
%TD*%
%TO.N,Net-(J6-Pad3)*%
%TO.C,MOV2*%
X10400000Y-32400000D03*
%TO.N,GND*%
X11700000Y-27400000D03*
%TD*%
%TO.N,GND*%
%TO.C,MOV3*%
X10400000Y-42500000D03*
%TO.N,Net-(J6-Pad1)*%
X11700000Y-37500000D03*
%TD*%
%TO.N,Net-(J3-Pad1)*%
%TO.C,MOV4*%
X89662000Y-29500000D03*
%TO.N,GND*%
X88362000Y-34500000D03*
%TD*%
%TO.N,GND*%
%TO.C,MOV6*%
X88362000Y-57578000D03*
%TO.N,Net-(J5-Pad1)*%
X89662000Y-52578000D03*
%TD*%
D21*
%TO.N,NRST*%
%TO.C,SW1*%
X36248400Y-67510400D03*
%TO.N,GND*%
X36248400Y-62506600D03*
%TO.N,NRST*%
X23751600Y-67510400D03*
%TO.N,GND*%
X23751600Y-62506600D03*
%TD*%
D22*
%TO.N,/Supply/pwr3*%
%TO.C,U1*%
X22400000Y-22300000D03*
D23*
%TO.N,GND*%
X24940000Y-22300000D03*
%TO.N,/Supply/pwr4*%
X27480000Y-22300000D03*
%TD*%
D14*
%TO.N,DQ*%
%TO.C,U4*%
X78800000Y-18460000D03*
%TO.N,Net-(U4-Pad3)*%
X78800000Y-15920000D03*
D24*
%TO.N,GND*%
X78800000Y-21000000D03*
%TD*%
D25*
%TO.N,GND*%
X38354000Y-25654000D03*
X38862000Y-3556000D03*
X23622000Y-6096000D03*
X18034000Y-25908000D03*
X48870000Y-15850000D03*
X54356000Y-15748000D03*
X54356000Y-20066000D03*
X48768000Y-26670000D03*
X54356000Y-26670000D03*
X54356000Y-22606000D03*
D26*
X64262000Y-53594000D03*
X55372000Y-58928000D03*
X46990000Y-60960000D03*
X50546000Y-60960000D03*
X41148000Y-57150000D03*
X46482000Y-46482000D03*
X26416000Y-46736000D03*
X27686000Y-40386000D03*
D25*
X12954000Y-59944000D03*
X20066000Y-72390000D03*
X10414000Y-35052000D03*
X14224000Y-28702000D03*
X11176000Y-45212000D03*
D26*
X84582000Y-58928000D03*
X77216000Y-70866000D03*
X55118000Y-47244000D03*
D25*
%TO.N,+3V3*%
X38100000Y-33782000D03*
X40640000Y-15240000D03*
X45212000Y-14732000D03*
X42926000Y-16256000D03*
D26*
X54864000Y-54288200D03*
X53086000Y-60706000D03*
X43180000Y-59944000D03*
X43688000Y-48006000D03*
D25*
X17018000Y-62230000D03*
X83820000Y-14732000D03*
X84836000Y-42418000D03*
X84836000Y-29972000D03*
X85090000Y-53848000D03*
D26*
X53340000Y-47244000D03*
%TD*%
D27*
%TO.N,*%
X74900000Y-2000000D02*
X76900000Y-2000000D01*
X76900000Y-2000000D02*
X76500000Y-2400000D01*
X76500000Y-2400000D02*
X75900000Y-3000000D01*
X75900000Y-3000000D02*
X76400000Y-3000000D01*
X76400000Y-3000000D02*
X76600000Y-3000000D01*
X76600000Y-3000000D02*
X76900000Y-3300000D01*
X76900000Y-3300000D02*
X76900000Y-4500000D01*
X76900000Y-4500000D02*
X76900000Y-4600000D01*
X76900000Y-4600000D02*
X76500000Y-5000000D01*
X76500000Y-5000000D02*
X75400000Y-5000000D01*
X75400000Y-5000000D02*
X75100000Y-4700000D01*
%TD*%
%TO.N,+3V3*%
X62873000Y-6000000D02*
X62875440Y-6024776D01*
X62882667Y-6048601D01*
X62894403Y-6070557D01*
X62910197Y-6089803D01*
X62929443Y-6105597D01*
X62951399Y-6117333D01*
X62975224Y-6124560D01*
X63000000Y-6127000D01*
X83000000Y-6127000D01*
X83024776Y-6124560D01*
X83048601Y-6117333D01*
X83070557Y-6105597D01*
X83089803Y-6089803D01*
X83105597Y-6070557D01*
X83117333Y-6048601D01*
X83124560Y-6024776D01*
X83127000Y-6000000D01*
X83127000Y-4779872D01*
X92765000Y-4779872D01*
X92765000Y-5220128D01*
X92850890Y-5651925D01*
X93019369Y-6058669D01*
X93263962Y-6424729D01*
X93575271Y-6736038D01*
X93941331Y-6980631D01*
X94348075Y-7149110D01*
X94779872Y-7235000D01*
X95220128Y-7235000D01*
X95651925Y-7149110D01*
X96058669Y-6980631D01*
X96424729Y-6736038D01*
X96736038Y-6424729D01*
X96980631Y-6058669D01*
X97149110Y-5651925D01*
X97235000Y-5220128D01*
X97235000Y-4779872D01*
X97149110Y-4348075D01*
X96980631Y-3941331D01*
X96736038Y-3575271D01*
X96424729Y-3263962D01*
X96058669Y-3019369D01*
X95651925Y-2850890D01*
X95220128Y-2765000D01*
X94779872Y-2765000D01*
X94348075Y-2850890D01*
X93941331Y-3019369D01*
X93575271Y-3263962D01*
X93263962Y-3575271D01*
X93019369Y-3941331D01*
X92850890Y-4348075D01*
X92765000Y-4779872D01*
X83127000Y-4779872D01*
X83127000Y-1127000D01*
X98873000Y-1127000D01*
X98873000Y-78873000D01*
X1127000Y-78873000D01*
X1127000Y-74779872D01*
X2765000Y-74779872D01*
X2765000Y-75220128D01*
X2850890Y-75651925D01*
X3019369Y-76058669D01*
X3263962Y-76424729D01*
X3575271Y-76736038D01*
X3941331Y-76980631D01*
X4348075Y-77149110D01*
X4779872Y-77235000D01*
X5220128Y-77235000D01*
X5651925Y-77149110D01*
X6058669Y-76980631D01*
X6424729Y-76736038D01*
X6736038Y-76424729D01*
X6980631Y-76058669D01*
X7149110Y-75651925D01*
X7235000Y-75220128D01*
X7235000Y-74779872D01*
X92765000Y-74779872D01*
X92765000Y-75220128D01*
X92850890Y-75651925D01*
X93019369Y-76058669D01*
X93263962Y-76424729D01*
X93575271Y-76736038D01*
X93941331Y-76980631D01*
X94348075Y-77149110D01*
X94779872Y-77235000D01*
X95220128Y-77235000D01*
X95651925Y-77149110D01*
X96058669Y-76980631D01*
X96424729Y-76736038D01*
X96736038Y-76424729D01*
X96980631Y-76058669D01*
X97149110Y-75651925D01*
X97235000Y-75220128D01*
X97235000Y-74779872D01*
X97149110Y-74348075D01*
X96980631Y-73941331D01*
X96736038Y-73575271D01*
X96424729Y-73263962D01*
X96058669Y-73019369D01*
X95651925Y-72850890D01*
X95220128Y-72765000D01*
X94779872Y-72765000D01*
X94348075Y-72850890D01*
X93941331Y-73019369D01*
X93575271Y-73263962D01*
X93263962Y-73575271D01*
X93019369Y-73941331D01*
X92850890Y-74348075D01*
X92765000Y-74779872D01*
X7235000Y-74779872D01*
X7149110Y-74348075D01*
X6980631Y-73941331D01*
X6736038Y-73575271D01*
X6424729Y-73263962D01*
X6058669Y-73019369D01*
X5651925Y-72850890D01*
X5220128Y-72765000D01*
X4779872Y-72765000D01*
X4348075Y-72850890D01*
X3941331Y-73019369D01*
X3575271Y-73263962D01*
X3263962Y-73575271D01*
X3019369Y-73941331D01*
X2850890Y-74348075D01*
X2765000Y-74779872D01*
X1127000Y-74779872D01*
X1127000Y-72227391D01*
X18415000Y-72227391D01*
X18415000Y-72552609D01*
X18478447Y-72871579D01*
X18602903Y-73172042D01*
X18783585Y-73442451D01*
X19013549Y-73672415D01*
X19283958Y-73853097D01*
X19584421Y-73977553D01*
X19903391Y-74041000D01*
X20228609Y-74041000D01*
X20547579Y-73977553D01*
X20848042Y-73853097D01*
X21118451Y-73672415D01*
X21348415Y-73442451D01*
X21529097Y-73172042D01*
X21653553Y-72871579D01*
X21717000Y-72552609D01*
X21717000Y-72227391D01*
X21653553Y-71908421D01*
X21529097Y-71607958D01*
X21348415Y-71337549D01*
X21118451Y-71107585D01*
X20848042Y-70926903D01*
X20547579Y-70802447D01*
X20228609Y-70739000D01*
X19903391Y-70739000D01*
X19584421Y-70802447D01*
X19283958Y-70926903D01*
X19013549Y-71107585D01*
X18783585Y-71337549D01*
X18602903Y-71607958D01*
X18478447Y-71908421D01*
X18415000Y-72227391D01*
X1127000Y-72227391D01*
X1127000Y-69363147D01*
X28437900Y-69363147D01*
X28437900Y-69670853D01*
X28497931Y-69972648D01*
X28615685Y-70256932D01*
X28786638Y-70512780D01*
X29004220Y-70730362D01*
X29260068Y-70901315D01*
X29544352Y-71019069D01*
X29846147Y-71079100D01*
X30153853Y-71079100D01*
X30455648Y-71019069D01*
X30739932Y-70901315D01*
X30995780Y-70730362D01*
X31213362Y-70512780D01*
X31245687Y-70464401D01*
X49098200Y-70464401D01*
X49098200Y-70759599D01*
X49155790Y-71049125D01*
X49268758Y-71321853D01*
X49432761Y-71567302D01*
X49641498Y-71776039D01*
X49781074Y-71869300D01*
X49641498Y-71962561D01*
X49432761Y-72171298D01*
X49268758Y-72416747D01*
X49155790Y-72689475D01*
X49098200Y-72979001D01*
X49098200Y-73274199D01*
X49155790Y-73563725D01*
X49268758Y-73836453D01*
X49432761Y-74081902D01*
X49641498Y-74290639D01*
X49886947Y-74454642D01*
X50159675Y-74567610D01*
X50449201Y-74625200D01*
X50744399Y-74625200D01*
X51033925Y-74567610D01*
X51306653Y-74454642D01*
X51552102Y-74290639D01*
X51760839Y-74081902D01*
X51854100Y-73942326D01*
X51947361Y-74081902D01*
X52156098Y-74290639D01*
X52401547Y-74454642D01*
X52674275Y-74567610D01*
X52963801Y-74625200D01*
X53258999Y-74625200D01*
X53548525Y-74567610D01*
X53821253Y-74454642D01*
X54066702Y-74290639D01*
X54275439Y-74081902D01*
X54368700Y-73942326D01*
X54461961Y-74081902D01*
X54670698Y-74290639D01*
X54916147Y-74454642D01*
X55188875Y-74567610D01*
X55478401Y-74625200D01*
X55773599Y-74625200D01*
X56063125Y-74567610D01*
X56335853Y-74454642D01*
X56581302Y-74290639D01*
X56790039Y-74081902D01*
X56954042Y-73836453D01*
X57067010Y-73563725D01*
X57124600Y-73274199D01*
X57124600Y-72979001D01*
X57067010Y-72689475D01*
X56954042Y-72416747D01*
X56790039Y-72171298D01*
X56581302Y-71962561D01*
X56419761Y-71854623D01*
X56484499Y-71650104D01*
X55626000Y-70791605D01*
X54767501Y-71650104D01*
X54832239Y-71854623D01*
X54670698Y-71962561D01*
X54461961Y-72171298D01*
X54368700Y-72310874D01*
X54275439Y-72171298D01*
X54066702Y-71962561D01*
X53927126Y-71869300D01*
X54066702Y-71776039D01*
X54275439Y-71567302D01*
X54383377Y-71405761D01*
X54587896Y-71470499D01*
X55446395Y-70612000D01*
X55805605Y-70612000D01*
X56664104Y-71470499D01*
X56914567Y-71391218D01*
X57041826Y-71124859D01*
X57114675Y-70838790D01*
X57119204Y-70753424D01*
X76073000Y-70753424D01*
X76073000Y-70978576D01*
X76116925Y-71199401D01*
X76203087Y-71407413D01*
X76328174Y-71594620D01*
X76487380Y-71753826D01*
X76674587Y-71878913D01*
X76882599Y-71965075D01*
X77103424Y-72009000D01*
X77328576Y-72009000D01*
X77549401Y-71965075D01*
X77757413Y-71878913D01*
X77944620Y-71753826D01*
X78103826Y-71594620D01*
X78228913Y-71407413D01*
X78315075Y-71199401D01*
X78359000Y-70978576D01*
X78359000Y-70753424D01*
X78315075Y-70532599D01*
X78228913Y-70324587D01*
X78103826Y-70137380D01*
X77944620Y-69978174D01*
X77757413Y-69853087D01*
X77549401Y-69766925D01*
X77328576Y-69723000D01*
X77103424Y-69723000D01*
X76882599Y-69766925D01*
X76674587Y-69853087D01*
X76487380Y-69978174D01*
X76328174Y-70137380D01*
X76203087Y-70324587D01*
X76116925Y-70532599D01*
X76073000Y-70753424D01*
X57119204Y-70753424D01*
X57130315Y-70544007D01*
X57088145Y-70251836D01*
X56989786Y-69973507D01*
X56914567Y-69832782D01*
X56664104Y-69753501D01*
X55805605Y-70612000D01*
X55446395Y-70612000D01*
X54587896Y-69753501D01*
X54383377Y-69818239D01*
X54275439Y-69656698D01*
X54192637Y-69573896D01*
X54767501Y-69573896D01*
X55626000Y-70432395D01*
X56484499Y-69573896D01*
X56405218Y-69323433D01*
X56138859Y-69196174D01*
X55852790Y-69123325D01*
X55558007Y-69107685D01*
X55265836Y-69149855D01*
X54987507Y-69248214D01*
X54846782Y-69323433D01*
X54767501Y-69573896D01*
X54192637Y-69573896D01*
X54066702Y-69447961D01*
X53821253Y-69283958D01*
X53548525Y-69170990D01*
X53258999Y-69113400D01*
X52963801Y-69113400D01*
X52674275Y-69170990D01*
X52401547Y-69283958D01*
X52156098Y-69447961D01*
X51947361Y-69656698D01*
X51854100Y-69796274D01*
X51760839Y-69656698D01*
X51552102Y-69447961D01*
X51306653Y-69283958D01*
X51033925Y-69170990D01*
X50744399Y-69113400D01*
X50449201Y-69113400D01*
X50159675Y-69170990D01*
X49886947Y-69283958D01*
X49641498Y-69447961D01*
X49432761Y-69656698D01*
X49268758Y-69902147D01*
X49155790Y-70174875D01*
X49098200Y-70464401D01*
X31245687Y-70464401D01*
X31384315Y-70256932D01*
X31502069Y-69972648D01*
X31562100Y-69670853D01*
X31562100Y-69363147D01*
X31502069Y-69061352D01*
X31384315Y-68777068D01*
X31213362Y-68521220D01*
X30995780Y-68303638D01*
X30739932Y-68132685D01*
X30455648Y-68014931D01*
X30153853Y-67954900D01*
X29846147Y-67954900D01*
X29544352Y-68014931D01*
X29260068Y-68132685D01*
X29004220Y-68303638D01*
X28786638Y-68521220D01*
X28615685Y-68777068D01*
X28497931Y-69061352D01*
X28437900Y-69363147D01*
X1127000Y-69363147D01*
X1127000Y-67351543D01*
X22138700Y-67351543D01*
X22138700Y-67669257D01*
X22200683Y-67980866D01*
X22322267Y-68274395D01*
X22498779Y-68538564D01*
X22723436Y-68763221D01*
X22987605Y-68939733D01*
X23281134Y-69061317D01*
X23592743Y-69123300D01*
X23910457Y-69123300D01*
X24222066Y-69061317D01*
X24515595Y-68939733D01*
X24779764Y-68763221D01*
X25004421Y-68538564D01*
X25180933Y-68274395D01*
X25302517Y-67980866D01*
X25364500Y-67669257D01*
X25364500Y-67351543D01*
X34635500Y-67351543D01*
X34635500Y-67669257D01*
X34697483Y-67980866D01*
X34819067Y-68274395D01*
X34995579Y-68538564D01*
X35220236Y-68763221D01*
X35484405Y-68939733D01*
X35777934Y-69061317D01*
X36089543Y-69123300D01*
X36407257Y-69123300D01*
X36718866Y-69061317D01*
X37012395Y-68939733D01*
X37276564Y-68763221D01*
X37501221Y-68538564D01*
X37677733Y-68274395D01*
X37799317Y-67980866D01*
X37861300Y-67669257D01*
X37861300Y-67351543D01*
X37799317Y-67039934D01*
X37677733Y-66746405D01*
X37501221Y-66482236D01*
X37276564Y-66257579D01*
X37012395Y-66081067D01*
X36718866Y-65959483D01*
X36407257Y-65897500D01*
X36089543Y-65897500D01*
X35777934Y-65959483D01*
X35484405Y-66081067D01*
X35220236Y-66257579D01*
X34995579Y-66482236D01*
X34819067Y-66746405D01*
X34697483Y-67039934D01*
X34635500Y-67351543D01*
X25364500Y-67351543D01*
X25302517Y-67039934D01*
X25180933Y-66746405D01*
X25004421Y-66482236D01*
X24779764Y-66257579D01*
X24515595Y-66081067D01*
X24222066Y-65959483D01*
X23910457Y-65897500D01*
X23592743Y-65897500D01*
X23281134Y-65959483D01*
X22987605Y-66081067D01*
X22723436Y-66257579D01*
X22498779Y-66482236D01*
X22322267Y-66746405D01*
X22200683Y-67039934D01*
X22138700Y-67351543D01*
X1127000Y-67351543D01*
X1127000Y-62347743D01*
X22138700Y-62347743D01*
X22138700Y-62665457D01*
X22200683Y-62977066D01*
X22322267Y-63270595D01*
X22498779Y-63534764D01*
X22723436Y-63759421D01*
X22987605Y-63935933D01*
X23281134Y-64057517D01*
X23592743Y-64119500D01*
X23910457Y-64119500D01*
X24222066Y-64057517D01*
X24515595Y-63935933D01*
X24779764Y-63759421D01*
X25004421Y-63534764D01*
X25180933Y-63270595D01*
X25302517Y-62977066D01*
X25364500Y-62665457D01*
X25364500Y-62347743D01*
X34635500Y-62347743D01*
X34635500Y-62665457D01*
X34697483Y-62977066D01*
X34819067Y-63270595D01*
X34995579Y-63534764D01*
X35220236Y-63759421D01*
X35484405Y-63935933D01*
X35777934Y-64057517D01*
X36089543Y-64119500D01*
X36407257Y-64119500D01*
X36718866Y-64057517D01*
X37012395Y-63935933D01*
X37276564Y-63759421D01*
X37501221Y-63534764D01*
X37677733Y-63270595D01*
X37799317Y-62977066D01*
X37861300Y-62665457D01*
X37861300Y-62347743D01*
X37799317Y-62036134D01*
X37677733Y-61742605D01*
X37501221Y-61478436D01*
X37276564Y-61253779D01*
X37012395Y-61077267D01*
X36718866Y-60955683D01*
X36407257Y-60893700D01*
X36089543Y-60893700D01*
X35777934Y-60955683D01*
X35484405Y-61077267D01*
X35220236Y-61253779D01*
X34995579Y-61478436D01*
X34819067Y-61742605D01*
X34697483Y-62036134D01*
X34635500Y-62347743D01*
X25364500Y-62347743D01*
X25302517Y-62036134D01*
X25180933Y-61742605D01*
X25004421Y-61478436D01*
X24779764Y-61253779D01*
X24515595Y-61077267D01*
X24222066Y-60955683D01*
X23910457Y-60893700D01*
X23592743Y-60893700D01*
X23281134Y-60955683D01*
X22987605Y-61077267D01*
X22723436Y-61253779D01*
X22498779Y-61478436D01*
X22322267Y-61742605D01*
X22200683Y-62036134D01*
X22138700Y-62347743D01*
X1127000Y-62347743D01*
X1127000Y-59781391D01*
X11303000Y-59781391D01*
X11303000Y-60106609D01*
X11366447Y-60425579D01*
X11490903Y-60726042D01*
X11671585Y-60996451D01*
X11901549Y-61226415D01*
X12171958Y-61407097D01*
X12472421Y-61531553D01*
X12791391Y-61595000D01*
X13116609Y-61595000D01*
X13435579Y-61531553D01*
X13736042Y-61407097D01*
X14006451Y-61226415D01*
X14236415Y-60996451D01*
X14417097Y-60726042D01*
X14541553Y-60425579D01*
X14557352Y-60346147D01*
X28437900Y-60346147D01*
X28437900Y-60653853D01*
X28497931Y-60955648D01*
X28615685Y-61239932D01*
X28786638Y-61495780D01*
X29004220Y-61713362D01*
X29260068Y-61884315D01*
X29544352Y-62002069D01*
X29846147Y-62062100D01*
X30153853Y-62062100D01*
X30455648Y-62002069D01*
X30739932Y-61884315D01*
X30995780Y-61713362D01*
X31213362Y-61495780D01*
X31384315Y-61239932D01*
X31502069Y-60955648D01*
X31523596Y-60847424D01*
X45847000Y-60847424D01*
X45847000Y-61072576D01*
X45890925Y-61293401D01*
X45977087Y-61501413D01*
X46102174Y-61688620D01*
X46261380Y-61847826D01*
X46448587Y-61972913D01*
X46656599Y-62059075D01*
X46877424Y-62103000D01*
X47102576Y-62103000D01*
X47323401Y-62059075D01*
X47531413Y-61972913D01*
X47718620Y-61847826D01*
X47877826Y-61688620D01*
X48002913Y-61501413D01*
X48089075Y-61293401D01*
X48133000Y-61072576D01*
X48133000Y-60847424D01*
X49403000Y-60847424D01*
X49403000Y-61072576D01*
X49446925Y-61293401D01*
X49533087Y-61501413D01*
X49658174Y-61688620D01*
X49817380Y-61847826D01*
X50004587Y-61972913D01*
X50212599Y-62059075D01*
X50433424Y-62103000D01*
X50658576Y-62103000D01*
X50879401Y-62059075D01*
X51087413Y-61972913D01*
X51274620Y-61847826D01*
X51433826Y-61688620D01*
X51558913Y-61501413D01*
X51645075Y-61293401D01*
X51689000Y-61072576D01*
X51689000Y-60847424D01*
X51645075Y-60626599D01*
X51558913Y-60418587D01*
X51433826Y-60231380D01*
X51274620Y-60072174D01*
X51087413Y-59947087D01*
X50879401Y-59860925D01*
X50658576Y-59817000D01*
X50433424Y-59817000D01*
X50212599Y-59860925D01*
X50004587Y-59947087D01*
X49817380Y-60072174D01*
X49658174Y-60231380D01*
X49533087Y-60418587D01*
X49446925Y-60626599D01*
X49403000Y-60847424D01*
X48133000Y-60847424D01*
X48089075Y-60626599D01*
X48002913Y-60418587D01*
X47877826Y-60231380D01*
X47718620Y-60072174D01*
X47531413Y-59947087D01*
X47323401Y-59860925D01*
X47102576Y-59817000D01*
X46877424Y-59817000D01*
X46656599Y-59860925D01*
X46448587Y-59947087D01*
X46261380Y-60072174D01*
X46102174Y-60231380D01*
X45977087Y-60418587D01*
X45890925Y-60626599D01*
X45847000Y-60847424D01*
X31523596Y-60847424D01*
X31562100Y-60653853D01*
X31562100Y-60346147D01*
X31502069Y-60044352D01*
X31384315Y-59760068D01*
X31213362Y-59504220D01*
X30995780Y-59286638D01*
X30739932Y-59115685D01*
X30455648Y-58997931D01*
X30153853Y-58937900D01*
X29846147Y-58937900D01*
X29544352Y-58997931D01*
X29260068Y-59115685D01*
X29004220Y-59286638D01*
X28786638Y-59504220D01*
X28615685Y-59760068D01*
X28497931Y-60044352D01*
X28437900Y-60346147D01*
X14557352Y-60346147D01*
X14605000Y-60106609D01*
X14605000Y-59781391D01*
X14541553Y-59462421D01*
X14417097Y-59161958D01*
X14236415Y-58891549D01*
X14160290Y-58815424D01*
X54229000Y-58815424D01*
X54229000Y-59040576D01*
X54272925Y-59261401D01*
X54359087Y-59469413D01*
X54484174Y-59656620D01*
X54643380Y-59815826D01*
X54830587Y-59940913D01*
X55038599Y-60027075D01*
X55259424Y-60071000D01*
X55484576Y-60071000D01*
X55705401Y-60027075D01*
X55913413Y-59940913D01*
X56100620Y-59815826D01*
X56259826Y-59656620D01*
X56384913Y-59469413D01*
X56471075Y-59261401D01*
X56515000Y-59040576D01*
X56515000Y-58815424D01*
X83439000Y-58815424D01*
X83439000Y-59040576D01*
X83482925Y-59261401D01*
X83569087Y-59469413D01*
X83694174Y-59656620D01*
X83853380Y-59815826D01*
X84040587Y-59940913D01*
X84248599Y-60027075D01*
X84469424Y-60071000D01*
X84694576Y-60071000D01*
X84915401Y-60027075D01*
X85123413Y-59940913D01*
X85310620Y-59815826D01*
X85469826Y-59656620D01*
X85594913Y-59469413D01*
X85681075Y-59261401D01*
X85725000Y-59040576D01*
X85725000Y-58815424D01*
X85681075Y-58594599D01*
X85594913Y-58386587D01*
X85469826Y-58199380D01*
X85310620Y-58040174D01*
X85123413Y-57915087D01*
X84915401Y-57828925D01*
X84694576Y-57785000D01*
X84469424Y-57785000D01*
X84248599Y-57828925D01*
X84040587Y-57915087D01*
X83853380Y-58040174D01*
X83694174Y-58199380D01*
X83569087Y-58386587D01*
X83482925Y-58594599D01*
X83439000Y-58815424D01*
X56515000Y-58815424D01*
X56471075Y-58594599D01*
X56384913Y-58386587D01*
X56259826Y-58199380D01*
X56100620Y-58040174D01*
X55913413Y-57915087D01*
X55705401Y-57828925D01*
X55484576Y-57785000D01*
X55259424Y-57785000D01*
X55038599Y-57828925D01*
X54830587Y-57915087D01*
X54643380Y-58040174D01*
X54484174Y-58199380D01*
X54359087Y-58386587D01*
X54272925Y-58594599D01*
X54229000Y-58815424D01*
X14160290Y-58815424D01*
X14006451Y-58661585D01*
X13736042Y-58480903D01*
X13435579Y-58356447D01*
X13116609Y-58293000D01*
X12791391Y-58293000D01*
X12472421Y-58356447D01*
X12171958Y-58480903D01*
X11901549Y-58661585D01*
X11671585Y-58891549D01*
X11490903Y-59161958D01*
X11366447Y-59462421D01*
X11303000Y-59781391D01*
X1127000Y-59781391D01*
X1127000Y-56093137D01*
X4915000Y-56093137D01*
X4915000Y-56306863D01*
X4956696Y-56516483D01*
X5038485Y-56713940D01*
X5157225Y-56891647D01*
X5308353Y-57042775D01*
X5486060Y-57161515D01*
X5683517Y-57243304D01*
X5893137Y-57285000D01*
X6106863Y-57285000D01*
X6316483Y-57243304D01*
X6513940Y-57161515D01*
X6691647Y-57042775D01*
X6696998Y-57037424D01*
X40005000Y-57037424D01*
X40005000Y-57262576D01*
X40048925Y-57483401D01*
X40135087Y-57691413D01*
X40260174Y-57878620D01*
X40419380Y-58037826D01*
X40606587Y-58162913D01*
X40814599Y-58249075D01*
X41035424Y-58293000D01*
X41260576Y-58293000D01*
X41481401Y-58249075D01*
X41689413Y-58162913D01*
X41876620Y-58037826D01*
X42035826Y-57878620D01*
X42160913Y-57691413D01*
X42247075Y-57483401D01*
X42256371Y-57436665D01*
X86927000Y-57436665D01*
X86927000Y-57719335D01*
X86982147Y-57996574D01*
X87090320Y-58257727D01*
X87247363Y-58492759D01*
X87447241Y-58692637D01*
X87682273Y-58849680D01*
X87943426Y-58957853D01*
X88220665Y-59013000D01*
X88503335Y-59013000D01*
X88780574Y-58957853D01*
X89041727Y-58849680D01*
X89276759Y-58692637D01*
X89476637Y-58492759D01*
X89633680Y-58257727D01*
X89741853Y-57996574D01*
X89797000Y-57719335D01*
X89797000Y-57436665D01*
X89741853Y-57159426D01*
X89633680Y-56898273D01*
X89476637Y-56663241D01*
X89276759Y-56463363D01*
X89041727Y-56306320D01*
X88780574Y-56198147D01*
X88503335Y-56143000D01*
X88220665Y-56143000D01*
X87943426Y-56198147D01*
X87682273Y-56306320D01*
X87447241Y-56463363D01*
X87247363Y-56663241D01*
X87090320Y-56898273D01*
X86982147Y-57159426D01*
X86927000Y-57436665D01*
X42256371Y-57436665D01*
X42291000Y-57262576D01*
X42291000Y-57037424D01*
X42247075Y-56816599D01*
X42160913Y-56608587D01*
X42035826Y-56421380D01*
X41876620Y-56262174D01*
X41689413Y-56137087D01*
X41481401Y-56050925D01*
X41260576Y-56007000D01*
X41035424Y-56007000D01*
X40814599Y-56050925D01*
X40606587Y-56137087D01*
X40419380Y-56262174D01*
X40260174Y-56421380D01*
X40135087Y-56608587D01*
X40048925Y-56816599D01*
X40005000Y-57037424D01*
X6696998Y-57037424D01*
X6842775Y-56891647D01*
X6961515Y-56713940D01*
X7043304Y-56516483D01*
X7085000Y-56306863D01*
X7085000Y-56093137D01*
X7043304Y-55883517D01*
X6961515Y-55686060D01*
X6879683Y-55563589D01*
X56781000Y-55563589D01*
X56781000Y-55836411D01*
X56834225Y-56103989D01*
X56938629Y-56356043D01*
X57090201Y-56582886D01*
X57283114Y-56775799D01*
X57509957Y-56927371D01*
X57762011Y-57031775D01*
X58029589Y-57085000D01*
X58302411Y-57085000D01*
X58569989Y-57031775D01*
X58822043Y-56927371D01*
X59048886Y-56775799D01*
X59241799Y-56582886D01*
X59393371Y-56356043D01*
X59497775Y-56103989D01*
X59551000Y-55836411D01*
X59551000Y-55563589D01*
X59497775Y-55296011D01*
X59393371Y-55043957D01*
X59241799Y-54817114D01*
X59048886Y-54624201D01*
X58822043Y-54472629D01*
X58569989Y-54368225D01*
X58302411Y-54315000D01*
X58029589Y-54315000D01*
X57762011Y-54368225D01*
X57509957Y-54472629D01*
X57283114Y-54624201D01*
X57090201Y-54817114D01*
X56938629Y-55043957D01*
X56834225Y-55296011D01*
X56781000Y-55563589D01*
X6879683Y-55563589D01*
X6842775Y-55508353D01*
X6691647Y-55357225D01*
X6513940Y-55238485D01*
X6316483Y-55156696D01*
X6106863Y-55115000D01*
X5893137Y-55115000D01*
X5683517Y-55156696D01*
X5486060Y-55238485D01*
X5308353Y-55357225D01*
X5157225Y-55508353D01*
X5038485Y-55686060D01*
X4956696Y-55883517D01*
X4915000Y-56093137D01*
X1127000Y-56093137D01*
X1127000Y-53481424D01*
X63119000Y-53481424D01*
X63119000Y-53706576D01*
X63162925Y-53927401D01*
X63249087Y-54135413D01*
X63374174Y-54322620D01*
X63533380Y-54481826D01*
X63720587Y-54606913D01*
X63928599Y-54693075D01*
X64149424Y-54737000D01*
X64374576Y-54737000D01*
X64595401Y-54693075D01*
X64803413Y-54606913D01*
X64990620Y-54481826D01*
X65149826Y-54322620D01*
X65274913Y-54135413D01*
X65361075Y-53927401D01*
X65405000Y-53706576D01*
X65405000Y-53481424D01*
X65361075Y-53260599D01*
X65274913Y-53052587D01*
X65149826Y-52865380D01*
X64990620Y-52706174D01*
X64803413Y-52581087D01*
X64595401Y-52494925D01*
X64374576Y-52451000D01*
X64149424Y-52451000D01*
X63928599Y-52494925D01*
X63720587Y-52581087D01*
X63533380Y-52706174D01*
X63374174Y-52865380D01*
X63249087Y-53052587D01*
X63162925Y-53260599D01*
X63119000Y-53481424D01*
X1127000Y-53481424D01*
X1127000Y-51693137D01*
X4915000Y-51693137D01*
X4915000Y-51906863D01*
X4956696Y-52116483D01*
X5038485Y-52313940D01*
X5157225Y-52491647D01*
X5308353Y-52642775D01*
X5486060Y-52761515D01*
X5683517Y-52843304D01*
X5893137Y-52885000D01*
X6106863Y-52885000D01*
X6316483Y-52843304D01*
X6513940Y-52761515D01*
X6691647Y-52642775D01*
X6842775Y-52491647D01*
X6961515Y-52313940D01*
X7043304Y-52116483D01*
X7085000Y-51906863D01*
X7085000Y-51693137D01*
X7043304Y-51483517D01*
X6961515Y-51286060D01*
X6842775Y-51108353D01*
X6691647Y-50957225D01*
X6513940Y-50838485D01*
X6316483Y-50756696D01*
X6106863Y-50715000D01*
X5893137Y-50715000D01*
X5683517Y-50756696D01*
X5486060Y-50838485D01*
X5308353Y-50957225D01*
X5157225Y-51108353D01*
X5038485Y-51286060D01*
X4956696Y-51483517D01*
X4915000Y-51693137D01*
X1127000Y-51693137D01*
X1127000Y-50663589D01*
X56781000Y-50663589D01*
X56781000Y-50936411D01*
X56834225Y-51203989D01*
X56938629Y-51456043D01*
X57090201Y-51682886D01*
X57283114Y-51875799D01*
X57509957Y-52027371D01*
X57762011Y-52131775D01*
X58029589Y-52185000D01*
X58302411Y-52185000D01*
X58569989Y-52131775D01*
X58822043Y-52027371D01*
X59048886Y-51875799D01*
X59241799Y-51682886D01*
X59393371Y-51456043D01*
X59497775Y-51203989D01*
X59551000Y-50936411D01*
X59551000Y-50663589D01*
X59497775Y-50396011D01*
X59393371Y-50143957D01*
X59364000Y-50100000D01*
X77191928Y-50100000D01*
X77191928Y-51900000D01*
X77204188Y-52024482D01*
X77240498Y-52144180D01*
X77299463Y-52254494D01*
X77378815Y-52351185D01*
X77475506Y-52430537D01*
X77585820Y-52489502D01*
X77705518Y-52525812D01*
X77830000Y-52538072D01*
X79630000Y-52538072D01*
X79754482Y-52525812D01*
X79874180Y-52489502D01*
X79984494Y-52430537D01*
X80081185Y-52351185D01*
X80160537Y-52254494D01*
X80219502Y-52144180D01*
X80225056Y-52125873D01*
X80291495Y-52192312D01*
X80542905Y-52360299D01*
X80822257Y-52476011D01*
X81118816Y-52535000D01*
X81421184Y-52535000D01*
X81717743Y-52476011D01*
X81812732Y-52436665D01*
X88227000Y-52436665D01*
X88227000Y-52719335D01*
X88282147Y-52996574D01*
X88390320Y-53257727D01*
X88547363Y-53492759D01*
X88747241Y-53692637D01*
X88982273Y-53849680D01*
X89243426Y-53957853D01*
X89520665Y-54013000D01*
X89803335Y-54013000D01*
X90080574Y-53957853D01*
X90341727Y-53849680D01*
X90576759Y-53692637D01*
X90776637Y-53492759D01*
X90933680Y-53257727D01*
X91041853Y-52996574D01*
X91097000Y-52719335D01*
X91097000Y-52712600D01*
X92074528Y-52712600D01*
X92074528Y-54287400D01*
X92086788Y-54411882D01*
X92123098Y-54531580D01*
X92182063Y-54641894D01*
X92261415Y-54738585D01*
X92358106Y-54817937D01*
X92468420Y-54876902D01*
X92588118Y-54913212D01*
X92589659Y-54913364D01*
X92395150Y-55107873D01*
X92239486Y-55340841D01*
X92132262Y-55599701D01*
X92077600Y-55874506D01*
X92077600Y-56154694D01*
X92132262Y-56429499D01*
X92239486Y-56688359D01*
X92395150Y-56921327D01*
X92593273Y-57119450D01*
X92826241Y-57275114D01*
X93085101Y-57382338D01*
X93359906Y-57437000D01*
X93640094Y-57437000D01*
X93914899Y-57382338D01*
X94173759Y-57275114D01*
X94406727Y-57119450D01*
X94604850Y-56921327D01*
X94760514Y-56688359D01*
X94867738Y-56429499D01*
X94922400Y-56154694D01*
X94922400Y-55874506D01*
X94867738Y-55599701D01*
X94760514Y-55340841D01*
X94604850Y-55107873D01*
X94410341Y-54913364D01*
X94411882Y-54913212D01*
X94531580Y-54876902D01*
X94641894Y-54817937D01*
X94738585Y-54738585D01*
X94817937Y-54641894D01*
X94876902Y-54531580D01*
X94913212Y-54411882D01*
X94925472Y-54287400D01*
X94925472Y-52712600D01*
X94913212Y-52588118D01*
X94876902Y-52468420D01*
X94817937Y-52358106D01*
X94738585Y-52261415D01*
X94641894Y-52182063D01*
X94531580Y-52123098D01*
X94411882Y-52086788D01*
X94287400Y-52074528D01*
X92712600Y-52074528D01*
X92588118Y-52086788D01*
X92468420Y-52123098D01*
X92358106Y-52182063D01*
X92261415Y-52261415D01*
X92182063Y-52358106D01*
X92123098Y-52468420D01*
X92086788Y-52588118D01*
X92074528Y-52712600D01*
X91097000Y-52712600D01*
X91097000Y-52436665D01*
X91041853Y-52159426D01*
X90933680Y-51898273D01*
X90776637Y-51663241D01*
X90576759Y-51463363D01*
X90341727Y-51306320D01*
X90080574Y-51198147D01*
X89803335Y-51143000D01*
X89520665Y-51143000D01*
X89243426Y-51198147D01*
X88982273Y-51306320D01*
X88747241Y-51463363D01*
X88547363Y-51663241D01*
X88390320Y-51898273D01*
X88282147Y-52159426D01*
X88227000Y-52436665D01*
X81812732Y-52436665D01*
X81997095Y-52360299D01*
X82248505Y-52192312D01*
X82462312Y-51978505D01*
X82630299Y-51727095D01*
X82746011Y-51447743D01*
X82805000Y-51151184D01*
X82805000Y-50848816D01*
X82746011Y-50552257D01*
X82630299Y-50272905D01*
X82462312Y-50021495D01*
X82248505Y-49807688D01*
X81997095Y-49639701D01*
X81717743Y-49523989D01*
X81421184Y-49465000D01*
X81118816Y-49465000D01*
X80822257Y-49523989D01*
X80542905Y-49639701D01*
X80291495Y-49807688D01*
X80225056Y-49874127D01*
X80219502Y-49855820D01*
X80160537Y-49745506D01*
X80081185Y-49648815D01*
X79984494Y-49569463D01*
X79874180Y-49510498D01*
X79754482Y-49474188D01*
X79630000Y-49461928D01*
X77830000Y-49461928D01*
X77705518Y-49474188D01*
X77585820Y-49510498D01*
X77475506Y-49569463D01*
X77378815Y-49648815D01*
X77299463Y-49745506D01*
X77240498Y-49855820D01*
X77204188Y-49975518D01*
X77191928Y-50100000D01*
X59364000Y-50100000D01*
X59241799Y-49917114D01*
X59048886Y-49724201D01*
X58822043Y-49572629D01*
X58569989Y-49468225D01*
X58302411Y-49415000D01*
X58029589Y-49415000D01*
X57762011Y-49468225D01*
X57509957Y-49572629D01*
X57283114Y-49724201D01*
X57090201Y-49917114D01*
X56938629Y-50143957D01*
X56834225Y-50396011D01*
X56781000Y-50663589D01*
X1127000Y-50663589D01*
X1127000Y-42358665D01*
X8965000Y-42358665D01*
X8965000Y-42641335D01*
X9020147Y-42918574D01*
X9128320Y-43179727D01*
X9285363Y-43414759D01*
X9485241Y-43614637D01*
X9720273Y-43771680D01*
X9981426Y-43879853D01*
X10148300Y-43913047D01*
X10123549Y-43929585D01*
X9893585Y-44159549D01*
X9712903Y-44429958D01*
X9588447Y-44730421D01*
X9525000Y-45049391D01*
X9525000Y-45374609D01*
X9588447Y-45693579D01*
X9712903Y-45994042D01*
X9893585Y-46264451D01*
X10123549Y-46494415D01*
X10393958Y-46675097D01*
X10694421Y-46799553D01*
X11013391Y-46863000D01*
X11338609Y-46863000D01*
X11657579Y-46799553D01*
X11958042Y-46675097D01*
X12035375Y-46623424D01*
X25273000Y-46623424D01*
X25273000Y-46848576D01*
X25316925Y-47069401D01*
X25403087Y-47277413D01*
X25528174Y-47464620D01*
X25687380Y-47623826D01*
X25874587Y-47748913D01*
X26082599Y-47835075D01*
X26303424Y-47879000D01*
X26528576Y-47879000D01*
X26749401Y-47835075D01*
X26957413Y-47748913D01*
X27144620Y-47623826D01*
X27303826Y-47464620D01*
X27428913Y-47277413D01*
X27515075Y-47069401D01*
X27559000Y-46848576D01*
X27559000Y-46623424D01*
X27515075Y-46402599D01*
X27501334Y-46369424D01*
X45339000Y-46369424D01*
X45339000Y-46594576D01*
X45382925Y-46815401D01*
X45469087Y-47023413D01*
X45594174Y-47210620D01*
X45753380Y-47369826D01*
X45940587Y-47494913D01*
X46148599Y-47581075D01*
X46369424Y-47625000D01*
X46594576Y-47625000D01*
X46815401Y-47581075D01*
X47023413Y-47494913D01*
X47210620Y-47369826D01*
X47369826Y-47210620D01*
X47422742Y-47131424D01*
X53975000Y-47131424D01*
X53975000Y-47356576D01*
X54018925Y-47577401D01*
X54105087Y-47785413D01*
X54230174Y-47972620D01*
X54389380Y-48131826D01*
X54576587Y-48256913D01*
X54784599Y-48343075D01*
X55005424Y-48387000D01*
X55230576Y-48387000D01*
X55451401Y-48343075D01*
X55659413Y-48256913D01*
X55846620Y-48131826D01*
X56005826Y-47972620D01*
X56130913Y-47785413D01*
X56217075Y-47577401D01*
X56261000Y-47356576D01*
X56261000Y-47131424D01*
X56217075Y-46910599D01*
X56130913Y-46702587D01*
X56005826Y-46515380D01*
X55846620Y-46356174D01*
X55659413Y-46231087D01*
X55451401Y-46144925D01*
X55230576Y-46101000D01*
X55005424Y-46101000D01*
X54784599Y-46144925D01*
X54576587Y-46231087D01*
X54389380Y-46356174D01*
X54230174Y-46515380D01*
X54105087Y-46702587D01*
X54018925Y-46910599D01*
X53975000Y-47131424D01*
X47422742Y-47131424D01*
X47494913Y-47023413D01*
X47581075Y-46815401D01*
X47625000Y-46594576D01*
X47625000Y-46369424D01*
X47581075Y-46148599D01*
X47494913Y-45940587D01*
X47369826Y-45753380D01*
X47210620Y-45594174D01*
X47067680Y-45498665D01*
X86927000Y-45498665D01*
X86927000Y-45781335D01*
X86982147Y-46058574D01*
X87090320Y-46319727D01*
X87247363Y-46554759D01*
X87447241Y-46754637D01*
X87682273Y-46911680D01*
X87943426Y-47019853D01*
X88220665Y-47075000D01*
X88503335Y-47075000D01*
X88780574Y-47019853D01*
X89041727Y-46911680D01*
X89276759Y-46754637D01*
X89476637Y-46554759D01*
X89633680Y-46319727D01*
X89741853Y-46058574D01*
X89797000Y-45781335D01*
X89797000Y-45498665D01*
X89741853Y-45221426D01*
X89633680Y-44960273D01*
X89476637Y-44725241D01*
X89276759Y-44525363D01*
X89041727Y-44368320D01*
X88780574Y-44260147D01*
X88503335Y-44205000D01*
X88220665Y-44205000D01*
X87943426Y-44260147D01*
X87682273Y-44368320D01*
X87447241Y-44525363D01*
X87247363Y-44725241D01*
X87090320Y-44960273D01*
X86982147Y-45221426D01*
X86927000Y-45498665D01*
X47067680Y-45498665D01*
X47023413Y-45469087D01*
X46815401Y-45382925D01*
X46594576Y-45339000D01*
X46369424Y-45339000D01*
X46148599Y-45382925D01*
X45940587Y-45469087D01*
X45753380Y-45594174D01*
X45594174Y-45753380D01*
X45469087Y-45940587D01*
X45382925Y-46148599D01*
X45339000Y-46369424D01*
X27501334Y-46369424D01*
X27428913Y-46194587D01*
X27303826Y-46007380D01*
X27144620Y-45848174D01*
X26957413Y-45723087D01*
X26749401Y-45636925D01*
X26528576Y-45593000D01*
X26303424Y-45593000D01*
X26082599Y-45636925D01*
X25874587Y-45723087D01*
X25687380Y-45848174D01*
X25528174Y-46007380D01*
X25403087Y-46194587D01*
X25316925Y-46402599D01*
X25273000Y-46623424D01*
X12035375Y-46623424D01*
X12228451Y-46494415D01*
X12458415Y-46264451D01*
X12639097Y-45994042D01*
X12763553Y-45693579D01*
X12827000Y-45374609D01*
X12827000Y-45049391D01*
X12763553Y-44730421D01*
X12639097Y-44429958D01*
X12458415Y-44159549D01*
X12228451Y-43929585D01*
X11958042Y-43748903D01*
X11657579Y-43624447D01*
X11363454Y-43565942D01*
X11514637Y-43414759D01*
X11671680Y-43179727D01*
X11779853Y-42918574D01*
X11835000Y-42641335D01*
X11835000Y-42358665D01*
X11779853Y-42081426D01*
X11671680Y-41820273D01*
X11514637Y-41585241D01*
X11314759Y-41385363D01*
X11079727Y-41228320D01*
X10818574Y-41120147D01*
X10541335Y-41065000D01*
X10258665Y-41065000D01*
X9981426Y-41120147D01*
X9720273Y-41228320D01*
X9485241Y-41385363D01*
X9285363Y-41585241D01*
X9128320Y-41820273D01*
X9020147Y-42081426D01*
X8965000Y-42358665D01*
X1127000Y-42358665D01*
X1127000Y-40273424D01*
X26543000Y-40273424D01*
X26543000Y-40498576D01*
X26586925Y-40719401D01*
X26673087Y-40927413D01*
X26798174Y-41114620D01*
X26957380Y-41273826D01*
X27144587Y-41398913D01*
X27352599Y-41485075D01*
X27573424Y-41529000D01*
X27798576Y-41529000D01*
X28019401Y-41485075D01*
X28227413Y-41398913D01*
X28414620Y-41273826D01*
X28573826Y-41114620D01*
X28698913Y-40927413D01*
X28785075Y-40719401D01*
X28829000Y-40498576D01*
X28829000Y-40273424D01*
X28785075Y-40052599D01*
X28698913Y-39844587D01*
X28573826Y-39657380D01*
X28414620Y-39498174D01*
X28227413Y-39373087D01*
X28019401Y-39286925D01*
X27798576Y-39243000D01*
X27573424Y-39243000D01*
X27352599Y-39286925D01*
X27144587Y-39373087D01*
X26957380Y-39498174D01*
X26798174Y-39657380D01*
X26673087Y-39844587D01*
X26586925Y-40052599D01*
X26543000Y-40273424D01*
X1127000Y-40273424D01*
X1127000Y-36712600D01*
X5074528Y-36712600D01*
X5074528Y-38287400D01*
X5086788Y-38411882D01*
X5123098Y-38531580D01*
X5182063Y-38641894D01*
X5261415Y-38738585D01*
X5358106Y-38817937D01*
X5468420Y-38876902D01*
X5588118Y-38913212D01*
X5712600Y-38925472D01*
X7287400Y-38925472D01*
X7411882Y-38913212D01*
X7531580Y-38876902D01*
X7641894Y-38817937D01*
X7738585Y-38738585D01*
X7817937Y-38641894D01*
X7876902Y-38531580D01*
X7913212Y-38411882D01*
X7925472Y-38287400D01*
X7925472Y-36712600D01*
X7913212Y-36588118D01*
X7876902Y-36468420D01*
X7817937Y-36358106D01*
X7738585Y-36261415D01*
X7641894Y-36182063D01*
X7531580Y-36123098D01*
X7411882Y-36086788D01*
X7410341Y-36086636D01*
X7604850Y-35892127D01*
X7760514Y-35659159D01*
X7867738Y-35400299D01*
X7922400Y-35125494D01*
X7922400Y-34889391D01*
X8763000Y-34889391D01*
X8763000Y-35214609D01*
X8826447Y-35533579D01*
X8950903Y-35834042D01*
X9131585Y-36104451D01*
X9361549Y-36334415D01*
X9631958Y-36515097D01*
X9932421Y-36639553D01*
X10251391Y-36703000D01*
X10506679Y-36703000D01*
X10428320Y-36820273D01*
X10320147Y-37081426D01*
X10265000Y-37358665D01*
X10265000Y-37641335D01*
X10320147Y-37918574D01*
X10428320Y-38179727D01*
X10585363Y-38414759D01*
X10785241Y-38614637D01*
X11020273Y-38771680D01*
X11281426Y-38879853D01*
X11558665Y-38935000D01*
X11841335Y-38935000D01*
X12118574Y-38879853D01*
X12379727Y-38771680D01*
X12614759Y-38614637D01*
X12814637Y-38414759D01*
X12971680Y-38179727D01*
X13004703Y-38100000D01*
X77191928Y-38100000D01*
X77191928Y-39900000D01*
X77204188Y-40024482D01*
X77240498Y-40144180D01*
X77299463Y-40254494D01*
X77378815Y-40351185D01*
X77475506Y-40430537D01*
X77585820Y-40489502D01*
X77705518Y-40525812D01*
X77830000Y-40538072D01*
X79630000Y-40538072D01*
X79754482Y-40525812D01*
X79874180Y-40489502D01*
X79984494Y-40430537D01*
X80081185Y-40351185D01*
X80160537Y-40254494D01*
X80219502Y-40144180D01*
X80225056Y-40125873D01*
X80291495Y-40192312D01*
X80542905Y-40360299D01*
X80822257Y-40476011D01*
X81118816Y-40535000D01*
X81421184Y-40535000D01*
X81603853Y-40498665D01*
X88227000Y-40498665D01*
X88227000Y-40781335D01*
X88282147Y-41058574D01*
X88390320Y-41319727D01*
X88547363Y-41554759D01*
X88747241Y-41754637D01*
X88982273Y-41911680D01*
X89243426Y-42019853D01*
X89520665Y-42075000D01*
X89803335Y-42075000D01*
X90080574Y-42019853D01*
X90341727Y-41911680D01*
X90576759Y-41754637D01*
X90776637Y-41554759D01*
X90933680Y-41319727D01*
X91041853Y-41058574D01*
X91097000Y-40781335D01*
X91097000Y-40712600D01*
X92074528Y-40712600D01*
X92074528Y-42287400D01*
X92086788Y-42411882D01*
X92123098Y-42531580D01*
X92182063Y-42641894D01*
X92261415Y-42738585D01*
X92358106Y-42817937D01*
X92468420Y-42876902D01*
X92588118Y-42913212D01*
X92589659Y-42913364D01*
X92395150Y-43107873D01*
X92239486Y-43340841D01*
X92132262Y-43599701D01*
X92077600Y-43874506D01*
X92077600Y-44154694D01*
X92132262Y-44429499D01*
X92239486Y-44688359D01*
X92395150Y-44921327D01*
X92593273Y-45119450D01*
X92826241Y-45275114D01*
X93085101Y-45382338D01*
X93359906Y-45437000D01*
X93640094Y-45437000D01*
X93914899Y-45382338D01*
X94173759Y-45275114D01*
X94406727Y-45119450D01*
X94604850Y-44921327D01*
X94760514Y-44688359D01*
X94867738Y-44429499D01*
X94922400Y-44154694D01*
X94922400Y-43874506D01*
X94867738Y-43599701D01*
X94760514Y-43340841D01*
X94604850Y-43107873D01*
X94410341Y-42913364D01*
X94411882Y-42913212D01*
X94531580Y-42876902D01*
X94641894Y-42817937D01*
X94738585Y-42738585D01*
X94817937Y-42641894D01*
X94876902Y-42531580D01*
X94913212Y-42411882D01*
X94925472Y-42287400D01*
X94925472Y-40712600D01*
X94913212Y-40588118D01*
X94876902Y-40468420D01*
X94817937Y-40358106D01*
X94738585Y-40261415D01*
X94641894Y-40182063D01*
X94531580Y-40123098D01*
X94411882Y-40086788D01*
X94287400Y-40074528D01*
X92712600Y-40074528D01*
X92588118Y-40086788D01*
X92468420Y-40123098D01*
X92358106Y-40182063D01*
X92261415Y-40261415D01*
X92182063Y-40358106D01*
X92123098Y-40468420D01*
X92086788Y-40588118D01*
X92074528Y-40712600D01*
X91097000Y-40712600D01*
X91097000Y-40498665D01*
X91041853Y-40221426D01*
X90933680Y-39960273D01*
X90776637Y-39725241D01*
X90576759Y-39525363D01*
X90341727Y-39368320D01*
X90080574Y-39260147D01*
X89803335Y-39205000D01*
X89520665Y-39205000D01*
X89243426Y-39260147D01*
X88982273Y-39368320D01*
X88747241Y-39525363D01*
X88547363Y-39725241D01*
X88390320Y-39960273D01*
X88282147Y-40221426D01*
X88227000Y-40498665D01*
X81603853Y-40498665D01*
X81717743Y-40476011D01*
X81997095Y-40360299D01*
X82248505Y-40192312D01*
X82462312Y-39978505D01*
X82630299Y-39727095D01*
X82746011Y-39447743D01*
X82805000Y-39151184D01*
X82805000Y-38848816D01*
X82746011Y-38552257D01*
X82630299Y-38272905D01*
X82462312Y-38021495D01*
X82248505Y-37807688D01*
X81997095Y-37639701D01*
X81717743Y-37523989D01*
X81421184Y-37465000D01*
X81118816Y-37465000D01*
X80822257Y-37523989D01*
X80542905Y-37639701D01*
X80291495Y-37807688D01*
X80225056Y-37874127D01*
X80219502Y-37855820D01*
X80160537Y-37745506D01*
X80081185Y-37648815D01*
X79984494Y-37569463D01*
X79874180Y-37510498D01*
X79754482Y-37474188D01*
X79630000Y-37461928D01*
X77830000Y-37461928D01*
X77705518Y-37474188D01*
X77585820Y-37510498D01*
X77475506Y-37569463D01*
X77378815Y-37648815D01*
X77299463Y-37745506D01*
X77240498Y-37855820D01*
X77204188Y-37975518D01*
X77191928Y-38100000D01*
X13004703Y-38100000D01*
X13079853Y-37918574D01*
X13135000Y-37641335D01*
X13135000Y-37358665D01*
X13079853Y-37081426D01*
X12971680Y-36820273D01*
X12814637Y-36585241D01*
X12614759Y-36385363D01*
X12379727Y-36228320D01*
X12118574Y-36120147D01*
X11841335Y-36065000D01*
X11722775Y-36065000D01*
X11877097Y-35834042D01*
X12001553Y-35533579D01*
X12065000Y-35214609D01*
X12065000Y-34889391D01*
X12001553Y-34570421D01*
X11877097Y-34269958D01*
X11763535Y-34100000D01*
X17191928Y-34100000D01*
X17191928Y-35900000D01*
X17204188Y-36024482D01*
X17240498Y-36144180D01*
X17299463Y-36254494D01*
X17378815Y-36351185D01*
X17475506Y-36430537D01*
X17585820Y-36489502D01*
X17705518Y-36525812D01*
X17830000Y-36538072D01*
X19630000Y-36538072D01*
X19754482Y-36525812D01*
X19874180Y-36489502D01*
X19984494Y-36430537D01*
X20081185Y-36351185D01*
X20160537Y-36254494D01*
X20219502Y-36144180D01*
X20225056Y-36125873D01*
X20291495Y-36192312D01*
X20542905Y-36360299D01*
X20822257Y-36476011D01*
X21118816Y-36535000D01*
X21421184Y-36535000D01*
X21717743Y-36476011D01*
X21997095Y-36360299D01*
X22248505Y-36192312D01*
X22462312Y-35978505D01*
X22630299Y-35727095D01*
X22746011Y-35447743D01*
X22805000Y-35151184D01*
X22805000Y-34848816D01*
X22746011Y-34552257D01*
X22665823Y-34358665D01*
X86927000Y-34358665D01*
X86927000Y-34641335D01*
X86982147Y-34918574D01*
X87090320Y-35179727D01*
X87247363Y-35414759D01*
X87447241Y-35614637D01*
X87682273Y-35771680D01*
X87943426Y-35879853D01*
X88220665Y-35935000D01*
X88503335Y-35935000D01*
X88780574Y-35879853D01*
X89041727Y-35771680D01*
X89276759Y-35614637D01*
X89476637Y-35414759D01*
X89633680Y-35179727D01*
X89741853Y-34918574D01*
X89797000Y-34641335D01*
X89797000Y-34358665D01*
X89741853Y-34081426D01*
X89633680Y-33820273D01*
X89476637Y-33585241D01*
X89276759Y-33385363D01*
X89041727Y-33228320D01*
X88780574Y-33120147D01*
X88503335Y-33065000D01*
X88220665Y-33065000D01*
X87943426Y-33120147D01*
X87682273Y-33228320D01*
X87447241Y-33385363D01*
X87247363Y-33585241D01*
X87090320Y-33820273D01*
X86982147Y-34081426D01*
X86927000Y-34358665D01*
X22665823Y-34358665D01*
X22630299Y-34272905D01*
X22462312Y-34021495D01*
X22248505Y-33807688D01*
X21997095Y-33639701D01*
X21717743Y-33523989D01*
X21421184Y-33465000D01*
X21118816Y-33465000D01*
X20822257Y-33523989D01*
X20542905Y-33639701D01*
X20291495Y-33807688D01*
X20225056Y-33874127D01*
X20219502Y-33855820D01*
X20160537Y-33745506D01*
X20081185Y-33648815D01*
X19984494Y-33569463D01*
X19874180Y-33510498D01*
X19754482Y-33474188D01*
X19630000Y-33461928D01*
X17830000Y-33461928D01*
X17705518Y-33474188D01*
X17585820Y-33510498D01*
X17475506Y-33569463D01*
X17378815Y-33648815D01*
X17299463Y-33745506D01*
X17240498Y-33855820D01*
X17204188Y-33975518D01*
X17191928Y-34100000D01*
X11763535Y-34100000D01*
X11696415Y-33999549D01*
X11466451Y-33769585D01*
X11199827Y-33591432D01*
X11314759Y-33514637D01*
X11514637Y-33314759D01*
X11671680Y-33079727D01*
X11779853Y-32818574D01*
X11835000Y-32541335D01*
X11835000Y-32258665D01*
X11779853Y-31981426D01*
X11671680Y-31720273D01*
X11514637Y-31485241D01*
X11314759Y-31285363D01*
X11079727Y-31128320D01*
X10818574Y-31020147D01*
X10541335Y-30965000D01*
X10258665Y-30965000D01*
X9981426Y-31020147D01*
X9720273Y-31128320D01*
X9485241Y-31285363D01*
X9285363Y-31485241D01*
X9128320Y-31720273D01*
X9020147Y-31981426D01*
X8965000Y-32258665D01*
X8965000Y-32541335D01*
X9020147Y-32818574D01*
X9128320Y-33079727D01*
X9285363Y-33314759D01*
X9485241Y-33514637D01*
X9614173Y-33600786D01*
X9361549Y-33769585D01*
X9131585Y-33999549D01*
X8950903Y-34269958D01*
X8826447Y-34570421D01*
X8763000Y-34889391D01*
X7922400Y-34889391D01*
X7922400Y-34845306D01*
X7867738Y-34570501D01*
X7760514Y-34311641D01*
X7604850Y-34078673D01*
X7406727Y-33880550D01*
X7178569Y-33728100D01*
X7406727Y-33575650D01*
X7604850Y-33377527D01*
X7760514Y-33144559D01*
X7867738Y-32885699D01*
X7922400Y-32610894D01*
X7922400Y-32330706D01*
X7867738Y-32055901D01*
X7760514Y-31797041D01*
X7604850Y-31564073D01*
X7406727Y-31365950D01*
X7173759Y-31210286D01*
X6914899Y-31103062D01*
X6640094Y-31048400D01*
X6359906Y-31048400D01*
X6085101Y-31103062D01*
X5826241Y-31210286D01*
X5593273Y-31365950D01*
X5395150Y-31564073D01*
X5239486Y-31797041D01*
X5132262Y-32055901D01*
X5077600Y-32330706D01*
X5077600Y-32610894D01*
X5132262Y-32885699D01*
X5239486Y-33144559D01*
X5395150Y-33377527D01*
X5593273Y-33575650D01*
X5821431Y-33728100D01*
X5593273Y-33880550D01*
X5395150Y-34078673D01*
X5239486Y-34311641D01*
X5132262Y-34570501D01*
X5077600Y-34845306D01*
X5077600Y-35125494D01*
X5132262Y-35400299D01*
X5239486Y-35659159D01*
X5395150Y-35892127D01*
X5589659Y-36086636D01*
X5588118Y-36086788D01*
X5468420Y-36123098D01*
X5358106Y-36182063D01*
X5261415Y-36261415D01*
X5182063Y-36358106D01*
X5123098Y-36468420D01*
X5086788Y-36588118D01*
X5074528Y-36712600D01*
X1127000Y-36712600D01*
X1127000Y-27258665D01*
X10265000Y-27258665D01*
X10265000Y-27541335D01*
X10320147Y-27818574D01*
X10428320Y-28079727D01*
X10585363Y-28314759D01*
X10785241Y-28514637D01*
X11020273Y-28671680D01*
X11281426Y-28779853D01*
X11558665Y-28835000D01*
X11841335Y-28835000D01*
X12118574Y-28779853D01*
X12379727Y-28671680D01*
X12573000Y-28542539D01*
X12573000Y-28864609D01*
X12636447Y-29183579D01*
X12760903Y-29484042D01*
X12941585Y-29754451D01*
X13171549Y-29984415D01*
X13441958Y-30165097D01*
X13742421Y-30289553D01*
X14061391Y-30353000D01*
X14386609Y-30353000D01*
X14705579Y-30289553D01*
X15006042Y-30165097D01*
X15276451Y-29984415D01*
X15506415Y-29754451D01*
X15687097Y-29484042D01*
X15739029Y-29358665D01*
X88227000Y-29358665D01*
X88227000Y-29641335D01*
X88282147Y-29918574D01*
X88390320Y-30179727D01*
X88547363Y-30414759D01*
X88747241Y-30614637D01*
X88982273Y-30771680D01*
X89243426Y-30879853D01*
X89520665Y-30935000D01*
X89803335Y-30935000D01*
X90080574Y-30879853D01*
X90341727Y-30771680D01*
X90576759Y-30614637D01*
X90776637Y-30414759D01*
X90933680Y-30179727D01*
X91041853Y-29918574D01*
X91082824Y-29712600D01*
X92074528Y-29712600D01*
X92074528Y-31287400D01*
X92086788Y-31411882D01*
X92123098Y-31531580D01*
X92182063Y-31641894D01*
X92261415Y-31738585D01*
X92358106Y-31817937D01*
X92468420Y-31876902D01*
X92588118Y-31913212D01*
X92589659Y-31913364D01*
X92395150Y-32107873D01*
X92239486Y-32340841D01*
X92132262Y-32599701D01*
X92077600Y-32874506D01*
X92077600Y-33154694D01*
X92132262Y-33429499D01*
X92239486Y-33688359D01*
X92395150Y-33921327D01*
X92593273Y-34119450D01*
X92826241Y-34275114D01*
X93085101Y-34382338D01*
X93359906Y-34437000D01*
X93640094Y-34437000D01*
X93914899Y-34382338D01*
X94173759Y-34275114D01*
X94406727Y-34119450D01*
X94604850Y-33921327D01*
X94760514Y-33688359D01*
X94867738Y-33429499D01*
X94922400Y-33154694D01*
X94922400Y-32874506D01*
X94867738Y-32599701D01*
X94760514Y-32340841D01*
X94604850Y-32107873D01*
X94410341Y-31913364D01*
X94411882Y-31913212D01*
X94531580Y-31876902D01*
X94641894Y-31817937D01*
X94738585Y-31738585D01*
X94817937Y-31641894D01*
X94876902Y-31531580D01*
X94913212Y-31411882D01*
X94925472Y-31287400D01*
X94925472Y-29712600D01*
X94913212Y-29588118D01*
X94876902Y-29468420D01*
X94817937Y-29358106D01*
X94738585Y-29261415D01*
X94641894Y-29182063D01*
X94531580Y-29123098D01*
X94411882Y-29086788D01*
X94287400Y-29074528D01*
X92712600Y-29074528D01*
X92588118Y-29086788D01*
X92468420Y-29123098D01*
X92358106Y-29182063D01*
X92261415Y-29261415D01*
X92182063Y-29358106D01*
X92123098Y-29468420D01*
X92086788Y-29588118D01*
X92074528Y-29712600D01*
X91082824Y-29712600D01*
X91097000Y-29641335D01*
X91097000Y-29358665D01*
X91041853Y-29081426D01*
X90933680Y-28820273D01*
X90776637Y-28585241D01*
X90576759Y-28385363D01*
X90341727Y-28228320D01*
X90080574Y-28120147D01*
X89803335Y-28065000D01*
X89520665Y-28065000D01*
X89243426Y-28120147D01*
X88982273Y-28228320D01*
X88747241Y-28385363D01*
X88547363Y-28585241D01*
X88390320Y-28820273D01*
X88282147Y-29081426D01*
X88227000Y-29358665D01*
X15739029Y-29358665D01*
X15811553Y-29183579D01*
X15875000Y-28864609D01*
X15875000Y-28539391D01*
X15811553Y-28220421D01*
X15687097Y-27919958D01*
X15506415Y-27649549D01*
X15276451Y-27419585D01*
X15006042Y-27238903D01*
X14705579Y-27114447D01*
X14386609Y-27051000D01*
X14061391Y-27051000D01*
X13742421Y-27114447D01*
X13441958Y-27238903D01*
X13171549Y-27419585D01*
X13135000Y-27456134D01*
X13135000Y-27258665D01*
X13079853Y-26981426D01*
X12971680Y-26720273D01*
X12814637Y-26485241D01*
X12614759Y-26285363D01*
X12379727Y-26128320D01*
X12118574Y-26020147D01*
X11841335Y-25965000D01*
X11558665Y-25965000D01*
X11281426Y-26020147D01*
X11020273Y-26128320D01*
X10785241Y-26285363D01*
X10585363Y-26485241D01*
X10428320Y-26720273D01*
X10320147Y-26981426D01*
X10265000Y-27258665D01*
X1127000Y-27258665D01*
X1127000Y-25745391D01*
X16383000Y-25745391D01*
X16383000Y-26070609D01*
X16446447Y-26389579D01*
X16570903Y-26690042D01*
X16751585Y-26960451D01*
X16981549Y-27190415D01*
X17251958Y-27371097D01*
X17552421Y-27495553D01*
X17871391Y-27559000D01*
X18196609Y-27559000D01*
X18515579Y-27495553D01*
X18816042Y-27371097D01*
X19086451Y-27190415D01*
X19316415Y-26960451D01*
X19497097Y-26690042D01*
X19621553Y-26389579D01*
X19685000Y-26070609D01*
X19685000Y-25745391D01*
X19634477Y-25491391D01*
X36703000Y-25491391D01*
X36703000Y-25816609D01*
X36766447Y-26135579D01*
X36890903Y-26436042D01*
X37071585Y-26706451D01*
X37301549Y-26936415D01*
X37571958Y-27117097D01*
X37872421Y-27241553D01*
X38191391Y-27305000D01*
X38516609Y-27305000D01*
X38835579Y-27241553D01*
X39136042Y-27117097D01*
X39406451Y-26936415D01*
X39636415Y-26706451D01*
X39769422Y-26507391D01*
X47117000Y-26507391D01*
X47117000Y-26832609D01*
X47180447Y-27151579D01*
X47304903Y-27452042D01*
X47485585Y-27722451D01*
X47715549Y-27952415D01*
X47985958Y-28133097D01*
X48286421Y-28257553D01*
X48605391Y-28321000D01*
X48930609Y-28321000D01*
X49249579Y-28257553D01*
X49550042Y-28133097D01*
X49820451Y-27952415D01*
X50050415Y-27722451D01*
X50231097Y-27452042D01*
X50355553Y-27151579D01*
X50419000Y-26832609D01*
X50419000Y-26507391D01*
X52705000Y-26507391D01*
X52705000Y-26832609D01*
X52768447Y-27151579D01*
X52892903Y-27452042D01*
X53073585Y-27722451D01*
X53303549Y-27952415D01*
X53573958Y-28133097D01*
X53874421Y-28257553D01*
X54193391Y-28321000D01*
X54518609Y-28321000D01*
X54837579Y-28257553D01*
X55138042Y-28133097D01*
X55408451Y-27952415D01*
X55638415Y-27722451D01*
X55819097Y-27452042D01*
X55943553Y-27151579D01*
X56007000Y-26832609D01*
X56007000Y-26507391D01*
X55943553Y-26188421D01*
X55906928Y-26100000D01*
X77191928Y-26100000D01*
X77191928Y-27900000D01*
X77204188Y-28024482D01*
X77240498Y-28144180D01*
X77299463Y-28254494D01*
X77378815Y-28351185D01*
X77475506Y-28430537D01*
X77585820Y-28489502D01*
X77705518Y-28525812D01*
X77830000Y-28538072D01*
X79630000Y-28538072D01*
X79754482Y-28525812D01*
X79874180Y-28489502D01*
X79984494Y-28430537D01*
X80081185Y-28351185D01*
X80160537Y-28254494D01*
X80219502Y-28144180D01*
X80225056Y-28125873D01*
X80291495Y-28192312D01*
X80542905Y-28360299D01*
X80822257Y-28476011D01*
X81118816Y-28535000D01*
X81421184Y-28535000D01*
X81717743Y-28476011D01*
X81997095Y-28360299D01*
X82248505Y-28192312D01*
X82462312Y-27978505D01*
X82630299Y-27727095D01*
X82746011Y-27447743D01*
X82805000Y-27151184D01*
X82805000Y-26848816D01*
X82746011Y-26552257D01*
X82630299Y-26272905D01*
X82462312Y-26021495D01*
X82248505Y-25807688D01*
X81997095Y-25639701D01*
X81717743Y-25523989D01*
X81421184Y-25465000D01*
X81118816Y-25465000D01*
X80822257Y-25523989D01*
X80542905Y-25639701D01*
X80291495Y-25807688D01*
X80225056Y-25874127D01*
X80219502Y-25855820D01*
X80160537Y-25745506D01*
X80081185Y-25648815D01*
X79984494Y-25569463D01*
X79874180Y-25510498D01*
X79754482Y-25474188D01*
X79630000Y-25461928D01*
X77830000Y-25461928D01*
X77705518Y-25474188D01*
X77585820Y-25510498D01*
X77475506Y-25569463D01*
X77378815Y-25648815D01*
X77299463Y-25745506D01*
X77240498Y-25855820D01*
X77204188Y-25975518D01*
X77191928Y-26100000D01*
X55906928Y-26100000D01*
X55819097Y-25887958D01*
X55638415Y-25617549D01*
X55408451Y-25387585D01*
X55138042Y-25206903D01*
X54837579Y-25082447D01*
X54518609Y-25019000D01*
X54193391Y-25019000D01*
X53874421Y-25082447D01*
X53573958Y-25206903D01*
X53303549Y-25387585D01*
X53073585Y-25617549D01*
X52892903Y-25887958D01*
X52768447Y-26188421D01*
X52705000Y-26507391D01*
X50419000Y-26507391D01*
X50355553Y-26188421D01*
X50231097Y-25887958D01*
X50050415Y-25617549D01*
X49820451Y-25387585D01*
X49550042Y-25206903D01*
X49249579Y-25082447D01*
X48930609Y-25019000D01*
X48605391Y-25019000D01*
X48286421Y-25082447D01*
X47985958Y-25206903D01*
X47715549Y-25387585D01*
X47485585Y-25617549D01*
X47304903Y-25887958D01*
X47180447Y-26188421D01*
X47117000Y-26507391D01*
X39769422Y-26507391D01*
X39817097Y-26436042D01*
X39941553Y-26135579D01*
X40005000Y-25816609D01*
X40005000Y-25491391D01*
X39941553Y-25172421D01*
X39817097Y-24871958D01*
X39636415Y-24601549D01*
X39406451Y-24371585D01*
X39136042Y-24190903D01*
X38835579Y-24066447D01*
X38516609Y-24003000D01*
X38191391Y-24003000D01*
X37872421Y-24066447D01*
X37571958Y-24190903D01*
X37301549Y-24371585D01*
X37071585Y-24601549D01*
X36890903Y-24871958D01*
X36766447Y-25172421D01*
X36703000Y-25491391D01*
X19634477Y-25491391D01*
X19621553Y-25426421D01*
X19497097Y-25125958D01*
X19316415Y-24855549D01*
X19086451Y-24625585D01*
X18816042Y-24444903D01*
X18515579Y-24320447D01*
X18196609Y-24257000D01*
X17871391Y-24257000D01*
X17552421Y-24320447D01*
X17251958Y-24444903D01*
X16981549Y-24625585D01*
X16751585Y-24855549D01*
X16570903Y-25125958D01*
X16446447Y-25426421D01*
X16383000Y-25745391D01*
X1127000Y-25745391D01*
X1127000Y-21166500D01*
X3028428Y-21166500D01*
X3028428Y-23833500D01*
X3040688Y-23957982D01*
X3076998Y-24077680D01*
X3135963Y-24187994D01*
X3215315Y-24284685D01*
X3312006Y-24364037D01*
X3422320Y-24423002D01*
X3542018Y-24459312D01*
X3666500Y-24471572D01*
X6333500Y-24471572D01*
X6457982Y-24459312D01*
X6577680Y-24423002D01*
X6687994Y-24364037D01*
X6784685Y-24284685D01*
X6864037Y-24187994D01*
X6923002Y-24077680D01*
X6959312Y-23957982D01*
X6971572Y-23833500D01*
X6971572Y-21166500D01*
X6960099Y-21050000D01*
X21011928Y-21050000D01*
X21011928Y-23550000D01*
X21024188Y-23674482D01*
X21060498Y-23794180D01*
X21119463Y-23904494D01*
X21198815Y-24001185D01*
X21295506Y-24080537D01*
X21405820Y-24139502D01*
X21525518Y-24175812D01*
X21650000Y-24188072D01*
X23150000Y-24188072D01*
X23274482Y-24175812D01*
X23394180Y-24139502D01*
X23504494Y-24080537D01*
X23601185Y-24001185D01*
X23680537Y-23904494D01*
X23739502Y-23794180D01*
X23775812Y-23674482D01*
X23785473Y-23576392D01*
X23955920Y-23784081D01*
X24166813Y-23957157D01*
X24407420Y-24085764D01*
X24668494Y-24164960D01*
X24940000Y-24191701D01*
X25211507Y-24164960D01*
X25472581Y-24085764D01*
X25713188Y-23957157D01*
X25924081Y-23784081D01*
X26097157Y-23573188D01*
X26210000Y-23362073D01*
X26322843Y-23573188D01*
X26495920Y-23784081D01*
X26706813Y-23957157D01*
X26947420Y-24085764D01*
X27208494Y-24164960D01*
X27480000Y-24191701D01*
X27751507Y-24164960D01*
X28012581Y-24085764D01*
X28253188Y-23957157D01*
X28464081Y-23784081D01*
X28637157Y-23573188D01*
X28765764Y-23332581D01*
X28844960Y-23071507D01*
X28865000Y-22868037D01*
X28865000Y-21731963D01*
X28844960Y-21528493D01*
X28765764Y-21267419D01*
X28637157Y-21026812D01*
X28464080Y-20815919D01*
X28253187Y-20642843D01*
X28012580Y-20514236D01*
X27751506Y-20435040D01*
X27480000Y-20408299D01*
X27208493Y-20435040D01*
X26947419Y-20514236D01*
X26706812Y-20642843D01*
X26495919Y-20815920D01*
X26322843Y-21026813D01*
X26210000Y-21237927D01*
X26097157Y-21026812D01*
X25924080Y-20815919D01*
X25713187Y-20642843D01*
X25472580Y-20514236D01*
X25211506Y-20435040D01*
X24940000Y-20408299D01*
X24668493Y-20435040D01*
X24407419Y-20514236D01*
X24166812Y-20642843D01*
X23955919Y-20815920D01*
X23785473Y-21023609D01*
X23775812Y-20925518D01*
X23739502Y-20805820D01*
X23680537Y-20695506D01*
X23601185Y-20598815D01*
X23504494Y-20519463D01*
X23394180Y-20460498D01*
X23274482Y-20424188D01*
X23150000Y-20411928D01*
X21650000Y-20411928D01*
X21525518Y-20424188D01*
X21405820Y-20460498D01*
X21295506Y-20519463D01*
X21198815Y-20598815D01*
X21119463Y-20695506D01*
X21060498Y-20805820D01*
X21024188Y-20925518D01*
X21011928Y-21050000D01*
X6960099Y-21050000D01*
X6959312Y-21042018D01*
X6923002Y-20922320D01*
X6864037Y-20812006D01*
X6784685Y-20715315D01*
X6687994Y-20635963D01*
X6577680Y-20576998D01*
X6457982Y-20540688D01*
X6333500Y-20528428D01*
X3666500Y-20528428D01*
X3542018Y-20540688D01*
X3422320Y-20576998D01*
X3312006Y-20635963D01*
X3215315Y-20715315D01*
X3135963Y-20812006D01*
X3076998Y-20922320D01*
X3040688Y-21042018D01*
X3028428Y-21166500D01*
X1127000Y-21166500D01*
X1127000Y-19903391D01*
X52705000Y-19903391D01*
X52705000Y-20228609D01*
X52768447Y-20547579D01*
X52892903Y-20848042D01*
X53073585Y-21118451D01*
X53291134Y-21336000D01*
X53073585Y-21553549D01*
X52892903Y-21823958D01*
X52768447Y-22124421D01*
X52705000Y-22443391D01*
X52705000Y-22768609D01*
X52768447Y-23087579D01*
X52892903Y-23388042D01*
X53073585Y-23658451D01*
X53303549Y-23888415D01*
X53573958Y-24069097D01*
X53874421Y-24193553D01*
X54193391Y-24257000D01*
X54518609Y-24257000D01*
X54837579Y-24193553D01*
X55138042Y-24069097D01*
X55408451Y-23888415D01*
X55638415Y-23658451D01*
X55819097Y-23388042D01*
X55943553Y-23087579D01*
X56007000Y-22768609D01*
X56007000Y-22443391D01*
X55943553Y-22124421D01*
X55819097Y-21823958D01*
X55638415Y-21553549D01*
X55420866Y-21336000D01*
X55638415Y-21118451D01*
X55819097Y-20848042D01*
X55943553Y-20547579D01*
X56002745Y-20250000D01*
X77411928Y-20250000D01*
X77411928Y-21750000D01*
X77424188Y-21874482D01*
X77460498Y-21994180D01*
X77519463Y-22104494D01*
X77598815Y-22201185D01*
X77695506Y-22280537D01*
X77805820Y-22339502D01*
X77925518Y-22375812D01*
X78050000Y-22388072D01*
X79550000Y-22388072D01*
X79674482Y-22375812D01*
X79794180Y-22339502D01*
X79904494Y-22280537D01*
X80001185Y-22201185D01*
X80080537Y-22104494D01*
X80139502Y-21994180D01*
X80175812Y-21874482D01*
X80188072Y-21750000D01*
X80188072Y-20858665D01*
X85565000Y-20858665D01*
X85565000Y-21141335D01*
X85620147Y-21418574D01*
X85728320Y-21679727D01*
X85885363Y-21914759D01*
X86085241Y-22114637D01*
X86320273Y-22271680D01*
X86581426Y-22379853D01*
X86858665Y-22435000D01*
X87141335Y-22435000D01*
X87418574Y-22379853D01*
X87679727Y-22271680D01*
X87914759Y-22114637D01*
X88114637Y-21914759D01*
X88271680Y-21679727D01*
X88379853Y-21418574D01*
X88435000Y-21141335D01*
X88435000Y-20858665D01*
X88379853Y-20581426D01*
X88271680Y-20320273D01*
X88114637Y-20085241D01*
X87914759Y-19885363D01*
X87679727Y-19728320D01*
X87418574Y-19620147D01*
X87141335Y-19565000D01*
X86858665Y-19565000D01*
X86581426Y-19620147D01*
X86320273Y-19728320D01*
X86085241Y-19885363D01*
X85885363Y-20085241D01*
X85728320Y-20320273D01*
X85620147Y-20581426D01*
X85565000Y-20858665D01*
X80188072Y-20858665D01*
X80188072Y-20250000D01*
X80175812Y-20125518D01*
X80139502Y-20005820D01*
X80080537Y-19895506D01*
X80001185Y-19798815D01*
X79904494Y-19719463D01*
X79794180Y-19660498D01*
X79674482Y-19624188D01*
X79566517Y-19613555D01*
X79682886Y-19535799D01*
X79875799Y-19342886D01*
X80027371Y-19116043D01*
X80131775Y-18863989D01*
X80185000Y-18596411D01*
X80185000Y-18323589D01*
X80131775Y-18056011D01*
X80027371Y-17803957D01*
X79875799Y-17577114D01*
X79682886Y-17384201D01*
X79456043Y-17232629D01*
X79353127Y-17190000D01*
X79456043Y-17147371D01*
X79682886Y-16995799D01*
X79875799Y-16802886D01*
X80027371Y-16576043D01*
X80131775Y-16323989D01*
X80185000Y-16056411D01*
X80185000Y-15858665D01*
X86865000Y-15858665D01*
X86865000Y-16141335D01*
X86920147Y-16418574D01*
X87028320Y-16679727D01*
X87185363Y-16914759D01*
X87385241Y-17114637D01*
X87620273Y-17271680D01*
X87881426Y-17379853D01*
X88158665Y-17435000D01*
X88441335Y-17435000D01*
X88718574Y-17379853D01*
X88979727Y-17271680D01*
X89214759Y-17114637D01*
X89414637Y-16914759D01*
X89549715Y-16712600D01*
X92074528Y-16712600D01*
X92074528Y-18287400D01*
X92086788Y-18411882D01*
X92123098Y-18531580D01*
X92182063Y-18641894D01*
X92261415Y-18738585D01*
X92358106Y-18817937D01*
X92468420Y-18876902D01*
X92588118Y-18913212D01*
X92589659Y-18913364D01*
X92395150Y-19107873D01*
X92239486Y-19340841D01*
X92132262Y-19599701D01*
X92077600Y-19874506D01*
X92077600Y-20154694D01*
X92132262Y-20429499D01*
X92239486Y-20688359D01*
X92395150Y-20921327D01*
X92593273Y-21119450D01*
X92826241Y-21275114D01*
X93085101Y-21382338D01*
X93359906Y-21437000D01*
X93640094Y-21437000D01*
X93914899Y-21382338D01*
X94173759Y-21275114D01*
X94406727Y-21119450D01*
X94604850Y-20921327D01*
X94760514Y-20688359D01*
X94867738Y-20429499D01*
X94922400Y-20154694D01*
X94922400Y-19874506D01*
X94867738Y-19599701D01*
X94760514Y-19340841D01*
X94604850Y-19107873D01*
X94410341Y-18913364D01*
X94411882Y-18913212D01*
X94531580Y-18876902D01*
X94641894Y-18817937D01*
X94738585Y-18738585D01*
X94817937Y-18641894D01*
X94876902Y-18531580D01*
X94913212Y-18411882D01*
X94925472Y-18287400D01*
X94925472Y-16712600D01*
X94913212Y-16588118D01*
X94876902Y-16468420D01*
X94817937Y-16358106D01*
X94738585Y-16261415D01*
X94641894Y-16182063D01*
X94531580Y-16123098D01*
X94411882Y-16086788D01*
X94287400Y-16074528D01*
X92712600Y-16074528D01*
X92588118Y-16086788D01*
X92468420Y-16123098D01*
X92358106Y-16182063D01*
X92261415Y-16261415D01*
X92182063Y-16358106D01*
X92123098Y-16468420D01*
X92086788Y-16588118D01*
X92074528Y-16712600D01*
X89549715Y-16712600D01*
X89571680Y-16679727D01*
X89679853Y-16418574D01*
X89735000Y-16141335D01*
X89735000Y-15858665D01*
X89679853Y-15581426D01*
X89571680Y-15320273D01*
X89414637Y-15085241D01*
X89214759Y-14885363D01*
X88979727Y-14728320D01*
X88718574Y-14620147D01*
X88441335Y-14565000D01*
X88158665Y-14565000D01*
X87881426Y-14620147D01*
X87620273Y-14728320D01*
X87385241Y-14885363D01*
X87185363Y-15085241D01*
X87028320Y-15320273D01*
X86920147Y-15581426D01*
X86865000Y-15858665D01*
X80185000Y-15858665D01*
X80185000Y-15783589D01*
X80131775Y-15516011D01*
X80027371Y-15263957D01*
X79875799Y-15037114D01*
X79682886Y-14844201D01*
X79456043Y-14692629D01*
X79203989Y-14588225D01*
X78936411Y-14535000D01*
X78663589Y-14535000D01*
X78396011Y-14588225D01*
X78143957Y-14692629D01*
X77917114Y-14844201D01*
X77724201Y-15037114D01*
X77572629Y-15263957D01*
X77468225Y-15516011D01*
X77415000Y-15783589D01*
X77415000Y-16056411D01*
X77468225Y-16323989D01*
X77572629Y-16576043D01*
X77724201Y-16802886D01*
X77917114Y-16995799D01*
X78143957Y-17147371D01*
X78246873Y-17190000D01*
X78143957Y-17232629D01*
X77917114Y-17384201D01*
X77724201Y-17577114D01*
X77572629Y-17803957D01*
X77468225Y-18056011D01*
X77415000Y-18323589D01*
X77415000Y-18596411D01*
X77468225Y-18863989D01*
X77572629Y-19116043D01*
X77724201Y-19342886D01*
X77917114Y-19535799D01*
X78033483Y-19613555D01*
X77925518Y-19624188D01*
X77805820Y-19660498D01*
X77695506Y-19719463D01*
X77598815Y-19798815D01*
X77519463Y-19895506D01*
X77460498Y-20005820D01*
X77424188Y-20125518D01*
X77411928Y-20250000D01*
X56002745Y-20250000D01*
X56007000Y-20228609D01*
X56007000Y-19903391D01*
X55943553Y-19584421D01*
X55819097Y-19283958D01*
X55638415Y-19013549D01*
X55408451Y-18783585D01*
X55138042Y-18602903D01*
X54837579Y-18478447D01*
X54518609Y-18415000D01*
X54193391Y-18415000D01*
X53874421Y-18478447D01*
X53573958Y-18602903D01*
X53303549Y-18783585D01*
X53073585Y-19013549D01*
X52892903Y-19283958D01*
X52768447Y-19584421D01*
X52705000Y-19903391D01*
X1127000Y-19903391D01*
X1127000Y-17302320D01*
X3031500Y-17302320D01*
X3031500Y-17690080D01*
X3107148Y-18070390D01*
X3255538Y-18428635D01*
X3470966Y-18751046D01*
X3745154Y-19025234D01*
X4067565Y-19240662D01*
X4425810Y-19389052D01*
X4806120Y-19464700D01*
X5193880Y-19464700D01*
X5574190Y-19389052D01*
X5932435Y-19240662D01*
X6254846Y-19025234D01*
X6529034Y-18751046D01*
X6744462Y-18428635D01*
X6892852Y-18070390D01*
X6968500Y-17690080D01*
X6968500Y-17302320D01*
X6892852Y-16922010D01*
X6744462Y-16563765D01*
X6529034Y-16241354D01*
X6254846Y-15967166D01*
X5932435Y-15751738D01*
X5777088Y-15687391D01*
X47219000Y-15687391D01*
X47219000Y-16012609D01*
X47282447Y-16331579D01*
X47406903Y-16632042D01*
X47587585Y-16902451D01*
X47817549Y-17132415D01*
X48087958Y-17313097D01*
X48388421Y-17437553D01*
X48707391Y-17501000D01*
X49032609Y-17501000D01*
X49351579Y-17437553D01*
X49652042Y-17313097D01*
X49922451Y-17132415D01*
X50152415Y-16902451D01*
X50333097Y-16632042D01*
X50457553Y-16331579D01*
X50521000Y-16012609D01*
X50521000Y-15687391D01*
X50500711Y-15585391D01*
X52705000Y-15585391D01*
X52705000Y-15910609D01*
X52768447Y-16229579D01*
X52892903Y-16530042D01*
X53073585Y-16800451D01*
X53303549Y-17030415D01*
X53573958Y-17211097D01*
X53874421Y-17335553D01*
X54193391Y-17399000D01*
X54518609Y-17399000D01*
X54837579Y-17335553D01*
X55138042Y-17211097D01*
X55408451Y-17030415D01*
X55638415Y-16800451D01*
X55819097Y-16530042D01*
X55943553Y-16229579D01*
X56007000Y-15910609D01*
X56007000Y-15585391D01*
X55943553Y-15266421D01*
X55819097Y-14965958D01*
X55638415Y-14695549D01*
X55408451Y-14465585D01*
X55138042Y-14284903D01*
X54837579Y-14160447D01*
X54518609Y-14097000D01*
X54193391Y-14097000D01*
X53874421Y-14160447D01*
X53573958Y-14284903D01*
X53303549Y-14465585D01*
X53073585Y-14695549D01*
X52892903Y-14965958D01*
X52768447Y-15266421D01*
X52705000Y-15585391D01*
X50500711Y-15585391D01*
X50457553Y-15368421D01*
X50333097Y-15067958D01*
X50152415Y-14797549D01*
X49922451Y-14567585D01*
X49652042Y-14386903D01*
X49351579Y-14262447D01*
X49032609Y-14199000D01*
X48707391Y-14199000D01*
X48388421Y-14262447D01*
X48087958Y-14386903D01*
X47817549Y-14567585D01*
X47587585Y-14797549D01*
X47406903Y-15067958D01*
X47282447Y-15368421D01*
X47219000Y-15687391D01*
X5777088Y-15687391D01*
X5574190Y-15603348D01*
X5193880Y-15527700D01*
X4806120Y-15527700D01*
X4425810Y-15603348D01*
X4067565Y-15751738D01*
X3745154Y-15967166D01*
X3470966Y-16241354D01*
X3255538Y-16563765D01*
X3107148Y-16922010D01*
X3031500Y-17302320D01*
X1127000Y-17302320D01*
X1127000Y-11368514D01*
X3585000Y-11368514D01*
X3585000Y-11631486D01*
X3636304Y-11889405D01*
X3736939Y-12132359D01*
X3883038Y-12351013D01*
X4068987Y-12536962D01*
X4287641Y-12683061D01*
X4530595Y-12783696D01*
X4788514Y-12835000D01*
X5051486Y-12835000D01*
X5309405Y-12783696D01*
X5552359Y-12683061D01*
X5771013Y-12536962D01*
X5956962Y-12351013D01*
X6103061Y-12132359D01*
X6203696Y-11889405D01*
X6255000Y-11631486D01*
X6255000Y-11368514D01*
X8665000Y-11368514D01*
X8665000Y-11631486D01*
X8716304Y-11889405D01*
X8816939Y-12132359D01*
X8963038Y-12351013D01*
X9148987Y-12536962D01*
X9367641Y-12683061D01*
X9610595Y-12783696D01*
X9868514Y-12835000D01*
X10131486Y-12835000D01*
X10389405Y-12783696D01*
X10632359Y-12683061D01*
X10851013Y-12536962D01*
X11036962Y-12351013D01*
X11183061Y-12132359D01*
X11283696Y-11889405D01*
X11335000Y-11631486D01*
X11335000Y-11368514D01*
X11283696Y-11110595D01*
X11183061Y-10867641D01*
X11036962Y-10648987D01*
X10851013Y-10463038D01*
X10632359Y-10316939D01*
X10389405Y-10216304D01*
X10131486Y-10165000D01*
X9868514Y-10165000D01*
X9610595Y-10216304D01*
X9367641Y-10316939D01*
X9148987Y-10463038D01*
X8963038Y-10648987D01*
X8816939Y-10867641D01*
X8716304Y-11110595D01*
X8665000Y-11368514D01*
X6255000Y-11368514D01*
X6203696Y-11110595D01*
X6103061Y-10867641D01*
X5956962Y-10648987D01*
X5771013Y-10463038D01*
X5552359Y-10316939D01*
X5309405Y-10216304D01*
X5051486Y-10165000D01*
X4788514Y-10165000D01*
X4530595Y-10216304D01*
X4287641Y-10316939D01*
X4068987Y-10463038D01*
X3883038Y-10648987D01*
X3736939Y-10867641D01*
X3636304Y-11110595D01*
X3585000Y-11368514D01*
X1127000Y-11368514D01*
X1127000Y-9100000D01*
X27191928Y-9100000D01*
X27191928Y-10900000D01*
X27204188Y-11024482D01*
X27240498Y-11144180D01*
X27299463Y-11254494D01*
X27378815Y-11351185D01*
X27475506Y-11430537D01*
X27585820Y-11489502D01*
X27705518Y-11525812D01*
X27830000Y-11538072D01*
X29630000Y-11538072D01*
X29754482Y-11525812D01*
X29874180Y-11489502D01*
X29984494Y-11430537D01*
X30081185Y-11351185D01*
X30160537Y-11254494D01*
X30219502Y-11144180D01*
X30222813Y-11133265D01*
X30269578Y-11180030D01*
X30385526Y-11064082D01*
X30469208Y-11318261D01*
X30741775Y-11449158D01*
X31034642Y-11524365D01*
X31336553Y-11540991D01*
X31635907Y-11498397D01*
X31921199Y-11398222D01*
X32070792Y-11318261D01*
X32154475Y-11064080D01*
X31270000Y-10179605D01*
X31255858Y-10193748D01*
X31076253Y-10014143D01*
X31090395Y-10000000D01*
X31449605Y-10000000D01*
X32334080Y-10884475D01*
X32588261Y-10800792D01*
X32719158Y-10528225D01*
X32794365Y-10235358D01*
X32810991Y-9933447D01*
X32768397Y-9634093D01*
X32668222Y-9348801D01*
X32588261Y-9199208D01*
X32334080Y-9115525D01*
X31449605Y-10000000D01*
X31090395Y-10000000D01*
X31076253Y-9985858D01*
X31255858Y-9806253D01*
X31270000Y-9820395D01*
X31990395Y-9100000D01*
X42161928Y-9100000D01*
X42161928Y-10900000D01*
X42174188Y-11024482D01*
X42210498Y-11144180D01*
X42269463Y-11254494D01*
X42348815Y-11351185D01*
X42445506Y-11430537D01*
X42555820Y-11489502D01*
X42675518Y-11525812D01*
X42800000Y-11538072D01*
X44600000Y-11538072D01*
X44724482Y-11525812D01*
X44844180Y-11489502D01*
X44954494Y-11430537D01*
X45051185Y-11351185D01*
X45130537Y-11254494D01*
X45189502Y-11144180D01*
X45195056Y-11125873D01*
X45261495Y-11192312D01*
X45512905Y-11360299D01*
X45792257Y-11476011D01*
X46088816Y-11535000D01*
X46391184Y-11535000D01*
X46687743Y-11476011D01*
X46967095Y-11360299D01*
X47218505Y-11192312D01*
X47432312Y-10978505D01*
X47600299Y-10727095D01*
X47716011Y-10447743D01*
X47775000Y-10151184D01*
X47775000Y-9848816D01*
X47716011Y-9552257D01*
X47600299Y-9272905D01*
X47432312Y-9021495D01*
X47218505Y-8807688D01*
X46967095Y-8639701D01*
X46687743Y-8523989D01*
X46391184Y-8465000D01*
X46088816Y-8465000D01*
X45792257Y-8523989D01*
X45512905Y-8639701D01*
X45261495Y-8807688D01*
X45195056Y-8874127D01*
X45189502Y-8855820D01*
X45130537Y-8745506D01*
X45051185Y-8648815D01*
X44954494Y-8569463D01*
X44844180Y-8510498D01*
X44724482Y-8474188D01*
X44600000Y-8461928D01*
X42800000Y-8461928D01*
X42675518Y-8474188D01*
X42555820Y-8510498D01*
X42445506Y-8569463D01*
X42348815Y-8648815D01*
X42269463Y-8745506D01*
X42210498Y-8855820D01*
X42174188Y-8975518D01*
X42161928Y-9100000D01*
X31990395Y-9100000D01*
X32154475Y-8935920D01*
X32070792Y-8681739D01*
X31798225Y-8550842D01*
X31505358Y-8475635D01*
X31203447Y-8459009D01*
X30904093Y-8501603D01*
X30618801Y-8601778D01*
X30469208Y-8681739D01*
X30385526Y-8935918D01*
X30269578Y-8819970D01*
X30222813Y-8866735D01*
X30219502Y-8855820D01*
X30160537Y-8745506D01*
X30081185Y-8648815D01*
X29984494Y-8569463D01*
X29874180Y-8510498D01*
X29754482Y-8474188D01*
X29630000Y-8461928D01*
X27830000Y-8461928D01*
X27705518Y-8474188D01*
X27585820Y-8510498D01*
X27475506Y-8569463D01*
X27378815Y-8648815D01*
X27299463Y-8745506D01*
X27240498Y-8855820D01*
X27204188Y-8975518D01*
X27191928Y-9100000D01*
X1127000Y-9100000D01*
X1127000Y-4779872D01*
X2765000Y-4779872D01*
X2765000Y-5220128D01*
X2850890Y-5651925D01*
X3019369Y-6058669D01*
X3263962Y-6424729D01*
X3575271Y-6736038D01*
X3941331Y-6980631D01*
X4348075Y-7149110D01*
X4779872Y-7235000D01*
X5220128Y-7235000D01*
X5651925Y-7149110D01*
X6058669Y-6980631D01*
X6424729Y-6736038D01*
X6736038Y-6424729D01*
X6980631Y-6058669D01*
X7032522Y-5933391D01*
X21971000Y-5933391D01*
X21971000Y-6258609D01*
X22034447Y-6577579D01*
X22158903Y-6878042D01*
X22339585Y-7148451D01*
X22569549Y-7378415D01*
X22839958Y-7559097D01*
X23140421Y-7683553D01*
X23459391Y-7747000D01*
X23784609Y-7747000D01*
X24103579Y-7683553D01*
X24404042Y-7559097D01*
X24674451Y-7378415D01*
X24904415Y-7148451D01*
X25085097Y-6878042D01*
X25209553Y-6577579D01*
X25273000Y-6258609D01*
X25273000Y-5933391D01*
X25209553Y-5614421D01*
X25085097Y-5313958D01*
X24904415Y-5043549D01*
X24674451Y-4813585D01*
X24404042Y-4632903D01*
X24103579Y-4508447D01*
X23784609Y-4445000D01*
X23459391Y-4445000D01*
X23140421Y-4508447D01*
X22839958Y-4632903D01*
X22569549Y-4813585D01*
X22339585Y-5043549D01*
X22158903Y-5313958D01*
X22034447Y-5614421D01*
X21971000Y-5933391D01*
X7032522Y-5933391D01*
X7149110Y-5651925D01*
X7235000Y-5220128D01*
X7235000Y-4779872D01*
X7149110Y-4348075D01*
X6980631Y-3941331D01*
X6736038Y-3575271D01*
X6554158Y-3393391D01*
X37211000Y-3393391D01*
X37211000Y-3718609D01*
X37274447Y-4037579D01*
X37398903Y-4338042D01*
X37579585Y-4608451D01*
X37809549Y-4838415D01*
X38079958Y-5019097D01*
X38380421Y-5143553D01*
X38699391Y-5207000D01*
X39024609Y-5207000D01*
X39343579Y-5143553D01*
X39644042Y-5019097D01*
X39914451Y-4838415D01*
X40144415Y-4608451D01*
X40325097Y-4338042D01*
X40449553Y-4037579D01*
X40513000Y-3718609D01*
X40513000Y-3393391D01*
X40449553Y-3074421D01*
X40325097Y-2773958D01*
X40144415Y-2503549D01*
X39914451Y-2273585D01*
X39644042Y-2092903D01*
X39343579Y-1968447D01*
X39024609Y-1905000D01*
X38699391Y-1905000D01*
X38380421Y-1968447D01*
X38079958Y-2092903D01*
X37809549Y-2273585D01*
X37579585Y-2503549D01*
X37398903Y-2773958D01*
X37274447Y-3074421D01*
X37211000Y-3393391D01*
X6554158Y-3393391D01*
X6424729Y-3263962D01*
X6058669Y-3019369D01*
X5651925Y-2850890D01*
X5220128Y-2765000D01*
X4779872Y-2765000D01*
X4348075Y-2850890D01*
X3941331Y-3019369D01*
X3575271Y-3263962D01*
X3263962Y-3575271D01*
X3019369Y-3941331D01*
X2850890Y-4348075D01*
X2765000Y-4779872D01*
X1127000Y-4779872D01*
X1127000Y-1127000D01*
X62873000Y-1127000D01*
X62873000Y-6000000D01*
%TA.AperFunction,Conductor*%
D28*
G36*
X62873000Y-6000000D02*
G01*
X62875440Y-6024776D01*
X62882667Y-6048601D01*
X62894403Y-6070557D01*
X62910197Y-6089803D01*
X62929443Y-6105597D01*
X62951399Y-6117333D01*
X62975224Y-6124560D01*
X63000000Y-6127000D01*
X83000000Y-6127000D01*
X83024776Y-6124560D01*
X83048601Y-6117333D01*
X83070557Y-6105597D01*
X83089803Y-6089803D01*
X83105597Y-6070557D01*
X83117333Y-6048601D01*
X83124560Y-6024776D01*
X83127000Y-6000000D01*
X83127000Y-4779872D01*
X92765000Y-4779872D01*
X92765000Y-5220128D01*
X92850890Y-5651925D01*
X93019369Y-6058669D01*
X93263962Y-6424729D01*
X93575271Y-6736038D01*
X93941331Y-6980631D01*
X94348075Y-7149110D01*
X94779872Y-7235000D01*
X95220128Y-7235000D01*
X95651925Y-7149110D01*
X96058669Y-6980631D01*
X96424729Y-6736038D01*
X96736038Y-6424729D01*
X96980631Y-6058669D01*
X97149110Y-5651925D01*
X97235000Y-5220128D01*
X97235000Y-4779872D01*
X97149110Y-4348075D01*
X96980631Y-3941331D01*
X96736038Y-3575271D01*
X96424729Y-3263962D01*
X96058669Y-3019369D01*
X95651925Y-2850890D01*
X95220128Y-2765000D01*
X94779872Y-2765000D01*
X94348075Y-2850890D01*
X93941331Y-3019369D01*
X93575271Y-3263962D01*
X93263962Y-3575271D01*
X93019369Y-3941331D01*
X92850890Y-4348075D01*
X92765000Y-4779872D01*
X83127000Y-4779872D01*
X83127000Y-1127000D01*
X98873000Y-1127000D01*
X98873000Y-78873000D01*
X1127000Y-78873000D01*
X1127000Y-74779872D01*
X2765000Y-74779872D01*
X2765000Y-75220128D01*
X2850890Y-75651925D01*
X3019369Y-76058669D01*
X3263962Y-76424729D01*
X3575271Y-76736038D01*
X3941331Y-76980631D01*
X4348075Y-77149110D01*
X4779872Y-77235000D01*
X5220128Y-77235000D01*
X5651925Y-77149110D01*
X6058669Y-76980631D01*
X6424729Y-76736038D01*
X6736038Y-76424729D01*
X6980631Y-76058669D01*
X7149110Y-75651925D01*
X7235000Y-75220128D01*
X7235000Y-74779872D01*
X92765000Y-74779872D01*
X92765000Y-75220128D01*
X92850890Y-75651925D01*
X93019369Y-76058669D01*
X93263962Y-76424729D01*
X93575271Y-76736038D01*
X93941331Y-76980631D01*
X94348075Y-77149110D01*
X94779872Y-77235000D01*
X95220128Y-77235000D01*
X95651925Y-77149110D01*
X96058669Y-76980631D01*
X96424729Y-76736038D01*
X96736038Y-76424729D01*
X96980631Y-76058669D01*
X97149110Y-75651925D01*
X97235000Y-75220128D01*
X97235000Y-74779872D01*
X97149110Y-74348075D01*
X96980631Y-73941331D01*
X96736038Y-73575271D01*
X96424729Y-73263962D01*
X96058669Y-73019369D01*
X95651925Y-72850890D01*
X95220128Y-72765000D01*
X94779872Y-72765000D01*
X94348075Y-72850890D01*
X93941331Y-73019369D01*
X93575271Y-73263962D01*
X93263962Y-73575271D01*
X93019369Y-73941331D01*
X92850890Y-74348075D01*
X92765000Y-74779872D01*
X7235000Y-74779872D01*
X7149110Y-74348075D01*
X6980631Y-73941331D01*
X6736038Y-73575271D01*
X6424729Y-73263962D01*
X6058669Y-73019369D01*
X5651925Y-72850890D01*
X5220128Y-72765000D01*
X4779872Y-72765000D01*
X4348075Y-72850890D01*
X3941331Y-73019369D01*
X3575271Y-73263962D01*
X3263962Y-73575271D01*
X3019369Y-73941331D01*
X2850890Y-74348075D01*
X2765000Y-74779872D01*
X1127000Y-74779872D01*
X1127000Y-72227391D01*
X18415000Y-72227391D01*
X18415000Y-72552609D01*
X18478447Y-72871579D01*
X18602903Y-73172042D01*
X18783585Y-73442451D01*
X19013549Y-73672415D01*
X19283958Y-73853097D01*
X19584421Y-73977553D01*
X19903391Y-74041000D01*
X20228609Y-74041000D01*
X20547579Y-73977553D01*
X20848042Y-73853097D01*
X21118451Y-73672415D01*
X21348415Y-73442451D01*
X21529097Y-73172042D01*
X21653553Y-72871579D01*
X21717000Y-72552609D01*
X21717000Y-72227391D01*
X21653553Y-71908421D01*
X21529097Y-71607958D01*
X21348415Y-71337549D01*
X21118451Y-71107585D01*
X20848042Y-70926903D01*
X20547579Y-70802447D01*
X20228609Y-70739000D01*
X19903391Y-70739000D01*
X19584421Y-70802447D01*
X19283958Y-70926903D01*
X19013549Y-71107585D01*
X18783585Y-71337549D01*
X18602903Y-71607958D01*
X18478447Y-71908421D01*
X18415000Y-72227391D01*
X1127000Y-72227391D01*
X1127000Y-69363147D01*
X28437900Y-69363147D01*
X28437900Y-69670853D01*
X28497931Y-69972648D01*
X28615685Y-70256932D01*
X28786638Y-70512780D01*
X29004220Y-70730362D01*
X29260068Y-70901315D01*
X29544352Y-71019069D01*
X29846147Y-71079100D01*
X30153853Y-71079100D01*
X30455648Y-71019069D01*
X30739932Y-70901315D01*
X30995780Y-70730362D01*
X31213362Y-70512780D01*
X31245687Y-70464401D01*
X49098200Y-70464401D01*
X49098200Y-70759599D01*
X49155790Y-71049125D01*
X49268758Y-71321853D01*
X49432761Y-71567302D01*
X49641498Y-71776039D01*
X49781074Y-71869300D01*
X49641498Y-71962561D01*
X49432761Y-72171298D01*
X49268758Y-72416747D01*
X49155790Y-72689475D01*
X49098200Y-72979001D01*
X49098200Y-73274199D01*
X49155790Y-73563725D01*
X49268758Y-73836453D01*
X49432761Y-74081902D01*
X49641498Y-74290639D01*
X49886947Y-74454642D01*
X50159675Y-74567610D01*
X50449201Y-74625200D01*
X50744399Y-74625200D01*
X51033925Y-74567610D01*
X51306653Y-74454642D01*
X51552102Y-74290639D01*
X51760839Y-74081902D01*
X51854100Y-73942326D01*
X51947361Y-74081902D01*
X52156098Y-74290639D01*
X52401547Y-74454642D01*
X52674275Y-74567610D01*
X52963801Y-74625200D01*
X53258999Y-74625200D01*
X53548525Y-74567610D01*
X53821253Y-74454642D01*
X54066702Y-74290639D01*
X54275439Y-74081902D01*
X54368700Y-73942326D01*
X54461961Y-74081902D01*
X54670698Y-74290639D01*
X54916147Y-74454642D01*
X55188875Y-74567610D01*
X55478401Y-74625200D01*
X55773599Y-74625200D01*
X56063125Y-74567610D01*
X56335853Y-74454642D01*
X56581302Y-74290639D01*
X56790039Y-74081902D01*
X56954042Y-73836453D01*
X57067010Y-73563725D01*
X57124600Y-73274199D01*
X57124600Y-72979001D01*
X57067010Y-72689475D01*
X56954042Y-72416747D01*
X56790039Y-72171298D01*
X56581302Y-71962561D01*
X56419761Y-71854623D01*
X56484499Y-71650104D01*
X55626000Y-70791605D01*
X54767501Y-71650104D01*
X54832239Y-71854623D01*
X54670698Y-71962561D01*
X54461961Y-72171298D01*
X54368700Y-72310874D01*
X54275439Y-72171298D01*
X54066702Y-71962561D01*
X53927126Y-71869300D01*
X54066702Y-71776039D01*
X54275439Y-71567302D01*
X54383377Y-71405761D01*
X54587896Y-71470499D01*
X55446395Y-70612000D01*
X55805605Y-70612000D01*
X56664104Y-71470499D01*
X56914567Y-71391218D01*
X57041826Y-71124859D01*
X57114675Y-70838790D01*
X57119204Y-70753424D01*
X76073000Y-70753424D01*
X76073000Y-70978576D01*
X76116925Y-71199401D01*
X76203087Y-71407413D01*
X76328174Y-71594620D01*
X76487380Y-71753826D01*
X76674587Y-71878913D01*
X76882599Y-71965075D01*
X77103424Y-72009000D01*
X77328576Y-72009000D01*
X77549401Y-71965075D01*
X77757413Y-71878913D01*
X77944620Y-71753826D01*
X78103826Y-71594620D01*
X78228913Y-71407413D01*
X78315075Y-71199401D01*
X78359000Y-70978576D01*
X78359000Y-70753424D01*
X78315075Y-70532599D01*
X78228913Y-70324587D01*
X78103826Y-70137380D01*
X77944620Y-69978174D01*
X77757413Y-69853087D01*
X77549401Y-69766925D01*
X77328576Y-69723000D01*
X77103424Y-69723000D01*
X76882599Y-69766925D01*
X76674587Y-69853087D01*
X76487380Y-69978174D01*
X76328174Y-70137380D01*
X76203087Y-70324587D01*
X76116925Y-70532599D01*
X76073000Y-70753424D01*
X57119204Y-70753424D01*
X57130315Y-70544007D01*
X57088145Y-70251836D01*
X56989786Y-69973507D01*
X56914567Y-69832782D01*
X56664104Y-69753501D01*
X55805605Y-70612000D01*
X55446395Y-70612000D01*
X54587896Y-69753501D01*
X54383377Y-69818239D01*
X54275439Y-69656698D01*
X54192637Y-69573896D01*
X54767501Y-69573896D01*
X55626000Y-70432395D01*
X56484499Y-69573896D01*
X56405218Y-69323433D01*
X56138859Y-69196174D01*
X55852790Y-69123325D01*
X55558007Y-69107685D01*
X55265836Y-69149855D01*
X54987507Y-69248214D01*
X54846782Y-69323433D01*
X54767501Y-69573896D01*
X54192637Y-69573896D01*
X54066702Y-69447961D01*
X53821253Y-69283958D01*
X53548525Y-69170990D01*
X53258999Y-69113400D01*
X52963801Y-69113400D01*
X52674275Y-69170990D01*
X52401547Y-69283958D01*
X52156098Y-69447961D01*
X51947361Y-69656698D01*
X51854100Y-69796274D01*
X51760839Y-69656698D01*
X51552102Y-69447961D01*
X51306653Y-69283958D01*
X51033925Y-69170990D01*
X50744399Y-69113400D01*
X50449201Y-69113400D01*
X50159675Y-69170990D01*
X49886947Y-69283958D01*
X49641498Y-69447961D01*
X49432761Y-69656698D01*
X49268758Y-69902147D01*
X49155790Y-70174875D01*
X49098200Y-70464401D01*
X31245687Y-70464401D01*
X31384315Y-70256932D01*
X31502069Y-69972648D01*
X31562100Y-69670853D01*
X31562100Y-69363147D01*
X31502069Y-69061352D01*
X31384315Y-68777068D01*
X31213362Y-68521220D01*
X30995780Y-68303638D01*
X30739932Y-68132685D01*
X30455648Y-68014931D01*
X30153853Y-67954900D01*
X29846147Y-67954900D01*
X29544352Y-68014931D01*
X29260068Y-68132685D01*
X29004220Y-68303638D01*
X28786638Y-68521220D01*
X28615685Y-68777068D01*
X28497931Y-69061352D01*
X28437900Y-69363147D01*
X1127000Y-69363147D01*
X1127000Y-67351543D01*
X22138700Y-67351543D01*
X22138700Y-67669257D01*
X22200683Y-67980866D01*
X22322267Y-68274395D01*
X22498779Y-68538564D01*
X22723436Y-68763221D01*
X22987605Y-68939733D01*
X23281134Y-69061317D01*
X23592743Y-69123300D01*
X23910457Y-69123300D01*
X24222066Y-69061317D01*
X24515595Y-68939733D01*
X24779764Y-68763221D01*
X25004421Y-68538564D01*
X25180933Y-68274395D01*
X25302517Y-67980866D01*
X25364500Y-67669257D01*
X25364500Y-67351543D01*
X34635500Y-67351543D01*
X34635500Y-67669257D01*
X34697483Y-67980866D01*
X34819067Y-68274395D01*
X34995579Y-68538564D01*
X35220236Y-68763221D01*
X35484405Y-68939733D01*
X35777934Y-69061317D01*
X36089543Y-69123300D01*
X36407257Y-69123300D01*
X36718866Y-69061317D01*
X37012395Y-68939733D01*
X37276564Y-68763221D01*
X37501221Y-68538564D01*
X37677733Y-68274395D01*
X37799317Y-67980866D01*
X37861300Y-67669257D01*
X37861300Y-67351543D01*
X37799317Y-67039934D01*
X37677733Y-66746405D01*
X37501221Y-66482236D01*
X37276564Y-66257579D01*
X37012395Y-66081067D01*
X36718866Y-65959483D01*
X36407257Y-65897500D01*
X36089543Y-65897500D01*
X35777934Y-65959483D01*
X35484405Y-66081067D01*
X35220236Y-66257579D01*
X34995579Y-66482236D01*
X34819067Y-66746405D01*
X34697483Y-67039934D01*
X34635500Y-67351543D01*
X25364500Y-67351543D01*
X25302517Y-67039934D01*
X25180933Y-66746405D01*
X25004421Y-66482236D01*
X24779764Y-66257579D01*
X24515595Y-66081067D01*
X24222066Y-65959483D01*
X23910457Y-65897500D01*
X23592743Y-65897500D01*
X23281134Y-65959483D01*
X22987605Y-66081067D01*
X22723436Y-66257579D01*
X22498779Y-66482236D01*
X22322267Y-66746405D01*
X22200683Y-67039934D01*
X22138700Y-67351543D01*
X1127000Y-67351543D01*
X1127000Y-62347743D01*
X22138700Y-62347743D01*
X22138700Y-62665457D01*
X22200683Y-62977066D01*
X22322267Y-63270595D01*
X22498779Y-63534764D01*
X22723436Y-63759421D01*
X22987605Y-63935933D01*
X23281134Y-64057517D01*
X23592743Y-64119500D01*
X23910457Y-64119500D01*
X24222066Y-64057517D01*
X24515595Y-63935933D01*
X24779764Y-63759421D01*
X25004421Y-63534764D01*
X25180933Y-63270595D01*
X25302517Y-62977066D01*
X25364500Y-62665457D01*
X25364500Y-62347743D01*
X34635500Y-62347743D01*
X34635500Y-62665457D01*
X34697483Y-62977066D01*
X34819067Y-63270595D01*
X34995579Y-63534764D01*
X35220236Y-63759421D01*
X35484405Y-63935933D01*
X35777934Y-64057517D01*
X36089543Y-64119500D01*
X36407257Y-64119500D01*
X36718866Y-64057517D01*
X37012395Y-63935933D01*
X37276564Y-63759421D01*
X37501221Y-63534764D01*
X37677733Y-63270595D01*
X37799317Y-62977066D01*
X37861300Y-62665457D01*
X37861300Y-62347743D01*
X37799317Y-62036134D01*
X37677733Y-61742605D01*
X37501221Y-61478436D01*
X37276564Y-61253779D01*
X37012395Y-61077267D01*
X36718866Y-60955683D01*
X36407257Y-60893700D01*
X36089543Y-60893700D01*
X35777934Y-60955683D01*
X35484405Y-61077267D01*
X35220236Y-61253779D01*
X34995579Y-61478436D01*
X34819067Y-61742605D01*
X34697483Y-62036134D01*
X34635500Y-62347743D01*
X25364500Y-62347743D01*
X25302517Y-62036134D01*
X25180933Y-61742605D01*
X25004421Y-61478436D01*
X24779764Y-61253779D01*
X24515595Y-61077267D01*
X24222066Y-60955683D01*
X23910457Y-60893700D01*
X23592743Y-60893700D01*
X23281134Y-60955683D01*
X22987605Y-61077267D01*
X22723436Y-61253779D01*
X22498779Y-61478436D01*
X22322267Y-61742605D01*
X22200683Y-62036134D01*
X22138700Y-62347743D01*
X1127000Y-62347743D01*
X1127000Y-59781391D01*
X11303000Y-59781391D01*
X11303000Y-60106609D01*
X11366447Y-60425579D01*
X11490903Y-60726042D01*
X11671585Y-60996451D01*
X11901549Y-61226415D01*
X12171958Y-61407097D01*
X12472421Y-61531553D01*
X12791391Y-61595000D01*
X13116609Y-61595000D01*
X13435579Y-61531553D01*
X13736042Y-61407097D01*
X14006451Y-61226415D01*
X14236415Y-60996451D01*
X14417097Y-60726042D01*
X14541553Y-60425579D01*
X14557352Y-60346147D01*
X28437900Y-60346147D01*
X28437900Y-60653853D01*
X28497931Y-60955648D01*
X28615685Y-61239932D01*
X28786638Y-61495780D01*
X29004220Y-61713362D01*
X29260068Y-61884315D01*
X29544352Y-62002069D01*
X29846147Y-62062100D01*
X30153853Y-62062100D01*
X30455648Y-62002069D01*
X30739932Y-61884315D01*
X30995780Y-61713362D01*
X31213362Y-61495780D01*
X31384315Y-61239932D01*
X31502069Y-60955648D01*
X31523596Y-60847424D01*
X45847000Y-60847424D01*
X45847000Y-61072576D01*
X45890925Y-61293401D01*
X45977087Y-61501413D01*
X46102174Y-61688620D01*
X46261380Y-61847826D01*
X46448587Y-61972913D01*
X46656599Y-62059075D01*
X46877424Y-62103000D01*
X47102576Y-62103000D01*
X47323401Y-62059075D01*
X47531413Y-61972913D01*
X47718620Y-61847826D01*
X47877826Y-61688620D01*
X48002913Y-61501413D01*
X48089075Y-61293401D01*
X48133000Y-61072576D01*
X48133000Y-60847424D01*
X49403000Y-60847424D01*
X49403000Y-61072576D01*
X49446925Y-61293401D01*
X49533087Y-61501413D01*
X49658174Y-61688620D01*
X49817380Y-61847826D01*
X50004587Y-61972913D01*
X50212599Y-62059075D01*
X50433424Y-62103000D01*
X50658576Y-62103000D01*
X50879401Y-62059075D01*
X51087413Y-61972913D01*
X51274620Y-61847826D01*
X51433826Y-61688620D01*
X51558913Y-61501413D01*
X51645075Y-61293401D01*
X51689000Y-61072576D01*
X51689000Y-60847424D01*
X51645075Y-60626599D01*
X51558913Y-60418587D01*
X51433826Y-60231380D01*
X51274620Y-60072174D01*
X51087413Y-59947087D01*
X50879401Y-59860925D01*
X50658576Y-59817000D01*
X50433424Y-59817000D01*
X50212599Y-59860925D01*
X50004587Y-59947087D01*
X49817380Y-60072174D01*
X49658174Y-60231380D01*
X49533087Y-60418587D01*
X49446925Y-60626599D01*
X49403000Y-60847424D01*
X48133000Y-60847424D01*
X48089075Y-60626599D01*
X48002913Y-60418587D01*
X47877826Y-60231380D01*
X47718620Y-60072174D01*
X47531413Y-59947087D01*
X47323401Y-59860925D01*
X47102576Y-59817000D01*
X46877424Y-59817000D01*
X46656599Y-59860925D01*
X46448587Y-59947087D01*
X46261380Y-60072174D01*
X46102174Y-60231380D01*
X45977087Y-60418587D01*
X45890925Y-60626599D01*
X45847000Y-60847424D01*
X31523596Y-60847424D01*
X31562100Y-60653853D01*
X31562100Y-60346147D01*
X31502069Y-60044352D01*
X31384315Y-59760068D01*
X31213362Y-59504220D01*
X30995780Y-59286638D01*
X30739932Y-59115685D01*
X30455648Y-58997931D01*
X30153853Y-58937900D01*
X29846147Y-58937900D01*
X29544352Y-58997931D01*
X29260068Y-59115685D01*
X29004220Y-59286638D01*
X28786638Y-59504220D01*
X28615685Y-59760068D01*
X28497931Y-60044352D01*
X28437900Y-60346147D01*
X14557352Y-60346147D01*
X14605000Y-60106609D01*
X14605000Y-59781391D01*
X14541553Y-59462421D01*
X14417097Y-59161958D01*
X14236415Y-58891549D01*
X14160290Y-58815424D01*
X54229000Y-58815424D01*
X54229000Y-59040576D01*
X54272925Y-59261401D01*
X54359087Y-59469413D01*
X54484174Y-59656620D01*
X54643380Y-59815826D01*
X54830587Y-59940913D01*
X55038599Y-60027075D01*
X55259424Y-60071000D01*
X55484576Y-60071000D01*
X55705401Y-60027075D01*
X55913413Y-59940913D01*
X56100620Y-59815826D01*
X56259826Y-59656620D01*
X56384913Y-59469413D01*
X56471075Y-59261401D01*
X56515000Y-59040576D01*
X56515000Y-58815424D01*
X83439000Y-58815424D01*
X83439000Y-59040576D01*
X83482925Y-59261401D01*
X83569087Y-59469413D01*
X83694174Y-59656620D01*
X83853380Y-59815826D01*
X84040587Y-59940913D01*
X84248599Y-60027075D01*
X84469424Y-60071000D01*
X84694576Y-60071000D01*
X84915401Y-60027075D01*
X85123413Y-59940913D01*
X85310620Y-59815826D01*
X85469826Y-59656620D01*
X85594913Y-59469413D01*
X85681075Y-59261401D01*
X85725000Y-59040576D01*
X85725000Y-58815424D01*
X85681075Y-58594599D01*
X85594913Y-58386587D01*
X85469826Y-58199380D01*
X85310620Y-58040174D01*
X85123413Y-57915087D01*
X84915401Y-57828925D01*
X84694576Y-57785000D01*
X84469424Y-57785000D01*
X84248599Y-57828925D01*
X84040587Y-57915087D01*
X83853380Y-58040174D01*
X83694174Y-58199380D01*
X83569087Y-58386587D01*
X83482925Y-58594599D01*
X83439000Y-58815424D01*
X56515000Y-58815424D01*
X56471075Y-58594599D01*
X56384913Y-58386587D01*
X56259826Y-58199380D01*
X56100620Y-58040174D01*
X55913413Y-57915087D01*
X55705401Y-57828925D01*
X55484576Y-57785000D01*
X55259424Y-57785000D01*
X55038599Y-57828925D01*
X54830587Y-57915087D01*
X54643380Y-58040174D01*
X54484174Y-58199380D01*
X54359087Y-58386587D01*
X54272925Y-58594599D01*
X54229000Y-58815424D01*
X14160290Y-58815424D01*
X14006451Y-58661585D01*
X13736042Y-58480903D01*
X13435579Y-58356447D01*
X13116609Y-58293000D01*
X12791391Y-58293000D01*
X12472421Y-58356447D01*
X12171958Y-58480903D01*
X11901549Y-58661585D01*
X11671585Y-58891549D01*
X11490903Y-59161958D01*
X11366447Y-59462421D01*
X11303000Y-59781391D01*
X1127000Y-59781391D01*
X1127000Y-56093137D01*
X4915000Y-56093137D01*
X4915000Y-56306863D01*
X4956696Y-56516483D01*
X5038485Y-56713940D01*
X5157225Y-56891647D01*
X5308353Y-57042775D01*
X5486060Y-57161515D01*
X5683517Y-57243304D01*
X5893137Y-57285000D01*
X6106863Y-57285000D01*
X6316483Y-57243304D01*
X6513940Y-57161515D01*
X6691647Y-57042775D01*
X6696998Y-57037424D01*
X40005000Y-57037424D01*
X40005000Y-57262576D01*
X40048925Y-57483401D01*
X40135087Y-57691413D01*
X40260174Y-57878620D01*
X40419380Y-58037826D01*
X40606587Y-58162913D01*
X40814599Y-58249075D01*
X41035424Y-58293000D01*
X41260576Y-58293000D01*
X41481401Y-58249075D01*
X41689413Y-58162913D01*
X41876620Y-58037826D01*
X42035826Y-57878620D01*
X42160913Y-57691413D01*
X42247075Y-57483401D01*
X42256371Y-57436665D01*
X86927000Y-57436665D01*
X86927000Y-57719335D01*
X86982147Y-57996574D01*
X87090320Y-58257727D01*
X87247363Y-58492759D01*
X87447241Y-58692637D01*
X87682273Y-58849680D01*
X87943426Y-58957853D01*
X88220665Y-59013000D01*
X88503335Y-59013000D01*
X88780574Y-58957853D01*
X89041727Y-58849680D01*
X89276759Y-58692637D01*
X89476637Y-58492759D01*
X89633680Y-58257727D01*
X89741853Y-57996574D01*
X89797000Y-57719335D01*
X89797000Y-57436665D01*
X89741853Y-57159426D01*
X89633680Y-56898273D01*
X89476637Y-56663241D01*
X89276759Y-56463363D01*
X89041727Y-56306320D01*
X88780574Y-56198147D01*
X88503335Y-56143000D01*
X88220665Y-56143000D01*
X87943426Y-56198147D01*
X87682273Y-56306320D01*
X87447241Y-56463363D01*
X87247363Y-56663241D01*
X87090320Y-56898273D01*
X86982147Y-57159426D01*
X86927000Y-57436665D01*
X42256371Y-57436665D01*
X42291000Y-57262576D01*
X42291000Y-57037424D01*
X42247075Y-56816599D01*
X42160913Y-56608587D01*
X42035826Y-56421380D01*
X41876620Y-56262174D01*
X41689413Y-56137087D01*
X41481401Y-56050925D01*
X41260576Y-56007000D01*
X41035424Y-56007000D01*
X40814599Y-56050925D01*
X40606587Y-56137087D01*
X40419380Y-56262174D01*
X40260174Y-56421380D01*
X40135087Y-56608587D01*
X40048925Y-56816599D01*
X40005000Y-57037424D01*
X6696998Y-57037424D01*
X6842775Y-56891647D01*
X6961515Y-56713940D01*
X7043304Y-56516483D01*
X7085000Y-56306863D01*
X7085000Y-56093137D01*
X7043304Y-55883517D01*
X6961515Y-55686060D01*
X6879683Y-55563589D01*
X56781000Y-55563589D01*
X56781000Y-55836411D01*
X56834225Y-56103989D01*
X56938629Y-56356043D01*
X57090201Y-56582886D01*
X57283114Y-56775799D01*
X57509957Y-56927371D01*
X57762011Y-57031775D01*
X58029589Y-57085000D01*
X58302411Y-57085000D01*
X58569989Y-57031775D01*
X58822043Y-56927371D01*
X59048886Y-56775799D01*
X59241799Y-56582886D01*
X59393371Y-56356043D01*
X59497775Y-56103989D01*
X59551000Y-55836411D01*
X59551000Y-55563589D01*
X59497775Y-55296011D01*
X59393371Y-55043957D01*
X59241799Y-54817114D01*
X59048886Y-54624201D01*
X58822043Y-54472629D01*
X58569989Y-54368225D01*
X58302411Y-54315000D01*
X58029589Y-54315000D01*
X57762011Y-54368225D01*
X57509957Y-54472629D01*
X57283114Y-54624201D01*
X57090201Y-54817114D01*
X56938629Y-55043957D01*
X56834225Y-55296011D01*
X56781000Y-55563589D01*
X6879683Y-55563589D01*
X6842775Y-55508353D01*
X6691647Y-55357225D01*
X6513940Y-55238485D01*
X6316483Y-55156696D01*
X6106863Y-55115000D01*
X5893137Y-55115000D01*
X5683517Y-55156696D01*
X5486060Y-55238485D01*
X5308353Y-55357225D01*
X5157225Y-55508353D01*
X5038485Y-55686060D01*
X4956696Y-55883517D01*
X4915000Y-56093137D01*
X1127000Y-56093137D01*
X1127000Y-53481424D01*
X63119000Y-53481424D01*
X63119000Y-53706576D01*
X63162925Y-53927401D01*
X63249087Y-54135413D01*
X63374174Y-54322620D01*
X63533380Y-54481826D01*
X63720587Y-54606913D01*
X63928599Y-54693075D01*
X64149424Y-54737000D01*
X64374576Y-54737000D01*
X64595401Y-54693075D01*
X64803413Y-54606913D01*
X64990620Y-54481826D01*
X65149826Y-54322620D01*
X65274913Y-54135413D01*
X65361075Y-53927401D01*
X65405000Y-53706576D01*
X65405000Y-53481424D01*
X65361075Y-53260599D01*
X65274913Y-53052587D01*
X65149826Y-52865380D01*
X64990620Y-52706174D01*
X64803413Y-52581087D01*
X64595401Y-52494925D01*
X64374576Y-52451000D01*
X64149424Y-52451000D01*
X63928599Y-52494925D01*
X63720587Y-52581087D01*
X63533380Y-52706174D01*
X63374174Y-52865380D01*
X63249087Y-53052587D01*
X63162925Y-53260599D01*
X63119000Y-53481424D01*
X1127000Y-53481424D01*
X1127000Y-51693137D01*
X4915000Y-51693137D01*
X4915000Y-51906863D01*
X4956696Y-52116483D01*
X5038485Y-52313940D01*
X5157225Y-52491647D01*
X5308353Y-52642775D01*
X5486060Y-52761515D01*
X5683517Y-52843304D01*
X5893137Y-52885000D01*
X6106863Y-52885000D01*
X6316483Y-52843304D01*
X6513940Y-52761515D01*
X6691647Y-52642775D01*
X6842775Y-52491647D01*
X6961515Y-52313940D01*
X7043304Y-52116483D01*
X7085000Y-51906863D01*
X7085000Y-51693137D01*
X7043304Y-51483517D01*
X6961515Y-51286060D01*
X6842775Y-51108353D01*
X6691647Y-50957225D01*
X6513940Y-50838485D01*
X6316483Y-50756696D01*
X6106863Y-50715000D01*
X5893137Y-50715000D01*
X5683517Y-50756696D01*
X5486060Y-50838485D01*
X5308353Y-50957225D01*
X5157225Y-51108353D01*
X5038485Y-51286060D01*
X4956696Y-51483517D01*
X4915000Y-51693137D01*
X1127000Y-51693137D01*
X1127000Y-50663589D01*
X56781000Y-50663589D01*
X56781000Y-50936411D01*
X56834225Y-51203989D01*
X56938629Y-51456043D01*
X57090201Y-51682886D01*
X57283114Y-51875799D01*
X57509957Y-52027371D01*
X57762011Y-52131775D01*
X58029589Y-52185000D01*
X58302411Y-52185000D01*
X58569989Y-52131775D01*
X58822043Y-52027371D01*
X59048886Y-51875799D01*
X59241799Y-51682886D01*
X59393371Y-51456043D01*
X59497775Y-51203989D01*
X59551000Y-50936411D01*
X59551000Y-50663589D01*
X59497775Y-50396011D01*
X59393371Y-50143957D01*
X59364000Y-50100000D01*
X77191928Y-50100000D01*
X77191928Y-51900000D01*
X77204188Y-52024482D01*
X77240498Y-52144180D01*
X77299463Y-52254494D01*
X77378815Y-52351185D01*
X77475506Y-52430537D01*
X77585820Y-52489502D01*
X77705518Y-52525812D01*
X77830000Y-52538072D01*
X79630000Y-52538072D01*
X79754482Y-52525812D01*
X79874180Y-52489502D01*
X79984494Y-52430537D01*
X80081185Y-52351185D01*
X80160537Y-52254494D01*
X80219502Y-52144180D01*
X80225056Y-52125873D01*
X80291495Y-52192312D01*
X80542905Y-52360299D01*
X80822257Y-52476011D01*
X81118816Y-52535000D01*
X81421184Y-52535000D01*
X81717743Y-52476011D01*
X81812732Y-52436665D01*
X88227000Y-52436665D01*
X88227000Y-52719335D01*
X88282147Y-52996574D01*
X88390320Y-53257727D01*
X88547363Y-53492759D01*
X88747241Y-53692637D01*
X88982273Y-53849680D01*
X89243426Y-53957853D01*
X89520665Y-54013000D01*
X89803335Y-54013000D01*
X90080574Y-53957853D01*
X90341727Y-53849680D01*
X90576759Y-53692637D01*
X90776637Y-53492759D01*
X90933680Y-53257727D01*
X91041853Y-52996574D01*
X91097000Y-52719335D01*
X91097000Y-52712600D01*
X92074528Y-52712600D01*
X92074528Y-54287400D01*
X92086788Y-54411882D01*
X92123098Y-54531580D01*
X92182063Y-54641894D01*
X92261415Y-54738585D01*
X92358106Y-54817937D01*
X92468420Y-54876902D01*
X92588118Y-54913212D01*
X92589659Y-54913364D01*
X92395150Y-55107873D01*
X92239486Y-55340841D01*
X92132262Y-55599701D01*
X92077600Y-55874506D01*
X92077600Y-56154694D01*
X92132262Y-56429499D01*
X92239486Y-56688359D01*
X92395150Y-56921327D01*
X92593273Y-57119450D01*
X92826241Y-57275114D01*
X93085101Y-57382338D01*
X93359906Y-57437000D01*
X93640094Y-57437000D01*
X93914899Y-57382338D01*
X94173759Y-57275114D01*
X94406727Y-57119450D01*
X94604850Y-56921327D01*
X94760514Y-56688359D01*
X94867738Y-56429499D01*
X94922400Y-56154694D01*
X94922400Y-55874506D01*
X94867738Y-55599701D01*
X94760514Y-55340841D01*
X94604850Y-55107873D01*
X94410341Y-54913364D01*
X94411882Y-54913212D01*
X94531580Y-54876902D01*
X94641894Y-54817937D01*
X94738585Y-54738585D01*
X94817937Y-54641894D01*
X94876902Y-54531580D01*
X94913212Y-54411882D01*
X94925472Y-54287400D01*
X94925472Y-52712600D01*
X94913212Y-52588118D01*
X94876902Y-52468420D01*
X94817937Y-52358106D01*
X94738585Y-52261415D01*
X94641894Y-52182063D01*
X94531580Y-52123098D01*
X94411882Y-52086788D01*
X94287400Y-52074528D01*
X92712600Y-52074528D01*
X92588118Y-52086788D01*
X92468420Y-52123098D01*
X92358106Y-52182063D01*
X92261415Y-52261415D01*
X92182063Y-52358106D01*
X92123098Y-52468420D01*
X92086788Y-52588118D01*
X92074528Y-52712600D01*
X91097000Y-52712600D01*
X91097000Y-52436665D01*
X91041853Y-52159426D01*
X90933680Y-51898273D01*
X90776637Y-51663241D01*
X90576759Y-51463363D01*
X90341727Y-51306320D01*
X90080574Y-51198147D01*
X89803335Y-51143000D01*
X89520665Y-51143000D01*
X89243426Y-51198147D01*
X88982273Y-51306320D01*
X88747241Y-51463363D01*
X88547363Y-51663241D01*
X88390320Y-51898273D01*
X88282147Y-52159426D01*
X88227000Y-52436665D01*
X81812732Y-52436665D01*
X81997095Y-52360299D01*
X82248505Y-52192312D01*
X82462312Y-51978505D01*
X82630299Y-51727095D01*
X82746011Y-51447743D01*
X82805000Y-51151184D01*
X82805000Y-50848816D01*
X82746011Y-50552257D01*
X82630299Y-50272905D01*
X82462312Y-50021495D01*
X82248505Y-49807688D01*
X81997095Y-49639701D01*
X81717743Y-49523989D01*
X81421184Y-49465000D01*
X81118816Y-49465000D01*
X80822257Y-49523989D01*
X80542905Y-49639701D01*
X80291495Y-49807688D01*
X80225056Y-49874127D01*
X80219502Y-49855820D01*
X80160537Y-49745506D01*
X80081185Y-49648815D01*
X79984494Y-49569463D01*
X79874180Y-49510498D01*
X79754482Y-49474188D01*
X79630000Y-49461928D01*
X77830000Y-49461928D01*
X77705518Y-49474188D01*
X77585820Y-49510498D01*
X77475506Y-49569463D01*
X77378815Y-49648815D01*
X77299463Y-49745506D01*
X77240498Y-49855820D01*
X77204188Y-49975518D01*
X77191928Y-50100000D01*
X59364000Y-50100000D01*
X59241799Y-49917114D01*
X59048886Y-49724201D01*
X58822043Y-49572629D01*
X58569989Y-49468225D01*
X58302411Y-49415000D01*
X58029589Y-49415000D01*
X57762011Y-49468225D01*
X57509957Y-49572629D01*
X57283114Y-49724201D01*
X57090201Y-49917114D01*
X56938629Y-50143957D01*
X56834225Y-50396011D01*
X56781000Y-50663589D01*
X1127000Y-50663589D01*
X1127000Y-42358665D01*
X8965000Y-42358665D01*
X8965000Y-42641335D01*
X9020147Y-42918574D01*
X9128320Y-43179727D01*
X9285363Y-43414759D01*
X9485241Y-43614637D01*
X9720273Y-43771680D01*
X9981426Y-43879853D01*
X10148300Y-43913047D01*
X10123549Y-43929585D01*
X9893585Y-44159549D01*
X9712903Y-44429958D01*
X9588447Y-44730421D01*
X9525000Y-45049391D01*
X9525000Y-45374609D01*
X9588447Y-45693579D01*
X9712903Y-45994042D01*
X9893585Y-46264451D01*
X10123549Y-46494415D01*
X10393958Y-46675097D01*
X10694421Y-46799553D01*
X11013391Y-46863000D01*
X11338609Y-46863000D01*
X11657579Y-46799553D01*
X11958042Y-46675097D01*
X12035375Y-46623424D01*
X25273000Y-46623424D01*
X25273000Y-46848576D01*
X25316925Y-47069401D01*
X25403087Y-47277413D01*
X25528174Y-47464620D01*
X25687380Y-47623826D01*
X25874587Y-47748913D01*
X26082599Y-47835075D01*
X26303424Y-47879000D01*
X26528576Y-47879000D01*
X26749401Y-47835075D01*
X26957413Y-47748913D01*
X27144620Y-47623826D01*
X27303826Y-47464620D01*
X27428913Y-47277413D01*
X27515075Y-47069401D01*
X27559000Y-46848576D01*
X27559000Y-46623424D01*
X27515075Y-46402599D01*
X27501334Y-46369424D01*
X45339000Y-46369424D01*
X45339000Y-46594576D01*
X45382925Y-46815401D01*
X45469087Y-47023413D01*
X45594174Y-47210620D01*
X45753380Y-47369826D01*
X45940587Y-47494913D01*
X46148599Y-47581075D01*
X46369424Y-47625000D01*
X46594576Y-47625000D01*
X46815401Y-47581075D01*
X47023413Y-47494913D01*
X47210620Y-47369826D01*
X47369826Y-47210620D01*
X47422742Y-47131424D01*
X53975000Y-47131424D01*
X53975000Y-47356576D01*
X54018925Y-47577401D01*
X54105087Y-47785413D01*
X54230174Y-47972620D01*
X54389380Y-48131826D01*
X54576587Y-48256913D01*
X54784599Y-48343075D01*
X55005424Y-48387000D01*
X55230576Y-48387000D01*
X55451401Y-48343075D01*
X55659413Y-48256913D01*
X55846620Y-48131826D01*
X56005826Y-47972620D01*
X56130913Y-47785413D01*
X56217075Y-47577401D01*
X56261000Y-47356576D01*
X56261000Y-47131424D01*
X56217075Y-46910599D01*
X56130913Y-46702587D01*
X56005826Y-46515380D01*
X55846620Y-46356174D01*
X55659413Y-46231087D01*
X55451401Y-46144925D01*
X55230576Y-46101000D01*
X55005424Y-46101000D01*
X54784599Y-46144925D01*
X54576587Y-46231087D01*
X54389380Y-46356174D01*
X54230174Y-46515380D01*
X54105087Y-46702587D01*
X54018925Y-46910599D01*
X53975000Y-47131424D01*
X47422742Y-47131424D01*
X47494913Y-47023413D01*
X47581075Y-46815401D01*
X47625000Y-46594576D01*
X47625000Y-46369424D01*
X47581075Y-46148599D01*
X47494913Y-45940587D01*
X47369826Y-45753380D01*
X47210620Y-45594174D01*
X47067680Y-45498665D01*
X86927000Y-45498665D01*
X86927000Y-45781335D01*
X86982147Y-46058574D01*
X87090320Y-46319727D01*
X87247363Y-46554759D01*
X87447241Y-46754637D01*
X87682273Y-46911680D01*
X87943426Y-47019853D01*
X88220665Y-47075000D01*
X88503335Y-47075000D01*
X88780574Y-47019853D01*
X89041727Y-46911680D01*
X89276759Y-46754637D01*
X89476637Y-46554759D01*
X89633680Y-46319727D01*
X89741853Y-46058574D01*
X89797000Y-45781335D01*
X89797000Y-45498665D01*
X89741853Y-45221426D01*
X89633680Y-44960273D01*
X89476637Y-44725241D01*
X89276759Y-44525363D01*
X89041727Y-44368320D01*
X88780574Y-44260147D01*
X88503335Y-44205000D01*
X88220665Y-44205000D01*
X87943426Y-44260147D01*
X87682273Y-44368320D01*
X87447241Y-44525363D01*
X87247363Y-44725241D01*
X87090320Y-44960273D01*
X86982147Y-45221426D01*
X86927000Y-45498665D01*
X47067680Y-45498665D01*
X47023413Y-45469087D01*
X46815401Y-45382925D01*
X46594576Y-45339000D01*
X46369424Y-45339000D01*
X46148599Y-45382925D01*
X45940587Y-45469087D01*
X45753380Y-45594174D01*
X45594174Y-45753380D01*
X45469087Y-45940587D01*
X45382925Y-46148599D01*
X45339000Y-46369424D01*
X27501334Y-46369424D01*
X27428913Y-46194587D01*
X27303826Y-46007380D01*
X27144620Y-45848174D01*
X26957413Y-45723087D01*
X26749401Y-45636925D01*
X26528576Y-45593000D01*
X26303424Y-45593000D01*
X26082599Y-45636925D01*
X25874587Y-45723087D01*
X25687380Y-45848174D01*
X25528174Y-46007380D01*
X25403087Y-46194587D01*
X25316925Y-46402599D01*
X25273000Y-46623424D01*
X12035375Y-46623424D01*
X12228451Y-46494415D01*
X12458415Y-46264451D01*
X12639097Y-45994042D01*
X12763553Y-45693579D01*
X12827000Y-45374609D01*
X12827000Y-45049391D01*
X12763553Y-44730421D01*
X12639097Y-44429958D01*
X12458415Y-44159549D01*
X12228451Y-43929585D01*
X11958042Y-43748903D01*
X11657579Y-43624447D01*
X11363454Y-43565942D01*
X11514637Y-43414759D01*
X11671680Y-43179727D01*
X11779853Y-42918574D01*
X11835000Y-42641335D01*
X11835000Y-42358665D01*
X11779853Y-42081426D01*
X11671680Y-41820273D01*
X11514637Y-41585241D01*
X11314759Y-41385363D01*
X11079727Y-41228320D01*
X10818574Y-41120147D01*
X10541335Y-41065000D01*
X10258665Y-41065000D01*
X9981426Y-41120147D01*
X9720273Y-41228320D01*
X9485241Y-41385363D01*
X9285363Y-41585241D01*
X9128320Y-41820273D01*
X9020147Y-42081426D01*
X8965000Y-42358665D01*
X1127000Y-42358665D01*
X1127000Y-40273424D01*
X26543000Y-40273424D01*
X26543000Y-40498576D01*
X26586925Y-40719401D01*
X26673087Y-40927413D01*
X26798174Y-41114620D01*
X26957380Y-41273826D01*
X27144587Y-41398913D01*
X27352599Y-41485075D01*
X27573424Y-41529000D01*
X27798576Y-41529000D01*
X28019401Y-41485075D01*
X28227413Y-41398913D01*
X28414620Y-41273826D01*
X28573826Y-41114620D01*
X28698913Y-40927413D01*
X28785075Y-40719401D01*
X28829000Y-40498576D01*
X28829000Y-40273424D01*
X28785075Y-40052599D01*
X28698913Y-39844587D01*
X28573826Y-39657380D01*
X28414620Y-39498174D01*
X28227413Y-39373087D01*
X28019401Y-39286925D01*
X27798576Y-39243000D01*
X27573424Y-39243000D01*
X27352599Y-39286925D01*
X27144587Y-39373087D01*
X26957380Y-39498174D01*
X26798174Y-39657380D01*
X26673087Y-39844587D01*
X26586925Y-40052599D01*
X26543000Y-40273424D01*
X1127000Y-40273424D01*
X1127000Y-36712600D01*
X5074528Y-36712600D01*
X5074528Y-38287400D01*
X5086788Y-38411882D01*
X5123098Y-38531580D01*
X5182063Y-38641894D01*
X5261415Y-38738585D01*
X5358106Y-38817937D01*
X5468420Y-38876902D01*
X5588118Y-38913212D01*
X5712600Y-38925472D01*
X7287400Y-38925472D01*
X7411882Y-38913212D01*
X7531580Y-38876902D01*
X7641894Y-38817937D01*
X7738585Y-38738585D01*
X7817937Y-38641894D01*
X7876902Y-38531580D01*
X7913212Y-38411882D01*
X7925472Y-38287400D01*
X7925472Y-36712600D01*
X7913212Y-36588118D01*
X7876902Y-36468420D01*
X7817937Y-36358106D01*
X7738585Y-36261415D01*
X7641894Y-36182063D01*
X7531580Y-36123098D01*
X7411882Y-36086788D01*
X7410341Y-36086636D01*
X7604850Y-35892127D01*
X7760514Y-35659159D01*
X7867738Y-35400299D01*
X7922400Y-35125494D01*
X7922400Y-34889391D01*
X8763000Y-34889391D01*
X8763000Y-35214609D01*
X8826447Y-35533579D01*
X8950903Y-35834042D01*
X9131585Y-36104451D01*
X9361549Y-36334415D01*
X9631958Y-36515097D01*
X9932421Y-36639553D01*
X10251391Y-36703000D01*
X10506679Y-36703000D01*
X10428320Y-36820273D01*
X10320147Y-37081426D01*
X10265000Y-37358665D01*
X10265000Y-37641335D01*
X10320147Y-37918574D01*
X10428320Y-38179727D01*
X10585363Y-38414759D01*
X10785241Y-38614637D01*
X11020273Y-38771680D01*
X11281426Y-38879853D01*
X11558665Y-38935000D01*
X11841335Y-38935000D01*
X12118574Y-38879853D01*
X12379727Y-38771680D01*
X12614759Y-38614637D01*
X12814637Y-38414759D01*
X12971680Y-38179727D01*
X13004703Y-38100000D01*
X77191928Y-38100000D01*
X77191928Y-39900000D01*
X77204188Y-40024482D01*
X77240498Y-40144180D01*
X77299463Y-40254494D01*
X77378815Y-40351185D01*
X77475506Y-40430537D01*
X77585820Y-40489502D01*
X77705518Y-40525812D01*
X77830000Y-40538072D01*
X79630000Y-40538072D01*
X79754482Y-40525812D01*
X79874180Y-40489502D01*
X79984494Y-40430537D01*
X80081185Y-40351185D01*
X80160537Y-40254494D01*
X80219502Y-40144180D01*
X80225056Y-40125873D01*
X80291495Y-40192312D01*
X80542905Y-40360299D01*
X80822257Y-40476011D01*
X81118816Y-40535000D01*
X81421184Y-40535000D01*
X81603853Y-40498665D01*
X88227000Y-40498665D01*
X88227000Y-40781335D01*
X88282147Y-41058574D01*
X88390320Y-41319727D01*
X88547363Y-41554759D01*
X88747241Y-41754637D01*
X88982273Y-41911680D01*
X89243426Y-42019853D01*
X89520665Y-42075000D01*
X89803335Y-42075000D01*
X90080574Y-42019853D01*
X90341727Y-41911680D01*
X90576759Y-41754637D01*
X90776637Y-41554759D01*
X90933680Y-41319727D01*
X91041853Y-41058574D01*
X91097000Y-40781335D01*
X91097000Y-40712600D01*
X92074528Y-40712600D01*
X92074528Y-42287400D01*
X92086788Y-42411882D01*
X92123098Y-42531580D01*
X92182063Y-42641894D01*
X92261415Y-42738585D01*
X92358106Y-42817937D01*
X92468420Y-42876902D01*
X92588118Y-42913212D01*
X92589659Y-42913364D01*
X92395150Y-43107873D01*
X92239486Y-43340841D01*
X92132262Y-43599701D01*
X92077600Y-43874506D01*
X92077600Y-44154694D01*
X92132262Y-44429499D01*
X92239486Y-44688359D01*
X92395150Y-44921327D01*
X92593273Y-45119450D01*
X92826241Y-45275114D01*
X93085101Y-45382338D01*
X93359906Y-45437000D01*
X93640094Y-45437000D01*
X93914899Y-45382338D01*
X94173759Y-45275114D01*
X94406727Y-45119450D01*
X94604850Y-44921327D01*
X94760514Y-44688359D01*
X94867738Y-44429499D01*
X94922400Y-44154694D01*
X94922400Y-43874506D01*
X94867738Y-43599701D01*
X94760514Y-43340841D01*
X94604850Y-43107873D01*
X94410341Y-42913364D01*
X94411882Y-42913212D01*
X94531580Y-42876902D01*
X94641894Y-42817937D01*
X94738585Y-42738585D01*
X94817937Y-42641894D01*
X94876902Y-42531580D01*
X94913212Y-42411882D01*
X94925472Y-42287400D01*
X94925472Y-40712600D01*
X94913212Y-40588118D01*
X94876902Y-40468420D01*
X94817937Y-40358106D01*
X94738585Y-40261415D01*
X94641894Y-40182063D01*
X94531580Y-40123098D01*
X94411882Y-40086788D01*
X94287400Y-40074528D01*
X92712600Y-40074528D01*
X92588118Y-40086788D01*
X92468420Y-40123098D01*
X92358106Y-40182063D01*
X92261415Y-40261415D01*
X92182063Y-40358106D01*
X92123098Y-40468420D01*
X92086788Y-40588118D01*
X92074528Y-40712600D01*
X91097000Y-40712600D01*
X91097000Y-40498665D01*
X91041853Y-40221426D01*
X90933680Y-39960273D01*
X90776637Y-39725241D01*
X90576759Y-39525363D01*
X90341727Y-39368320D01*
X90080574Y-39260147D01*
X89803335Y-39205000D01*
X89520665Y-39205000D01*
X89243426Y-39260147D01*
X88982273Y-39368320D01*
X88747241Y-39525363D01*
X88547363Y-39725241D01*
X88390320Y-39960273D01*
X88282147Y-40221426D01*
X88227000Y-40498665D01*
X81603853Y-40498665D01*
X81717743Y-40476011D01*
X81997095Y-40360299D01*
X82248505Y-40192312D01*
X82462312Y-39978505D01*
X82630299Y-39727095D01*
X82746011Y-39447743D01*
X82805000Y-39151184D01*
X82805000Y-38848816D01*
X82746011Y-38552257D01*
X82630299Y-38272905D01*
X82462312Y-38021495D01*
X82248505Y-37807688D01*
X81997095Y-37639701D01*
X81717743Y-37523989D01*
X81421184Y-37465000D01*
X81118816Y-37465000D01*
X80822257Y-37523989D01*
X80542905Y-37639701D01*
X80291495Y-37807688D01*
X80225056Y-37874127D01*
X80219502Y-37855820D01*
X80160537Y-37745506D01*
X80081185Y-37648815D01*
X79984494Y-37569463D01*
X79874180Y-37510498D01*
X79754482Y-37474188D01*
X79630000Y-37461928D01*
X77830000Y-37461928D01*
X77705518Y-37474188D01*
X77585820Y-37510498D01*
X77475506Y-37569463D01*
X77378815Y-37648815D01*
X77299463Y-37745506D01*
X77240498Y-37855820D01*
X77204188Y-37975518D01*
X77191928Y-38100000D01*
X13004703Y-38100000D01*
X13079853Y-37918574D01*
X13135000Y-37641335D01*
X13135000Y-37358665D01*
X13079853Y-37081426D01*
X12971680Y-36820273D01*
X12814637Y-36585241D01*
X12614759Y-36385363D01*
X12379727Y-36228320D01*
X12118574Y-36120147D01*
X11841335Y-36065000D01*
X11722775Y-36065000D01*
X11877097Y-35834042D01*
X12001553Y-35533579D01*
X12065000Y-35214609D01*
X12065000Y-34889391D01*
X12001553Y-34570421D01*
X11877097Y-34269958D01*
X11763535Y-34100000D01*
X17191928Y-34100000D01*
X17191928Y-35900000D01*
X17204188Y-36024482D01*
X17240498Y-36144180D01*
X17299463Y-36254494D01*
X17378815Y-36351185D01*
X17475506Y-36430537D01*
X17585820Y-36489502D01*
X17705518Y-36525812D01*
X17830000Y-36538072D01*
X19630000Y-36538072D01*
X19754482Y-36525812D01*
X19874180Y-36489502D01*
X19984494Y-36430537D01*
X20081185Y-36351185D01*
X20160537Y-36254494D01*
X20219502Y-36144180D01*
X20225056Y-36125873D01*
X20291495Y-36192312D01*
X20542905Y-36360299D01*
X20822257Y-36476011D01*
X21118816Y-36535000D01*
X21421184Y-36535000D01*
X21717743Y-36476011D01*
X21997095Y-36360299D01*
X22248505Y-36192312D01*
X22462312Y-35978505D01*
X22630299Y-35727095D01*
X22746011Y-35447743D01*
X22805000Y-35151184D01*
X22805000Y-34848816D01*
X22746011Y-34552257D01*
X22665823Y-34358665D01*
X86927000Y-34358665D01*
X86927000Y-34641335D01*
X86982147Y-34918574D01*
X87090320Y-35179727D01*
X87247363Y-35414759D01*
X87447241Y-35614637D01*
X87682273Y-35771680D01*
X87943426Y-35879853D01*
X88220665Y-35935000D01*
X88503335Y-35935000D01*
X88780574Y-35879853D01*
X89041727Y-35771680D01*
X89276759Y-35614637D01*
X89476637Y-35414759D01*
X89633680Y-35179727D01*
X89741853Y-34918574D01*
X89797000Y-34641335D01*
X89797000Y-34358665D01*
X89741853Y-34081426D01*
X89633680Y-33820273D01*
X89476637Y-33585241D01*
X89276759Y-33385363D01*
X89041727Y-33228320D01*
X88780574Y-33120147D01*
X88503335Y-33065000D01*
X88220665Y-33065000D01*
X87943426Y-33120147D01*
X87682273Y-33228320D01*
X87447241Y-33385363D01*
X87247363Y-33585241D01*
X87090320Y-33820273D01*
X86982147Y-34081426D01*
X86927000Y-34358665D01*
X22665823Y-34358665D01*
X22630299Y-34272905D01*
X22462312Y-34021495D01*
X22248505Y-33807688D01*
X21997095Y-33639701D01*
X21717743Y-33523989D01*
X21421184Y-33465000D01*
X21118816Y-33465000D01*
X20822257Y-33523989D01*
X20542905Y-33639701D01*
X20291495Y-33807688D01*
X20225056Y-33874127D01*
X20219502Y-33855820D01*
X20160537Y-33745506D01*
X20081185Y-33648815D01*
X19984494Y-33569463D01*
X19874180Y-33510498D01*
X19754482Y-33474188D01*
X19630000Y-33461928D01*
X17830000Y-33461928D01*
X17705518Y-33474188D01*
X17585820Y-33510498D01*
X17475506Y-33569463D01*
X17378815Y-33648815D01*
X17299463Y-33745506D01*
X17240498Y-33855820D01*
X17204188Y-33975518D01*
X17191928Y-34100000D01*
X11763535Y-34100000D01*
X11696415Y-33999549D01*
X11466451Y-33769585D01*
X11199827Y-33591432D01*
X11314759Y-33514637D01*
X11514637Y-33314759D01*
X11671680Y-33079727D01*
X11779853Y-32818574D01*
X11835000Y-32541335D01*
X11835000Y-32258665D01*
X11779853Y-31981426D01*
X11671680Y-31720273D01*
X11514637Y-31485241D01*
X11314759Y-31285363D01*
X11079727Y-31128320D01*
X10818574Y-31020147D01*
X10541335Y-30965000D01*
X10258665Y-30965000D01*
X9981426Y-31020147D01*
X9720273Y-31128320D01*
X9485241Y-31285363D01*
X9285363Y-31485241D01*
X9128320Y-31720273D01*
X9020147Y-31981426D01*
X8965000Y-32258665D01*
X8965000Y-32541335D01*
X9020147Y-32818574D01*
X9128320Y-33079727D01*
X9285363Y-33314759D01*
X9485241Y-33514637D01*
X9614173Y-33600786D01*
X9361549Y-33769585D01*
X9131585Y-33999549D01*
X8950903Y-34269958D01*
X8826447Y-34570421D01*
X8763000Y-34889391D01*
X7922400Y-34889391D01*
X7922400Y-34845306D01*
X7867738Y-34570501D01*
X7760514Y-34311641D01*
X7604850Y-34078673D01*
X7406727Y-33880550D01*
X7178569Y-33728100D01*
X7406727Y-33575650D01*
X7604850Y-33377527D01*
X7760514Y-33144559D01*
X7867738Y-32885699D01*
X7922400Y-32610894D01*
X7922400Y-32330706D01*
X7867738Y-32055901D01*
X7760514Y-31797041D01*
X7604850Y-31564073D01*
X7406727Y-31365950D01*
X7173759Y-31210286D01*
X6914899Y-31103062D01*
X6640094Y-31048400D01*
X6359906Y-31048400D01*
X6085101Y-31103062D01*
X5826241Y-31210286D01*
X5593273Y-31365950D01*
X5395150Y-31564073D01*
X5239486Y-31797041D01*
X5132262Y-32055901D01*
X5077600Y-32330706D01*
X5077600Y-32610894D01*
X5132262Y-32885699D01*
X5239486Y-33144559D01*
X5395150Y-33377527D01*
X5593273Y-33575650D01*
X5821431Y-33728100D01*
X5593273Y-33880550D01*
X5395150Y-34078673D01*
X5239486Y-34311641D01*
X5132262Y-34570501D01*
X5077600Y-34845306D01*
X5077600Y-35125494D01*
X5132262Y-35400299D01*
X5239486Y-35659159D01*
X5395150Y-35892127D01*
X5589659Y-36086636D01*
X5588118Y-36086788D01*
X5468420Y-36123098D01*
X5358106Y-36182063D01*
X5261415Y-36261415D01*
X5182063Y-36358106D01*
X5123098Y-36468420D01*
X5086788Y-36588118D01*
X5074528Y-36712600D01*
X1127000Y-36712600D01*
X1127000Y-27258665D01*
X10265000Y-27258665D01*
X10265000Y-27541335D01*
X10320147Y-27818574D01*
X10428320Y-28079727D01*
X10585363Y-28314759D01*
X10785241Y-28514637D01*
X11020273Y-28671680D01*
X11281426Y-28779853D01*
X11558665Y-28835000D01*
X11841335Y-28835000D01*
X12118574Y-28779853D01*
X12379727Y-28671680D01*
X12573000Y-28542539D01*
X12573000Y-28864609D01*
X12636447Y-29183579D01*
X12760903Y-29484042D01*
X12941585Y-29754451D01*
X13171549Y-29984415D01*
X13441958Y-30165097D01*
X13742421Y-30289553D01*
X14061391Y-30353000D01*
X14386609Y-30353000D01*
X14705579Y-30289553D01*
X15006042Y-30165097D01*
X15276451Y-29984415D01*
X15506415Y-29754451D01*
X15687097Y-29484042D01*
X15739029Y-29358665D01*
X88227000Y-29358665D01*
X88227000Y-29641335D01*
X88282147Y-29918574D01*
X88390320Y-30179727D01*
X88547363Y-30414759D01*
X88747241Y-30614637D01*
X88982273Y-30771680D01*
X89243426Y-30879853D01*
X89520665Y-30935000D01*
X89803335Y-30935000D01*
X90080574Y-30879853D01*
X90341727Y-30771680D01*
X90576759Y-30614637D01*
X90776637Y-30414759D01*
X90933680Y-30179727D01*
X91041853Y-29918574D01*
X91082824Y-29712600D01*
X92074528Y-29712600D01*
X92074528Y-31287400D01*
X92086788Y-31411882D01*
X92123098Y-31531580D01*
X92182063Y-31641894D01*
X92261415Y-31738585D01*
X92358106Y-31817937D01*
X92468420Y-31876902D01*
X92588118Y-31913212D01*
X92589659Y-31913364D01*
X92395150Y-32107873D01*
X92239486Y-32340841D01*
X92132262Y-32599701D01*
X92077600Y-32874506D01*
X92077600Y-33154694D01*
X92132262Y-33429499D01*
X92239486Y-33688359D01*
X92395150Y-33921327D01*
X92593273Y-34119450D01*
X92826241Y-34275114D01*
X93085101Y-34382338D01*
X93359906Y-34437000D01*
X93640094Y-34437000D01*
X93914899Y-34382338D01*
X94173759Y-34275114D01*
X94406727Y-34119450D01*
X94604850Y-33921327D01*
X94760514Y-33688359D01*
X94867738Y-33429499D01*
X94922400Y-33154694D01*
X94922400Y-32874506D01*
X94867738Y-32599701D01*
X94760514Y-32340841D01*
X94604850Y-32107873D01*
X94410341Y-31913364D01*
X94411882Y-31913212D01*
X94531580Y-31876902D01*
X94641894Y-31817937D01*
X94738585Y-31738585D01*
X94817937Y-31641894D01*
X94876902Y-31531580D01*
X94913212Y-31411882D01*
X94925472Y-31287400D01*
X94925472Y-29712600D01*
X94913212Y-29588118D01*
X94876902Y-29468420D01*
X94817937Y-29358106D01*
X94738585Y-29261415D01*
X94641894Y-29182063D01*
X94531580Y-29123098D01*
X94411882Y-29086788D01*
X94287400Y-29074528D01*
X92712600Y-29074528D01*
X92588118Y-29086788D01*
X92468420Y-29123098D01*
X92358106Y-29182063D01*
X92261415Y-29261415D01*
X92182063Y-29358106D01*
X92123098Y-29468420D01*
X92086788Y-29588118D01*
X92074528Y-29712600D01*
X91082824Y-29712600D01*
X91097000Y-29641335D01*
X91097000Y-29358665D01*
X91041853Y-29081426D01*
X90933680Y-28820273D01*
X90776637Y-28585241D01*
X90576759Y-28385363D01*
X90341727Y-28228320D01*
X90080574Y-28120147D01*
X89803335Y-28065000D01*
X89520665Y-28065000D01*
X89243426Y-28120147D01*
X88982273Y-28228320D01*
X88747241Y-28385363D01*
X88547363Y-28585241D01*
X88390320Y-28820273D01*
X88282147Y-29081426D01*
X88227000Y-29358665D01*
X15739029Y-29358665D01*
X15811553Y-29183579D01*
X15875000Y-28864609D01*
X15875000Y-28539391D01*
X15811553Y-28220421D01*
X15687097Y-27919958D01*
X15506415Y-27649549D01*
X15276451Y-27419585D01*
X15006042Y-27238903D01*
X14705579Y-27114447D01*
X14386609Y-27051000D01*
X14061391Y-27051000D01*
X13742421Y-27114447D01*
X13441958Y-27238903D01*
X13171549Y-27419585D01*
X13135000Y-27456134D01*
X13135000Y-27258665D01*
X13079853Y-26981426D01*
X12971680Y-26720273D01*
X12814637Y-26485241D01*
X12614759Y-26285363D01*
X12379727Y-26128320D01*
X12118574Y-26020147D01*
X11841335Y-25965000D01*
X11558665Y-25965000D01*
X11281426Y-26020147D01*
X11020273Y-26128320D01*
X10785241Y-26285363D01*
X10585363Y-26485241D01*
X10428320Y-26720273D01*
X10320147Y-26981426D01*
X10265000Y-27258665D01*
X1127000Y-27258665D01*
X1127000Y-25745391D01*
X16383000Y-25745391D01*
X16383000Y-26070609D01*
X16446447Y-26389579D01*
X16570903Y-26690042D01*
X16751585Y-26960451D01*
X16981549Y-27190415D01*
X17251958Y-27371097D01*
X17552421Y-27495553D01*
X17871391Y-27559000D01*
X18196609Y-27559000D01*
X18515579Y-27495553D01*
X18816042Y-27371097D01*
X19086451Y-27190415D01*
X19316415Y-26960451D01*
X19497097Y-26690042D01*
X19621553Y-26389579D01*
X19685000Y-26070609D01*
X19685000Y-25745391D01*
X19634477Y-25491391D01*
X36703000Y-25491391D01*
X36703000Y-25816609D01*
X36766447Y-26135579D01*
X36890903Y-26436042D01*
X37071585Y-26706451D01*
X37301549Y-26936415D01*
X37571958Y-27117097D01*
X37872421Y-27241553D01*
X38191391Y-27305000D01*
X38516609Y-27305000D01*
X38835579Y-27241553D01*
X39136042Y-27117097D01*
X39406451Y-26936415D01*
X39636415Y-26706451D01*
X39769422Y-26507391D01*
X47117000Y-26507391D01*
X47117000Y-26832609D01*
X47180447Y-27151579D01*
X47304903Y-27452042D01*
X47485585Y-27722451D01*
X47715549Y-27952415D01*
X47985958Y-28133097D01*
X48286421Y-28257553D01*
X48605391Y-28321000D01*
X48930609Y-28321000D01*
X49249579Y-28257553D01*
X49550042Y-28133097D01*
X49820451Y-27952415D01*
X50050415Y-27722451D01*
X50231097Y-27452042D01*
X50355553Y-27151579D01*
X50419000Y-26832609D01*
X50419000Y-26507391D01*
X52705000Y-26507391D01*
X52705000Y-26832609D01*
X52768447Y-27151579D01*
X52892903Y-27452042D01*
X53073585Y-27722451D01*
X53303549Y-27952415D01*
X53573958Y-28133097D01*
X53874421Y-28257553D01*
X54193391Y-28321000D01*
X54518609Y-28321000D01*
X54837579Y-28257553D01*
X55138042Y-28133097D01*
X55408451Y-27952415D01*
X55638415Y-27722451D01*
X55819097Y-27452042D01*
X55943553Y-27151579D01*
X56007000Y-26832609D01*
X56007000Y-26507391D01*
X55943553Y-26188421D01*
X55906928Y-26100000D01*
X77191928Y-26100000D01*
X77191928Y-27900000D01*
X77204188Y-28024482D01*
X77240498Y-28144180D01*
X77299463Y-28254494D01*
X77378815Y-28351185D01*
X77475506Y-28430537D01*
X77585820Y-28489502D01*
X77705518Y-28525812D01*
X77830000Y-28538072D01*
X79630000Y-28538072D01*
X79754482Y-28525812D01*
X79874180Y-28489502D01*
X79984494Y-28430537D01*
X80081185Y-28351185D01*
X80160537Y-28254494D01*
X80219502Y-28144180D01*
X80225056Y-28125873D01*
X80291495Y-28192312D01*
X80542905Y-28360299D01*
X80822257Y-28476011D01*
X81118816Y-28535000D01*
X81421184Y-28535000D01*
X81717743Y-28476011D01*
X81997095Y-28360299D01*
X82248505Y-28192312D01*
X82462312Y-27978505D01*
X82630299Y-27727095D01*
X82746011Y-27447743D01*
X82805000Y-27151184D01*
X82805000Y-26848816D01*
X82746011Y-26552257D01*
X82630299Y-26272905D01*
X82462312Y-26021495D01*
X82248505Y-25807688D01*
X81997095Y-25639701D01*
X81717743Y-25523989D01*
X81421184Y-25465000D01*
X81118816Y-25465000D01*
X80822257Y-25523989D01*
X80542905Y-25639701D01*
X80291495Y-25807688D01*
X80225056Y-25874127D01*
X80219502Y-25855820D01*
X80160537Y-25745506D01*
X80081185Y-25648815D01*
X79984494Y-25569463D01*
X79874180Y-25510498D01*
X79754482Y-25474188D01*
X79630000Y-25461928D01*
X77830000Y-25461928D01*
X77705518Y-25474188D01*
X77585820Y-25510498D01*
X77475506Y-25569463D01*
X77378815Y-25648815D01*
X77299463Y-25745506D01*
X77240498Y-25855820D01*
X77204188Y-25975518D01*
X77191928Y-26100000D01*
X55906928Y-26100000D01*
X55819097Y-25887958D01*
X55638415Y-25617549D01*
X55408451Y-25387585D01*
X55138042Y-25206903D01*
X54837579Y-25082447D01*
X54518609Y-25019000D01*
X54193391Y-25019000D01*
X53874421Y-25082447D01*
X53573958Y-25206903D01*
X53303549Y-25387585D01*
X53073585Y-25617549D01*
X52892903Y-25887958D01*
X52768447Y-26188421D01*
X52705000Y-26507391D01*
X50419000Y-26507391D01*
X50355553Y-26188421D01*
X50231097Y-25887958D01*
X50050415Y-25617549D01*
X49820451Y-25387585D01*
X49550042Y-25206903D01*
X49249579Y-25082447D01*
X48930609Y-25019000D01*
X48605391Y-25019000D01*
X48286421Y-25082447D01*
X47985958Y-25206903D01*
X47715549Y-25387585D01*
X47485585Y-25617549D01*
X47304903Y-25887958D01*
X47180447Y-26188421D01*
X47117000Y-26507391D01*
X39769422Y-26507391D01*
X39817097Y-26436042D01*
X39941553Y-26135579D01*
X40005000Y-25816609D01*
X40005000Y-25491391D01*
X39941553Y-25172421D01*
X39817097Y-24871958D01*
X39636415Y-24601549D01*
X39406451Y-24371585D01*
X39136042Y-24190903D01*
X38835579Y-24066447D01*
X38516609Y-24003000D01*
X38191391Y-24003000D01*
X37872421Y-24066447D01*
X37571958Y-24190903D01*
X37301549Y-24371585D01*
X37071585Y-24601549D01*
X36890903Y-24871958D01*
X36766447Y-25172421D01*
X36703000Y-25491391D01*
X19634477Y-25491391D01*
X19621553Y-25426421D01*
X19497097Y-25125958D01*
X19316415Y-24855549D01*
X19086451Y-24625585D01*
X18816042Y-24444903D01*
X18515579Y-24320447D01*
X18196609Y-24257000D01*
X17871391Y-24257000D01*
X17552421Y-24320447D01*
X17251958Y-24444903D01*
X16981549Y-24625585D01*
X16751585Y-24855549D01*
X16570903Y-25125958D01*
X16446447Y-25426421D01*
X16383000Y-25745391D01*
X1127000Y-25745391D01*
X1127000Y-21166500D01*
X3028428Y-21166500D01*
X3028428Y-23833500D01*
X3040688Y-23957982D01*
X3076998Y-24077680D01*
X3135963Y-24187994D01*
X3215315Y-24284685D01*
X3312006Y-24364037D01*
X3422320Y-24423002D01*
X3542018Y-24459312D01*
X3666500Y-24471572D01*
X6333500Y-24471572D01*
X6457982Y-24459312D01*
X6577680Y-24423002D01*
X6687994Y-24364037D01*
X6784685Y-24284685D01*
X6864037Y-24187994D01*
X6923002Y-24077680D01*
X6959312Y-23957982D01*
X6971572Y-23833500D01*
X6971572Y-21166500D01*
X6960099Y-21050000D01*
X21011928Y-21050000D01*
X21011928Y-23550000D01*
X21024188Y-23674482D01*
X21060498Y-23794180D01*
X21119463Y-23904494D01*
X21198815Y-24001185D01*
X21295506Y-24080537D01*
X21405820Y-24139502D01*
X21525518Y-24175812D01*
X21650000Y-24188072D01*
X23150000Y-24188072D01*
X23274482Y-24175812D01*
X23394180Y-24139502D01*
X23504494Y-24080537D01*
X23601185Y-24001185D01*
X23680537Y-23904494D01*
X23739502Y-23794180D01*
X23775812Y-23674482D01*
X23785473Y-23576392D01*
X23955920Y-23784081D01*
X24166813Y-23957157D01*
X24407420Y-24085764D01*
X24668494Y-24164960D01*
X24940000Y-24191701D01*
X25211507Y-24164960D01*
X25472581Y-24085764D01*
X25713188Y-23957157D01*
X25924081Y-23784081D01*
X26097157Y-23573188D01*
X26210000Y-23362073D01*
X26322843Y-23573188D01*
X26495920Y-23784081D01*
X26706813Y-23957157D01*
X26947420Y-24085764D01*
X27208494Y-24164960D01*
X27480000Y-24191701D01*
X27751507Y-24164960D01*
X28012581Y-24085764D01*
X28253188Y-23957157D01*
X28464081Y-23784081D01*
X28637157Y-23573188D01*
X28765764Y-23332581D01*
X28844960Y-23071507D01*
X28865000Y-22868037D01*
X28865000Y-21731963D01*
X28844960Y-21528493D01*
X28765764Y-21267419D01*
X28637157Y-21026812D01*
X28464080Y-20815919D01*
X28253187Y-20642843D01*
X28012580Y-20514236D01*
X27751506Y-20435040D01*
X27480000Y-20408299D01*
X27208493Y-20435040D01*
X26947419Y-20514236D01*
X26706812Y-20642843D01*
X26495919Y-20815920D01*
X26322843Y-21026813D01*
X26210000Y-21237927D01*
X26097157Y-21026812D01*
X25924080Y-20815919D01*
X25713187Y-20642843D01*
X25472580Y-20514236D01*
X25211506Y-20435040D01*
X24940000Y-20408299D01*
X24668493Y-20435040D01*
X24407419Y-20514236D01*
X24166812Y-20642843D01*
X23955919Y-20815920D01*
X23785473Y-21023609D01*
X23775812Y-20925518D01*
X23739502Y-20805820D01*
X23680537Y-20695506D01*
X23601185Y-20598815D01*
X23504494Y-20519463D01*
X23394180Y-20460498D01*
X23274482Y-20424188D01*
X23150000Y-20411928D01*
X21650000Y-20411928D01*
X21525518Y-20424188D01*
X21405820Y-20460498D01*
X21295506Y-20519463D01*
X21198815Y-20598815D01*
X21119463Y-20695506D01*
X21060498Y-20805820D01*
X21024188Y-20925518D01*
X21011928Y-21050000D01*
X6960099Y-21050000D01*
X6959312Y-21042018D01*
X6923002Y-20922320D01*
X6864037Y-20812006D01*
X6784685Y-20715315D01*
X6687994Y-20635963D01*
X6577680Y-20576998D01*
X6457982Y-20540688D01*
X6333500Y-20528428D01*
X3666500Y-20528428D01*
X3542018Y-20540688D01*
X3422320Y-20576998D01*
X3312006Y-20635963D01*
X3215315Y-20715315D01*
X3135963Y-20812006D01*
X3076998Y-20922320D01*
X3040688Y-21042018D01*
X3028428Y-21166500D01*
X1127000Y-21166500D01*
X1127000Y-19903391D01*
X52705000Y-19903391D01*
X52705000Y-20228609D01*
X52768447Y-20547579D01*
X52892903Y-20848042D01*
X53073585Y-21118451D01*
X53291134Y-21336000D01*
X53073585Y-21553549D01*
X52892903Y-21823958D01*
X52768447Y-22124421D01*
X52705000Y-22443391D01*
X52705000Y-22768609D01*
X52768447Y-23087579D01*
X52892903Y-23388042D01*
X53073585Y-23658451D01*
X53303549Y-23888415D01*
X53573958Y-24069097D01*
X53874421Y-24193553D01*
X54193391Y-24257000D01*
X54518609Y-24257000D01*
X54837579Y-24193553D01*
X55138042Y-24069097D01*
X55408451Y-23888415D01*
X55638415Y-23658451D01*
X55819097Y-23388042D01*
X55943553Y-23087579D01*
X56007000Y-22768609D01*
X56007000Y-22443391D01*
X55943553Y-22124421D01*
X55819097Y-21823958D01*
X55638415Y-21553549D01*
X55420866Y-21336000D01*
X55638415Y-21118451D01*
X55819097Y-20848042D01*
X55943553Y-20547579D01*
X56002745Y-20250000D01*
X77411928Y-20250000D01*
X77411928Y-21750000D01*
X77424188Y-21874482D01*
X77460498Y-21994180D01*
X77519463Y-22104494D01*
X77598815Y-22201185D01*
X77695506Y-22280537D01*
X77805820Y-22339502D01*
X77925518Y-22375812D01*
X78050000Y-22388072D01*
X79550000Y-22388072D01*
X79674482Y-22375812D01*
X79794180Y-22339502D01*
X79904494Y-22280537D01*
X80001185Y-22201185D01*
X80080537Y-22104494D01*
X80139502Y-21994180D01*
X80175812Y-21874482D01*
X80188072Y-21750000D01*
X80188072Y-20858665D01*
X85565000Y-20858665D01*
X85565000Y-21141335D01*
X85620147Y-21418574D01*
X85728320Y-21679727D01*
X85885363Y-21914759D01*
X86085241Y-22114637D01*
X86320273Y-22271680D01*
X86581426Y-22379853D01*
X86858665Y-22435000D01*
X87141335Y-22435000D01*
X87418574Y-22379853D01*
X87679727Y-22271680D01*
X87914759Y-22114637D01*
X88114637Y-21914759D01*
X88271680Y-21679727D01*
X88379853Y-21418574D01*
X88435000Y-21141335D01*
X88435000Y-20858665D01*
X88379853Y-20581426D01*
X88271680Y-20320273D01*
X88114637Y-20085241D01*
X87914759Y-19885363D01*
X87679727Y-19728320D01*
X87418574Y-19620147D01*
X87141335Y-19565000D01*
X86858665Y-19565000D01*
X86581426Y-19620147D01*
X86320273Y-19728320D01*
X86085241Y-19885363D01*
X85885363Y-20085241D01*
X85728320Y-20320273D01*
X85620147Y-20581426D01*
X85565000Y-20858665D01*
X80188072Y-20858665D01*
X80188072Y-20250000D01*
X80175812Y-20125518D01*
X80139502Y-20005820D01*
X80080537Y-19895506D01*
X80001185Y-19798815D01*
X79904494Y-19719463D01*
X79794180Y-19660498D01*
X79674482Y-19624188D01*
X79566517Y-19613555D01*
X79682886Y-19535799D01*
X79875799Y-19342886D01*
X80027371Y-19116043D01*
X80131775Y-18863989D01*
X80185000Y-18596411D01*
X80185000Y-18323589D01*
X80131775Y-18056011D01*
X80027371Y-17803957D01*
X79875799Y-17577114D01*
X79682886Y-17384201D01*
X79456043Y-17232629D01*
X79353127Y-17190000D01*
X79456043Y-17147371D01*
X79682886Y-16995799D01*
X79875799Y-16802886D01*
X80027371Y-16576043D01*
X80131775Y-16323989D01*
X80185000Y-16056411D01*
X80185000Y-15858665D01*
X86865000Y-15858665D01*
X86865000Y-16141335D01*
X86920147Y-16418574D01*
X87028320Y-16679727D01*
X87185363Y-16914759D01*
X87385241Y-17114637D01*
X87620273Y-17271680D01*
X87881426Y-17379853D01*
X88158665Y-17435000D01*
X88441335Y-17435000D01*
X88718574Y-17379853D01*
X88979727Y-17271680D01*
X89214759Y-17114637D01*
X89414637Y-16914759D01*
X89549715Y-16712600D01*
X92074528Y-16712600D01*
X92074528Y-18287400D01*
X92086788Y-18411882D01*
X92123098Y-18531580D01*
X92182063Y-18641894D01*
X92261415Y-18738585D01*
X92358106Y-18817937D01*
X92468420Y-18876902D01*
X92588118Y-18913212D01*
X92589659Y-18913364D01*
X92395150Y-19107873D01*
X92239486Y-19340841D01*
X92132262Y-19599701D01*
X92077600Y-19874506D01*
X92077600Y-20154694D01*
X92132262Y-20429499D01*
X92239486Y-20688359D01*
X92395150Y-20921327D01*
X92593273Y-21119450D01*
X92826241Y-21275114D01*
X93085101Y-21382338D01*
X93359906Y-21437000D01*
X93640094Y-21437000D01*
X93914899Y-21382338D01*
X94173759Y-21275114D01*
X94406727Y-21119450D01*
X94604850Y-20921327D01*
X94760514Y-20688359D01*
X94867738Y-20429499D01*
X94922400Y-20154694D01*
X94922400Y-19874506D01*
X94867738Y-19599701D01*
X94760514Y-19340841D01*
X94604850Y-19107873D01*
X94410341Y-18913364D01*
X94411882Y-18913212D01*
X94531580Y-18876902D01*
X94641894Y-18817937D01*
X94738585Y-18738585D01*
X94817937Y-18641894D01*
X94876902Y-18531580D01*
X94913212Y-18411882D01*
X94925472Y-18287400D01*
X94925472Y-16712600D01*
X94913212Y-16588118D01*
X94876902Y-16468420D01*
X94817937Y-16358106D01*
X94738585Y-16261415D01*
X94641894Y-16182063D01*
X94531580Y-16123098D01*
X94411882Y-16086788D01*
X94287400Y-16074528D01*
X92712600Y-16074528D01*
X92588118Y-16086788D01*
X92468420Y-16123098D01*
X92358106Y-16182063D01*
X92261415Y-16261415D01*
X92182063Y-16358106D01*
X92123098Y-16468420D01*
X92086788Y-16588118D01*
X92074528Y-16712600D01*
X89549715Y-16712600D01*
X89571680Y-16679727D01*
X89679853Y-16418574D01*
X89735000Y-16141335D01*
X89735000Y-15858665D01*
X89679853Y-15581426D01*
X89571680Y-15320273D01*
X89414637Y-15085241D01*
X89214759Y-14885363D01*
X88979727Y-14728320D01*
X88718574Y-14620147D01*
X88441335Y-14565000D01*
X88158665Y-14565000D01*
X87881426Y-14620147D01*
X87620273Y-14728320D01*
X87385241Y-14885363D01*
X87185363Y-15085241D01*
X87028320Y-15320273D01*
X86920147Y-15581426D01*
X86865000Y-15858665D01*
X80185000Y-15858665D01*
X80185000Y-15783589D01*
X80131775Y-15516011D01*
X80027371Y-15263957D01*
X79875799Y-15037114D01*
X79682886Y-14844201D01*
X79456043Y-14692629D01*
X79203989Y-14588225D01*
X78936411Y-14535000D01*
X78663589Y-14535000D01*
X78396011Y-14588225D01*
X78143957Y-14692629D01*
X77917114Y-14844201D01*
X77724201Y-15037114D01*
X77572629Y-15263957D01*
X77468225Y-15516011D01*
X77415000Y-15783589D01*
X77415000Y-16056411D01*
X77468225Y-16323989D01*
X77572629Y-16576043D01*
X77724201Y-16802886D01*
X77917114Y-16995799D01*
X78143957Y-17147371D01*
X78246873Y-17190000D01*
X78143957Y-17232629D01*
X77917114Y-17384201D01*
X77724201Y-17577114D01*
X77572629Y-17803957D01*
X77468225Y-18056011D01*
X77415000Y-18323589D01*
X77415000Y-18596411D01*
X77468225Y-18863989D01*
X77572629Y-19116043D01*
X77724201Y-19342886D01*
X77917114Y-19535799D01*
X78033483Y-19613555D01*
X77925518Y-19624188D01*
X77805820Y-19660498D01*
X77695506Y-19719463D01*
X77598815Y-19798815D01*
X77519463Y-19895506D01*
X77460498Y-20005820D01*
X77424188Y-20125518D01*
X77411928Y-20250000D01*
X56002745Y-20250000D01*
X56007000Y-20228609D01*
X56007000Y-19903391D01*
X55943553Y-19584421D01*
X55819097Y-19283958D01*
X55638415Y-19013549D01*
X55408451Y-18783585D01*
X55138042Y-18602903D01*
X54837579Y-18478447D01*
X54518609Y-18415000D01*
X54193391Y-18415000D01*
X53874421Y-18478447D01*
X53573958Y-18602903D01*
X53303549Y-18783585D01*
X53073585Y-19013549D01*
X52892903Y-19283958D01*
X52768447Y-19584421D01*
X52705000Y-19903391D01*
X1127000Y-19903391D01*
X1127000Y-17302320D01*
X3031500Y-17302320D01*
X3031500Y-17690080D01*
X3107148Y-18070390D01*
X3255538Y-18428635D01*
X3470966Y-18751046D01*
X3745154Y-19025234D01*
X4067565Y-19240662D01*
X4425810Y-19389052D01*
X4806120Y-19464700D01*
X5193880Y-19464700D01*
X5574190Y-19389052D01*
X5932435Y-19240662D01*
X6254846Y-19025234D01*
X6529034Y-18751046D01*
X6744462Y-18428635D01*
X6892852Y-18070390D01*
X6968500Y-17690080D01*
X6968500Y-17302320D01*
X6892852Y-16922010D01*
X6744462Y-16563765D01*
X6529034Y-16241354D01*
X6254846Y-15967166D01*
X5932435Y-15751738D01*
X5777088Y-15687391D01*
X47219000Y-15687391D01*
X47219000Y-16012609D01*
X47282447Y-16331579D01*
X47406903Y-16632042D01*
X47587585Y-16902451D01*
X47817549Y-17132415D01*
X48087958Y-17313097D01*
X48388421Y-17437553D01*
X48707391Y-17501000D01*
X49032609Y-17501000D01*
X49351579Y-17437553D01*
X49652042Y-17313097D01*
X49922451Y-17132415D01*
X50152415Y-16902451D01*
X50333097Y-16632042D01*
X50457553Y-16331579D01*
X50521000Y-16012609D01*
X50521000Y-15687391D01*
X50500711Y-15585391D01*
X52705000Y-15585391D01*
X52705000Y-15910609D01*
X52768447Y-16229579D01*
X52892903Y-16530042D01*
X53073585Y-16800451D01*
X53303549Y-17030415D01*
X53573958Y-17211097D01*
X53874421Y-17335553D01*
X54193391Y-17399000D01*
X54518609Y-17399000D01*
X54837579Y-17335553D01*
X55138042Y-17211097D01*
X55408451Y-17030415D01*
X55638415Y-16800451D01*
X55819097Y-16530042D01*
X55943553Y-16229579D01*
X56007000Y-15910609D01*
X56007000Y-15585391D01*
X55943553Y-15266421D01*
X55819097Y-14965958D01*
X55638415Y-14695549D01*
X55408451Y-14465585D01*
X55138042Y-14284903D01*
X54837579Y-14160447D01*
X54518609Y-14097000D01*
X54193391Y-14097000D01*
X53874421Y-14160447D01*
X53573958Y-14284903D01*
X53303549Y-14465585D01*
X53073585Y-14695549D01*
X52892903Y-14965958D01*
X52768447Y-15266421D01*
X52705000Y-15585391D01*
X50500711Y-15585391D01*
X50457553Y-15368421D01*
X50333097Y-15067958D01*
X50152415Y-14797549D01*
X49922451Y-14567585D01*
X49652042Y-14386903D01*
X49351579Y-14262447D01*
X49032609Y-14199000D01*
X48707391Y-14199000D01*
X48388421Y-14262447D01*
X48087958Y-14386903D01*
X47817549Y-14567585D01*
X47587585Y-14797549D01*
X47406903Y-15067958D01*
X47282447Y-15368421D01*
X47219000Y-15687391D01*
X5777088Y-15687391D01*
X5574190Y-15603348D01*
X5193880Y-15527700D01*
X4806120Y-15527700D01*
X4425810Y-15603348D01*
X4067565Y-15751738D01*
X3745154Y-15967166D01*
X3470966Y-16241354D01*
X3255538Y-16563765D01*
X3107148Y-16922010D01*
X3031500Y-17302320D01*
X1127000Y-17302320D01*
X1127000Y-11368514D01*
X3585000Y-11368514D01*
X3585000Y-11631486D01*
X3636304Y-11889405D01*
X3736939Y-12132359D01*
X3883038Y-12351013D01*
X4068987Y-12536962D01*
X4287641Y-12683061D01*
X4530595Y-12783696D01*
X4788514Y-12835000D01*
X5051486Y-12835000D01*
X5309405Y-12783696D01*
X5552359Y-12683061D01*
X5771013Y-12536962D01*
X5956962Y-12351013D01*
X6103061Y-12132359D01*
X6203696Y-11889405D01*
X6255000Y-11631486D01*
X6255000Y-11368514D01*
X8665000Y-11368514D01*
X8665000Y-11631486D01*
X8716304Y-11889405D01*
X8816939Y-12132359D01*
X8963038Y-12351013D01*
X9148987Y-12536962D01*
X9367641Y-12683061D01*
X9610595Y-12783696D01*
X9868514Y-12835000D01*
X10131486Y-12835000D01*
X10389405Y-12783696D01*
X10632359Y-12683061D01*
X10851013Y-12536962D01*
X11036962Y-12351013D01*
X11183061Y-12132359D01*
X11283696Y-11889405D01*
X11335000Y-11631486D01*
X11335000Y-11368514D01*
X11283696Y-11110595D01*
X11183061Y-10867641D01*
X11036962Y-10648987D01*
X10851013Y-10463038D01*
X10632359Y-10316939D01*
X10389405Y-10216304D01*
X10131486Y-10165000D01*
X9868514Y-10165000D01*
X9610595Y-10216304D01*
X9367641Y-10316939D01*
X9148987Y-10463038D01*
X8963038Y-10648987D01*
X8816939Y-10867641D01*
X8716304Y-11110595D01*
X8665000Y-11368514D01*
X6255000Y-11368514D01*
X6203696Y-11110595D01*
X6103061Y-10867641D01*
X5956962Y-10648987D01*
X5771013Y-10463038D01*
X5552359Y-10316939D01*
X5309405Y-10216304D01*
X5051486Y-10165000D01*
X4788514Y-10165000D01*
X4530595Y-10216304D01*
X4287641Y-10316939D01*
X4068987Y-10463038D01*
X3883038Y-10648987D01*
X3736939Y-10867641D01*
X3636304Y-11110595D01*
X3585000Y-11368514D01*
X1127000Y-11368514D01*
X1127000Y-9100000D01*
X27191928Y-9100000D01*
X27191928Y-10900000D01*
X27204188Y-11024482D01*
X27240498Y-11144180D01*
X27299463Y-11254494D01*
X27378815Y-11351185D01*
X27475506Y-11430537D01*
X27585820Y-11489502D01*
X27705518Y-11525812D01*
X27830000Y-11538072D01*
X29630000Y-11538072D01*
X29754482Y-11525812D01*
X29874180Y-11489502D01*
X29984494Y-11430537D01*
X30081185Y-11351185D01*
X30160537Y-11254494D01*
X30219502Y-11144180D01*
X30222813Y-11133265D01*
X30269578Y-11180030D01*
X30385526Y-11064082D01*
X30469208Y-11318261D01*
X30741775Y-11449158D01*
X31034642Y-11524365D01*
X31336553Y-11540991D01*
X31635907Y-11498397D01*
X31921199Y-11398222D01*
X32070792Y-11318261D01*
X32154475Y-11064080D01*
X31270000Y-10179605D01*
X31255858Y-10193748D01*
X31076253Y-10014143D01*
X31090395Y-10000000D01*
X31449605Y-10000000D01*
X32334080Y-10884475D01*
X32588261Y-10800792D01*
X32719158Y-10528225D01*
X32794365Y-10235358D01*
X32810991Y-9933447D01*
X32768397Y-9634093D01*
X32668222Y-9348801D01*
X32588261Y-9199208D01*
X32334080Y-9115525D01*
X31449605Y-10000000D01*
X31090395Y-10000000D01*
X31076253Y-9985858D01*
X31255858Y-9806253D01*
X31270000Y-9820395D01*
X31990395Y-9100000D01*
X42161928Y-9100000D01*
X42161928Y-10900000D01*
X42174188Y-11024482D01*
X42210498Y-11144180D01*
X42269463Y-11254494D01*
X42348815Y-11351185D01*
X42445506Y-11430537D01*
X42555820Y-11489502D01*
X42675518Y-11525812D01*
X42800000Y-11538072D01*
X44600000Y-11538072D01*
X44724482Y-11525812D01*
X44844180Y-11489502D01*
X44954494Y-11430537D01*
X45051185Y-11351185D01*
X45130537Y-11254494D01*
X45189502Y-11144180D01*
X45195056Y-11125873D01*
X45261495Y-11192312D01*
X45512905Y-11360299D01*
X45792257Y-11476011D01*
X46088816Y-11535000D01*
X46391184Y-11535000D01*
X46687743Y-11476011D01*
X46967095Y-11360299D01*
X47218505Y-11192312D01*
X47432312Y-10978505D01*
X47600299Y-10727095D01*
X47716011Y-10447743D01*
X47775000Y-10151184D01*
X47775000Y-9848816D01*
X47716011Y-9552257D01*
X47600299Y-9272905D01*
X47432312Y-9021495D01*
X47218505Y-8807688D01*
X46967095Y-8639701D01*
X46687743Y-8523989D01*
X46391184Y-8465000D01*
X46088816Y-8465000D01*
X45792257Y-8523989D01*
X45512905Y-8639701D01*
X45261495Y-8807688D01*
X45195056Y-8874127D01*
X45189502Y-8855820D01*
X45130537Y-8745506D01*
X45051185Y-8648815D01*
X44954494Y-8569463D01*
X44844180Y-8510498D01*
X44724482Y-8474188D01*
X44600000Y-8461928D01*
X42800000Y-8461928D01*
X42675518Y-8474188D01*
X42555820Y-8510498D01*
X42445506Y-8569463D01*
X42348815Y-8648815D01*
X42269463Y-8745506D01*
X42210498Y-8855820D01*
X42174188Y-8975518D01*
X42161928Y-9100000D01*
X31990395Y-9100000D01*
X32154475Y-8935920D01*
X32070792Y-8681739D01*
X31798225Y-8550842D01*
X31505358Y-8475635D01*
X31203447Y-8459009D01*
X30904093Y-8501603D01*
X30618801Y-8601778D01*
X30469208Y-8681739D01*
X30385526Y-8935918D01*
X30269578Y-8819970D01*
X30222813Y-8866735D01*
X30219502Y-8855820D01*
X30160537Y-8745506D01*
X30081185Y-8648815D01*
X29984494Y-8569463D01*
X29874180Y-8510498D01*
X29754482Y-8474188D01*
X29630000Y-8461928D01*
X27830000Y-8461928D01*
X27705518Y-8474188D01*
X27585820Y-8510498D01*
X27475506Y-8569463D01*
X27378815Y-8648815D01*
X27299463Y-8745506D01*
X27240498Y-8855820D01*
X27204188Y-8975518D01*
X27191928Y-9100000D01*
X1127000Y-9100000D01*
X1127000Y-4779872D01*
X2765000Y-4779872D01*
X2765000Y-5220128D01*
X2850890Y-5651925D01*
X3019369Y-6058669D01*
X3263962Y-6424729D01*
X3575271Y-6736038D01*
X3941331Y-6980631D01*
X4348075Y-7149110D01*
X4779872Y-7235000D01*
X5220128Y-7235000D01*
X5651925Y-7149110D01*
X6058669Y-6980631D01*
X6424729Y-6736038D01*
X6736038Y-6424729D01*
X6980631Y-6058669D01*
X7032522Y-5933391D01*
X21971000Y-5933391D01*
X21971000Y-6258609D01*
X22034447Y-6577579D01*
X22158903Y-6878042D01*
X22339585Y-7148451D01*
X22569549Y-7378415D01*
X22839958Y-7559097D01*
X23140421Y-7683553D01*
X23459391Y-7747000D01*
X23784609Y-7747000D01*
X24103579Y-7683553D01*
X24404042Y-7559097D01*
X24674451Y-7378415D01*
X24904415Y-7148451D01*
X25085097Y-6878042D01*
X25209553Y-6577579D01*
X25273000Y-6258609D01*
X25273000Y-5933391D01*
X25209553Y-5614421D01*
X25085097Y-5313958D01*
X24904415Y-5043549D01*
X24674451Y-4813585D01*
X24404042Y-4632903D01*
X24103579Y-4508447D01*
X23784609Y-4445000D01*
X23459391Y-4445000D01*
X23140421Y-4508447D01*
X22839958Y-4632903D01*
X22569549Y-4813585D01*
X22339585Y-5043549D01*
X22158903Y-5313958D01*
X22034447Y-5614421D01*
X21971000Y-5933391D01*
X7032522Y-5933391D01*
X7149110Y-5651925D01*
X7235000Y-5220128D01*
X7235000Y-4779872D01*
X7149110Y-4348075D01*
X6980631Y-3941331D01*
X6736038Y-3575271D01*
X6554158Y-3393391D01*
X37211000Y-3393391D01*
X37211000Y-3718609D01*
X37274447Y-4037579D01*
X37398903Y-4338042D01*
X37579585Y-4608451D01*
X37809549Y-4838415D01*
X38079958Y-5019097D01*
X38380421Y-5143553D01*
X38699391Y-5207000D01*
X39024609Y-5207000D01*
X39343579Y-5143553D01*
X39644042Y-5019097D01*
X39914451Y-4838415D01*
X40144415Y-4608451D01*
X40325097Y-4338042D01*
X40449553Y-4037579D01*
X40513000Y-3718609D01*
X40513000Y-3393391D01*
X40449553Y-3074421D01*
X40325097Y-2773958D01*
X40144415Y-2503549D01*
X39914451Y-2273585D01*
X39644042Y-2092903D01*
X39343579Y-1968447D01*
X39024609Y-1905000D01*
X38699391Y-1905000D01*
X38380421Y-1968447D01*
X38079958Y-2092903D01*
X37809549Y-2273585D01*
X37579585Y-2503549D01*
X37398903Y-2773958D01*
X37274447Y-3074421D01*
X37211000Y-3393391D01*
X6554158Y-3393391D01*
X6424729Y-3263962D01*
X6058669Y-3019369D01*
X5651925Y-2850890D01*
X5220128Y-2765000D01*
X4779872Y-2765000D01*
X4348075Y-2850890D01*
X3941331Y-3019369D01*
X3575271Y-3263962D01*
X3263962Y-3575271D01*
X3019369Y-3941331D01*
X2850890Y-4348075D01*
X2765000Y-4779872D01*
X1127000Y-4779872D01*
X1127000Y-1127000D01*
X62873000Y-1127000D01*
X62873000Y-6000000D01*
G37*
%TD.AperFunction*%
%TD*%
M02*
