M48
; DRILL file {KiCad (5.1.9)-1} date 11/25/22 22:29:44
; FORMAT={-:-/ absolute / inch / decimal}
; #@! TF.CreationDate,2022-11-25T22:29:44+01:00
; #@! TF.GenerationSoftware,Kicad,Pcbnew,(5.1.9)-1
; #@! TF.FileFunction,Plated,1,4,PTH
FMAT,2
INCH
T1C0.0150
T2C0.0236
T3C0.0276
T4C0.0300
T5C0.0315
T6C0.0340
T7C0.0354
T8C0.0394
T9C0.0410
T10C0.0500
%
G90
G05
T1
X1.04Y-1.84
X1.09Y-1.59
X1.62Y-2.25
X1.7Y-2.36
X1.72Y-1.89
X1.83Y-1.83
X1.85Y-2.4
X1.99Y-2.4
X2.09Y-2.39
X2.1Y-1.86
X2.16Y-2.1373
X2.17Y-1.86
X2.18Y-2.32
X2.53Y-2.11
X3.04Y-2.79
X3.33Y-2.32
T2
X0.4094Y-1.2756
X0.4094Y-1.6732
X0.4606Y-1.0787
X0.4606Y-1.4764
X3.4252Y-0.8268
X3.4764Y-0.6299
X3.4788Y-1.3583
X3.4788Y-1.7969
X3.4788Y-2.2669
X3.53Y-1.1614
X3.53Y-1.6
X3.53Y-2.07
T3
X0.1937Y-0.4528
X0.3937Y-0.4528
T4
X0.51Y-2.36
X0.67Y-2.45
X0.71Y-1.02
X0.79Y-2.85
X0.93Y-0.24
X1.5Y-1.33
X1.51Y-1.01
X1.53Y-0.14
X1.6Y-0.6
X1.69Y-0.64
X1.78Y-0.58
X1.92Y-1.05
X1.924Y-0.624
X2.14Y-0.62
X2.14Y-0.79
X2.14Y-0.89
X2.14Y-1.05
X3.3Y-0.58
X3.34Y-1.18
X3.34Y-1.67
X3.35Y-2.12
T5
X2.29Y-2.0
X2.29Y-2.1929
X3.1024Y-0.6268
X3.1024Y-0.7268
X3.1024Y-0.8268
T6
X0.2559Y-1.2784
X0.2559Y-1.3774
X0.2559Y-1.4764
X3.6811Y-0.689
X3.6811Y-0.788
X3.6811Y-1.2008
X3.6811Y-1.2998
X3.6811Y-1.6339
X3.6811Y-1.7329
X3.6811Y-2.1063
X3.6811Y-2.2053
T7
X0.7374Y-1.378
X0.8374Y-1.378
X1.1311Y-0.3937
X1.2311Y-0.3937
X1.7205Y-0.3937
X1.8205Y-0.3937
X3.0996Y-1.063
X3.0996Y-1.5354
X3.0996Y-2.0079
X3.1996Y-1.063
X3.1996Y-1.5354
X3.1996Y-2.0079
T8
X0.8819Y-0.878
X0.9819Y-0.878
X1.0819Y-0.878
T9
X1.992Y-2.78
X1.992Y-2.879
X2.091Y-2.78
X2.091Y-2.879
X2.19Y-2.78
X2.19Y-2.879
T10
X0.1969Y-0.6888
X0.1969Y-0.8858
X0.9351Y-2.4609
X0.9351Y-2.6579
X1.4271Y-2.4609
X1.4271Y-2.6579
T0
M30
