G04 #@! TF.GenerationSoftware,KiCad,Pcbnew,(5.1.9)-1*
G04 #@! TF.CreationDate,2022-11-25T22:29:39+01:00*
G04 #@! TF.ProjectId,PCDB_project,50434442-5f70-4726-9f6a-6563742e6b69,rev?*
G04 #@! TF.SameCoordinates,Original*
G04 #@! TF.FileFunction,Paste,Top*
G04 #@! TF.FilePolarity,Positive*
%FSLAX46Y46*%
G04 Gerber Fmt 4.6, Leading zero omitted, Abs format (unit mm)*
G04 Created by KiCad (PCBNEW (5.1.9)-1) date 2022-11-25 22:29:39*
%MOMM*%
%LPD*%
G01*
G04 APERTURE LIST*
%ADD10R,0.600000X0.450000*%
%ADD11R,2.500000X2.000000*%
%ADD12R,2.500000X0.500000*%
%ADD13R,1.905000X1.498600*%
%ADD14R,0.800000X0.900000*%
%ADD15R,0.900000X0.800000*%
%ADD16R,2.000000X3.800000*%
%ADD17R,2.000000X1.500000*%
G04 APERTURE END LIST*
G36*
G01*
X77926000Y-62584000D02*
X77926000Y-62284000D01*
G75*
G02*
X78076000Y-62134000I150000J0D01*
G01*
X79726000Y-62134000D01*
G75*
G02*
X79876000Y-62284000I0J-150000D01*
G01*
X79876000Y-62584000D01*
G75*
G02*
X79726000Y-62734000I-150000J0D01*
G01*
X78076000Y-62734000D01*
G75*
G02*
X77926000Y-62584000I0J150000D01*
G01*
G37*
G36*
G01*
X77926000Y-63854000D02*
X77926000Y-63554000D01*
G75*
G02*
X78076000Y-63404000I150000J0D01*
G01*
X79726000Y-63404000D01*
G75*
G02*
X79876000Y-63554000I0J-150000D01*
G01*
X79876000Y-63854000D01*
G75*
G02*
X79726000Y-64004000I-150000J0D01*
G01*
X78076000Y-64004000D01*
G75*
G02*
X77926000Y-63854000I0J150000D01*
G01*
G37*
G36*
G01*
X77926000Y-65124000D02*
X77926000Y-64824000D01*
G75*
G02*
X78076000Y-64674000I150000J0D01*
G01*
X79726000Y-64674000D01*
G75*
G02*
X79876000Y-64824000I0J-150000D01*
G01*
X79876000Y-65124000D01*
G75*
G02*
X79726000Y-65274000I-150000J0D01*
G01*
X78076000Y-65274000D01*
G75*
G02*
X77926000Y-65124000I0J150000D01*
G01*
G37*
G36*
G01*
X77926000Y-66394000D02*
X77926000Y-66094000D01*
G75*
G02*
X78076000Y-65944000I150000J0D01*
G01*
X79726000Y-65944000D01*
G75*
G02*
X79876000Y-66094000I0J-150000D01*
G01*
X79876000Y-66394000D01*
G75*
G02*
X79726000Y-66544000I-150000J0D01*
G01*
X78076000Y-66544000D01*
G75*
G02*
X77926000Y-66394000I0J150000D01*
G01*
G37*
G36*
G01*
X77926000Y-67664000D02*
X77926000Y-67364000D01*
G75*
G02*
X78076000Y-67214000I150000J0D01*
G01*
X79726000Y-67214000D01*
G75*
G02*
X79876000Y-67364000I0J-150000D01*
G01*
X79876000Y-67664000D01*
G75*
G02*
X79726000Y-67814000I-150000J0D01*
G01*
X78076000Y-67814000D01*
G75*
G02*
X77926000Y-67664000I0J150000D01*
G01*
G37*
G36*
G01*
X77926000Y-68934000D02*
X77926000Y-68634000D01*
G75*
G02*
X78076000Y-68484000I150000J0D01*
G01*
X79726000Y-68484000D01*
G75*
G02*
X79876000Y-68634000I0J-150000D01*
G01*
X79876000Y-68934000D01*
G75*
G02*
X79726000Y-69084000I-150000J0D01*
G01*
X78076000Y-69084000D01*
G75*
G02*
X77926000Y-68934000I0J150000D01*
G01*
G37*
G36*
G01*
X77926000Y-70204000D02*
X77926000Y-69904000D01*
G75*
G02*
X78076000Y-69754000I150000J0D01*
G01*
X79726000Y-69754000D01*
G75*
G02*
X79876000Y-69904000I0J-150000D01*
G01*
X79876000Y-70204000D01*
G75*
G02*
X79726000Y-70354000I-150000J0D01*
G01*
X78076000Y-70354000D01*
G75*
G02*
X77926000Y-70204000I0J150000D01*
G01*
G37*
G36*
G01*
X82876000Y-70204000D02*
X82876000Y-69904000D01*
G75*
G02*
X83026000Y-69754000I150000J0D01*
G01*
X84676000Y-69754000D01*
G75*
G02*
X84826000Y-69904000I0J-150000D01*
G01*
X84826000Y-70204000D01*
G75*
G02*
X84676000Y-70354000I-150000J0D01*
G01*
X83026000Y-70354000D01*
G75*
G02*
X82876000Y-70204000I0J150000D01*
G01*
G37*
G36*
G01*
X82876000Y-68934000D02*
X82876000Y-68634000D01*
G75*
G02*
X83026000Y-68484000I150000J0D01*
G01*
X84676000Y-68484000D01*
G75*
G02*
X84826000Y-68634000I0J-150000D01*
G01*
X84826000Y-68934000D01*
G75*
G02*
X84676000Y-69084000I-150000J0D01*
G01*
X83026000Y-69084000D01*
G75*
G02*
X82876000Y-68934000I0J150000D01*
G01*
G37*
G36*
G01*
X82876000Y-67664000D02*
X82876000Y-67364000D01*
G75*
G02*
X83026000Y-67214000I150000J0D01*
G01*
X84676000Y-67214000D01*
G75*
G02*
X84826000Y-67364000I0J-150000D01*
G01*
X84826000Y-67664000D01*
G75*
G02*
X84676000Y-67814000I-150000J0D01*
G01*
X83026000Y-67814000D01*
G75*
G02*
X82876000Y-67664000I0J150000D01*
G01*
G37*
G36*
G01*
X82876000Y-66394000D02*
X82876000Y-66094000D01*
G75*
G02*
X83026000Y-65944000I150000J0D01*
G01*
X84676000Y-65944000D01*
G75*
G02*
X84826000Y-66094000I0J-150000D01*
G01*
X84826000Y-66394000D01*
G75*
G02*
X84676000Y-66544000I-150000J0D01*
G01*
X83026000Y-66544000D01*
G75*
G02*
X82876000Y-66394000I0J150000D01*
G01*
G37*
G36*
G01*
X82876000Y-65124000D02*
X82876000Y-64824000D01*
G75*
G02*
X83026000Y-64674000I150000J0D01*
G01*
X84676000Y-64674000D01*
G75*
G02*
X84826000Y-64824000I0J-150000D01*
G01*
X84826000Y-65124000D01*
G75*
G02*
X84676000Y-65274000I-150000J0D01*
G01*
X83026000Y-65274000D01*
G75*
G02*
X82876000Y-65124000I0J150000D01*
G01*
G37*
G36*
G01*
X82876000Y-63854000D02*
X82876000Y-63554000D01*
G75*
G02*
X83026000Y-63404000I150000J0D01*
G01*
X84676000Y-63404000D01*
G75*
G02*
X84826000Y-63554000I0J-150000D01*
G01*
X84826000Y-63854000D01*
G75*
G02*
X84676000Y-64004000I-150000J0D01*
G01*
X83026000Y-64004000D01*
G75*
G02*
X82876000Y-63854000I0J150000D01*
G01*
G37*
G36*
G01*
X82876000Y-62584000D02*
X82876000Y-62284000D01*
G75*
G02*
X83026000Y-62134000I150000J0D01*
G01*
X84676000Y-62134000D01*
G75*
G02*
X84826000Y-62284000I0J-150000D01*
G01*
X84826000Y-62584000D01*
G75*
G02*
X84676000Y-62734000I-150000J0D01*
G01*
X83026000Y-62734000D01*
G75*
G02*
X82876000Y-62584000I0J150000D01*
G01*
G37*
G36*
G01*
X86050000Y-60077000D02*
X86050000Y-61027000D01*
G75*
G02*
X85800000Y-61277000I-250000J0D01*
G01*
X85300000Y-61277000D01*
G75*
G02*
X85050000Y-61027000I0J250000D01*
G01*
X85050000Y-60077000D01*
G75*
G02*
X85300000Y-59827000I250000J0D01*
G01*
X85800000Y-59827000D01*
G75*
G02*
X86050000Y-60077000I0J-250000D01*
G01*
G37*
G36*
G01*
X84150000Y-60077000D02*
X84150000Y-61027000D01*
G75*
G02*
X83900000Y-61277000I-250000J0D01*
G01*
X83400000Y-61277000D01*
G75*
G02*
X83150000Y-61027000I0J250000D01*
G01*
X83150000Y-60077000D01*
G75*
G02*
X83400000Y-59827000I250000J0D01*
G01*
X83900000Y-59827000D01*
G75*
G02*
X84150000Y-60077000I0J-250000D01*
G01*
G37*
G36*
G01*
X84385998Y-11900000D02*
X85286002Y-11900000D01*
G75*
G02*
X85536000Y-12149998I0J-249998D01*
G01*
X85536000Y-12675002D01*
G75*
G02*
X85286002Y-12925000I-249998J0D01*
G01*
X84385998Y-12925000D01*
G75*
G02*
X84136000Y-12675002I0J249998D01*
G01*
X84136000Y-12149998D01*
G75*
G02*
X84385998Y-11900000I249998J0D01*
G01*
G37*
G36*
G01*
X84385998Y-10075000D02*
X85286002Y-10075000D01*
G75*
G02*
X85536000Y-10324998I0J-249998D01*
G01*
X85536000Y-10850002D01*
G75*
G02*
X85286002Y-11100000I-249998J0D01*
G01*
X84385998Y-11100000D01*
G75*
G02*
X84136000Y-10850002I0J249998D01*
G01*
X84136000Y-10324998D01*
G75*
G02*
X84385998Y-10075000I249998J0D01*
G01*
G37*
G36*
G01*
X18450000Y-4750000D02*
X18450000Y-3650000D01*
G75*
G02*
X18700000Y-3400000I250000J0D01*
G01*
X21700000Y-3400000D01*
G75*
G02*
X21950000Y-3650000I0J-250000D01*
G01*
X21950000Y-4750000D01*
G75*
G02*
X21700000Y-5000000I-250000J0D01*
G01*
X18700000Y-5000000D01*
G75*
G02*
X18450000Y-4750000I0J250000D01*
G01*
G37*
G36*
G01*
X13050000Y-4750000D02*
X13050000Y-3650000D01*
G75*
G02*
X13300000Y-3400000I250000J0D01*
G01*
X16300000Y-3400000D01*
G75*
G02*
X16550000Y-3650000I0J-250000D01*
G01*
X16550000Y-4750000D01*
G75*
G02*
X16300000Y-5000000I-250000J0D01*
G01*
X13300000Y-5000000D01*
G75*
G02*
X13050000Y-4750000I0J250000D01*
G01*
G37*
G36*
G01*
X13750000Y-21150000D02*
X14850000Y-21150000D01*
G75*
G02*
X15100000Y-21400000I0J-250000D01*
G01*
X15100000Y-24400000D01*
G75*
G02*
X14850000Y-24650000I-250000J0D01*
G01*
X13750000Y-24650000D01*
G75*
G02*
X13500000Y-24400000I0J250000D01*
G01*
X13500000Y-21400000D01*
G75*
G02*
X13750000Y-21150000I250000J0D01*
G01*
G37*
G36*
G01*
X13750000Y-15750000D02*
X14850000Y-15750000D01*
G75*
G02*
X15100000Y-16000000I0J-250000D01*
G01*
X15100000Y-19000000D01*
G75*
G02*
X14850000Y-19250000I-250000J0D01*
G01*
X13750000Y-19250000D01*
G75*
G02*
X13500000Y-19000000I0J250000D01*
G01*
X13500000Y-16000000D01*
G75*
G02*
X13750000Y-15750000I250000J0D01*
G01*
G37*
G36*
G01*
X34750000Y-16250000D02*
X35850000Y-16250000D01*
G75*
G02*
X36100000Y-16500000I0J-250000D01*
G01*
X36100000Y-19500000D01*
G75*
G02*
X35850000Y-19750000I-250000J0D01*
G01*
X34750000Y-19750000D01*
G75*
G02*
X34500000Y-19500000I0J250000D01*
G01*
X34500000Y-16500000D01*
G75*
G02*
X34750000Y-16250000I250000J0D01*
G01*
G37*
G36*
G01*
X34750000Y-21650000D02*
X35850000Y-21650000D01*
G75*
G02*
X36100000Y-21900000I0J-250000D01*
G01*
X36100000Y-24900000D01*
G75*
G02*
X35850000Y-25150000I-250000J0D01*
G01*
X34750000Y-25150000D01*
G75*
G02*
X34500000Y-24900000I0J250000D01*
G01*
X34500000Y-21900000D01*
G75*
G02*
X34750000Y-21650000I250000J0D01*
G01*
G37*
G36*
G01*
X38396000Y-14864000D02*
X37296000Y-14864000D01*
G75*
G02*
X37046000Y-14614000I0J250000D01*
G01*
X37046000Y-11614000D01*
G75*
G02*
X37296000Y-11364000I250000J0D01*
G01*
X38396000Y-11364000D01*
G75*
G02*
X38646000Y-11614000I0J-250000D01*
G01*
X38646000Y-14614000D01*
G75*
G02*
X38396000Y-14864000I-250000J0D01*
G01*
G37*
G36*
G01*
X38396000Y-9464000D02*
X37296000Y-9464000D01*
G75*
G02*
X37046000Y-9214000I0J250000D01*
G01*
X37046000Y-6214000D01*
G75*
G02*
X37296000Y-5964000I250000J0D01*
G01*
X38396000Y-5964000D01*
G75*
G02*
X38646000Y-6214000I0J-250000D01*
G01*
X38646000Y-9214000D01*
G75*
G02*
X38396000Y-9464000I-250000J0D01*
G01*
G37*
G36*
G01*
X43147000Y-57250000D02*
X42197000Y-57250000D01*
G75*
G02*
X41947000Y-57000000I0J250000D01*
G01*
X41947000Y-56500000D01*
G75*
G02*
X42197000Y-56250000I250000J0D01*
G01*
X43147000Y-56250000D01*
G75*
G02*
X43397000Y-56500000I0J-250000D01*
G01*
X43397000Y-57000000D01*
G75*
G02*
X43147000Y-57250000I-250000J0D01*
G01*
G37*
G36*
G01*
X43147000Y-59150000D02*
X42197000Y-59150000D01*
G75*
G02*
X41947000Y-58900000I0J250000D01*
G01*
X41947000Y-58400000D01*
G75*
G02*
X42197000Y-58150000I250000J0D01*
G01*
X43147000Y-58150000D01*
G75*
G02*
X43397000Y-58400000I0J-250000D01*
G01*
X43397000Y-58900000D01*
G75*
G02*
X43147000Y-59150000I-250000J0D01*
G01*
G37*
G36*
G01*
X52650000Y-58625000D02*
X52650000Y-59575000D01*
G75*
G02*
X52400000Y-59825000I-250000J0D01*
G01*
X51900000Y-59825000D01*
G75*
G02*
X51650000Y-59575000I0J250000D01*
G01*
X51650000Y-58625000D01*
G75*
G02*
X51900000Y-58375000I250000J0D01*
G01*
X52400000Y-58375000D01*
G75*
G02*
X52650000Y-58625000I0J-250000D01*
G01*
G37*
G36*
G01*
X50750000Y-58625000D02*
X50750000Y-59575000D01*
G75*
G02*
X50500000Y-59825000I-250000J0D01*
G01*
X50000000Y-59825000D01*
G75*
G02*
X49750000Y-59575000I0J250000D01*
G01*
X49750000Y-58625000D01*
G75*
G02*
X50000000Y-58375000I250000J0D01*
G01*
X50500000Y-58375000D01*
G75*
G02*
X50750000Y-58625000I0J-250000D01*
G01*
G37*
G36*
G01*
X53627000Y-48334000D02*
X54577000Y-48334000D01*
G75*
G02*
X54827000Y-48584000I0J-250000D01*
G01*
X54827000Y-49084000D01*
G75*
G02*
X54577000Y-49334000I-250000J0D01*
G01*
X53627000Y-49334000D01*
G75*
G02*
X53377000Y-49084000I0J250000D01*
G01*
X53377000Y-48584000D01*
G75*
G02*
X53627000Y-48334000I250000J0D01*
G01*
G37*
G36*
G01*
X53627000Y-50234000D02*
X54577000Y-50234000D01*
G75*
G02*
X54827000Y-50484000I0J-250000D01*
G01*
X54827000Y-50984000D01*
G75*
G02*
X54577000Y-51234000I-250000J0D01*
G01*
X53627000Y-51234000D01*
G75*
G02*
X53377000Y-50984000I0J250000D01*
G01*
X53377000Y-50484000D01*
G75*
G02*
X53627000Y-50234000I250000J0D01*
G01*
G37*
G36*
G01*
X44392000Y-46775000D02*
X44392000Y-45825000D01*
G75*
G02*
X44642000Y-45575000I250000J0D01*
G01*
X45142000Y-45575000D01*
G75*
G02*
X45392000Y-45825000I0J-250000D01*
G01*
X45392000Y-46775000D01*
G75*
G02*
X45142000Y-47025000I-250000J0D01*
G01*
X44642000Y-47025000D01*
G75*
G02*
X44392000Y-46775000I0J250000D01*
G01*
G37*
G36*
G01*
X42492000Y-46775000D02*
X42492000Y-45825000D01*
G75*
G02*
X42742000Y-45575000I250000J0D01*
G01*
X43242000Y-45575000D01*
G75*
G02*
X43492000Y-45825000I0J-250000D01*
G01*
X43492000Y-46775000D01*
G75*
G02*
X43242000Y-47025000I-250000J0D01*
G01*
X42742000Y-47025000D01*
G75*
G02*
X42492000Y-46775000I0J250000D01*
G01*
G37*
G36*
G01*
X53373000Y-54938000D02*
X54323000Y-54938000D01*
G75*
G02*
X54573000Y-55188000I0J-250000D01*
G01*
X54573000Y-55688000D01*
G75*
G02*
X54323000Y-55938000I-250000J0D01*
G01*
X53373000Y-55938000D01*
G75*
G02*
X53123000Y-55688000I0J250000D01*
G01*
X53123000Y-55188000D01*
G75*
G02*
X53373000Y-54938000I250000J0D01*
G01*
G37*
G36*
G01*
X53373000Y-56838000D02*
X54323000Y-56838000D01*
G75*
G02*
X54573000Y-57088000I0J-250000D01*
G01*
X54573000Y-57588000D01*
G75*
G02*
X54323000Y-57838000I-250000J0D01*
G01*
X53373000Y-57838000D01*
G75*
G02*
X53123000Y-57588000I0J250000D01*
G01*
X53123000Y-57088000D01*
G75*
G02*
X53373000Y-56838000I250000J0D01*
G01*
G37*
G36*
G01*
X62705000Y-54922000D02*
X61755000Y-54922000D01*
G75*
G02*
X61505000Y-54672000I0J250000D01*
G01*
X61505000Y-54172000D01*
G75*
G02*
X61755000Y-53922000I250000J0D01*
G01*
X62705000Y-53922000D01*
G75*
G02*
X62955000Y-54172000I0J-250000D01*
G01*
X62955000Y-54672000D01*
G75*
G02*
X62705000Y-54922000I-250000J0D01*
G01*
G37*
G36*
G01*
X62705000Y-56822000D02*
X61755000Y-56822000D01*
G75*
G02*
X61505000Y-56572000I0J250000D01*
G01*
X61505000Y-56072000D01*
G75*
G02*
X61755000Y-55822000I250000J0D01*
G01*
X62705000Y-55822000D01*
G75*
G02*
X62955000Y-56072000I0J-250000D01*
G01*
X62955000Y-56572000D01*
G75*
G02*
X62705000Y-56822000I-250000J0D01*
G01*
G37*
G36*
G01*
X61755000Y-50112000D02*
X62705000Y-50112000D01*
G75*
G02*
X62955000Y-50362000I0J-250000D01*
G01*
X62955000Y-50862000D01*
G75*
G02*
X62705000Y-51112000I-250000J0D01*
G01*
X61755000Y-51112000D01*
G75*
G02*
X61505000Y-50862000I0J250000D01*
G01*
X61505000Y-50362000D01*
G75*
G02*
X61755000Y-50112000I250000J0D01*
G01*
G37*
G36*
G01*
X61755000Y-52012000D02*
X62705000Y-52012000D01*
G75*
G02*
X62955000Y-52262000I0J-250000D01*
G01*
X62955000Y-52762000D01*
G75*
G02*
X62705000Y-53012000I-250000J0D01*
G01*
X61755000Y-53012000D01*
G75*
G02*
X61505000Y-52762000I0J250000D01*
G01*
X61505000Y-52262000D01*
G75*
G02*
X61755000Y-52012000I250000J0D01*
G01*
G37*
G36*
G01*
X18575000Y-69284000D02*
X19525000Y-69284000D01*
G75*
G02*
X19775000Y-69534000I0J-250000D01*
G01*
X19775000Y-70034000D01*
G75*
G02*
X19525000Y-70284000I-250000J0D01*
G01*
X18575000Y-70284000D01*
G75*
G02*
X18325000Y-70034000I0J250000D01*
G01*
X18325000Y-69534000D01*
G75*
G02*
X18575000Y-69284000I250000J0D01*
G01*
G37*
G36*
G01*
X18575000Y-67384000D02*
X19525000Y-67384000D01*
G75*
G02*
X19775000Y-67634000I0J-250000D01*
G01*
X19775000Y-68134000D01*
G75*
G02*
X19525000Y-68384000I-250000J0D01*
G01*
X18575000Y-68384000D01*
G75*
G02*
X18325000Y-68134000I0J250000D01*
G01*
X18325000Y-67634000D01*
G75*
G02*
X18575000Y-67384000I250000J0D01*
G01*
G37*
G36*
G01*
X28550000Y-46825000D02*
X28550000Y-47775000D01*
G75*
G02*
X28300000Y-48025000I-250000J0D01*
G01*
X27800000Y-48025000D01*
G75*
G02*
X27550000Y-47775000I0J250000D01*
G01*
X27550000Y-46825000D01*
G75*
G02*
X27800000Y-46575000I250000J0D01*
G01*
X28300000Y-46575000D01*
G75*
G02*
X28550000Y-46825000I0J-250000D01*
G01*
G37*
G36*
G01*
X30450000Y-46825000D02*
X30450000Y-47775000D01*
G75*
G02*
X30200000Y-48025000I-250000J0D01*
G01*
X29700000Y-48025000D01*
G75*
G02*
X29450000Y-47775000I0J250000D01*
G01*
X29450000Y-46825000D01*
G75*
G02*
X29700000Y-46575000I250000J0D01*
G01*
X30200000Y-46575000D01*
G75*
G02*
X30450000Y-46825000I0J-250000D01*
G01*
G37*
D10*
X30650000Y-14700000D03*
X28550000Y-14700000D03*
X24550000Y-3200000D03*
X26650000Y-3200000D03*
D11*
X3100000Y-49600000D03*
X3100000Y-58400000D03*
X8600000Y-49600000D03*
X8600000Y-58400000D03*
D12*
X8600000Y-52400000D03*
X8600000Y-53200000D03*
X8600000Y-54000000D03*
X8600000Y-54800000D03*
X8600000Y-55600000D03*
D13*
X13468000Y-11474600D03*
X17532000Y-11525400D03*
D14*
X81968000Y-10500000D03*
X82918000Y-12500000D03*
X81018000Y-12500000D03*
D15*
X34900000Y-35050000D03*
X34900000Y-33150000D03*
X32900000Y-34100000D03*
G36*
G01*
X23374998Y-7975000D02*
X24625002Y-7975000D01*
G75*
G02*
X24875000Y-8224998I0J-249998D01*
G01*
X24875000Y-8850002D01*
G75*
G02*
X24625002Y-9100000I-249998J0D01*
G01*
X23374998Y-9100000D01*
G75*
G02*
X23125000Y-8850002I0J249998D01*
G01*
X23125000Y-8224998D01*
G75*
G02*
X23374998Y-7975000I249998J0D01*
G01*
G37*
G36*
G01*
X23374998Y-10900000D02*
X24625002Y-10900000D01*
G75*
G02*
X24875000Y-11149998I0J-249998D01*
G01*
X24875000Y-11775002D01*
G75*
G02*
X24625002Y-12025000I-249998J0D01*
G01*
X23374998Y-12025000D01*
G75*
G02*
X23125000Y-11775002I0J249998D01*
G01*
X23125000Y-11149998D01*
G75*
G02*
X23374998Y-10900000I249998J0D01*
G01*
G37*
G36*
G01*
X11249998Y-54875000D02*
X12150002Y-54875000D01*
G75*
G02*
X12400000Y-55124998I0J-249998D01*
G01*
X12400000Y-55650002D01*
G75*
G02*
X12150002Y-55900000I-249998J0D01*
G01*
X11249998Y-55900000D01*
G75*
G02*
X11000000Y-55650002I0J249998D01*
G01*
X11000000Y-55124998D01*
G75*
G02*
X11249998Y-54875000I249998J0D01*
G01*
G37*
G36*
G01*
X11249998Y-56700000D02*
X12150002Y-56700000D01*
G75*
G02*
X12400000Y-56949998I0J-249998D01*
G01*
X12400000Y-57475002D01*
G75*
G02*
X12150002Y-57725000I-249998J0D01*
G01*
X11249998Y-57725000D01*
G75*
G02*
X11000000Y-57475002I0J249998D01*
G01*
X11000000Y-56949998D01*
G75*
G02*
X11249998Y-56700000I249998J0D01*
G01*
G37*
G36*
G01*
X18549998Y-63575000D02*
X19450002Y-63575000D01*
G75*
G02*
X19700000Y-63824998I0J-249998D01*
G01*
X19700000Y-64350002D01*
G75*
G02*
X19450002Y-64600000I-249998J0D01*
G01*
X18549998Y-64600000D01*
G75*
G02*
X18300000Y-64350002I0J249998D01*
G01*
X18300000Y-63824998D01*
G75*
G02*
X18549998Y-63575000I249998J0D01*
G01*
G37*
G36*
G01*
X18549998Y-65400000D02*
X19450002Y-65400000D01*
G75*
G02*
X19700000Y-65649998I0J-249998D01*
G01*
X19700000Y-66175002D01*
G75*
G02*
X19450002Y-66425000I-249998J0D01*
G01*
X18549998Y-66425000D01*
G75*
G02*
X18300000Y-66175002I0J249998D01*
G01*
X18300000Y-65649998D01*
G75*
G02*
X18549998Y-65400000I249998J0D01*
G01*
G37*
G36*
G01*
X51625002Y-9100000D02*
X50374998Y-9100000D01*
G75*
G02*
X50125000Y-8850002I0J249998D01*
G01*
X50125000Y-8224998D01*
G75*
G02*
X50374998Y-7975000I249998J0D01*
G01*
X51625002Y-7975000D01*
G75*
G02*
X51875000Y-8224998I0J-249998D01*
G01*
X51875000Y-8850002D01*
G75*
G02*
X51625002Y-9100000I-249998J0D01*
G01*
G37*
G36*
G01*
X51625002Y-12025000D02*
X50374998Y-12025000D01*
G75*
G02*
X50125000Y-11775002I0J249998D01*
G01*
X50125000Y-11149998D01*
G75*
G02*
X50374998Y-10900000I249998J0D01*
G01*
X51625002Y-10900000D01*
G75*
G02*
X51875000Y-11149998I0J-249998D01*
G01*
X51875000Y-11775002D01*
G75*
G02*
X51625002Y-12025000I-249998J0D01*
G01*
G37*
G36*
G01*
X27100000Y-33774998D02*
X27100000Y-35025002D01*
G75*
G02*
X26850002Y-35275000I-249998J0D01*
G01*
X26224998Y-35275000D01*
G75*
G02*
X25975000Y-35025002I0J249998D01*
G01*
X25975000Y-33774998D01*
G75*
G02*
X26224998Y-33525000I249998J0D01*
G01*
X26850002Y-33525000D01*
G75*
G02*
X27100000Y-33774998I0J-249998D01*
G01*
G37*
G36*
G01*
X30025000Y-33774998D02*
X30025000Y-35025002D01*
G75*
G02*
X29775002Y-35275000I-249998J0D01*
G01*
X29149998Y-35275000D01*
G75*
G02*
X28900000Y-35025002I0J249998D01*
G01*
X28900000Y-33774998D01*
G75*
G02*
X29149998Y-33525000I249998J0D01*
G01*
X29775002Y-33525000D01*
G75*
G02*
X30025000Y-33774998I0J-249998D01*
G01*
G37*
G36*
G01*
X26525002Y-45525000D02*
X25274998Y-45525000D01*
G75*
G02*
X25025000Y-45275002I0J249998D01*
G01*
X25025000Y-44649998D01*
G75*
G02*
X25274998Y-44400000I249998J0D01*
G01*
X26525002Y-44400000D01*
G75*
G02*
X26775000Y-44649998I0J-249998D01*
G01*
X26775000Y-45275002D01*
G75*
G02*
X26525002Y-45525000I-249998J0D01*
G01*
G37*
G36*
G01*
X26525002Y-42600000D02*
X25274998Y-42600000D01*
G75*
G02*
X25025000Y-42350002I0J249998D01*
G01*
X25025000Y-41724998D01*
G75*
G02*
X25274998Y-41475000I249998J0D01*
G01*
X26525002Y-41475000D01*
G75*
G02*
X26775000Y-41724998I0J-249998D01*
G01*
X26775000Y-42350002D01*
G75*
G02*
X26525002Y-42600000I-249998J0D01*
G01*
G37*
G36*
G01*
X85157002Y-28081000D02*
X83906998Y-28081000D01*
G75*
G02*
X83657000Y-27831002I0J249998D01*
G01*
X83657000Y-27205998D01*
G75*
G02*
X83906998Y-26956000I249998J0D01*
G01*
X85157002Y-26956000D01*
G75*
G02*
X85407000Y-27205998I0J-249998D01*
G01*
X85407000Y-27831002D01*
G75*
G02*
X85157002Y-28081000I-249998J0D01*
G01*
G37*
G36*
G01*
X85157002Y-25156000D02*
X83906998Y-25156000D01*
G75*
G02*
X83657000Y-24906002I0J249998D01*
G01*
X83657000Y-24280998D01*
G75*
G02*
X83906998Y-24031000I249998J0D01*
G01*
X85157002Y-24031000D01*
G75*
G02*
X85407000Y-24280998I0J-249998D01*
G01*
X85407000Y-24906002D01*
G75*
G02*
X85157002Y-25156000I-249998J0D01*
G01*
G37*
G36*
G01*
X85065002Y-37656000D02*
X83814998Y-37656000D01*
G75*
G02*
X83565000Y-37406002I0J249998D01*
G01*
X83565000Y-36780998D01*
G75*
G02*
X83814998Y-36531000I249998J0D01*
G01*
X85065002Y-36531000D01*
G75*
G02*
X85315000Y-36780998I0J-249998D01*
G01*
X85315000Y-37406002D01*
G75*
G02*
X85065002Y-37656000I-249998J0D01*
G01*
G37*
G36*
G01*
X85065002Y-40581000D02*
X83814998Y-40581000D01*
G75*
G02*
X83565000Y-40331002I0J249998D01*
G01*
X83565000Y-39705998D01*
G75*
G02*
X83814998Y-39456000I249998J0D01*
G01*
X85065002Y-39456000D01*
G75*
G02*
X85315000Y-39705998I0J-249998D01*
G01*
X85315000Y-40331002D01*
G75*
G02*
X85065002Y-40581000I-249998J0D01*
G01*
G37*
G36*
G01*
X85127002Y-52211000D02*
X83876998Y-52211000D01*
G75*
G02*
X83627000Y-51961002I0J249998D01*
G01*
X83627000Y-51335998D01*
G75*
G02*
X83876998Y-51086000I249998J0D01*
G01*
X85127002Y-51086000D01*
G75*
G02*
X85377000Y-51335998I0J-249998D01*
G01*
X85377000Y-51961002D01*
G75*
G02*
X85127002Y-52211000I-249998J0D01*
G01*
G37*
G36*
G01*
X85127002Y-49286000D02*
X83876998Y-49286000D01*
G75*
G02*
X83627000Y-49036002I0J249998D01*
G01*
X83627000Y-48410998D01*
G75*
G02*
X83876998Y-48161000I249998J0D01*
G01*
X85127002Y-48161000D01*
G75*
G02*
X85377000Y-48410998I0J-249998D01*
G01*
X85377000Y-49036002D01*
G75*
G02*
X85127002Y-49286000I-249998J0D01*
G01*
G37*
G36*
G01*
X47200000Y-58649998D02*
X47200000Y-59550002D01*
G75*
G02*
X46950002Y-59800000I-249998J0D01*
G01*
X46424998Y-59800000D01*
G75*
G02*
X46175000Y-59550002I0J249998D01*
G01*
X46175000Y-58649998D01*
G75*
G02*
X46424998Y-58400000I249998J0D01*
G01*
X46950002Y-58400000D01*
G75*
G02*
X47200000Y-58649998I0J-249998D01*
G01*
G37*
G36*
G01*
X49025000Y-58649998D02*
X49025000Y-59550002D01*
G75*
G02*
X48775002Y-59800000I-249998J0D01*
G01*
X48249998Y-59800000D01*
G75*
G02*
X48000000Y-59550002I0J249998D01*
G01*
X48000000Y-58649998D01*
G75*
G02*
X48249998Y-58400000I249998J0D01*
G01*
X48775002Y-58400000D01*
G75*
G02*
X49025000Y-58649998I0J-249998D01*
G01*
G37*
D16*
X48870000Y-21082000D03*
D17*
X42570000Y-21082000D03*
X42570000Y-23382000D03*
X42570000Y-18782000D03*
G36*
G01*
X50500000Y-56200000D02*
X50500000Y-57525000D01*
G75*
G02*
X50425000Y-57600000I-75000J0D01*
G01*
X50275000Y-57600000D01*
G75*
G02*
X50200000Y-57525000I0J75000D01*
G01*
X50200000Y-56200000D01*
G75*
G02*
X50275000Y-56125000I75000J0D01*
G01*
X50425000Y-56125000D01*
G75*
G02*
X50500000Y-56200000I0J-75000D01*
G01*
G37*
G36*
G01*
X50000000Y-56200000D02*
X50000000Y-57525000D01*
G75*
G02*
X49925000Y-57600000I-75000J0D01*
G01*
X49775000Y-57600000D01*
G75*
G02*
X49700000Y-57525000I0J75000D01*
G01*
X49700000Y-56200000D01*
G75*
G02*
X49775000Y-56125000I75000J0D01*
G01*
X49925000Y-56125000D01*
G75*
G02*
X50000000Y-56200000I0J-75000D01*
G01*
G37*
G36*
G01*
X49500000Y-56200000D02*
X49500000Y-57525000D01*
G75*
G02*
X49425000Y-57600000I-75000J0D01*
G01*
X49275000Y-57600000D01*
G75*
G02*
X49200000Y-57525000I0J75000D01*
G01*
X49200000Y-56200000D01*
G75*
G02*
X49275000Y-56125000I75000J0D01*
G01*
X49425000Y-56125000D01*
G75*
G02*
X49500000Y-56200000I0J-75000D01*
G01*
G37*
G36*
G01*
X49000000Y-56200000D02*
X49000000Y-57525000D01*
G75*
G02*
X48925000Y-57600000I-75000J0D01*
G01*
X48775000Y-57600000D01*
G75*
G02*
X48700000Y-57525000I0J75000D01*
G01*
X48700000Y-56200000D01*
G75*
G02*
X48775000Y-56125000I75000J0D01*
G01*
X48925000Y-56125000D01*
G75*
G02*
X49000000Y-56200000I0J-75000D01*
G01*
G37*
G36*
G01*
X48500000Y-56200000D02*
X48500000Y-57525000D01*
G75*
G02*
X48425000Y-57600000I-75000J0D01*
G01*
X48275000Y-57600000D01*
G75*
G02*
X48200000Y-57525000I0J75000D01*
G01*
X48200000Y-56200000D01*
G75*
G02*
X48275000Y-56125000I75000J0D01*
G01*
X48425000Y-56125000D01*
G75*
G02*
X48500000Y-56200000I0J-75000D01*
G01*
G37*
G36*
G01*
X48000000Y-56200000D02*
X48000000Y-57525000D01*
G75*
G02*
X47925000Y-57600000I-75000J0D01*
G01*
X47775000Y-57600000D01*
G75*
G02*
X47700000Y-57525000I0J75000D01*
G01*
X47700000Y-56200000D01*
G75*
G02*
X47775000Y-56125000I75000J0D01*
G01*
X47925000Y-56125000D01*
G75*
G02*
X48000000Y-56200000I0J-75000D01*
G01*
G37*
G36*
G01*
X47500000Y-56200000D02*
X47500000Y-57525000D01*
G75*
G02*
X47425000Y-57600000I-75000J0D01*
G01*
X47275000Y-57600000D01*
G75*
G02*
X47200000Y-57525000I0J75000D01*
G01*
X47200000Y-56200000D01*
G75*
G02*
X47275000Y-56125000I75000J0D01*
G01*
X47425000Y-56125000D01*
G75*
G02*
X47500000Y-56200000I0J-75000D01*
G01*
G37*
G36*
G01*
X47000000Y-56200000D02*
X47000000Y-57525000D01*
G75*
G02*
X46925000Y-57600000I-75000J0D01*
G01*
X46775000Y-57600000D01*
G75*
G02*
X46700000Y-57525000I0J75000D01*
G01*
X46700000Y-56200000D01*
G75*
G02*
X46775000Y-56125000I75000J0D01*
G01*
X46925000Y-56125000D01*
G75*
G02*
X47000000Y-56200000I0J-75000D01*
G01*
G37*
G36*
G01*
X46500000Y-56200000D02*
X46500000Y-57525000D01*
G75*
G02*
X46425000Y-57600000I-75000J0D01*
G01*
X46275000Y-57600000D01*
G75*
G02*
X46200000Y-57525000I0J75000D01*
G01*
X46200000Y-56200000D01*
G75*
G02*
X46275000Y-56125000I75000J0D01*
G01*
X46425000Y-56125000D01*
G75*
G02*
X46500000Y-56200000I0J-75000D01*
G01*
G37*
G36*
G01*
X46000000Y-56200000D02*
X46000000Y-57525000D01*
G75*
G02*
X45925000Y-57600000I-75000J0D01*
G01*
X45775000Y-57600000D01*
G75*
G02*
X45700000Y-57525000I0J75000D01*
G01*
X45700000Y-56200000D01*
G75*
G02*
X45775000Y-56125000I75000J0D01*
G01*
X45925000Y-56125000D01*
G75*
G02*
X46000000Y-56200000I0J-75000D01*
G01*
G37*
G36*
G01*
X45500000Y-56200000D02*
X45500000Y-57525000D01*
G75*
G02*
X45425000Y-57600000I-75000J0D01*
G01*
X45275000Y-57600000D01*
G75*
G02*
X45200000Y-57525000I0J75000D01*
G01*
X45200000Y-56200000D01*
G75*
G02*
X45275000Y-56125000I75000J0D01*
G01*
X45425000Y-56125000D01*
G75*
G02*
X45500000Y-56200000I0J-75000D01*
G01*
G37*
G36*
G01*
X45000000Y-56200000D02*
X45000000Y-57525000D01*
G75*
G02*
X44925000Y-57600000I-75000J0D01*
G01*
X44775000Y-57600000D01*
G75*
G02*
X44700000Y-57525000I0J75000D01*
G01*
X44700000Y-56200000D01*
G75*
G02*
X44775000Y-56125000I75000J0D01*
G01*
X44925000Y-56125000D01*
G75*
G02*
X45000000Y-56200000I0J-75000D01*
G01*
G37*
G36*
G01*
X44175000Y-55375000D02*
X44175000Y-55525000D01*
G75*
G02*
X44100000Y-55600000I-75000J0D01*
G01*
X42775000Y-55600000D01*
G75*
G02*
X42700000Y-55525000I0J75000D01*
G01*
X42700000Y-55375000D01*
G75*
G02*
X42775000Y-55300000I75000J0D01*
G01*
X44100000Y-55300000D01*
G75*
G02*
X44175000Y-55375000I0J-75000D01*
G01*
G37*
G36*
G01*
X44175000Y-54875000D02*
X44175000Y-55025000D01*
G75*
G02*
X44100000Y-55100000I-75000J0D01*
G01*
X42775000Y-55100000D01*
G75*
G02*
X42700000Y-55025000I0J75000D01*
G01*
X42700000Y-54875000D01*
G75*
G02*
X42775000Y-54800000I75000J0D01*
G01*
X44100000Y-54800000D01*
G75*
G02*
X44175000Y-54875000I0J-75000D01*
G01*
G37*
G36*
G01*
X44175000Y-54375000D02*
X44175000Y-54525000D01*
G75*
G02*
X44100000Y-54600000I-75000J0D01*
G01*
X42775000Y-54600000D01*
G75*
G02*
X42700000Y-54525000I0J75000D01*
G01*
X42700000Y-54375000D01*
G75*
G02*
X42775000Y-54300000I75000J0D01*
G01*
X44100000Y-54300000D01*
G75*
G02*
X44175000Y-54375000I0J-75000D01*
G01*
G37*
G36*
G01*
X44175000Y-53875000D02*
X44175000Y-54025000D01*
G75*
G02*
X44100000Y-54100000I-75000J0D01*
G01*
X42775000Y-54100000D01*
G75*
G02*
X42700000Y-54025000I0J75000D01*
G01*
X42700000Y-53875000D01*
G75*
G02*
X42775000Y-53800000I75000J0D01*
G01*
X44100000Y-53800000D01*
G75*
G02*
X44175000Y-53875000I0J-75000D01*
G01*
G37*
G36*
G01*
X44175000Y-53375000D02*
X44175000Y-53525000D01*
G75*
G02*
X44100000Y-53600000I-75000J0D01*
G01*
X42775000Y-53600000D01*
G75*
G02*
X42700000Y-53525000I0J75000D01*
G01*
X42700000Y-53375000D01*
G75*
G02*
X42775000Y-53300000I75000J0D01*
G01*
X44100000Y-53300000D01*
G75*
G02*
X44175000Y-53375000I0J-75000D01*
G01*
G37*
G36*
G01*
X44175000Y-52875000D02*
X44175000Y-53025000D01*
G75*
G02*
X44100000Y-53100000I-75000J0D01*
G01*
X42775000Y-53100000D01*
G75*
G02*
X42700000Y-53025000I0J75000D01*
G01*
X42700000Y-52875000D01*
G75*
G02*
X42775000Y-52800000I75000J0D01*
G01*
X44100000Y-52800000D01*
G75*
G02*
X44175000Y-52875000I0J-75000D01*
G01*
G37*
G36*
G01*
X44175000Y-52375000D02*
X44175000Y-52525000D01*
G75*
G02*
X44100000Y-52600000I-75000J0D01*
G01*
X42775000Y-52600000D01*
G75*
G02*
X42700000Y-52525000I0J75000D01*
G01*
X42700000Y-52375000D01*
G75*
G02*
X42775000Y-52300000I75000J0D01*
G01*
X44100000Y-52300000D01*
G75*
G02*
X44175000Y-52375000I0J-75000D01*
G01*
G37*
G36*
G01*
X44175000Y-51875000D02*
X44175000Y-52025000D01*
G75*
G02*
X44100000Y-52100000I-75000J0D01*
G01*
X42775000Y-52100000D01*
G75*
G02*
X42700000Y-52025000I0J75000D01*
G01*
X42700000Y-51875000D01*
G75*
G02*
X42775000Y-51800000I75000J0D01*
G01*
X44100000Y-51800000D01*
G75*
G02*
X44175000Y-51875000I0J-75000D01*
G01*
G37*
G36*
G01*
X44175000Y-51375000D02*
X44175000Y-51525000D01*
G75*
G02*
X44100000Y-51600000I-75000J0D01*
G01*
X42775000Y-51600000D01*
G75*
G02*
X42700000Y-51525000I0J75000D01*
G01*
X42700000Y-51375000D01*
G75*
G02*
X42775000Y-51300000I75000J0D01*
G01*
X44100000Y-51300000D01*
G75*
G02*
X44175000Y-51375000I0J-75000D01*
G01*
G37*
G36*
G01*
X44175000Y-50875000D02*
X44175000Y-51025000D01*
G75*
G02*
X44100000Y-51100000I-75000J0D01*
G01*
X42775000Y-51100000D01*
G75*
G02*
X42700000Y-51025000I0J75000D01*
G01*
X42700000Y-50875000D01*
G75*
G02*
X42775000Y-50800000I75000J0D01*
G01*
X44100000Y-50800000D01*
G75*
G02*
X44175000Y-50875000I0J-75000D01*
G01*
G37*
G36*
G01*
X44175000Y-50375000D02*
X44175000Y-50525000D01*
G75*
G02*
X44100000Y-50600000I-75000J0D01*
G01*
X42775000Y-50600000D01*
G75*
G02*
X42700000Y-50525000I0J75000D01*
G01*
X42700000Y-50375000D01*
G75*
G02*
X42775000Y-50300000I75000J0D01*
G01*
X44100000Y-50300000D01*
G75*
G02*
X44175000Y-50375000I0J-75000D01*
G01*
G37*
G36*
G01*
X44175000Y-49875000D02*
X44175000Y-50025000D01*
G75*
G02*
X44100000Y-50100000I-75000J0D01*
G01*
X42775000Y-50100000D01*
G75*
G02*
X42700000Y-50025000I0J75000D01*
G01*
X42700000Y-49875000D01*
G75*
G02*
X42775000Y-49800000I75000J0D01*
G01*
X44100000Y-49800000D01*
G75*
G02*
X44175000Y-49875000I0J-75000D01*
G01*
G37*
G36*
G01*
X45000000Y-47875000D02*
X45000000Y-49200000D01*
G75*
G02*
X44925000Y-49275000I-75000J0D01*
G01*
X44775000Y-49275000D01*
G75*
G02*
X44700000Y-49200000I0J75000D01*
G01*
X44700000Y-47875000D01*
G75*
G02*
X44775000Y-47800000I75000J0D01*
G01*
X44925000Y-47800000D01*
G75*
G02*
X45000000Y-47875000I0J-75000D01*
G01*
G37*
G36*
G01*
X45500000Y-47875000D02*
X45500000Y-49200000D01*
G75*
G02*
X45425000Y-49275000I-75000J0D01*
G01*
X45275000Y-49275000D01*
G75*
G02*
X45200000Y-49200000I0J75000D01*
G01*
X45200000Y-47875000D01*
G75*
G02*
X45275000Y-47800000I75000J0D01*
G01*
X45425000Y-47800000D01*
G75*
G02*
X45500000Y-47875000I0J-75000D01*
G01*
G37*
G36*
G01*
X46000000Y-47875000D02*
X46000000Y-49200000D01*
G75*
G02*
X45925000Y-49275000I-75000J0D01*
G01*
X45775000Y-49275000D01*
G75*
G02*
X45700000Y-49200000I0J75000D01*
G01*
X45700000Y-47875000D01*
G75*
G02*
X45775000Y-47800000I75000J0D01*
G01*
X45925000Y-47800000D01*
G75*
G02*
X46000000Y-47875000I0J-75000D01*
G01*
G37*
G36*
G01*
X46500000Y-47875000D02*
X46500000Y-49200000D01*
G75*
G02*
X46425000Y-49275000I-75000J0D01*
G01*
X46275000Y-49275000D01*
G75*
G02*
X46200000Y-49200000I0J75000D01*
G01*
X46200000Y-47875000D01*
G75*
G02*
X46275000Y-47800000I75000J0D01*
G01*
X46425000Y-47800000D01*
G75*
G02*
X46500000Y-47875000I0J-75000D01*
G01*
G37*
G36*
G01*
X47000000Y-47875000D02*
X47000000Y-49200000D01*
G75*
G02*
X46925000Y-49275000I-75000J0D01*
G01*
X46775000Y-49275000D01*
G75*
G02*
X46700000Y-49200000I0J75000D01*
G01*
X46700000Y-47875000D01*
G75*
G02*
X46775000Y-47800000I75000J0D01*
G01*
X46925000Y-47800000D01*
G75*
G02*
X47000000Y-47875000I0J-75000D01*
G01*
G37*
G36*
G01*
X47500000Y-47875000D02*
X47500000Y-49200000D01*
G75*
G02*
X47425000Y-49275000I-75000J0D01*
G01*
X47275000Y-49275000D01*
G75*
G02*
X47200000Y-49200000I0J75000D01*
G01*
X47200000Y-47875000D01*
G75*
G02*
X47275000Y-47800000I75000J0D01*
G01*
X47425000Y-47800000D01*
G75*
G02*
X47500000Y-47875000I0J-75000D01*
G01*
G37*
G36*
G01*
X48000000Y-47875000D02*
X48000000Y-49200000D01*
G75*
G02*
X47925000Y-49275000I-75000J0D01*
G01*
X47775000Y-49275000D01*
G75*
G02*
X47700000Y-49200000I0J75000D01*
G01*
X47700000Y-47875000D01*
G75*
G02*
X47775000Y-47800000I75000J0D01*
G01*
X47925000Y-47800000D01*
G75*
G02*
X48000000Y-47875000I0J-75000D01*
G01*
G37*
G36*
G01*
X48500000Y-47875000D02*
X48500000Y-49200000D01*
G75*
G02*
X48425000Y-49275000I-75000J0D01*
G01*
X48275000Y-49275000D01*
G75*
G02*
X48200000Y-49200000I0J75000D01*
G01*
X48200000Y-47875000D01*
G75*
G02*
X48275000Y-47800000I75000J0D01*
G01*
X48425000Y-47800000D01*
G75*
G02*
X48500000Y-47875000I0J-75000D01*
G01*
G37*
G36*
G01*
X49000000Y-47875000D02*
X49000000Y-49200000D01*
G75*
G02*
X48925000Y-49275000I-75000J0D01*
G01*
X48775000Y-49275000D01*
G75*
G02*
X48700000Y-49200000I0J75000D01*
G01*
X48700000Y-47875000D01*
G75*
G02*
X48775000Y-47800000I75000J0D01*
G01*
X48925000Y-47800000D01*
G75*
G02*
X49000000Y-47875000I0J-75000D01*
G01*
G37*
G36*
G01*
X49500000Y-47875000D02*
X49500000Y-49200000D01*
G75*
G02*
X49425000Y-49275000I-75000J0D01*
G01*
X49275000Y-49275000D01*
G75*
G02*
X49200000Y-49200000I0J75000D01*
G01*
X49200000Y-47875000D01*
G75*
G02*
X49275000Y-47800000I75000J0D01*
G01*
X49425000Y-47800000D01*
G75*
G02*
X49500000Y-47875000I0J-75000D01*
G01*
G37*
G36*
G01*
X50000000Y-47875000D02*
X50000000Y-49200000D01*
G75*
G02*
X49925000Y-49275000I-75000J0D01*
G01*
X49775000Y-49275000D01*
G75*
G02*
X49700000Y-49200000I0J75000D01*
G01*
X49700000Y-47875000D01*
G75*
G02*
X49775000Y-47800000I75000J0D01*
G01*
X49925000Y-47800000D01*
G75*
G02*
X50000000Y-47875000I0J-75000D01*
G01*
G37*
G36*
G01*
X50500000Y-47875000D02*
X50500000Y-49200000D01*
G75*
G02*
X50425000Y-49275000I-75000J0D01*
G01*
X50275000Y-49275000D01*
G75*
G02*
X50200000Y-49200000I0J75000D01*
G01*
X50200000Y-47875000D01*
G75*
G02*
X50275000Y-47800000I75000J0D01*
G01*
X50425000Y-47800000D01*
G75*
G02*
X50500000Y-47875000I0J-75000D01*
G01*
G37*
G36*
G01*
X52500000Y-49875000D02*
X52500000Y-50025000D01*
G75*
G02*
X52425000Y-50100000I-75000J0D01*
G01*
X51100000Y-50100000D01*
G75*
G02*
X51025000Y-50025000I0J75000D01*
G01*
X51025000Y-49875000D01*
G75*
G02*
X51100000Y-49800000I75000J0D01*
G01*
X52425000Y-49800000D01*
G75*
G02*
X52500000Y-49875000I0J-75000D01*
G01*
G37*
G36*
G01*
X52500000Y-50375000D02*
X52500000Y-50525000D01*
G75*
G02*
X52425000Y-50600000I-75000J0D01*
G01*
X51100000Y-50600000D01*
G75*
G02*
X51025000Y-50525000I0J75000D01*
G01*
X51025000Y-50375000D01*
G75*
G02*
X51100000Y-50300000I75000J0D01*
G01*
X52425000Y-50300000D01*
G75*
G02*
X52500000Y-50375000I0J-75000D01*
G01*
G37*
G36*
G01*
X52500000Y-50875000D02*
X52500000Y-51025000D01*
G75*
G02*
X52425000Y-51100000I-75000J0D01*
G01*
X51100000Y-51100000D01*
G75*
G02*
X51025000Y-51025000I0J75000D01*
G01*
X51025000Y-50875000D01*
G75*
G02*
X51100000Y-50800000I75000J0D01*
G01*
X52425000Y-50800000D01*
G75*
G02*
X52500000Y-50875000I0J-75000D01*
G01*
G37*
G36*
G01*
X52500000Y-51375000D02*
X52500000Y-51525000D01*
G75*
G02*
X52425000Y-51600000I-75000J0D01*
G01*
X51100000Y-51600000D01*
G75*
G02*
X51025000Y-51525000I0J75000D01*
G01*
X51025000Y-51375000D01*
G75*
G02*
X51100000Y-51300000I75000J0D01*
G01*
X52425000Y-51300000D01*
G75*
G02*
X52500000Y-51375000I0J-75000D01*
G01*
G37*
G36*
G01*
X52500000Y-51875000D02*
X52500000Y-52025000D01*
G75*
G02*
X52425000Y-52100000I-75000J0D01*
G01*
X51100000Y-52100000D01*
G75*
G02*
X51025000Y-52025000I0J75000D01*
G01*
X51025000Y-51875000D01*
G75*
G02*
X51100000Y-51800000I75000J0D01*
G01*
X52425000Y-51800000D01*
G75*
G02*
X52500000Y-51875000I0J-75000D01*
G01*
G37*
G36*
G01*
X52500000Y-52375000D02*
X52500000Y-52525000D01*
G75*
G02*
X52425000Y-52600000I-75000J0D01*
G01*
X51100000Y-52600000D01*
G75*
G02*
X51025000Y-52525000I0J75000D01*
G01*
X51025000Y-52375000D01*
G75*
G02*
X51100000Y-52300000I75000J0D01*
G01*
X52425000Y-52300000D01*
G75*
G02*
X52500000Y-52375000I0J-75000D01*
G01*
G37*
G36*
G01*
X52500000Y-52875000D02*
X52500000Y-53025000D01*
G75*
G02*
X52425000Y-53100000I-75000J0D01*
G01*
X51100000Y-53100000D01*
G75*
G02*
X51025000Y-53025000I0J75000D01*
G01*
X51025000Y-52875000D01*
G75*
G02*
X51100000Y-52800000I75000J0D01*
G01*
X52425000Y-52800000D01*
G75*
G02*
X52500000Y-52875000I0J-75000D01*
G01*
G37*
G36*
G01*
X52500000Y-53375000D02*
X52500000Y-53525000D01*
G75*
G02*
X52425000Y-53600000I-75000J0D01*
G01*
X51100000Y-53600000D01*
G75*
G02*
X51025000Y-53525000I0J75000D01*
G01*
X51025000Y-53375000D01*
G75*
G02*
X51100000Y-53300000I75000J0D01*
G01*
X52425000Y-53300000D01*
G75*
G02*
X52500000Y-53375000I0J-75000D01*
G01*
G37*
G36*
G01*
X52500000Y-53875000D02*
X52500000Y-54025000D01*
G75*
G02*
X52425000Y-54100000I-75000J0D01*
G01*
X51100000Y-54100000D01*
G75*
G02*
X51025000Y-54025000I0J75000D01*
G01*
X51025000Y-53875000D01*
G75*
G02*
X51100000Y-53800000I75000J0D01*
G01*
X52425000Y-53800000D01*
G75*
G02*
X52500000Y-53875000I0J-75000D01*
G01*
G37*
G36*
G01*
X52500000Y-54375000D02*
X52500000Y-54525000D01*
G75*
G02*
X52425000Y-54600000I-75000J0D01*
G01*
X51100000Y-54600000D01*
G75*
G02*
X51025000Y-54525000I0J75000D01*
G01*
X51025000Y-54375000D01*
G75*
G02*
X51100000Y-54300000I75000J0D01*
G01*
X52425000Y-54300000D01*
G75*
G02*
X52500000Y-54375000I0J-75000D01*
G01*
G37*
G36*
G01*
X52500000Y-54875000D02*
X52500000Y-55025000D01*
G75*
G02*
X52425000Y-55100000I-75000J0D01*
G01*
X51100000Y-55100000D01*
G75*
G02*
X51025000Y-55025000I0J75000D01*
G01*
X51025000Y-54875000D01*
G75*
G02*
X51100000Y-54800000I75000J0D01*
G01*
X52425000Y-54800000D01*
G75*
G02*
X52500000Y-54875000I0J-75000D01*
G01*
G37*
G36*
G01*
X52500000Y-55375000D02*
X52500000Y-55525000D01*
G75*
G02*
X52425000Y-55600000I-75000J0D01*
G01*
X51100000Y-55600000D01*
G75*
G02*
X51025000Y-55525000I0J75000D01*
G01*
X51025000Y-55375000D01*
G75*
G02*
X51100000Y-55300000I75000J0D01*
G01*
X52425000Y-55300000D01*
G75*
G02*
X52500000Y-55375000I0J-75000D01*
G01*
G37*
G36*
G01*
X35650000Y-45155000D02*
X35650000Y-45455000D01*
G75*
G02*
X35500000Y-45605000I-150000J0D01*
G01*
X33850000Y-45605000D01*
G75*
G02*
X33700000Y-45455000I0J150000D01*
G01*
X33700000Y-45155000D01*
G75*
G02*
X33850000Y-45005000I150000J0D01*
G01*
X35500000Y-45005000D01*
G75*
G02*
X35650000Y-45155000I0J-150000D01*
G01*
G37*
G36*
G01*
X35650000Y-43885000D02*
X35650000Y-44185000D01*
G75*
G02*
X35500000Y-44335000I-150000J0D01*
G01*
X33850000Y-44335000D01*
G75*
G02*
X33700000Y-44185000I0J150000D01*
G01*
X33700000Y-43885000D01*
G75*
G02*
X33850000Y-43735000I150000J0D01*
G01*
X35500000Y-43735000D01*
G75*
G02*
X35650000Y-43885000I0J-150000D01*
G01*
G37*
G36*
G01*
X35650000Y-42615000D02*
X35650000Y-42915000D01*
G75*
G02*
X35500000Y-43065000I-150000J0D01*
G01*
X33850000Y-43065000D01*
G75*
G02*
X33700000Y-42915000I0J150000D01*
G01*
X33700000Y-42615000D01*
G75*
G02*
X33850000Y-42465000I150000J0D01*
G01*
X35500000Y-42465000D01*
G75*
G02*
X35650000Y-42615000I0J-150000D01*
G01*
G37*
G36*
G01*
X35650000Y-41345000D02*
X35650000Y-41645000D01*
G75*
G02*
X35500000Y-41795000I-150000J0D01*
G01*
X33850000Y-41795000D01*
G75*
G02*
X33700000Y-41645000I0J150000D01*
G01*
X33700000Y-41345000D01*
G75*
G02*
X33850000Y-41195000I150000J0D01*
G01*
X35500000Y-41195000D01*
G75*
G02*
X35650000Y-41345000I0J-150000D01*
G01*
G37*
G36*
G01*
X30700000Y-41345000D02*
X30700000Y-41645000D01*
G75*
G02*
X30550000Y-41795000I-150000J0D01*
G01*
X28900000Y-41795000D01*
G75*
G02*
X28750000Y-41645000I0J150000D01*
G01*
X28750000Y-41345000D01*
G75*
G02*
X28900000Y-41195000I150000J0D01*
G01*
X30550000Y-41195000D01*
G75*
G02*
X30700000Y-41345000I0J-150000D01*
G01*
G37*
G36*
G01*
X30700000Y-42615000D02*
X30700000Y-42915000D01*
G75*
G02*
X30550000Y-43065000I-150000J0D01*
G01*
X28900000Y-43065000D01*
G75*
G02*
X28750000Y-42915000I0J150000D01*
G01*
X28750000Y-42615000D01*
G75*
G02*
X28900000Y-42465000I150000J0D01*
G01*
X30550000Y-42465000D01*
G75*
G02*
X30700000Y-42615000I0J-150000D01*
G01*
G37*
G36*
G01*
X30700000Y-43885000D02*
X30700000Y-44185000D01*
G75*
G02*
X30550000Y-44335000I-150000J0D01*
G01*
X28900000Y-44335000D01*
G75*
G02*
X28750000Y-44185000I0J150000D01*
G01*
X28750000Y-43885000D01*
G75*
G02*
X28900000Y-43735000I150000J0D01*
G01*
X30550000Y-43735000D01*
G75*
G02*
X30700000Y-43885000I0J-150000D01*
G01*
G37*
G36*
G01*
X30700000Y-45155000D02*
X30700000Y-45455000D01*
G75*
G02*
X30550000Y-45605000I-150000J0D01*
G01*
X28900000Y-45605000D01*
G75*
G02*
X28750000Y-45455000I0J150000D01*
G01*
X28750000Y-45155000D01*
G75*
G02*
X28900000Y-45005000I150000J0D01*
G01*
X30550000Y-45005000D01*
G75*
G02*
X30700000Y-45155000I0J-150000D01*
G01*
G37*
M02*
