G04 #@! TF.GenerationSoftware,KiCad,Pcbnew,(5.1.9)-1*
G04 #@! TF.CreationDate,2022-11-25T22:29:39+01:00*
G04 #@! TF.ProjectId,PCDB_project,50434442-5f70-4726-9f6a-6563742e6b69,rev?*
G04 #@! TF.SameCoordinates,Original*
G04 #@! TF.FileFunction,Legend,Top*
G04 #@! TF.FilePolarity,Positive*
%FSLAX46Y46*%
G04 Gerber Fmt 4.6, Leading zero omitted, Abs format (unit mm)*
G04 Created by KiCad (PCBNEW (5.1.9)-1) date 2022-11-25 22:29:39*
%MOMM*%
%LPD*%
G01*
G04 APERTURE LIST*
%ADD10C,0.150000*%
%ADD11C,0.200000*%
%ADD12C,0.120000*%
G04 APERTURE END LIST*
D10*
X18382504Y-77769980D02*
X18382504Y-76769980D01*
X18763457Y-76769980D01*
X18858695Y-76817600D01*
X18906314Y-76865219D01*
X18953933Y-76960457D01*
X18953933Y-77103314D01*
X18906314Y-77198552D01*
X18858695Y-77246171D01*
X18763457Y-77293790D01*
X18382504Y-77293790D01*
X19953933Y-77674742D02*
X19906314Y-77722361D01*
X19763457Y-77769980D01*
X19668219Y-77769980D01*
X19525361Y-77722361D01*
X19430123Y-77627123D01*
X19382504Y-77531885D01*
X19334885Y-77341409D01*
X19334885Y-77198552D01*
X19382504Y-77008076D01*
X19430123Y-76912838D01*
X19525361Y-76817600D01*
X19668219Y-76769980D01*
X19763457Y-76769980D01*
X19906314Y-76817600D01*
X19953933Y-76865219D01*
X20715838Y-77246171D02*
X20858695Y-77293790D01*
X20906314Y-77341409D01*
X20953933Y-77436647D01*
X20953933Y-77579504D01*
X20906314Y-77674742D01*
X20858695Y-77722361D01*
X20763457Y-77769980D01*
X20382504Y-77769980D01*
X20382504Y-76769980D01*
X20715838Y-76769980D01*
X20811076Y-76817600D01*
X20858695Y-76865219D01*
X20906314Y-76960457D01*
X20906314Y-77055695D01*
X20858695Y-77150933D01*
X20811076Y-77198552D01*
X20715838Y-77246171D01*
X20382504Y-77246171D01*
X21382504Y-77769980D02*
X21382504Y-76769980D01*
X21620600Y-76769980D01*
X21763457Y-76817600D01*
X21858695Y-76912838D01*
X21906314Y-77008076D01*
X21953933Y-77198552D01*
X21953933Y-77341409D01*
X21906314Y-77531885D01*
X21858695Y-77627123D01*
X21763457Y-77722361D01*
X21620600Y-77769980D01*
X21382504Y-77769980D01*
X23144409Y-77769980D02*
X23144409Y-76769980D01*
X23525361Y-76769980D01*
X23620600Y-76817600D01*
X23668219Y-76865219D01*
X23715838Y-76960457D01*
X23715838Y-77103314D01*
X23668219Y-77198552D01*
X23620600Y-77246171D01*
X23525361Y-77293790D01*
X23144409Y-77293790D01*
X24144409Y-77769980D02*
X24144409Y-77103314D01*
X24144409Y-77293790D02*
X24192028Y-77198552D01*
X24239647Y-77150933D01*
X24334885Y-77103314D01*
X24430123Y-77103314D01*
X24906314Y-77769980D02*
X24811076Y-77722361D01*
X24763457Y-77674742D01*
X24715838Y-77579504D01*
X24715838Y-77293790D01*
X24763457Y-77198552D01*
X24811076Y-77150933D01*
X24906314Y-77103314D01*
X25049171Y-77103314D01*
X25144409Y-77150933D01*
X25192028Y-77198552D01*
X25239647Y-77293790D01*
X25239647Y-77579504D01*
X25192028Y-77674742D01*
X25144409Y-77722361D01*
X25049171Y-77769980D01*
X24906314Y-77769980D01*
X25668219Y-77103314D02*
X25668219Y-77960457D01*
X25620600Y-78055695D01*
X25525361Y-78103314D01*
X25477742Y-78103314D01*
X25668219Y-76769980D02*
X25620600Y-76817600D01*
X25668219Y-76865219D01*
X25715838Y-76817600D01*
X25668219Y-76769980D01*
X25668219Y-76865219D01*
X26525361Y-77722361D02*
X26430123Y-77769980D01*
X26239647Y-77769980D01*
X26144409Y-77722361D01*
X26096790Y-77627123D01*
X26096790Y-77246171D01*
X26144409Y-77150933D01*
X26239647Y-77103314D01*
X26430123Y-77103314D01*
X26525361Y-77150933D01*
X26572980Y-77246171D01*
X26572980Y-77341409D01*
X26096790Y-77436647D01*
X27430123Y-77722361D02*
X27334885Y-77769980D01*
X27144409Y-77769980D01*
X27049171Y-77722361D01*
X27001552Y-77674742D01*
X26953933Y-77579504D01*
X26953933Y-77293790D01*
X27001552Y-77198552D01*
X27049171Y-77150933D01*
X27144409Y-77103314D01*
X27334885Y-77103314D01*
X27430123Y-77150933D01*
X27715838Y-77103314D02*
X28096790Y-77103314D01*
X27858695Y-76769980D02*
X27858695Y-77627123D01*
X27906314Y-77722361D01*
X28001552Y-77769980D01*
X28096790Y-77769980D01*
X29096790Y-77103314D02*
X29334885Y-77769980D01*
X29572980Y-77103314D01*
X30477742Y-77769980D02*
X29906314Y-77769980D01*
X30192028Y-77769980D02*
X30192028Y-76769980D01*
X30096790Y-76912838D01*
X30001552Y-77008076D01*
X29906314Y-77055695D01*
X30906314Y-77674742D02*
X30953933Y-77722361D01*
X30906314Y-77769980D01*
X30858695Y-77722361D01*
X30906314Y-77674742D01*
X30906314Y-77769980D01*
X31572980Y-76769980D02*
X31668219Y-76769980D01*
X31763457Y-76817600D01*
X31811076Y-76865219D01*
X31858695Y-76960457D01*
X31906314Y-77150933D01*
X31906314Y-77389028D01*
X31858695Y-77579504D01*
X31811076Y-77674742D01*
X31763457Y-77722361D01*
X31668219Y-77769980D01*
X31572980Y-77769980D01*
X31477742Y-77722361D01*
X31430123Y-77674742D01*
X31382504Y-77579504D01*
X31334885Y-77389028D01*
X31334885Y-77150933D01*
X31382504Y-76960457D01*
X31430123Y-76865219D01*
X31477742Y-76817600D01*
X31572980Y-76769980D01*
D11*
X83000000Y-1000000D02*
X63000000Y-1000000D01*
X83000000Y-6000000D02*
X83000000Y-1000000D01*
X63000000Y-6000000D02*
X83000000Y-6000000D01*
X63000000Y-1000000D02*
X63000000Y-6000000D01*
D12*
X7820800Y-30007000D02*
X7820800Y-39963800D01*
X-104000Y-30007000D02*
X7820800Y-30007000D01*
X-104000Y-39963800D02*
X7820800Y-39963800D01*
X912000Y-39963800D02*
X912000Y-30007000D01*
X81376000Y-70679000D02*
X83326000Y-70679000D01*
X81376000Y-70679000D02*
X79426000Y-70679000D01*
X81376000Y-61809000D02*
X83326000Y-61809000D01*
X81376000Y-61809000D02*
X77926000Y-61809000D01*
D10*
X87312000Y-39640000D02*
X87312000Y-46640000D01*
X90712000Y-39640000D02*
X90712000Y-46640000D01*
X90712000Y-46640000D02*
X87312000Y-46640000D01*
X90712000Y-39640000D02*
X87312000Y-39640000D01*
D12*
X84861252Y-61287000D02*
X84338748Y-61287000D01*
X84861252Y-59817000D02*
X84338748Y-59817000D01*
X84101000Y-11272936D02*
X84101000Y-11727064D01*
X85571000Y-11272936D02*
X85571000Y-11727064D01*
X45135800Y-76276200D02*
X61036200Y-76276200D01*
X45135800Y-67462400D02*
X45135800Y-76276200D01*
X61036200Y-67462400D02*
X45135800Y-67462400D01*
X61036200Y-76276200D02*
X61036200Y-67462400D01*
X55641000Y-56375000D02*
X55641000Y-50125000D01*
X60691000Y-56375000D02*
X60691000Y-50125000D01*
X60691000Y-56375000D02*
G75*
G02*
X55641000Y-56375000I-2525000J0D01*
G01*
X60691000Y-50125000D02*
G75*
G03*
X55641000Y-50125000I-2525000J0D01*
G01*
X13456250Y-1958750D02*
X13456250Y-2746250D01*
X13062500Y-2352500D02*
X13850000Y-2352500D01*
X14090000Y-6545563D02*
X15154437Y-7610000D01*
X14090000Y-1854437D02*
X15154437Y-790000D01*
X14090000Y-1854437D02*
X14090000Y-3140000D01*
X14090000Y-6545563D02*
X14090000Y-5260000D01*
X15154437Y-7610000D02*
X20910000Y-7610000D01*
X15154437Y-790000D02*
X20910000Y-790000D01*
X20910000Y-790000D02*
X20910000Y-3140000D01*
X20910000Y-7610000D02*
X20910000Y-5260000D01*
X16541250Y-16156250D02*
X15753750Y-16156250D01*
X16147500Y-15762500D02*
X16147500Y-16550000D01*
X11954437Y-16790000D02*
X10890000Y-17854437D01*
X16645563Y-16790000D02*
X17710000Y-17854437D01*
X16645563Y-16790000D02*
X15360000Y-16790000D01*
X11954437Y-16790000D02*
X13240000Y-16790000D01*
X10890000Y-17854437D02*
X10890000Y-23610000D01*
X17710000Y-17854437D02*
X17710000Y-23610000D01*
X17710000Y-23610000D02*
X15360000Y-23610000D01*
X10890000Y-23610000D02*
X13240000Y-23610000D01*
X31890000Y-24110000D02*
X34240000Y-24110000D01*
X38710000Y-24110000D02*
X36360000Y-24110000D01*
X38710000Y-18354437D02*
X38710000Y-24110000D01*
X31890000Y-18354437D02*
X31890000Y-24110000D01*
X32954437Y-17290000D02*
X34240000Y-17290000D01*
X37645563Y-17290000D02*
X36360000Y-17290000D01*
X37645563Y-17290000D02*
X38710000Y-18354437D01*
X32954437Y-17290000D02*
X31890000Y-18354437D01*
X37147500Y-16262500D02*
X37147500Y-17050000D01*
X37541250Y-16656250D02*
X36753750Y-16656250D01*
X41256000Y-7004000D02*
X38906000Y-7004000D01*
X34436000Y-7004000D02*
X36786000Y-7004000D01*
X34436000Y-12759563D02*
X34436000Y-7004000D01*
X41256000Y-12759563D02*
X41256000Y-7004000D01*
X40191563Y-13824000D02*
X38906000Y-13824000D01*
X35500437Y-13824000D02*
X36786000Y-13824000D01*
X35500437Y-13824000D02*
X34436000Y-12759563D01*
X40191563Y-13824000D02*
X41256000Y-12759563D01*
X35998500Y-14851500D02*
X35998500Y-14064000D01*
X35604750Y-14457750D02*
X36392250Y-14457750D01*
X43407000Y-57961252D02*
X43407000Y-57438748D01*
X41937000Y-57961252D02*
X41937000Y-57438748D01*
X51461252Y-59835000D02*
X50938748Y-59835000D01*
X51461252Y-58365000D02*
X50938748Y-58365000D01*
X54837000Y-49522748D02*
X54837000Y-50045252D01*
X53367000Y-49522748D02*
X53367000Y-50045252D01*
X43680748Y-47035000D02*
X44203252Y-47035000D01*
X43680748Y-45565000D02*
X44203252Y-45565000D01*
X54583000Y-56126748D02*
X54583000Y-56649252D01*
X53113000Y-56126748D02*
X53113000Y-56649252D01*
X62965000Y-55633252D02*
X62965000Y-55110748D01*
X61495000Y-55633252D02*
X61495000Y-55110748D01*
X62965000Y-51300748D02*
X62965000Y-51823252D01*
X61495000Y-51300748D02*
X61495000Y-51823252D01*
X18315000Y-68572748D02*
X18315000Y-69095252D01*
X19785000Y-68572748D02*
X19785000Y-69095252D01*
X29261252Y-46565000D02*
X28738748Y-46565000D01*
X29261252Y-48035000D02*
X28738748Y-48035000D01*
X31100000Y-15550000D02*
X31100000Y-13850000D01*
X31100000Y-13850000D02*
X28550000Y-13850000D01*
X31100000Y-15550000D02*
X28550000Y-15550000D01*
X27100000Y-4050000D02*
X24550000Y-4050000D01*
X27100000Y-2350000D02*
X24550000Y-2350000D01*
X27100000Y-4050000D02*
X27100000Y-2350000D01*
X9380000Y-12420000D02*
X5540000Y-12420000D01*
X9380000Y-10580000D02*
X5540000Y-10580000D01*
X97800Y-14981600D02*
X9114800Y-14981600D01*
X9114800Y-25014600D02*
X9114800Y-14981600D01*
X9114800Y-25014600D02*
X97800Y-25014600D01*
X1190000Y-25014600D02*
X1190000Y-14981600D01*
X92179200Y-22478400D02*
X92179200Y-15036200D01*
X100104000Y-22478400D02*
X92179200Y-22478400D01*
X100104000Y-15036200D02*
X92179200Y-15036200D01*
X99088000Y-15036200D02*
X99088000Y-22478400D01*
X99088000Y-28036200D02*
X99088000Y-35478400D01*
X100104000Y-28036200D02*
X92179200Y-28036200D01*
X100104000Y-35478400D02*
X92179200Y-35478400D01*
X92179200Y-35478400D02*
X92179200Y-28036200D01*
X92179200Y-46478400D02*
X92179200Y-39036200D01*
X100104000Y-46478400D02*
X92179200Y-46478400D01*
X100104000Y-39036200D02*
X92179200Y-39036200D01*
X99088000Y-39036200D02*
X99088000Y-46478400D01*
X99088000Y-51036200D02*
X99088000Y-58478400D01*
X100104000Y-51036200D02*
X92179200Y-51036200D01*
X100104000Y-58478400D02*
X92179200Y-58478400D01*
X92179200Y-58478400D02*
X92179200Y-51036200D01*
X4550000Y-50040000D02*
X7150000Y-50040000D01*
X7150000Y-57960000D02*
X4550000Y-57960000D01*
X9460000Y-50800000D02*
X9460000Y-51950000D01*
X9460000Y-51950000D02*
X10050000Y-51950000D01*
X10050000Y-51950000D02*
X10050000Y-52650000D01*
X9460000Y-56050000D02*
X9460000Y-57200000D01*
X1650000Y-50040000D02*
X-10000Y-50040000D01*
X-10000Y-50040000D02*
X-10000Y-57960000D01*
X-10000Y-57960000D02*
X1650000Y-57960000D01*
X13341000Y-9341000D02*
X13341000Y-10534800D01*
X13341000Y-13659000D02*
X17659000Y-13659000D01*
X13341000Y-9341000D02*
X17659000Y-9341000D01*
X13341000Y-10001400D02*
X13925200Y-9341000D01*
X13341000Y-12465200D02*
X13341000Y-13659000D01*
X17659000Y-12465200D02*
X17659000Y-13659000D01*
X17659000Y-9341000D02*
X17659000Y-10534800D01*
X27440000Y-8455000D02*
X27440000Y-11545000D01*
X32500000Y-10000000D02*
G75*
G03*
X32500000Y-10000000I-2500000J0D01*
G01*
X32990000Y-9999538D02*
G75*
G02*
X27440000Y-11544830I-2990000J-462D01*
G01*
X32990000Y-10000462D02*
G75*
G03*
X27440000Y-8455170I-2990000J462D01*
G01*
X47470000Y-10000000D02*
G75*
G03*
X47470000Y-10000000I-2500000J0D01*
G01*
X42410000Y-8455000D02*
X42410000Y-11545000D01*
X47960000Y-10000462D02*
G75*
G03*
X42410000Y-8455170I-2990000J462D01*
G01*
X47960000Y-9999538D02*
G75*
G02*
X42410000Y-11544830I-2990000J-462D01*
G01*
X17440000Y-33455000D02*
X17440000Y-36545000D01*
X22500000Y-35000000D02*
G75*
G03*
X22500000Y-35000000I-2500000J0D01*
G01*
X22990000Y-34999538D02*
G75*
G02*
X17440000Y-36544830I-2990000J-462D01*
G01*
X22990000Y-35000462D02*
G75*
G03*
X17440000Y-33455170I-2990000J462D01*
G01*
X82500000Y-27000000D02*
G75*
G03*
X82500000Y-27000000I-2500000J0D01*
G01*
X77440000Y-25455000D02*
X77440000Y-28545000D01*
X82990000Y-27000462D02*
G75*
G03*
X77440000Y-25455170I-2990000J462D01*
G01*
X82990000Y-26999538D02*
G75*
G02*
X77440000Y-28544830I-2990000J-462D01*
G01*
X82500000Y-39000000D02*
G75*
G03*
X82500000Y-39000000I-2500000J0D01*
G01*
X77440000Y-37455000D02*
X77440000Y-40545000D01*
X82990000Y-39000462D02*
G75*
G03*
X77440000Y-37455170I-2990000J462D01*
G01*
X82990000Y-38999538D02*
G75*
G02*
X77440000Y-40544830I-2990000J-462D01*
G01*
X77440000Y-49455000D02*
X77440000Y-52545000D01*
X82500000Y-51000000D02*
G75*
G03*
X82500000Y-51000000I-2500000J0D01*
G01*
X82990000Y-50999538D02*
G75*
G02*
X77440000Y-52544830I-2990000J-462D01*
G01*
X82990000Y-51000462D02*
G75*
G03*
X77440000Y-49455170I-2990000J462D01*
G01*
X83548000Y-10740000D02*
X83548000Y-12200000D01*
X80388000Y-10740000D02*
X80388000Y-12900000D01*
X80388000Y-10740000D02*
X81318000Y-10740000D01*
X83548000Y-10740000D02*
X82618000Y-10740000D01*
X33140000Y-32520000D02*
X33140000Y-33450000D01*
X33140000Y-35680000D02*
X33140000Y-34750000D01*
X33140000Y-35680000D02*
X35300000Y-35680000D01*
X33140000Y-32520000D02*
X34600000Y-32520000D01*
D10*
X89350000Y-15000000D02*
X85950000Y-15000000D01*
X89350000Y-22000000D02*
X85950000Y-22000000D01*
X89350000Y-15000000D02*
X89350000Y-22000000D01*
X85950000Y-15000000D02*
X85950000Y-22000000D01*
X12750000Y-33400000D02*
X12750000Y-26400000D01*
X9350000Y-33400000D02*
X9350000Y-26400000D01*
X9350000Y-26400000D02*
X12750000Y-26400000D01*
X9350000Y-33400000D02*
X12750000Y-33400000D01*
X12750000Y-36500000D02*
X9350000Y-36500000D01*
X12750000Y-43500000D02*
X9350000Y-43500000D01*
X12750000Y-36500000D02*
X12750000Y-43500000D01*
X9350000Y-36500000D02*
X9350000Y-43500000D01*
X87312000Y-28500000D02*
X87312000Y-35500000D01*
X90712000Y-28500000D02*
X90712000Y-35500000D01*
X90712000Y-35500000D02*
X87312000Y-35500000D01*
X90712000Y-28500000D02*
X87312000Y-28500000D01*
X90712000Y-51578000D02*
X87312000Y-51578000D01*
X90712000Y-58578000D02*
X87312000Y-58578000D01*
X90712000Y-51578000D02*
X90712000Y-58578000D01*
X87312000Y-51578000D02*
X87312000Y-58578000D01*
D12*
X24910000Y-9272936D02*
X24910000Y-10727064D01*
X23090000Y-9272936D02*
X23090000Y-10727064D01*
X12435000Y-56072936D02*
X12435000Y-56527064D01*
X10965000Y-56072936D02*
X10965000Y-56527064D01*
X19735000Y-64772936D02*
X19735000Y-65227064D01*
X18265000Y-64772936D02*
X18265000Y-65227064D01*
X51910000Y-10727064D02*
X51910000Y-9272936D01*
X50090000Y-10727064D02*
X50090000Y-9272936D01*
X28727064Y-33490000D02*
X27272936Y-33490000D01*
X28727064Y-35310000D02*
X27272936Y-35310000D01*
X24990000Y-44227064D02*
X24990000Y-42772936D01*
X26810000Y-44227064D02*
X26810000Y-42772936D01*
X83622000Y-26783064D02*
X83622000Y-25328936D01*
X85442000Y-26783064D02*
X85442000Y-25328936D01*
X85350000Y-39283064D02*
X85350000Y-37828936D01*
X83530000Y-39283064D02*
X83530000Y-37828936D01*
X83592000Y-50913064D02*
X83592000Y-49458936D01*
X85412000Y-50913064D02*
X85412000Y-49458936D01*
X47827064Y-58365000D02*
X47372936Y-58365000D01*
X47827064Y-59835000D02*
X47372936Y-59835000D01*
X23878600Y-60119000D02*
X25123200Y-58899800D01*
X36096000Y-68755000D02*
X36096000Y-71091800D01*
X36096000Y-71091800D02*
X23878600Y-71091800D01*
X23878600Y-71091800D02*
X23878600Y-68729600D01*
X36096000Y-63700400D02*
X36096000Y-66291200D01*
X23878600Y-61287400D02*
X23878600Y-58874400D01*
X23878600Y-58874400D02*
X36096000Y-58874400D01*
X36096000Y-58874400D02*
X36096000Y-61287400D01*
X23878600Y-66291200D02*
X23878600Y-63725800D01*
X18650000Y-24750000D02*
X20980000Y-24750000D01*
X18650000Y-22300000D02*
X18650000Y-24750000D01*
X30920000Y-24420000D02*
X18980000Y-24420000D01*
X30920000Y-16570000D02*
X30920000Y-24420000D01*
X18980000Y-16570000D02*
X30920000Y-16570000D01*
X18980000Y-24420000D02*
X18980000Y-16570000D01*
X47630000Y-24492000D02*
X47630000Y-23232000D01*
X47630000Y-17672000D02*
X47630000Y-18932000D01*
X43870000Y-24492000D02*
X47630000Y-24492000D01*
X41620000Y-17672000D02*
X47630000Y-17672000D01*
X51210000Y-55860000D02*
X52500000Y-55860000D01*
X51210000Y-56310000D02*
X51210000Y-55860000D01*
X50760000Y-56310000D02*
X51210000Y-56310000D01*
X43990000Y-56310000D02*
X43990000Y-55860000D01*
X44440000Y-56310000D02*
X43990000Y-56310000D01*
X51210000Y-49090000D02*
X51210000Y-49540000D01*
X50760000Y-49090000D02*
X51210000Y-49090000D01*
X43990000Y-49090000D02*
X43990000Y-49540000D01*
X44440000Y-49090000D02*
X43990000Y-49090000D01*
X80650000Y-20260000D02*
X80650000Y-16660000D01*
X79922795Y-20784184D02*
G75*
G03*
X80650000Y-20260000I-1122795J2324184D01*
G01*
X77701193Y-20816400D02*
G75*
G02*
X76200000Y-18460000I1098807J2356400D01*
G01*
X77701193Y-16103600D02*
G75*
G03*
X76200000Y-18460000I1098807J-2356400D01*
G01*
X79922795Y-16135816D02*
G75*
G02*
X80650000Y-16660000I-1122795J-2324184D01*
G01*
X32200000Y-40840000D02*
X30250000Y-40840000D01*
X32200000Y-40840000D02*
X34150000Y-40840000D01*
X32200000Y-45960000D02*
X30250000Y-45960000D01*
X32200000Y-45960000D02*
X35650000Y-45960000D01*
D10*
X4666666Y-41452380D02*
X4666666Y-42166666D01*
X4619047Y-42309523D01*
X4523809Y-42404761D01*
X4380952Y-42452380D01*
X4285714Y-42452380D01*
X5571428Y-41452380D02*
X5380952Y-41452380D01*
X5285714Y-41500000D01*
X5238095Y-41547619D01*
X5142857Y-41690476D01*
X5095238Y-41880952D01*
X5095238Y-42261904D01*
X5142857Y-42357142D01*
X5190476Y-42404761D01*
X5285714Y-42452380D01*
X5476190Y-42452380D01*
X5571428Y-42404761D01*
X5619047Y-42357142D01*
X5666666Y-42261904D01*
X5666666Y-42023809D01*
X5619047Y-41928571D01*
X5571428Y-41880952D01*
X5476190Y-41833333D01*
X5285714Y-41833333D01*
X5190476Y-41880952D01*
X5142857Y-41928571D01*
X5095238Y-42023809D01*
X80614095Y-71296380D02*
X80614095Y-72105904D01*
X80661714Y-72201142D01*
X80709333Y-72248761D01*
X80804571Y-72296380D01*
X80995047Y-72296380D01*
X81090285Y-72248761D01*
X81137904Y-72201142D01*
X81185523Y-72105904D01*
X81185523Y-71296380D01*
X82090285Y-71296380D02*
X81899809Y-71296380D01*
X81804571Y-71344000D01*
X81756952Y-71391619D01*
X81661714Y-71534476D01*
X81614095Y-71724952D01*
X81614095Y-72105904D01*
X81661714Y-72201142D01*
X81709333Y-72248761D01*
X81804571Y-72296380D01*
X81995047Y-72296380D01*
X82090285Y-72248761D01*
X82137904Y-72201142D01*
X82185523Y-72105904D01*
X82185523Y-71867809D01*
X82137904Y-71772571D01*
X82090285Y-71724952D01*
X81995047Y-71677333D01*
X81804571Y-71677333D01*
X81709333Y-71724952D01*
X81661714Y-71772571D01*
X81614095Y-71867809D01*
X86764380Y-44901904D02*
X85764380Y-44901904D01*
X86478666Y-44568571D01*
X85764380Y-44235238D01*
X86764380Y-44235238D01*
X85764380Y-43568571D02*
X85764380Y-43378095D01*
X85812000Y-43282857D01*
X85907238Y-43187619D01*
X86097714Y-43140000D01*
X86431047Y-43140000D01*
X86621523Y-43187619D01*
X86716761Y-43282857D01*
X86764380Y-43378095D01*
X86764380Y-43568571D01*
X86716761Y-43663809D01*
X86621523Y-43759047D01*
X86431047Y-43806666D01*
X86097714Y-43806666D01*
X85907238Y-43759047D01*
X85812000Y-43663809D01*
X85764380Y-43568571D01*
X85764380Y-42854285D02*
X86764380Y-42520952D01*
X85764380Y-42187619D01*
X85764380Y-41378095D02*
X85764380Y-41854285D01*
X86240571Y-41901904D01*
X86192952Y-41854285D01*
X86145333Y-41759047D01*
X86145333Y-41520952D01*
X86192952Y-41425714D01*
X86240571Y-41378095D01*
X86335809Y-41330476D01*
X86573904Y-41330476D01*
X86669142Y-41378095D01*
X86716761Y-41425714D01*
X86764380Y-41520952D01*
X86764380Y-41759047D01*
X86716761Y-41854285D01*
X86669142Y-41901904D01*
X80357142Y-60809142D02*
X80309523Y-60856761D01*
X80166666Y-60904380D01*
X80071428Y-60904380D01*
X79928571Y-60856761D01*
X79833333Y-60761523D01*
X79785714Y-60666285D01*
X79738095Y-60475809D01*
X79738095Y-60332952D01*
X79785714Y-60142476D01*
X79833333Y-60047238D01*
X79928571Y-59952000D01*
X80071428Y-59904380D01*
X80166666Y-59904380D01*
X80309523Y-59952000D01*
X80357142Y-59999619D01*
X81309523Y-60904380D02*
X80738095Y-60904380D01*
X81023809Y-60904380D02*
X81023809Y-59904380D01*
X80928571Y-60047238D01*
X80833333Y-60142476D01*
X80738095Y-60190095D01*
X81642857Y-59904380D02*
X82261904Y-59904380D01*
X81928571Y-60285333D01*
X82071428Y-60285333D01*
X82166666Y-60332952D01*
X82214285Y-60380571D01*
X82261904Y-60475809D01*
X82261904Y-60713904D01*
X82214285Y-60809142D01*
X82166666Y-60856761D01*
X82071428Y-60904380D01*
X81785714Y-60904380D01*
X81690476Y-60856761D01*
X81642857Y-60809142D01*
X87452380Y-11666666D02*
X86976190Y-12000000D01*
X87452380Y-12238095D02*
X86452380Y-12238095D01*
X86452380Y-11857142D01*
X86500000Y-11761904D01*
X86547619Y-11714285D01*
X86642857Y-11666666D01*
X86785714Y-11666666D01*
X86880952Y-11714285D01*
X86928571Y-11761904D01*
X86976190Y-11857142D01*
X86976190Y-12238095D01*
X86452380Y-10761904D02*
X86452380Y-11238095D01*
X86928571Y-11285714D01*
X86880952Y-11238095D01*
X86833333Y-11142857D01*
X86833333Y-10904761D01*
X86880952Y-10809523D01*
X86928571Y-10761904D01*
X87023809Y-10714285D01*
X87261904Y-10714285D01*
X87357142Y-10761904D01*
X87404761Y-10809523D01*
X87452380Y-10904761D01*
X87452380Y-11142857D01*
X87404761Y-11238095D01*
X87357142Y-11285714D01*
X52397066Y-64933580D02*
X52397066Y-65647866D01*
X52349447Y-65790723D01*
X52254209Y-65885961D01*
X52111352Y-65933580D01*
X52016114Y-65933580D01*
X53016114Y-65362152D02*
X52920876Y-65314533D01*
X52873257Y-65266914D01*
X52825638Y-65171676D01*
X52825638Y-65124057D01*
X52873257Y-65028819D01*
X52920876Y-64981200D01*
X53016114Y-64933580D01*
X53206590Y-64933580D01*
X53301828Y-64981200D01*
X53349447Y-65028819D01*
X53397066Y-65124057D01*
X53397066Y-65171676D01*
X53349447Y-65266914D01*
X53301828Y-65314533D01*
X53206590Y-65362152D01*
X53016114Y-65362152D01*
X52920876Y-65409771D01*
X52873257Y-65457390D01*
X52825638Y-65552628D01*
X52825638Y-65743104D01*
X52873257Y-65838342D01*
X52920876Y-65885961D01*
X53016114Y-65933580D01*
X53206590Y-65933580D01*
X53301828Y-65885961D01*
X53349447Y-65838342D01*
X53397066Y-65743104D01*
X53397066Y-65552628D01*
X53349447Y-65457390D01*
X53301828Y-65409771D01*
X53206590Y-65362152D01*
X57356476Y-46152380D02*
X58023142Y-47152380D01*
X58023142Y-46152380D02*
X57356476Y-47152380D01*
X58927904Y-47152380D02*
X58356476Y-47152380D01*
X58642190Y-47152380D02*
X58642190Y-46152380D01*
X58546952Y-46295238D01*
X58451714Y-46390476D01*
X58356476Y-46438095D01*
X12357142Y-4166666D02*
X12404761Y-4214285D01*
X12452380Y-4357142D01*
X12452380Y-4452380D01*
X12404761Y-4595238D01*
X12309523Y-4690476D01*
X12214285Y-4738095D01*
X12023809Y-4785714D01*
X11880952Y-4785714D01*
X11690476Y-4738095D01*
X11595238Y-4690476D01*
X11500000Y-4595238D01*
X11452380Y-4452380D01*
X11452380Y-4357142D01*
X11500000Y-4214285D01*
X11547619Y-4166666D01*
X12452380Y-3214285D02*
X12452380Y-3785714D01*
X12452380Y-3500000D02*
X11452380Y-3500000D01*
X11595238Y-3595238D01*
X11690476Y-3690476D01*
X11738095Y-3785714D01*
X16433333Y-25157142D02*
X16385714Y-25204761D01*
X16242857Y-25252380D01*
X16147619Y-25252380D01*
X16004761Y-25204761D01*
X15909523Y-25109523D01*
X15861904Y-25014285D01*
X15814285Y-24823809D01*
X15814285Y-24680952D01*
X15861904Y-24490476D01*
X15909523Y-24395238D01*
X16004761Y-24300000D01*
X16147619Y-24252380D01*
X16242857Y-24252380D01*
X16385714Y-24300000D01*
X16433333Y-24347619D01*
X16814285Y-24347619D02*
X16861904Y-24300000D01*
X16957142Y-24252380D01*
X17195238Y-24252380D01*
X17290476Y-24300000D01*
X17338095Y-24347619D01*
X17385714Y-24442857D01*
X17385714Y-24538095D01*
X17338095Y-24680952D01*
X16766666Y-25252380D01*
X17385714Y-25252380D01*
X32733333Y-16257142D02*
X32685714Y-16304761D01*
X32542857Y-16352380D01*
X32447619Y-16352380D01*
X32304761Y-16304761D01*
X32209523Y-16209523D01*
X32161904Y-16114285D01*
X32114285Y-15923809D01*
X32114285Y-15780952D01*
X32161904Y-15590476D01*
X32209523Y-15495238D01*
X32304761Y-15400000D01*
X32447619Y-15352380D01*
X32542857Y-15352380D01*
X32685714Y-15400000D01*
X32733333Y-15447619D01*
X33066666Y-15352380D02*
X33685714Y-15352380D01*
X33352380Y-15733333D01*
X33495238Y-15733333D01*
X33590476Y-15780952D01*
X33638095Y-15828571D01*
X33685714Y-15923809D01*
X33685714Y-16161904D01*
X33638095Y-16257142D01*
X33590476Y-16304761D01*
X33495238Y-16352380D01*
X33209523Y-16352380D01*
X33114285Y-16304761D01*
X33066666Y-16257142D01*
X39833333Y-6357142D02*
X39785714Y-6404761D01*
X39642857Y-6452380D01*
X39547619Y-6452380D01*
X39404761Y-6404761D01*
X39309523Y-6309523D01*
X39261904Y-6214285D01*
X39214285Y-6023809D01*
X39214285Y-5880952D01*
X39261904Y-5690476D01*
X39309523Y-5595238D01*
X39404761Y-5500000D01*
X39547619Y-5452380D01*
X39642857Y-5452380D01*
X39785714Y-5500000D01*
X39833333Y-5547619D01*
X40690476Y-5785714D02*
X40690476Y-6452380D01*
X40452380Y-5404761D02*
X40214285Y-6119047D01*
X40833333Y-6119047D01*
X41329142Y-57866666D02*
X41376761Y-57914285D01*
X41424380Y-58057142D01*
X41424380Y-58152380D01*
X41376761Y-58295238D01*
X41281523Y-58390476D01*
X41186285Y-58438095D01*
X40995809Y-58485714D01*
X40852952Y-58485714D01*
X40662476Y-58438095D01*
X40567238Y-58390476D01*
X40472000Y-58295238D01*
X40424380Y-58152380D01*
X40424380Y-58057142D01*
X40472000Y-57914285D01*
X40519619Y-57866666D01*
X40424380Y-56961904D02*
X40424380Y-57438095D01*
X40900571Y-57485714D01*
X40852952Y-57438095D01*
X40805333Y-57342857D01*
X40805333Y-57104761D01*
X40852952Y-57009523D01*
X40900571Y-56961904D01*
X40995809Y-56914285D01*
X41233904Y-56914285D01*
X41329142Y-56961904D01*
X41376761Y-57009523D01*
X41424380Y-57104761D01*
X41424380Y-57342857D01*
X41376761Y-57438095D01*
X41329142Y-57485714D01*
X51033333Y-61137142D02*
X50985714Y-61184761D01*
X50842857Y-61232380D01*
X50747619Y-61232380D01*
X50604761Y-61184761D01*
X50509523Y-61089523D01*
X50461904Y-60994285D01*
X50414285Y-60803809D01*
X50414285Y-60660952D01*
X50461904Y-60470476D01*
X50509523Y-60375238D01*
X50604761Y-60280000D01*
X50747619Y-60232380D01*
X50842857Y-60232380D01*
X50985714Y-60280000D01*
X51033333Y-60327619D01*
X51890476Y-60232380D02*
X51700000Y-60232380D01*
X51604761Y-60280000D01*
X51557142Y-60327619D01*
X51461904Y-60470476D01*
X51414285Y-60660952D01*
X51414285Y-61041904D01*
X51461904Y-61137142D01*
X51509523Y-61184761D01*
X51604761Y-61232380D01*
X51795238Y-61232380D01*
X51890476Y-61184761D01*
X51938095Y-61137142D01*
X51985714Y-61041904D01*
X51985714Y-60803809D01*
X51938095Y-60708571D01*
X51890476Y-60660952D01*
X51795238Y-60613333D01*
X51604761Y-60613333D01*
X51509523Y-60660952D01*
X51461904Y-60708571D01*
X51414285Y-60803809D01*
X53835333Y-52941142D02*
X53787714Y-52988761D01*
X53644857Y-53036380D01*
X53549619Y-53036380D01*
X53406761Y-52988761D01*
X53311523Y-52893523D01*
X53263904Y-52798285D01*
X53216285Y-52607809D01*
X53216285Y-52464952D01*
X53263904Y-52274476D01*
X53311523Y-52179238D01*
X53406761Y-52084000D01*
X53549619Y-52036380D01*
X53644857Y-52036380D01*
X53787714Y-52084000D01*
X53835333Y-52131619D01*
X54168666Y-52036380D02*
X54835333Y-52036380D01*
X54406761Y-53036380D01*
X40875333Y-46657142D02*
X40827714Y-46704761D01*
X40684857Y-46752380D01*
X40589619Y-46752380D01*
X40446761Y-46704761D01*
X40351523Y-46609523D01*
X40303904Y-46514285D01*
X40256285Y-46323809D01*
X40256285Y-46180952D01*
X40303904Y-45990476D01*
X40351523Y-45895238D01*
X40446761Y-45800000D01*
X40589619Y-45752380D01*
X40684857Y-45752380D01*
X40827714Y-45800000D01*
X40875333Y-45847619D01*
X41446761Y-46180952D02*
X41351523Y-46133333D01*
X41303904Y-46085714D01*
X41256285Y-45990476D01*
X41256285Y-45942857D01*
X41303904Y-45847619D01*
X41351523Y-45800000D01*
X41446761Y-45752380D01*
X41637238Y-45752380D01*
X41732476Y-45800000D01*
X41780095Y-45847619D01*
X41827714Y-45942857D01*
X41827714Y-45990476D01*
X41780095Y-46085714D01*
X41732476Y-46133333D01*
X41637238Y-46180952D01*
X41446761Y-46180952D01*
X41351523Y-46228571D01*
X41303904Y-46276190D01*
X41256285Y-46371428D01*
X41256285Y-46561904D01*
X41303904Y-46657142D01*
X41351523Y-46704761D01*
X41446761Y-46752380D01*
X41637238Y-46752380D01*
X41732476Y-46704761D01*
X41780095Y-46657142D01*
X41827714Y-46561904D01*
X41827714Y-46371428D01*
X41780095Y-46276190D01*
X41732476Y-46228571D01*
X41637238Y-46180952D01*
X53935333Y-59031142D02*
X53887714Y-59078761D01*
X53744857Y-59126380D01*
X53649619Y-59126380D01*
X53506761Y-59078761D01*
X53411523Y-58983523D01*
X53363904Y-58888285D01*
X53316285Y-58697809D01*
X53316285Y-58554952D01*
X53363904Y-58364476D01*
X53411523Y-58269238D01*
X53506761Y-58174000D01*
X53649619Y-58126380D01*
X53744857Y-58126380D01*
X53887714Y-58174000D01*
X53935333Y-58221619D01*
X54411523Y-59126380D02*
X54602000Y-59126380D01*
X54697238Y-59078761D01*
X54744857Y-59031142D01*
X54840095Y-58888285D01*
X54887714Y-58697809D01*
X54887714Y-58316857D01*
X54840095Y-58221619D01*
X54792476Y-58174000D01*
X54697238Y-58126380D01*
X54506761Y-58126380D01*
X54411523Y-58174000D01*
X54363904Y-58221619D01*
X54316285Y-58316857D01*
X54316285Y-58554952D01*
X54363904Y-58650190D01*
X54411523Y-58697809D01*
X54506761Y-58745428D01*
X54697238Y-58745428D01*
X54792476Y-58697809D01*
X54840095Y-58650190D01*
X54887714Y-58554952D01*
X64587142Y-56014857D02*
X64634761Y-56062476D01*
X64682380Y-56205333D01*
X64682380Y-56300571D01*
X64634761Y-56443428D01*
X64539523Y-56538666D01*
X64444285Y-56586285D01*
X64253809Y-56633904D01*
X64110952Y-56633904D01*
X63920476Y-56586285D01*
X63825238Y-56538666D01*
X63730000Y-56443428D01*
X63682380Y-56300571D01*
X63682380Y-56205333D01*
X63730000Y-56062476D01*
X63777619Y-56014857D01*
X64682380Y-55062476D02*
X64682380Y-55633904D01*
X64682380Y-55348190D02*
X63682380Y-55348190D01*
X63825238Y-55443428D01*
X63920476Y-55538666D01*
X63968095Y-55633904D01*
X63682380Y-54443428D02*
X63682380Y-54348190D01*
X63730000Y-54252952D01*
X63777619Y-54205333D01*
X63872857Y-54157714D01*
X64063333Y-54110095D01*
X64301428Y-54110095D01*
X64491904Y-54157714D01*
X64587142Y-54205333D01*
X64634761Y-54252952D01*
X64682380Y-54348190D01*
X64682380Y-54443428D01*
X64634761Y-54538666D01*
X64587142Y-54586285D01*
X64491904Y-54633904D01*
X64301428Y-54681523D01*
X64063333Y-54681523D01*
X63872857Y-54633904D01*
X63777619Y-54586285D01*
X63730000Y-54538666D01*
X63682380Y-54443428D01*
X64267142Y-52204857D02*
X64314761Y-52252476D01*
X64362380Y-52395333D01*
X64362380Y-52490571D01*
X64314761Y-52633428D01*
X64219523Y-52728666D01*
X64124285Y-52776285D01*
X63933809Y-52823904D01*
X63790952Y-52823904D01*
X63600476Y-52776285D01*
X63505238Y-52728666D01*
X63410000Y-52633428D01*
X63362380Y-52490571D01*
X63362380Y-52395333D01*
X63410000Y-52252476D01*
X63457619Y-52204857D01*
X64362380Y-51252476D02*
X64362380Y-51823904D01*
X64362380Y-51538190D02*
X63362380Y-51538190D01*
X63505238Y-51633428D01*
X63600476Y-51728666D01*
X63648095Y-51823904D01*
X64362380Y-50300095D02*
X64362380Y-50871523D01*
X64362380Y-50585809D02*
X63362380Y-50585809D01*
X63505238Y-50681047D01*
X63600476Y-50776285D01*
X63648095Y-50871523D01*
X17407142Y-69476857D02*
X17454761Y-69524476D01*
X17502380Y-69667333D01*
X17502380Y-69762571D01*
X17454761Y-69905428D01*
X17359523Y-70000666D01*
X17264285Y-70048285D01*
X17073809Y-70095904D01*
X16930952Y-70095904D01*
X16740476Y-70048285D01*
X16645238Y-70000666D01*
X16550000Y-69905428D01*
X16502380Y-69762571D01*
X16502380Y-69667333D01*
X16550000Y-69524476D01*
X16597619Y-69476857D01*
X17502380Y-68524476D02*
X17502380Y-69095904D01*
X17502380Y-68810190D02*
X16502380Y-68810190D01*
X16645238Y-68905428D01*
X16740476Y-69000666D01*
X16788095Y-69095904D01*
X16597619Y-68143523D02*
X16550000Y-68095904D01*
X16502380Y-68000666D01*
X16502380Y-67762571D01*
X16550000Y-67667333D01*
X16597619Y-67619714D01*
X16692857Y-67572095D01*
X16788095Y-67572095D01*
X16930952Y-67619714D01*
X17502380Y-68191142D01*
X17502380Y-67572095D01*
X28357142Y-49357142D02*
X28309523Y-49404761D01*
X28166666Y-49452380D01*
X28071428Y-49452380D01*
X27928571Y-49404761D01*
X27833333Y-49309523D01*
X27785714Y-49214285D01*
X27738095Y-49023809D01*
X27738095Y-48880952D01*
X27785714Y-48690476D01*
X27833333Y-48595238D01*
X27928571Y-48500000D01*
X28071428Y-48452380D01*
X28166666Y-48452380D01*
X28309523Y-48500000D01*
X28357142Y-48547619D01*
X29309523Y-49452380D02*
X28738095Y-49452380D01*
X29023809Y-49452380D02*
X29023809Y-48452380D01*
X28928571Y-48595238D01*
X28833333Y-48690476D01*
X28738095Y-48738095D01*
X30166666Y-48785714D02*
X30166666Y-49452380D01*
X29928571Y-48404761D02*
X29690476Y-49119047D01*
X30309523Y-49119047D01*
X31861904Y-14452380D02*
X31861904Y-13452380D01*
X32100000Y-13452380D01*
X32242857Y-13500000D01*
X32338095Y-13595238D01*
X32385714Y-13690476D01*
X32433333Y-13880952D01*
X32433333Y-14023809D01*
X32385714Y-14214285D01*
X32338095Y-14309523D01*
X32242857Y-14404761D01*
X32100000Y-14452380D01*
X31861904Y-14452380D01*
X33385714Y-14452380D02*
X32814285Y-14452380D01*
X33100000Y-14452380D02*
X33100000Y-13452380D01*
X33004761Y-13595238D01*
X32909523Y-13690476D01*
X32814285Y-13738095D01*
X24861904Y-5502380D02*
X24861904Y-4502380D01*
X25100000Y-4502380D01*
X25242857Y-4550000D01*
X25338095Y-4645238D01*
X25385714Y-4740476D01*
X25433333Y-4930952D01*
X25433333Y-5073809D01*
X25385714Y-5264285D01*
X25338095Y-5359523D01*
X25242857Y-5454761D01*
X25100000Y-5502380D01*
X24861904Y-5502380D01*
X25814285Y-4597619D02*
X25861904Y-4550000D01*
X25957142Y-4502380D01*
X26195238Y-4502380D01*
X26290476Y-4550000D01*
X26338095Y-4597619D01*
X26385714Y-4692857D01*
X26385714Y-4788095D01*
X26338095Y-4930952D01*
X25766666Y-5502380D01*
X26385714Y-5502380D01*
X7126666Y-13348571D02*
X6793333Y-13348571D01*
X6793333Y-13872380D02*
X6793333Y-12872380D01*
X7269523Y-12872380D01*
X8174285Y-13872380D02*
X7602857Y-13872380D01*
X7888571Y-13872380D02*
X7888571Y-12872380D01*
X7793333Y-13015238D01*
X7698095Y-13110476D01*
X7602857Y-13158095D01*
X4666666Y-26452380D02*
X4666666Y-27166666D01*
X4619047Y-27309523D01*
X4523809Y-27404761D01*
X4380952Y-27452380D01*
X4285714Y-27452380D01*
X5666666Y-27452380D02*
X5095238Y-27452380D01*
X5380952Y-27452380D02*
X5380952Y-26452380D01*
X5285714Y-26595238D01*
X5190476Y-26690476D01*
X5095238Y-26738095D01*
X89404380Y-19611333D02*
X90118666Y-19611333D01*
X90261523Y-19658952D01*
X90356761Y-19754190D01*
X90404380Y-19897047D01*
X90404380Y-19992285D01*
X89499619Y-19182761D02*
X89452000Y-19135142D01*
X89404380Y-19039904D01*
X89404380Y-18801809D01*
X89452000Y-18706571D01*
X89499619Y-18658952D01*
X89594857Y-18611333D01*
X89690095Y-18611333D01*
X89832952Y-18658952D01*
X90404380Y-19230380D01*
X90404380Y-18611333D01*
X94666666Y-25452380D02*
X94666666Y-26166666D01*
X94619047Y-26309523D01*
X94523809Y-26404761D01*
X94380952Y-26452380D01*
X94285714Y-26452380D01*
X95047619Y-25452380D02*
X95666666Y-25452380D01*
X95333333Y-25833333D01*
X95476190Y-25833333D01*
X95571428Y-25880952D01*
X95619047Y-25928571D01*
X95666666Y-26023809D01*
X95666666Y-26261904D01*
X95619047Y-26357142D01*
X95571428Y-26404761D01*
X95476190Y-26452380D01*
X95190476Y-26452380D01*
X95095238Y-26404761D01*
X95047619Y-26357142D01*
X94666666Y-36452380D02*
X94666666Y-37166666D01*
X94619047Y-37309523D01*
X94523809Y-37404761D01*
X94380952Y-37452380D01*
X94285714Y-37452380D01*
X95571428Y-36785714D02*
X95571428Y-37452380D01*
X95333333Y-36404761D02*
X95095238Y-37119047D01*
X95714285Y-37119047D01*
X94666666Y-48452380D02*
X94666666Y-49166666D01*
X94619047Y-49309523D01*
X94523809Y-49404761D01*
X94380952Y-49452380D01*
X94285714Y-49452380D01*
X95619047Y-48452380D02*
X95142857Y-48452380D01*
X95095238Y-48928571D01*
X95142857Y-48880952D01*
X95238095Y-48833333D01*
X95476190Y-48833333D01*
X95571428Y-48880952D01*
X95619047Y-48928571D01*
X95666666Y-49023809D01*
X95666666Y-49261904D01*
X95619047Y-49357142D01*
X95571428Y-49404761D01*
X95476190Y-49452380D01*
X95238095Y-49452380D01*
X95142857Y-49404761D01*
X95095238Y-49357142D01*
X4666666Y-60952380D02*
X4666666Y-61666666D01*
X4619047Y-61809523D01*
X4523809Y-61904761D01*
X4380952Y-61952380D01*
X4285714Y-61952380D01*
X5047619Y-60952380D02*
X5714285Y-60952380D01*
X5285714Y-61952380D01*
X21452380Y-11166666D02*
X21452380Y-11642857D01*
X20452380Y-11642857D01*
X21452380Y-10309523D02*
X21452380Y-10880952D01*
X21452380Y-10595238D02*
X20452380Y-10595238D01*
X20595238Y-10690476D01*
X20690476Y-10785714D01*
X20738095Y-10880952D01*
X29333333Y-6492380D02*
X28857142Y-6492380D01*
X28857142Y-5492380D01*
X29666666Y-6492380D02*
X29666666Y-5492380D01*
X29904761Y-5492380D01*
X30047619Y-5540000D01*
X30142857Y-5635238D01*
X30190476Y-5730476D01*
X30238095Y-5920952D01*
X30238095Y-6063809D01*
X30190476Y-6254285D01*
X30142857Y-6349523D01*
X30047619Y-6444761D01*
X29904761Y-6492380D01*
X29666666Y-6492380D01*
X31190476Y-6492380D02*
X30619047Y-6492380D01*
X30904761Y-6492380D02*
X30904761Y-5492380D01*
X30809523Y-5635238D01*
X30714285Y-5730476D01*
X30619047Y-5778095D01*
X44303333Y-6492380D02*
X43827142Y-6492380D01*
X43827142Y-5492380D01*
X44636666Y-6492380D02*
X44636666Y-5492380D01*
X44874761Y-5492380D01*
X45017619Y-5540000D01*
X45112857Y-5635238D01*
X45160476Y-5730476D01*
X45208095Y-5920952D01*
X45208095Y-6063809D01*
X45160476Y-6254285D01*
X45112857Y-6349523D01*
X45017619Y-6444761D01*
X44874761Y-6492380D01*
X44636666Y-6492380D01*
X45589047Y-5587619D02*
X45636666Y-5540000D01*
X45731904Y-5492380D01*
X45970000Y-5492380D01*
X46065238Y-5540000D01*
X46112857Y-5587619D01*
X46160476Y-5682857D01*
X46160476Y-5778095D01*
X46112857Y-5920952D01*
X45541428Y-6492380D01*
X46160476Y-6492380D01*
X19333333Y-31492380D02*
X18857142Y-31492380D01*
X18857142Y-30492380D01*
X19666666Y-31492380D02*
X19666666Y-30492380D01*
X19904761Y-30492380D01*
X20047619Y-30540000D01*
X20142857Y-30635238D01*
X20190476Y-30730476D01*
X20238095Y-30920952D01*
X20238095Y-31063809D01*
X20190476Y-31254285D01*
X20142857Y-31349523D01*
X20047619Y-31444761D01*
X19904761Y-31492380D01*
X19666666Y-31492380D01*
X20571428Y-30492380D02*
X21190476Y-30492380D01*
X20857142Y-30873333D01*
X21000000Y-30873333D01*
X21095238Y-30920952D01*
X21142857Y-30968571D01*
X21190476Y-31063809D01*
X21190476Y-31301904D01*
X21142857Y-31397142D01*
X21095238Y-31444761D01*
X21000000Y-31492380D01*
X20714285Y-31492380D01*
X20619047Y-31444761D01*
X20571428Y-31397142D01*
X76452380Y-27666666D02*
X76452380Y-28142857D01*
X75452380Y-28142857D01*
X76452380Y-27333333D02*
X75452380Y-27333333D01*
X75452380Y-27095238D01*
X75500000Y-26952380D01*
X75595238Y-26857142D01*
X75690476Y-26809523D01*
X75880952Y-26761904D01*
X76023809Y-26761904D01*
X76214285Y-26809523D01*
X76309523Y-26857142D01*
X76404761Y-26952380D01*
X76452380Y-27095238D01*
X76452380Y-27333333D01*
X75785714Y-25904761D02*
X76452380Y-25904761D01*
X75404761Y-26142857D02*
X76119047Y-26380952D01*
X76119047Y-25761904D01*
X76452380Y-39666666D02*
X76452380Y-40142857D01*
X75452380Y-40142857D01*
X76452380Y-39333333D02*
X75452380Y-39333333D01*
X75452380Y-39095238D01*
X75500000Y-38952380D01*
X75595238Y-38857142D01*
X75690476Y-38809523D01*
X75880952Y-38761904D01*
X76023809Y-38761904D01*
X76214285Y-38809523D01*
X76309523Y-38857142D01*
X76404761Y-38952380D01*
X76452380Y-39095238D01*
X76452380Y-39333333D01*
X75452380Y-37857142D02*
X75452380Y-38333333D01*
X75928571Y-38380952D01*
X75880952Y-38333333D01*
X75833333Y-38238095D01*
X75833333Y-38000000D01*
X75880952Y-37904761D01*
X75928571Y-37857142D01*
X76023809Y-37809523D01*
X76261904Y-37809523D01*
X76357142Y-37857142D01*
X76404761Y-37904761D01*
X76452380Y-38000000D01*
X76452380Y-38238095D01*
X76404761Y-38333333D01*
X76357142Y-38380952D01*
X76452380Y-51666666D02*
X76452380Y-52142857D01*
X75452380Y-52142857D01*
X76452380Y-51333333D02*
X75452380Y-51333333D01*
X75452380Y-51095238D01*
X75500000Y-50952380D01*
X75595238Y-50857142D01*
X75690476Y-50809523D01*
X75880952Y-50761904D01*
X76023809Y-50761904D01*
X76214285Y-50809523D01*
X76309523Y-50857142D01*
X76404761Y-50952380D01*
X76452380Y-51095238D01*
X76452380Y-51333333D01*
X75452380Y-49904761D02*
X75452380Y-50095238D01*
X75500000Y-50190476D01*
X75547619Y-50238095D01*
X75690476Y-50333333D01*
X75880952Y-50380952D01*
X76261904Y-50380952D01*
X76357142Y-50333333D01*
X76404761Y-50285714D01*
X76452380Y-50190476D01*
X76452380Y-50000000D01*
X76404761Y-49904761D01*
X76357142Y-49857142D01*
X76261904Y-49809523D01*
X76023809Y-49809523D01*
X75928571Y-49857142D01*
X75880952Y-49904761D01*
X75833333Y-50000000D01*
X75833333Y-50190476D01*
X75880952Y-50285714D01*
X75928571Y-50333333D01*
X76023809Y-50380952D01*
X81232476Y-9596380D02*
X81232476Y-8596380D01*
X81565809Y-9310666D01*
X81899142Y-8596380D01*
X81899142Y-9596380D01*
X82899142Y-9596380D02*
X82327714Y-9596380D01*
X82613428Y-9596380D02*
X82613428Y-8596380D01*
X82518190Y-8739238D01*
X82422952Y-8834476D01*
X82327714Y-8882095D01*
X37252380Y-34909523D02*
X36252380Y-34909523D01*
X36966666Y-34576190D01*
X36252380Y-34242857D01*
X37252380Y-34242857D01*
X36347619Y-33814285D02*
X36300000Y-33766666D01*
X36252380Y-33671428D01*
X36252380Y-33433333D01*
X36300000Y-33338095D01*
X36347619Y-33290476D01*
X36442857Y-33242857D01*
X36538095Y-33242857D01*
X36680952Y-33290476D01*
X37252380Y-33861904D01*
X37252380Y-33242857D01*
X85402380Y-20261904D02*
X84402380Y-20261904D01*
X85116666Y-19928571D01*
X84402380Y-19595238D01*
X85402380Y-19595238D01*
X84402380Y-18928571D02*
X84402380Y-18738095D01*
X84450000Y-18642857D01*
X84545238Y-18547619D01*
X84735714Y-18500000D01*
X85069047Y-18500000D01*
X85259523Y-18547619D01*
X85354761Y-18642857D01*
X85402380Y-18738095D01*
X85402380Y-18928571D01*
X85354761Y-19023809D01*
X85259523Y-19119047D01*
X85069047Y-19166666D01*
X84735714Y-19166666D01*
X84545238Y-19119047D01*
X84450000Y-19023809D01*
X84402380Y-18928571D01*
X84402380Y-18214285D02*
X85402380Y-17880952D01*
X84402380Y-17547619D01*
X85402380Y-16690476D02*
X85402380Y-17261904D01*
X85402380Y-16976190D02*
X84402380Y-16976190D01*
X84545238Y-17071428D01*
X84640476Y-17166666D01*
X84688095Y-17261904D01*
X9138095Y-35152380D02*
X9138095Y-34152380D01*
X9471428Y-34866666D01*
X9804761Y-34152380D01*
X9804761Y-35152380D01*
X10471428Y-34152380D02*
X10661904Y-34152380D01*
X10757142Y-34200000D01*
X10852380Y-34295238D01*
X10900000Y-34485714D01*
X10900000Y-34819047D01*
X10852380Y-35009523D01*
X10757142Y-35104761D01*
X10661904Y-35152380D01*
X10471428Y-35152380D01*
X10376190Y-35104761D01*
X10280952Y-35009523D01*
X10233333Y-34819047D01*
X10233333Y-34485714D01*
X10280952Y-34295238D01*
X10376190Y-34200000D01*
X10471428Y-34152380D01*
X11185714Y-34152380D02*
X11519047Y-35152380D01*
X11852380Y-34152380D01*
X12138095Y-34247619D02*
X12185714Y-34200000D01*
X12280952Y-34152380D01*
X12519047Y-34152380D01*
X12614285Y-34200000D01*
X12661904Y-34247619D01*
X12709523Y-34342857D01*
X12709523Y-34438095D01*
X12661904Y-34580952D01*
X12090476Y-35152380D01*
X12709523Y-35152380D01*
X9138095Y-45352380D02*
X9138095Y-44352380D01*
X9471428Y-45066666D01*
X9804761Y-44352380D01*
X9804761Y-45352380D01*
X10471428Y-44352380D02*
X10661904Y-44352380D01*
X10757142Y-44400000D01*
X10852380Y-44495238D01*
X10900000Y-44685714D01*
X10900000Y-45019047D01*
X10852380Y-45209523D01*
X10757142Y-45304761D01*
X10661904Y-45352380D01*
X10471428Y-45352380D01*
X10376190Y-45304761D01*
X10280952Y-45209523D01*
X10233333Y-45019047D01*
X10233333Y-44685714D01*
X10280952Y-44495238D01*
X10376190Y-44400000D01*
X10471428Y-44352380D01*
X11185714Y-44352380D02*
X11519047Y-45352380D01*
X11852380Y-44352380D01*
X12090476Y-44352380D02*
X12709523Y-44352380D01*
X12376190Y-44733333D01*
X12519047Y-44733333D01*
X12614285Y-44780952D01*
X12661904Y-44828571D01*
X12709523Y-44923809D01*
X12709523Y-45161904D01*
X12661904Y-45257142D01*
X12614285Y-45304761D01*
X12519047Y-45352380D01*
X12233333Y-45352380D01*
X12138095Y-45304761D01*
X12090476Y-45257142D01*
X86764380Y-33761904D02*
X85764380Y-33761904D01*
X86478666Y-33428571D01*
X85764380Y-33095238D01*
X86764380Y-33095238D01*
X85764380Y-32428571D02*
X85764380Y-32238095D01*
X85812000Y-32142857D01*
X85907238Y-32047619D01*
X86097714Y-32000000D01*
X86431047Y-32000000D01*
X86621523Y-32047619D01*
X86716761Y-32142857D01*
X86764380Y-32238095D01*
X86764380Y-32428571D01*
X86716761Y-32523809D01*
X86621523Y-32619047D01*
X86431047Y-32666666D01*
X86097714Y-32666666D01*
X85907238Y-32619047D01*
X85812000Y-32523809D01*
X85764380Y-32428571D01*
X85764380Y-31714285D02*
X86764380Y-31380952D01*
X85764380Y-31047619D01*
X86097714Y-30285714D02*
X86764380Y-30285714D01*
X85716761Y-30523809D02*
X86431047Y-30761904D01*
X86431047Y-30142857D01*
X86764380Y-56839904D02*
X85764380Y-56839904D01*
X86478666Y-56506571D01*
X85764380Y-56173238D01*
X86764380Y-56173238D01*
X85764380Y-55506571D02*
X85764380Y-55316095D01*
X85812000Y-55220857D01*
X85907238Y-55125619D01*
X86097714Y-55078000D01*
X86431047Y-55078000D01*
X86621523Y-55125619D01*
X86716761Y-55220857D01*
X86764380Y-55316095D01*
X86764380Y-55506571D01*
X86716761Y-55601809D01*
X86621523Y-55697047D01*
X86431047Y-55744666D01*
X86097714Y-55744666D01*
X85907238Y-55697047D01*
X85812000Y-55601809D01*
X85764380Y-55506571D01*
X85764380Y-54792285D02*
X86764380Y-54458952D01*
X85764380Y-54125619D01*
X85764380Y-53363714D02*
X85764380Y-53554190D01*
X85812000Y-53649428D01*
X85859619Y-53697047D01*
X86002476Y-53792285D01*
X86192952Y-53839904D01*
X86573904Y-53839904D01*
X86669142Y-53792285D01*
X86716761Y-53744666D01*
X86764380Y-53649428D01*
X86764380Y-53458952D01*
X86716761Y-53363714D01*
X86669142Y-53316095D01*
X86573904Y-53268476D01*
X86335809Y-53268476D01*
X86240571Y-53316095D01*
X86192952Y-53363714D01*
X86145333Y-53458952D01*
X86145333Y-53649428D01*
X86192952Y-53744666D01*
X86240571Y-53792285D01*
X86335809Y-53839904D01*
X26272380Y-10166666D02*
X25796190Y-10500000D01*
X26272380Y-10738095D02*
X25272380Y-10738095D01*
X25272380Y-10357142D01*
X25320000Y-10261904D01*
X25367619Y-10214285D01*
X25462857Y-10166666D01*
X25605714Y-10166666D01*
X25700952Y-10214285D01*
X25748571Y-10261904D01*
X25796190Y-10357142D01*
X25796190Y-10738095D01*
X26272380Y-9214285D02*
X26272380Y-9785714D01*
X26272380Y-9500000D02*
X25272380Y-9500000D01*
X25415238Y-9595238D01*
X25510476Y-9690476D01*
X25558095Y-9785714D01*
X13802380Y-56466666D02*
X13326190Y-56800000D01*
X13802380Y-57038095D02*
X12802380Y-57038095D01*
X12802380Y-56657142D01*
X12850000Y-56561904D01*
X12897619Y-56514285D01*
X12992857Y-56466666D01*
X13135714Y-56466666D01*
X13230952Y-56514285D01*
X13278571Y-56561904D01*
X13326190Y-56657142D01*
X13326190Y-57038095D01*
X12897619Y-56085714D02*
X12850000Y-56038095D01*
X12802380Y-55942857D01*
X12802380Y-55704761D01*
X12850000Y-55609523D01*
X12897619Y-55561904D01*
X12992857Y-55514285D01*
X13088095Y-55514285D01*
X13230952Y-55561904D01*
X13802380Y-56133333D01*
X13802380Y-55514285D01*
X17452380Y-65166666D02*
X16976190Y-65500000D01*
X17452380Y-65738095D02*
X16452380Y-65738095D01*
X16452380Y-65357142D01*
X16500000Y-65261904D01*
X16547619Y-65214285D01*
X16642857Y-65166666D01*
X16785714Y-65166666D01*
X16880952Y-65214285D01*
X16928571Y-65261904D01*
X16976190Y-65357142D01*
X16976190Y-65738095D01*
X16452380Y-64833333D02*
X16452380Y-64214285D01*
X16833333Y-64547619D01*
X16833333Y-64404761D01*
X16880952Y-64309523D01*
X16928571Y-64261904D01*
X17023809Y-64214285D01*
X17261904Y-64214285D01*
X17357142Y-64261904D01*
X17404761Y-64309523D01*
X17452380Y-64404761D01*
X17452380Y-64690476D01*
X17404761Y-64785714D01*
X17357142Y-64833333D01*
X49632380Y-10166666D02*
X49156190Y-10500000D01*
X49632380Y-10738095D02*
X48632380Y-10738095D01*
X48632380Y-10357142D01*
X48680000Y-10261904D01*
X48727619Y-10214285D01*
X48822857Y-10166666D01*
X48965714Y-10166666D01*
X49060952Y-10214285D01*
X49108571Y-10261904D01*
X49156190Y-10357142D01*
X49156190Y-10738095D01*
X48965714Y-9309523D02*
X49632380Y-9309523D01*
X48584761Y-9547619D02*
X49299047Y-9785714D01*
X49299047Y-9166666D01*
X27833333Y-36672380D02*
X27500000Y-36196190D01*
X27261904Y-36672380D02*
X27261904Y-35672380D01*
X27642857Y-35672380D01*
X27738095Y-35720000D01*
X27785714Y-35767619D01*
X27833333Y-35862857D01*
X27833333Y-36005714D01*
X27785714Y-36100952D01*
X27738095Y-36148571D01*
X27642857Y-36196190D01*
X27261904Y-36196190D01*
X28690476Y-35672380D02*
X28500000Y-35672380D01*
X28404761Y-35720000D01*
X28357142Y-35767619D01*
X28261904Y-35910476D01*
X28214285Y-36100952D01*
X28214285Y-36481904D01*
X28261904Y-36577142D01*
X28309523Y-36624761D01*
X28404761Y-36672380D01*
X28595238Y-36672380D01*
X28690476Y-36624761D01*
X28738095Y-36577142D01*
X28785714Y-36481904D01*
X28785714Y-36243809D01*
X28738095Y-36148571D01*
X28690476Y-36100952D01*
X28595238Y-36053333D01*
X28404761Y-36053333D01*
X28309523Y-36100952D01*
X28261904Y-36148571D01*
X28214285Y-36243809D01*
X25733333Y-40952380D02*
X25400000Y-40476190D01*
X25161904Y-40952380D02*
X25161904Y-39952380D01*
X25542857Y-39952380D01*
X25638095Y-40000000D01*
X25685714Y-40047619D01*
X25733333Y-40142857D01*
X25733333Y-40285714D01*
X25685714Y-40380952D01*
X25638095Y-40428571D01*
X25542857Y-40476190D01*
X25161904Y-40476190D01*
X26066666Y-39952380D02*
X26733333Y-39952380D01*
X26304761Y-40952380D01*
X87452380Y-26166666D02*
X86976190Y-26500000D01*
X87452380Y-26738095D02*
X86452380Y-26738095D01*
X86452380Y-26357142D01*
X86500000Y-26261904D01*
X86547619Y-26214285D01*
X86642857Y-26166666D01*
X86785714Y-26166666D01*
X86880952Y-26214285D01*
X86928571Y-26261904D01*
X86976190Y-26357142D01*
X86976190Y-26738095D01*
X86880952Y-25595238D02*
X86833333Y-25690476D01*
X86785714Y-25738095D01*
X86690476Y-25785714D01*
X86642857Y-25785714D01*
X86547619Y-25738095D01*
X86500000Y-25690476D01*
X86452380Y-25595238D01*
X86452380Y-25404761D01*
X86500000Y-25309523D01*
X86547619Y-25261904D01*
X86642857Y-25214285D01*
X86690476Y-25214285D01*
X86785714Y-25261904D01*
X86833333Y-25309523D01*
X86880952Y-25404761D01*
X86880952Y-25595238D01*
X86928571Y-25690476D01*
X86976190Y-25738095D01*
X87071428Y-25785714D01*
X87261904Y-25785714D01*
X87357142Y-25738095D01*
X87404761Y-25690476D01*
X87452380Y-25595238D01*
X87452380Y-25404761D01*
X87404761Y-25309523D01*
X87357142Y-25261904D01*
X87261904Y-25214285D01*
X87071428Y-25214285D01*
X86976190Y-25261904D01*
X86928571Y-25309523D01*
X86880952Y-25404761D01*
X87452380Y-38166666D02*
X86976190Y-38500000D01*
X87452380Y-38738095D02*
X86452380Y-38738095D01*
X86452380Y-38357142D01*
X86500000Y-38261904D01*
X86547619Y-38214285D01*
X86642857Y-38166666D01*
X86785714Y-38166666D01*
X86880952Y-38214285D01*
X86928571Y-38261904D01*
X86976190Y-38357142D01*
X86976190Y-38738095D01*
X87452380Y-37690476D02*
X87452380Y-37500000D01*
X87404761Y-37404761D01*
X87357142Y-37357142D01*
X87214285Y-37261904D01*
X87023809Y-37214285D01*
X86642857Y-37214285D01*
X86547619Y-37261904D01*
X86500000Y-37309523D01*
X86452380Y-37404761D01*
X86452380Y-37595238D01*
X86500000Y-37690476D01*
X86547619Y-37738095D01*
X86642857Y-37785714D01*
X86880952Y-37785714D01*
X86976190Y-37738095D01*
X87023809Y-37690476D01*
X87071428Y-37595238D01*
X87071428Y-37404761D01*
X87023809Y-37309523D01*
X86976190Y-37261904D01*
X86880952Y-37214285D01*
X87452380Y-49642857D02*
X86976190Y-49976190D01*
X87452380Y-50214285D02*
X86452380Y-50214285D01*
X86452380Y-49833333D01*
X86500000Y-49738095D01*
X86547619Y-49690476D01*
X86642857Y-49642857D01*
X86785714Y-49642857D01*
X86880952Y-49690476D01*
X86928571Y-49738095D01*
X86976190Y-49833333D01*
X86976190Y-50214285D01*
X87452380Y-48690476D02*
X87452380Y-49261904D01*
X87452380Y-48976190D02*
X86452380Y-48976190D01*
X86595238Y-49071428D01*
X86690476Y-49166666D01*
X86738095Y-49261904D01*
X86452380Y-48071428D02*
X86452380Y-47976190D01*
X86500000Y-47880952D01*
X86547619Y-47833333D01*
X86642857Y-47785714D01*
X86833333Y-47738095D01*
X87071428Y-47738095D01*
X87261904Y-47785714D01*
X87357142Y-47833333D01*
X87404761Y-47880952D01*
X87452380Y-47976190D01*
X87452380Y-48071428D01*
X87404761Y-48166666D01*
X87357142Y-48214285D01*
X87261904Y-48261904D01*
X87071428Y-48309523D01*
X86833333Y-48309523D01*
X86642857Y-48261904D01*
X86547619Y-48214285D01*
X86500000Y-48166666D01*
X86452380Y-48071428D01*
X46957142Y-61252380D02*
X46623809Y-60776190D01*
X46385714Y-61252380D02*
X46385714Y-60252380D01*
X46766666Y-60252380D01*
X46861904Y-60300000D01*
X46909523Y-60347619D01*
X46957142Y-60442857D01*
X46957142Y-60585714D01*
X46909523Y-60680952D01*
X46861904Y-60728571D01*
X46766666Y-60776190D01*
X46385714Y-60776190D01*
X47909523Y-61252380D02*
X47338095Y-61252380D01*
X47623809Y-61252380D02*
X47623809Y-60252380D01*
X47528571Y-60395238D01*
X47433333Y-60490476D01*
X47338095Y-60538095D01*
X48861904Y-61252380D02*
X48290476Y-61252380D01*
X48576190Y-61252380D02*
X48576190Y-60252380D01*
X48480952Y-60395238D01*
X48385714Y-60490476D01*
X48290476Y-60538095D01*
X29276266Y-73807961D02*
X29419123Y-73855580D01*
X29657219Y-73855580D01*
X29752457Y-73807961D01*
X29800076Y-73760342D01*
X29847695Y-73665104D01*
X29847695Y-73569866D01*
X29800076Y-73474628D01*
X29752457Y-73427009D01*
X29657219Y-73379390D01*
X29466742Y-73331771D01*
X29371504Y-73284152D01*
X29323885Y-73236533D01*
X29276266Y-73141295D01*
X29276266Y-73046057D01*
X29323885Y-72950819D01*
X29371504Y-72903200D01*
X29466742Y-72855580D01*
X29704838Y-72855580D01*
X29847695Y-72903200D01*
X30181028Y-72855580D02*
X30419123Y-73855580D01*
X30609600Y-73141295D01*
X30800076Y-73855580D01*
X31038171Y-72855580D01*
X31942933Y-73855580D02*
X31371504Y-73855580D01*
X31657219Y-73855580D02*
X31657219Y-72855580D01*
X31561980Y-72998438D01*
X31466742Y-73093676D01*
X31371504Y-73141295D01*
X24238095Y-15042380D02*
X24238095Y-15851904D01*
X24285714Y-15947142D01*
X24333333Y-15994761D01*
X24428571Y-16042380D01*
X24619047Y-16042380D01*
X24714285Y-15994761D01*
X24761904Y-15947142D01*
X24809523Y-15851904D01*
X24809523Y-15042380D01*
X25809523Y-16042380D02*
X25238095Y-16042380D01*
X25523809Y-16042380D02*
X25523809Y-15042380D01*
X25428571Y-15185238D01*
X25333333Y-15280476D01*
X25238095Y-15328095D01*
X39572380Y-21943904D02*
X40381904Y-21943904D01*
X40477142Y-21896285D01*
X40524761Y-21848666D01*
X40572380Y-21753428D01*
X40572380Y-21562952D01*
X40524761Y-21467714D01*
X40477142Y-21420095D01*
X40381904Y-21372476D01*
X39572380Y-21372476D01*
X39667619Y-20943904D02*
X39620000Y-20896285D01*
X39572380Y-20801047D01*
X39572380Y-20562952D01*
X39620000Y-20467714D01*
X39667619Y-20420095D01*
X39762857Y-20372476D01*
X39858095Y-20372476D01*
X40000952Y-20420095D01*
X40572380Y-20991523D01*
X40572380Y-20372476D01*
X46838095Y-46252380D02*
X46838095Y-47061904D01*
X46885714Y-47157142D01*
X46933333Y-47204761D01*
X47028571Y-47252380D01*
X47219047Y-47252380D01*
X47314285Y-47204761D01*
X47361904Y-47157142D01*
X47409523Y-47061904D01*
X47409523Y-46252380D01*
X47790476Y-46252380D02*
X48409523Y-46252380D01*
X48076190Y-46633333D01*
X48219047Y-46633333D01*
X48314285Y-46680952D01*
X48361904Y-46728571D01*
X48409523Y-46823809D01*
X48409523Y-47061904D01*
X48361904Y-47157142D01*
X48314285Y-47204761D01*
X48219047Y-47252380D01*
X47933333Y-47252380D01*
X47838095Y-47204761D01*
X47790476Y-47157142D01*
X74692380Y-19221904D02*
X75501904Y-19221904D01*
X75597142Y-19174285D01*
X75644761Y-19126666D01*
X75692380Y-19031428D01*
X75692380Y-18840952D01*
X75644761Y-18745714D01*
X75597142Y-18698095D01*
X75501904Y-18650476D01*
X74692380Y-18650476D01*
X75025714Y-17745714D02*
X75692380Y-17745714D01*
X74644761Y-17983809D02*
X75359047Y-18221904D01*
X75359047Y-17602857D01*
X31438095Y-39252380D02*
X31438095Y-40061904D01*
X31485714Y-40157142D01*
X31533333Y-40204761D01*
X31628571Y-40252380D01*
X31819047Y-40252380D01*
X31914285Y-40204761D01*
X31961904Y-40157142D01*
X32009523Y-40061904D01*
X32009523Y-39252380D01*
X32961904Y-39252380D02*
X32485714Y-39252380D01*
X32438095Y-39728571D01*
X32485714Y-39680952D01*
X32580952Y-39633333D01*
X32819047Y-39633333D01*
X32914285Y-39680952D01*
X32961904Y-39728571D01*
X33009523Y-39823809D01*
X33009523Y-40061904D01*
X32961904Y-40157142D01*
X32914285Y-40204761D01*
X32819047Y-40252380D01*
X32580952Y-40252380D01*
X32485714Y-40204761D01*
X32438095Y-40157142D01*
M02*
